0
SECTION
2
HEADER
9
$ACADVER
1
AC1015
9
$INSUNITS
70
4
0
ENDSEC
0
SECTION
2
TABLES
0
TABLE
2
LAYER
70
2
0
LAYER
2
VISIBLE
70
0
62
7
6
CONTINUOUS
0
LAYER
2
HIDDEN
70
0
62
8
6
DASHED
0
ENDTAB
0
ENDSEC
0
SECTION
2
ENTITIES
0
LINE
8
VISIBLE
10
0
20
0
30
0
11
38
21
0
31
0
0
LINE
8
VISIBLE
10
0
20
0
30
0
11
0
21
38
31
0
0
LINE
8
VISIBLE
10
38
20
0
30
0
11
38.115588
21
13.176644
31
0
0
LINE
8
VISIBLE
10
42.476771
20
16.173711
30
0
11
44.312195
21
15.487379
31
0
0
LINE
8
VISIBLE
10
44.38737
20
24.057046
30
0
11
42.540187
21
23.403018
31
0
0
LINE
8
VISIBLE
10
38.232253
20
26.476132
30
0
11
38.347841
21
39.652776
31
0
0
LINE
8
VISIBLE
10
38.347841
20
39.652776
30
0
11
25.817753
21
39.112735
31
0
0
LINE
8
VISIBLE
10
22.598709
20
43.312744
30
0
11
23.189004
21
45.18127
31
0
0
LINE
8
VISIBLE
10
14.626956
20
44.812249
30
0
11
15.375829
21
43.001441
31
0
0
LINE
8
VISIBLE
10
12.530088
20
38.540042
30
0
11
0
21
38
31
0
0
LINE
8
VISIBLE
10
76
20
0
30
0
11
114
21
0
31
0
0
LINE
8
VISIBLE
10
76
20
0
30
0
11
75.75005
21
13.227595
31
0
0
LINE
8
VISIBLE
10
114
20
0
30
0
11
113.461542
21
12.548698
31
0
0
LINE
8
VISIBLE
10
117.662163
20
15.766945
30
0
11
119.530576
21
15.176295
31
0
0
LINE
8
VISIBLE
10
119.163181
20
23.738413
30
0
11
117.352231
21
22.989884
31
0
0
LINE
8
VISIBLE
10
112.891371
20
25.836471
30
0
11
112.352914
21
38.385169
31
0
0
LINE
8
VISIBLE
10
112.352914
20
38.385169
30
0
11
100.446357
21
38.824042
31
0
0
LINE
8
VISIBLE
10
97.572878
20
43.267626
30
0
11
98.310455
21
45.083064
31
0
0
LINE
8
VISIBLE
10
89.746274
20
45.398738
30
0
11
90.348199
21
43.533926
31
0
0
LINE
8
VISIBLE
10
87.155383
20
39.313944
30
0
11
75.248826
21
39.752817
31
0
0
LINE
8
VISIBLE
10
75.248826
20
39.752817
30
0
11
75.498776
21
26.525221
31
0
0
LINE
8
VISIBLE
10
79.890071
20
23.572451
30
0
11
81.718455
21
24.277325
31
0
0
LINE
8
VISIBLE
10
81.880366
20
15.708858
30
0
11
80.026658
21
16.344155
31
0
0
LINE
8
VISIBLE
10
152
20
0
30
0
11
190
21
0
31
0
0
LINE
8
VISIBLE
10
152
20
0
30
0
11
151.687457
21
12.510959
31
0
0
LINE
8
VISIBLE
10
190
20
0
30
0
11
190.382463
21
12.937829
31
0
0
LINE
8
VISIBLE
10
194.804981
20
15.843626
30
0
11
196.625748
21
15.119303
31
0
0
LINE
8
VISIBLE
10
196.87898
20
23.685557
30
0
11
195.018606
21
23.070055
31
0
0
LINE
8
VISIBLE
10
190.77546
20
26.232022
30
0
11
191.157923
21
39.169851
31
0
0
LINE
8
VISIBLE
10
191.157923
20
39.169851
30
0
11
177.748843
21
38.885031
31
0
0
LINE
8
VISIBLE
10
174.806373
20
34.486827
30
0
11
175.515531
21
32.660101
31
0
0
LINE
8
VISIBLE
10
166.947467
20
32.478108
30
0
11
167.578418
21
34.333299
31
0
0
LINE
8
VISIBLE
10
164.451842
20
38.602591
30
0
11
151.042763
21
38.31777
31
0
0
LINE
8
VISIBLE
10
151.042763
20
38.31777
30
0
11
151.355306
21
25.806811
31
0
0
LINE
8
VISIBLE
10
147.097733
20
22.664296
30
0
11
145.240195
21
23.288307
31
0
0
LINE
8
VISIBLE
10
145.454221
20
14.720983
30
0
11
147.278283
21
15.436965
31
0
0
LINE
8
VISIBLE
10
228
20
0
30
0
11
266
21
0
31
0
0
LINE
8
VISIBLE
10
228
20
0
30
0
11
227.622602
21
12.742148
31
0
0
LINE
8
VISIBLE
10
266
20
0
30
0
11
266.448261
21
12.07071
31
0
0
LINE
8
VISIBLE
10
270.892639
20
14.942962
30
0
11
272.707873
21
14.204884
31
0
0
LINE
8
VISIBLE
10
273.025912
20
22.768977
30
0
11
271.160934
21
22.167568
31
0
0
LINE
8
VISIBLE
10
266.941833
20
25.361549
30
0
11
267.390094
21
37.432259
31
0
0
LINE
8
VISIBLE
10
267.390094
20
37.432259
30
0
11
253.767112
21
37.884651
31
0
0
LINE
8
VISIBLE
10
250.589709
20
33.653052
30
0
11
251.19843
21
31.790448
31
0
0
LINE
8
VISIBLE
10
242.633155
20
32.074884
30
0
11
243.364106
21
33.893
31
0
0
LINE
8
VISIBLE
10
240.474439
20
38.326075
30
0
11
226.851457
21
38.778467
31
0
0
LINE
8
VISIBLE
10
226.851457
20
38.778467
30
0
11
227.228855
21
26.036319
31
0
0
LINE
8
VISIBLE
10
222.985887
20
22.874112
30
0
11
221.125478
21
23.48951
31
0
0
LINE
8
VISIBLE
10
221.379194
20
14.923269
30
0
11
223.19992
21
15.647695
31
0
0
LINE
8
VISIBLE
10
38.347841
20
46.002776
30
0
11
50.148358
21
46.034768
31
0
0
LINE
8
VISIBLE
10
38.347841
20
46.002776
30
0
11
37.659396
21
56.910944
31
0
0
LINE
8
VISIBLE
10
53.195306
20
41.708287
30
0
11
52.530095
21
39.865103
31
0
0
LINE
8
VISIBLE
10
61.10006
20
39.888336
30
0
11
60.424865
21
41.727887
31
0
0
LINE
8
VISIBLE
10
63.448309
20
46.070825
30
0
11
75.248826
21
46.102817
31
0
0
LINE
8
VISIBLE
10
75.248826
20
46.102817
30
0
11
75.566452
21
58.300539
31
0
0
LINE
8
VISIBLE
10
79.978717
20
61.221881
30
0
11
81.802021
21
60.50397
31
0
0
LINE
8
VISIBLE
10
82.025106
20
69.071063
30
0
11
80.16691
21
68.449017
31
0
0
LINE
8
VISIBLE
10
75.912663
20
71.596032
30
0
11
76.230288
21
83.793755
31
0
0
LINE
8
VISIBLE
10
76.230288
20
83.793755
30
0
11
62.816716
21
82.890179
31
0
0
LINE
8
VISIBLE
10
59.497033
20
87.011104
30
0
11
60.041963
21
88.89336
31
0
0
LINE
8
VISIBLE
10
51.491345
20
88.317366
30
0
11
52.283794
21
86.5252
31
0
0
LINE
8
VISIBLE
10
49.546789
20
81.996279
30
0
11
36.133217
21
81.092703
31
0
0
LINE
8
VISIBLE
10
36.133217
20
81.092703
30
0
11
36.821662
21
70.184535
31
0
0
LINE
8
VISIBLE
10
32.686725
20
66.882321
30
0
11
30.806792
21
67.435212
31
0
0
LINE
8
VISIBLE
10
31.346595
20
58.882233
30
0
11
33.142098
21
59.667091
31
0
0
LINE
8
VISIBLE
10
112.352914
20
44.735169
30
0
11
125.047848
21
44.713054
31
0
0
LINE
8
VISIBLE
10
112.352914
20
44.735169
30
0
11
112.794892
21
57.513433
31
0
0
LINE
8
VISIBLE
10
128.090602
20
49.042485
30
0
11
127.423605
21
50.885025
31
0
0
LINE
8
VISIBLE
10
135.993589
20
50.870096
30
0
11
135.320177
21
49.029891
31
0
0
LINE
8
VISIBLE
10
138.347828
20
44.689885
30
0
11
151.042763
21
44.66777
31
0
0
LINE
8
VISIBLE
10
151.042763
20
44.66777
30
0
11
150.937141
21
56.49294
31
0
0
LINE
8
VISIBLE
10
146.57548
20
59.48931
30
0
11
144.740165
21
58.802685
31
0
0
LINE
8
VISIBLE
10
144.663621
20
67.37234
30
0
11
146.510908
21
66.718607
31
0
0
LINE
8
VISIBLE
10
150.818351
20
69.792409
30
0
11
150.71273
21
81.617579
31
0
0
LINE
8
VISIBLE
10
150.71273
20
81.617579
30
0
11
138.845314
21
82.247935
31
0
0
LINE
8
VISIBLE
10
135.584458
20
78.080305
30
0
11
136.15605
21
76.205974
31
0
0
LINE
8
VISIBLE
10
127.598117
20
76.660542
30
0
11
128.365049
21
78.463775
31
0
0
LINE
8
VISIBLE
10
125.564036
20
82.953391
30
0
11
113.696621
21
83.583747
31
0
0
LINE
8
VISIBLE
10
113.696621
20
83.583747
30
0
11
113.254642
21
70.805484
31
0
0
LINE
8
VISIBLE
10
117.481856
20
67.62225
30
0
11
119.345298
21
68.228402
31
0
0
LINE
8
VISIBLE
10
119.049053
20
59.663528
30
0
11
117.231947
21
60.396985
31
0
0
LINE
8
VISIBLE
10
191.157923
20
45.519851
30
0
11
202.355089
21
45.397073
31
0
0
LINE
8
VISIBLE
10
191.157923
20
45.519851
30
0
11
190.410896
21
58.213585
31
0
0
LINE
8
VISIBLE
10
205.437642
20
49.698258
30
0
11
204.787667
21
51.54687
31
0
0
LINE
8
VISIBLE
10
213.357148
20
51.452905
30
0
11
212.666793
21
49.618989
31
0
0
LINE
8
VISIBLE
10
215.65429
20
45.251245
30
0
11
226.851457
21
45.128467
31
0
0
LINE
8
VISIBLE
10
226.851457
20
45.128467
30
0
11
227.882596
21
57.981464
31
0
0
LINE
8
VISIBLE
10
223.804474
20
61.353592
30
0
11
221.915402
21
60.832785
31
0
0
LINE
8
VISIBLE
10
222.600733
20
69.375336
30
0
11
224.382614
21
68.560024
31
0
0
LINE
8
VISIBLE
10
228.946178
20
71.238869
30
0
11
229.977317
21
84.091866
31
0
0
LINE
8
VISIBLE
10
229.977317
20
84.091866
30
0
11
216.0799
21
84.123141
31
0
0
LINE
8
VISIBLE
10
213.034945
20
79.795258
30
0
11
213.701005
21
77.95238
31
0
0
LINE
8
VISIBLE
10
205.13103
20
77.971666
30
0
11
205.805378
21
79.811528
31
0
0
LINE
8
VISIBLE
10
202.779933
20
84.153072
30
0
11
188.882516
21
84.184348
31
0
0
LINE
8
VISIBLE
10
188.882516
20
84.184348
30
0
11
189.629542
21
71.490614
31
0
0
LINE
8
VISIBLE
10
194.135094
20
68.715307
30
0
11
195.933915
21
69.492533
31
0
0
LINE
8
VISIBLE
10
196.437388
20
60.937338
30
0
11
194.559821
21
61.498208
31
0
0
LINE
8
VISIBLE
10
267.390094
20
43.782259
30
0
11
279.045847
21
43.963015
31
0
0
LINE
8
VISIBLE
10
267.390094
20
43.782259
30
0
11
267.340377
21
56.428869
31
0
0
LINE
8
VISIBLE
10
282.147903
20
39.675875
30
0
11
281.50633
21
37.824329
31
0
0
LINE
8
VISIBLE
10
290.075297
20
37.957216
30
0
11
289.37662
21
39.787977
31
0
0
LINE
8
VISIBLE
10
292.344248
20
44.169244
30
0
11
304
21
44.35
31
0
0
LINE
8
VISIBLE
10
304
20
44.35
30
0
11
304
21
82.35
31
0
0
LINE
8
VISIBLE
10
304
20
82.35
30
0
11
292.269185
21
82.358097
31
0
0
LINE
8
VISIBLE
10
289.236971
20
86.694917
30
0
11
289.908447
21
88.535828
31
0
0
LINE
8
VISIBLE
10
281.338452
20
88.541744
30
0
11
282.007387
21
86.699907
31
0
0
LINE
8
VISIBLE
10
278.969188
20
82.367278
30
0
11
267.238373
21
82.375376
31
0
0
LINE
8
VISIBLE
10
267.238373
20
82.375376
30
0
11
267.288091
21
69.728766
31
0
0
LINE
8
VISIBLE
10
262.965331
20
66.676541
30
0
11
261.121336
21
67.339503
31
0
0
LINE
8
VISIBLE
10
261.155027
20
58.769572
30
0
11
262.993753
21
59.447012
31
0
0
LINE
8
VISIBLE
10
0
20
88.7
30
0
11
11.420631
21
88.302606
31
0
0
LINE
8
VISIBLE
10
0
20
88.7
30
0
11
0
21
126.7
31
0
0
LINE
8
VISIBLE
10
14.604743
20
92.52916
30
0
11
13.998976
21
94.392727
31
0
0
LINE
8
VISIBLE
10
22.56379
20
94.094704
30
0
11
21.829956
21
92.27775
31
0
0
LINE
8
VISIBLE
10
24.712586
20
87.840097
30
0
11
36.133217
21
87.442703
31
0
0
LINE
8
VISIBLE
10
36.133217
20
87.442703
30
0
11
37.016438
21
99.747219
31
0
0
LINE
8
VISIBLE
10
41.557347
20
102.464288
30
0
11
43.346012
21
101.663968
31
0
0
LINE
8
VISIBLE
10
43.95959
20
110.211971
30
0
11
42.074957
21
109.675321
31
0
0
LINE
8
VISIBLE
10
37.968665
20
113.013088
30
0
11
38.851885
21
125.317604
31
0
0
LINE
8
VISIBLE
10
38.851885
20
125.317604
30
0
11
26.071737
21
125.772337
31
0
0
LINE
8
VISIBLE
10
23.192587
20
130.212249
30
0
11
23.927845
21
132.028627
31
0
0
LINE
8
VISIBLE
10
15.363268
20
132.333365
30
0
11
15.967573
21
130.469323
31
0
0
LINE
8
VISIBLE
10
12.780148
20
126.245267
30
0
11
0
21
126.7
31
0
0
LINE
8
VISIBLE
10
76.230288
20
90.143755
30
0
11
88.313559
21
90.076025
31
0
0
LINE
8
VISIBLE
10
76.230288
20
90.143755
30
0
11
75.964959
21
102.595151
31
0
0
LINE
8
VISIBLE
10
91.373015
20
94.39367
30
0
11
90.713141
21
96.238772
31
0
0
LINE
8
VISIBLE
10
99.283003
20
96.190736
30
0
11
98.602487
21
94.353147
31
0
0
LINE
8
VISIBLE
10
101.61335
20
90.001477
30
0
11
113.696621
21
89.933747
31
0
0
LINE
8
VISIBLE
10
113.696621
20
89.933747
30
0
11
114.099898
21
101.076622
31
0
0
LINE
8
VISIBLE
10
109.877786
20
104.266621
30
0
11
108.013377
21
103.663452
31
0
0
LINE
8
VISIBLE
10
108.323335
20
112.227842
30
0
11
110.139265
21
111.491476
31
0
0
LINE
8
VISIBLE
10
114.580931
20
114.36792
30
0
11
114.984208
21
125.510794
31
0
0
LINE
8
VISIBLE
10
114.984208
20
125.510794
30
0
11
101.833268
21
126.452293
31
0
0
LINE
8
VISIBLE
10
98.496271
20
122.345374
30
0
11
99.033275
21
120.460842
31
0
0
LINE
8
VISIBLE
10
90.485157
20
121.072816
30
0
11
91.285142
21
122.861631
31
0
0
LINE
8
VISIBLE
10
88.567221
20
127.402031
30
0
11
75.416281
21
128.343529
31
0
0
LINE
8
VISIBLE
10
75.416281
20
128.343529
30
0
11
75.681611
21
115.892133
31
0
0
LINE
8
VISIBLE
10
80.080015
20
112.949963
30
0
11
81.906693
21
113.659246
31
0
0
LINE
8
VISIBLE
10
82.089272
20
105.091194
30
0
11
80.234037
21
105.722018
31
0
0
LINE
8
VISIBLE
10
150.71273
20
87.967579
30
0
11
163.162608
21
88.804785
31
0
0
LINE
8
VISIBLE
10
150.71273
20
87.967579
30
0
11
151.007018
21
100.402297
31
0
0
LINE
8
VISIBLE
10
166.481812
20
84.683473
30
0
11
165.936663
21
82.801281
31
0
0
LINE
8
VISIBLE
10
174.487348
20
83.376281
30
0
11
173.695106
21
85.168539
31
0
0
LINE
8
VISIBLE
10
176.432638
20
89.697142
30
0
11
188.882516
21
90.534348
31
0
0
LINE
8
VISIBLE
10
188.882516
20
90.534348
30
0
11
188.791583
21
102.93092
31
0
0
LINE
8
VISIBLE
10
193.103928
20
105.997841
30
0
11
194.950169
21
105.341161
31
0
0
LINE
8
VISIBLE
10
194.887307
20
113.910927
30
0
11
193.050898
21
113.227233
31
0
0
LINE
8
VISIBLE
10
188.694025
20
116.230562
30
0
11
188.603092
21
128.627135
31
0
0
LINE
8
VISIBLE
10
188.603092
20
128.627135
30
0
11
176.744475
21
127.827572
31
0
0
LINE
8
VISIBLE
10
173.424538
20
131.948293
30
0
11
173.969352
21
133.830582
31
0
0
LINE
8
VISIBLE
10
165.418769
20
133.254062
30
0
11
166.21133
21
131.461945
31
0
0
LINE
8
VISIBLE
10
163.474603
20
126.932855
30
0
11
151.615985
21
126.133292
31
0
0
LINE
8
VISIBLE
10
151.615985
20
126.133292
30
0
11
151.321697
21
113.698574
31
0
0
LINE
8
VISIBLE
10
146.916372
20
110.766776
30
0
11
145.09137
21
111.480361
31
0
0
LINE
8
VISIBLE
10
144.888603
20
102.912764
30
0
11
146.74532
21
103.539215
31
0
0
LINE
8
VISIBLE
10
229.977317
20
90.441866
30
0
11
241.96489
21
89.889639
31
0
0
LINE
8
VISIBLE
10
229.977317
20
90.441866
30
0
11
229.628241
21
100.95101
31
0
0
LINE
8
VISIBLE
10
245.196356
20
94.080098
30
0
11
244.611597
21
95.950364
31
0
0
LINE
8
VISIBLE
10
253.172514
20
95.555991
30
0
11
252.418283
21
93.747409
31
0
0
LINE
8
VISIBLE
10
255.2508
20
89.277602
30
0
11
267.238373
21
88.725376
31
0
0
LINE
8
VISIBLE
10
267.238373
20
88.725376
30
0
11
266.541183
21
100.900959
31
0
0
LINE
8
VISIBLE
10
270.695304
20
104.179008
30
0
11
272.571981
21
103.615166
31
0
0
LINE
8
VISIBLE
10
272.082055
20
112.171147
30
0
11
270.282006
21
111.39677
31
0
0
LINE
8
VISIBLE
10
265.780854
20
114.179208
30
0
11
265.083665
21
126.354791
31
0
0
LINE
8
VISIBLE
10
265.083665
20
126.354791
30
0
11
253.604162
21
125.847431
31
0
0
LINE
8
VISIBLE
10
250.76331
20
121.382917
30
0
11
251.514166
21
119.57293
31
0
0
LINE
8
VISIBLE
10
242.952527
20
119.194531
30
0
11
243.540775
21
121.063702
31
0
0
LINE
8
VISIBLE
10
240.317133
20
125.260183
30
0
11
228.83763
21
124.752823
31
0
0
LINE
8
VISIBLE
10
228.83763
20
124.752823
30
0
11
229.186706
21
114.243679
31
0
0
LINE
8
VISIBLE
10
233.619805
20
111.354049
30
0
11
235.437915
21
112.085015
31
0
0
LINE
8
VISIBLE
10
235.722423
20
103.519743
30
0
11
233.859814
21
104.128449
31
0
0
LINE
8
VISIBLE
10
38.851885
20
131.667604
30
0
11
50.506739
21
132.632114
31
0
0
LINE
8
VISIBLE
10
38.851885
20
131.667604
30
0
11
39.117831
21
143.858828
31
0
0
LINE
8
VISIBLE
10
53.174103
20
137.202397
30
0
11
52.354315
21
138.982224
31
0
0
LINE
8
VISIBLE
10
60.895115
20
139.689027
30
0
11
60.379059
21
137.798651
31
0
0
LINE
8
VISIBLE
10
63.761428
20
133.72902
30
0
11
75.416281
21
134.693529
31
0
0
LINE
8
VISIBLE
10
75.416281
20
134.693529
30
0
11
75.461065
21
145.494042
31
0
0
LINE
8
VISIBLE
10
79.808338
20
148.51125
30
0
11
81.646918
21
147.833415
31
0
0
LINE
8
VISIBLE
10
81.682453
20
156.403338
30
0
11
79.838315
21
155.740773
31
0
0
LINE
8
VISIBLE
10
75.516212
20
158.793928
30
0
11
75.560996
21
169.594441
31
0
0
LINE
8
VISIBLE
10
75.560996
20
169.594441
30
0
11
64.267261
21
169.516535
31
0
0
LINE
8
VISIBLE
10
61.202225
20
173.830221
30
0
11
61.859713
21
175.676174
31
0
0
LINE
8
VISIBLE
10
53.28992
20
175.617059
30
0
11
53.972811
21
173.780351
31
0
0
LINE
8
VISIBLE
10
50.967577
20
169.424793
30
0
11
39.673841
21
169.346887
31
0
0
LINE
8
VISIBLE
10
39.673841
20
169.346887
30
0
11
39.407896
21
157.155664
31
0
0
LINE
8
VISIBLE
10
35.008006
20
154.215716
30
0
11
33.181686
21
154.925922
31
0
0
LINE
8
VISIBLE
10
32.99478
20
146.357963
30
0
11
34.850333
21
146.98785
31
0
0
LINE
8
VISIBLE
10
114.984208
20
131.860794
30
0
11
126.651057
21
132.059054
31
0
0
LINE
8
VISIBLE
10
114.984208
20
131.860794
30
0
11
115.043795
21
145.229925
31
0
0
LINE
8
VISIBLE
10
129.759477
20
127.776525
30
0
11
129.120655
21
125.924029
31
0
0
LINE
8
VISIBLE
10
137.689414
20
126.069641
30
0
11
136.988019
21
127.899363
31
0
0
LINE
8
VISIBLE
10
139.949137
20
132.285033
30
0
11
151.615985
21
132.483292
31
0
0
LINE
8
VISIBLE
10
151.615985
20
132.483292
30
0
11
151.644378
21
145.072389
31
0
0
LINE
8
VISIBLE
10
147.31651
20
148.117364
30
0
11
145.473629
21
147.451314
31
0
0
LINE
8
VISIBLE
10
145.492957
20
156.021289
30
0
11
147.332815
21
155.346932
31
0
0
LINE
8
VISIBLE
10
151.674375
20
158.372355
30
0
11
151.702768
21
170.961451
31
0
0
LINE
8
VISIBLE
10
151.702768
20
170.961451
30
0
11
140.080527
21
171.259631
31
0
0
LINE
8
VISIBLE
10
136.935143
20
167.004178
30
0
11
137.557901
21
165.14622
31
0
0
LINE
8
VISIBLE
10
128.990724
20
165.366019
30
0
11
129.707936
21
167.189599
31
0
0
LINE
8
VISIBLE
10
126.784902
20
171.600744
30
0
11
115.162661
21
171.898924
31
0
0
LINE
8
VISIBLE
10
115.162661
20
171.898924
30
0
11
115.103074
21
158.529793
31
0
0
LINE
8
VISIBLE
10
110.754864
20
155.513936
30
0
11
108.916495
21
156.192342
31
0
0
LINE
8
VISIBLE
10
108.878298
20
147.622431
30
0
11
110.722641
21
148.284422
31
0
0
LINE
8
VISIBLE
10
188.603092
20
134.977135
30
0
11
202.100979
21
133.67738
31
0
0
LINE
8
VISIBLE
10
188.603092
20
134.977135
30
0
11
189.554546
21
146.505345
31
0
0
LINE
8
VISIBLE
10
205.537694
20
137.701223
30
0
11
205.04707
21
139.598359
31
0
0
LINE
8
VISIBLE
10
213.577609
20
138.776926
30
0
11
212.733994
21
137.008269
31
0
0
LINE
8
VISIBLE
10
215.339743
20
132.402577
30
0
11
228.83763
21
131.102823
31
0
0
LINE
8
VISIBLE
10
228.83763
20
131.102823
30
0
11
228.673071
21
144.466651
31
0
0
LINE
8
VISIBLE
10
232.970095
20
147.555002
30
0
11
234.819582
21
146.907519
31
0
0
LINE
8
VISIBLE
10
234.71406
20
155.476867
30
0
11
232.881078
21
154.784039
31
0
0
LINE
8
VISIBLE
10
228.509309
20
157.765643
30
0
11
228.344749
21
171.129472
31
0
0
LINE
8
VISIBLE
10
228.344749
20
171.129472
30
0
11
216.622295
21
171.180202
31
0
0
LINE
8
VISIBLE
10
213.568358
20
166.858652
30
0
11
214.230588
21
165.014395
31
0
0
LINE
8
VISIBLE
10
205.660672
20
165.051482
30
0
11
206.33884
21
166.889939
31
0
0
LINE
8
VISIBLE
10
203.32242
20
171.237758
30
0
11
191.599965
21
171.288488
31
0
0
LINE
8
VISIBLE
10
191.599965
20
171.288488
30
0
11
190.648511
21
159.760278
31
0
0
LINE
8
VISIBLE
10
186.07882
20
157.0919
30
0
11
184.298811
21
157.911293
31
0
0
LINE
8
VISIBLE
10
183.593903
20
149.370336
30
0
11
185.484165
21
149.886811
31
0
0
LINE
8
VISIBLE
10
265.083665
20
132.704791
30
0
11
277.892094
21
132.818409
31
0
0
LINE
8
VISIBLE
10
265.083665
20
132.704791
30
0
11
264.922678
21
145.773394
31
0
0
LINE
8
VISIBLE
10
280.965632
20
128.510777
30
0
11
280.311786
21
126.66353
31
0
0
LINE
8
VISIBLE
10
288.881445
20
126.739548
30
0
11
288.194933
21
128.574905
31
0
0
LINE
8
VISIBLE
10
291.191571
20
132.936382
30
0
11
304
21
133.05
31
0
0
LINE
8
VISIBLE
10
304
20
133.05
30
0
11
304
21
171.05
31
0
0
LINE
8
VISIBLE
10
304
20
171.05
30
0
11
290.946385
21
171.411436
31
0
0
LINE
8
VISIBLE
10
288.032317
20
175.828509
30
0
11
288.753232
21
177.650628
31
0
0
LINE
8
VISIBLE
10
280.186518
20
177.887828
30
0
11
280.805501
21
176.028609
31
0
0
LINE
8
VISIBLE
10
277.651481
20
171.779553
30
0
11
264.597866
21
172.140989
31
0
0
LINE
8
VISIBLE
10
264.597866
20
172.140989
30
0
11
264.758853
21
159.072385
31
0
0
LINE
8
VISIBLE
10
260.461843
20
155.984015
30
0
11
258.612353
21
156.631488
31
0
0
LINE
8
VISIBLE
10
258.717915
20
148.062141
30
0
11
260.550895
21
148.754978
31
0
0
LINE
8
VISIBLE
10
0
20
177.4
30
0
11
13.19304
21
176.833651
31
0
0
LINE
8
VISIBLE
10
0
20
177.4
30
0
11
0
21
215.4
31
0
0
LINE
8
VISIBLE
10
16.411363
20
181.034213
30
0
11
15.820748
21
182.902637
31
0
0
LINE
8
VISIBLE
10
24.382859
20
182.535084
30
0
11
23.634297
21
180.724148
31
0
0
LINE
8
VISIBLE
10
26.480802
20
176.263236
30
0
11
39.673841
21
175.696887
31
0
0
LINE
8
VISIBLE
10
39.673841
20
175.696887
30
0
11
39.469106
21
188.594216
31
0
0
LINE
8
VISIBLE
10
35.086751
20
191.560239
30
0
11
33.256246
21
190.860891
31
0
0
LINE
8
VISIBLE
10
33.120221
20
199.429808
30
0
11
34.972001
21
198.788914
31
0
0
LINE
8
VISIBLE
10
39.258004
20
201.89254
30
0
11
39.053268
21
214.789869
31
0
0
LINE
8
VISIBLE
10
39.053268
20
214.789869
30
0
11
26.175823
21
214.991054
31
0
0
LINE
8
VISIBLE
10
23.208699
20
219.372663
30
0
11
23.907587
21
221.203344
31
0
0
LINE
8
VISIBLE
10
15.338636
20
221.337217
30
0
11
15.979996
21
219.485598
31
0
0
LINE
8
VISIBLE
10
12.877446
20
215.198815
30
0
11
0
21
215.4
31
0
0
LINE
8
VISIBLE
10
75.560996
20
175.944441
30
0
11
88.723059
21
176.710362
31
0
0
LINE
8
VISIBLE
10
75.560996
20
175.944441
30
0
11
75.888027
21
188.730325
31
0
0
LINE
8
VISIBLE
10
91.501322
20
181.214091
30
0
11
90.725277
21
183.013422
31
0
0
LINE
8
VISIBLE
10
99.2808
20
183.511281
30
0
11
98.718698
21
181.634082
31
0
0
LINE
8
VISIBLE
10
102.000598
20
177.483003
30
0
11
115.162661
21
178.248924
31
0
0
LINE
8
VISIBLE
10
115.162661
20
178.248924
30
0
11
115.225991
21
189.954371
31
0
0
LINE
8
VISIBLE
10
110.907751
20
193.012986
30
0
11
109.062777
21
192.352753
31
0
0
LINE
8
VISIBLE
10
109.109143
20
200.922624
30
0
11
110.946865
21
200.242466
31
0
0
LINE
8
VISIBLE
10
115.297948
20
203.254177
30
0
11
115.361278
21
214.959624
31
0
0
LINE
8
VISIBLE
10
115.361278
20
214.959624
30
0
11
102.608155
21
214.911064
31
0
0
LINE
8
VISIBLE
10
99.556464
20
219.2342
30
0
11
100.219653
21
221.078113
31
0
0
LINE
8
VISIBLE
10
91.649719
20
221.045481
30
0
11
92.326931
21
219.206672
31
0
0
LINE
8
VISIBLE
10
89.308251
20
214.860421
30
0
11
76.555128
21
214.811861
31
0
0
LINE
8
VISIBLE
10
76.555128
20
214.811861
30
0
11
76.228097
21
202.025977
31
0
0
LINE
8
VISIBLE
10
71.817181
20
199.102597
30
0
11
69.993545
21
199.819666
31
0
0
LINE
8
VISIBLE
10
69.774418
20
191.252471
30
0
11
71.632327
21
191.875375
31
0
0
LINE
8
VISIBLE
10
151.702768
20
177.311451
30
0
11
165.00159
21
177.420461
31
0
0
LINE
8
VISIBLE
10
151.702768
20
177.311451
30
0
11
151.895192
21
190.191188
31
0
0
LINE
8
VISIBLE
10
168.001165
20
181.77992
30
0
11
167.315888
21
183.615739
31
0
0
LINE
8
VISIBLE
10
175.885597
20
183.685985
30
0
11
175.230508
21
181.839179
31
0
0
LINE
8
VISIBLE
10
178.301143
20
177.529478
30
0
11
191.599965
21
177.638488
31
0
0
LINE
8
VISIBLE
10
191.599965
20
177.638488
30
0
11
190.557706
21
189.631651
31
0
0
LINE
8
VISIBLE
10
185.976475
20
192.280169
30
0
11
184.20004
21
191.453057
31
0
0
LINE
8
VISIBLE
10
183.458066
20
199.990874
30
0
11
185.350551
21
199.482608
31
0
0
LINE
8
VISIBLE
10
189.406217
20
202.881711
30
0
11
188.363958
21
214.874874
31
0
0
LINE
8
VISIBLE
10
188.363958
20
214.874874
30
0
11
176.969428
21
215.346908
31
0
0
LINE
8
VISIBLE
10
174.11624
20
219.803548
30
0
11
174.862088
21
221.615605
31
0
0
LINE
8
VISIBLE
10
166.299435
20
221.970324
30
0
11
166.89285
21
220.102787
31
0
0
LINE
8
VISIBLE
10
163.680826
20
215.897407
30
0
11
152.286296
21
216.369441
31
0
0
LINE
8
VISIBLE
10
152.286296
20
216.369441
30
0
11
152.093872
21
203.489704
31
0
0
LINE
8
VISIBLE
10
147.71429
20
200.51959
30
0
11
145.883133
21
201.217227
31
0
0
LINE
8
VISIBLE
10
145.755111
20
192.648187
30
0
11
147.606292
21
193.290811
31
0
0
LINE
8
VISIBLE
10
228.344749
20
177.479472
30
0
11
239.823895
21
177.799758
31
0
0
LINE
8
VISIBLE
10
228.344749
20
177.479472
30
0
11
227.594736
21
189.99269
31
0
0
LINE
8
VISIBLE
10
242.978819
20
173.551373
30
0
11
242.360232
21
171.692022
31
0
0
LINE
8
VISIBLE
10
250.926895
20
171.931045
30
0
11
250.205593
21
173.753011
31
0
0
LINE
8
VISIBLE
10
253.118721
20
178.170703
30
0
11
264.597866
21
178.490989
31
0
0
LINE
8
VISIBLE
10
264.597866
20
178.490989
30
0
11
265.228479
21
191.08459
31
0
0
LINE
8
VISIBLE
10
269.709575
20
193.899213
30
0
11
271.515127
21
193.137756
31
0
0
LINE
8
VISIBLE
10
271.943725
20
201.697029
30
0
11
270.071137
21
201.119752
31
0
0
LINE
8
VISIBLE
10
265.893632
20
204.367947
30
0
11
266.524245
21
216.961547
31
0
0
LINE
8
VISIBLE
10
266.524245
20
216.961547
30
0
11
252.93379
21
216.565516
31
0
0
LINE
8
VISIBLE
10
250.026133
20
212.144221
30
0
11
250.74969
21
210.323149
31
0
0
LINE
8
VISIBLE
10
242.183329
20
210.073522
30
0
11
242.799615
21
211.933637
31
0
0
LINE
8
VISIBLE
10
239.639434
20
216.178114
30
0
11
226.048979
21
215.782083
31
0
0
LINE
8
VISIBLE
10
226.048979
20
215.782083
30
0
11
226.798993
21
203.268864
31
0
0
LINE
8
VISIBLE
10
222.65363
20
199.979746
30
0
11
220.775456
21
200.538581
31
0
0
LINE
8
VISIBLE
10
221.288202
20
191.983937
30
0
11
223.086179
21
192.763112
31
0
0
LINE
8
VISIBLE
10
39.053268
20
221.139869
30
0
11
51.154199
21
221.146965
31
0
0
LINE
8
VISIBLE
10
39.053268
20
221.139869
30
0
11
38.707976
21
233.797407
31
0
0
LINE
8
VISIBLE
10
54.186864
20
225.483469
30
0
11
53.515579
21
227.324451
31
0
0
LINE
8
VISIBLE
10
62.085574
20
227.329476
30
0
11
61.416448
21
225.487709
31
0
0
LINE
8
VISIBLE
10
64.454197
20
221.154765
30
0
11
76.555128
21
221.161861
31
0
0
LINE
8
VISIBLE
10
76.555128
20
221.161861
30
0
11
76.373221
21
233.806618
31
0
0
LINE
8
VISIBLE
10
71.995284
20
236.779159
30
0
11
70.163741
21
236.082535
31
0
0
LINE
8
VISIBLE
10
70.040466
20
244.651645
30
0
11
71.89129
21
244.007997
31
0
0
LINE
8
VISIBLE
10
76.181907
20
247.105242
30
0
11
76
21
259.75
31
0
0
LINE
8
VISIBLE
10
76
20
259.75
30
0
11
38
21
259.75
31
0
0
LINE
8
VISIBLE
10
38
20
259.75
30
0
11
38.345292
21
247.092461
31
0
0
LINE
8
VISIBLE
10
42.761174
20
244.176589
30
0
11
44.583587
21
244.896758
31
0
0
LINE
8
VISIBLE
10
44.817286
20
236.329948
30
0
11
42.958321
21
236.949691
31
0
0
LINE
8
VISIBLE
10
115.361278
20
221.309624
30
0
11
127.178629
21
221.760817
31
0
0
LINE
8
VISIBLE
10
115.361278
20
221.309624
30
0
11
114.915986
21
233.883978
31
0
0
LINE
8
VISIBLE
10
130.046244
20
226.208188
30
0
11
129.306273
21
228.022651
31
0
0
LINE
8
VISIBLE
10
137.87003
20
228.34962
30
0
11
137.270566
21
226.484016
31
0
0
LINE
8
VISIBLE
10
140.468945
20
222.268249
30
0
11
152.286296
21
222.719441
31
0
0
LINE
8
VISIBLE
10
152.286296
20
222.719441
30
0
11
152.19456
21
234.584919
31
0
0
LINE
8
VISIBLE
10
156.50569
20
237.653548
30
0
11
158.352191
21
236.997599
31
0
0
LINE
8
VISIBLE
10
158.285935
20
245.567339
30
0
11
156.449797
21
244.882918
31
0
0
LINE
8
VISIBLE
10
152.091736
20
247.884522
30
0
11
152
21
259.75
31
0
0
LINE
8
VISIBLE
10
152
20
259.75
30
0
11
114
21
259.75
31
0
0
LINE
8
VISIBLE
10
114
20
259.75
30
0
11
114.445292
21
247.175646
31
0
0
LINE
8
VISIBLE
10
110.2207
20
243.988932
30
0
11
108.35676
21
244.593551
31
0
0
LINE
8
VISIBLE
10
108.660057
20
236.028923
30
0
11
110.476559
21
236.763876
31
0
0
LINE
8
VISIBLE
10
188.363958
20
221.224874
30
0
11
200.558395
21
221.518436
31
0
0
LINE
8
VISIBLE
10
188.363958
20
221.224874
30
0
11
188.899829
21
233.843425
31
0
0
LINE
8
VISIBLE
10
203.697045
20
217.258013
30
0
11
203.071349
21
215.401043
31
0
0
LINE
8
VISIBLE
10
211.638863
20
215.607292
30
0
11
210.924536
21
217.432004
31
0
0
LINE
8
VISIBLE
10
213.854543
20
221.83852
30
0
11
226.048979
21
222.132083
31
0
0
LINE
8
VISIBLE
10
226.048979
20
222.132083
30
0
11
226.680056
21
234.299967
31
0
0
LINE
8
VISIBLE
10
231.16617
20
237.106585
30
0
11
232.97036
21
236.341906
31
0
0
LINE
8
VISIBLE
10
233.414239
20
244.9004
30
0
11
231.540623
21
244.326467
31
0
0
LINE
8
VISIBLE
10
227.368923
20
247.582115
30
0
11
228
21
259.75
31
0
0
LINE
8
VISIBLE
10
228
20
259.75
30
0
11
190
21
259.75
31
0
0
LINE
8
VISIBLE
10
190
20
259.75
30
0
11
189.46413
21
247.131449
31
0
0
LINE
8
VISIBLE
10
193.666171
20
243.915058
30
0
11
195.534324
21
244.506533
31
0
0
LINE
8
VISIBLE
10
195.17071
20
235.944254
30
0
11
193.35943
21
236.691983
31
0
0
LINE
8
VISIBLE
10
266.524245
20
223.311547
30
0
11
278.617888
21
222.807627
31
0
0
LINE
8
VISIBLE
10
266.524245
20
223.311547
30
0
11
266.357787
21
234.881462
31
0
0
LINE
8
VISIBLE
10
281.47
20
218.350298
30
0
11
280.723715
21
216.538422
31
0
0
LINE
8
VISIBLE
10
289.286282
20
216.181635
30
0
11
288.693318
21
218.049315
31
0
0
LINE
8
VISIBLE
10
291.906357
20
222.25392
30
0
11
304
21
221.75
31
0
0
LINE
8
VISIBLE
10
304
20
221.75
30
0
11
304
21
259.75
31
0
0
LINE
8
VISIBLE
10
304
20
259.75
30
0
11
266
21
259.75
31
0
0
LINE
8
VISIBLE
10
266
20
259.75
30
0
11
266.166458
21
248.180085
31
0
0
LINE
8
VISIBLE
10
261.875845
20
245.082835
30
0
11
260.025019
21
245.726481
31
0
0
LINE
8
VISIBLE
10
260.148304
20
237.157372
30
0
11
261.979847
21
237.853997
31
0
0
ARC
8
VISIBLE
10
12.391006
20
41.767046
30
0
40
3.23
50
272.467897
51
22.467897
0
ARC
8
VISIBLE
10
18.840824
20
46.554925
30
0
40
4.56
50
342.467897
51
202.467897
0
ARC
8
VISIBLE
10
25.67867
20
42.339739
30
0
40
3.23
50
162.467897
51
272.467897
0
ARC
8
VISIBLE
10
41.462129
20
26.447799
30
0
40
3.23
50
179.497404
51
289.497404
0
ARC
8
VISIBLE
10
45.909334
20
19.758532
30
0
40
4.56
50
249.497404
51
109.497404
0
ARC
8
VISIBLE
10
41.345464
20
13.148311
30
0
40
3.23
50
69.497404
51
179.497404
0
ARC
8
VISIBLE
10
78.979473
20
13.288619
30
0
40
3.23
50
71.082539
51
181.082539
0
ARC
8
VISIBLE
10
83.358744
20
20.022557
30
0
40
4.56
50
251.082539
51
111.082539
0
ARC
8
VISIBLE
10
78.7282
20
26.586245
30
0
40
3.23
50
181.082539
51
291.082539
0
ARC
8
VISIBLE
10
87.274359
20
42.541752
30
0
40
3.23
50
267.889048
51
17.889048
0
ARC
8
VISIBLE
10
94.085813
20
46.799455
30
0
40
4.56
50
337.889048
51
197.889048
0
ARC
8
VISIBLE
10
100.565333
20
42.05185
30
0
40
3.23
50
157.889048
51
267.889048
0
ARC
8
VISIBLE
10
116.118402
20
25.974941
30
0
40
3.23
50
182.457023
51
292.457023
0
ARC
8
VISIBLE
10
120.905056
20
19.524215
30
0
40
4.56
50
252.457023
51
112.457023
0
ARC
8
VISIBLE
10
116.688573
20
12.687168
30
0
40
3.23
50
72.457023
51
182.457023
0
ARC
8
VISIBLE
10
148.458464
20
12.430294
30
0
40
3.23
50
1.43104
51
111.43104
0
ARC
8
VISIBLE
10
143.788083
20
18.965695
30
0
40
4.56
50
71.43104
51
291.43104
0
ARC
8
VISIBLE
10
148.126313
20
25.726146
30
0
40
3.23
50
251.43104
51
1.43104
0
ARC
8
VISIBLE
10
164.520435
20
35.373319
30
0
40
3.23
50
341.216829
51
91.216829
0
ARC
8
VISIBLE
10
171.264619
20
31.009844
30
0
40
4.56
50
161.216829
51
21.216829
0
ARC
8
VISIBLE
10
177.817435
20
35.655759
30
0
40
3.23
50
91.216829
51
201.216829
0
ARC
8
VISIBLE
10
194.00405
20
26.13658
30
0
40
3.23
50
178.306739
51
288.306739
0
ARC
8
VISIBLE
10
198.311295
20
19.356346
30
0
40
4.56
50
248.306739
51
108.306739
0
ARC
8
VISIBLE
10
193.611052
20
12.842387
30
0
40
3.23
50
68.306739
51
178.306739
0
ARC
8
VISIBLE
10
224.394018
20
12.646524
30
0
40
3.23
50
1.696494
51
111.696494
0
ARC
8
VISIBLE
10
219.693408
20
19.160217
30
0
40
4.56
50
71.696494
51
291.696494
0
ARC
8
VISIBLE
10
224.00027
20
25.940694
30
0
40
3.23
50
251.696494
51
1.696494
0
ARC
8
VISIBLE
10
240.367236
20
35.097854
30
0
40
3.23
50
338.09802
51
88.09802
0
ARC
8
VISIBLE
10
246.864029
20
30.373914
30
0
40
4.56
50
158.09802
51
18.09802
0
ARC
8
VISIBLE
10
253.659909
20
34.656431
30
0
40
3.23
50
88.09802
51
198.09802
0
ARC
8
VISIBLE
10
270.169608
20
25.241681
30
0
40
3.23
50
177.873226
51
287.873226
0
ARC
8
VISIBLE
10
274.42543
20
18.429052
30
0
40
4.56
50
247.873226
51
107.873226
0
ARC
8
VISIBLE
10
269.676036
20
11.950843
30
0
40
3.23
50
67.873226
51
177.873226
0
ARC
8
VISIBLE
10
34.43581
20
56.707495
30
0
40
3.23
50
3.611308
51
113.611308
0
ARC
8
VISIBLE
10
29.520178
20
63.060487
30
0
40
4.56
50
73.611308
51
293.611308
0
ARC
8
VISIBLE
10
33.598076
20
69.981085
30
0
40
3.23
50
253.611308
51
3.611308
0
ARC
8
VISIBLE
10
49.329699
20
85.218975
30
0
40
3.23
50
273.853783
51
23.853783
0
ARC
8
VISIBLE
10
55.661831
20
90.161449
30
0
40
4.56
50
343.853783
51
203.853783
0
ARC
8
VISIBLE
10
62.599626
20
86.112875
30
0
40
3.23
50
163.853783
51
273.853783
0
ARC
8
VISIBLE
10
79.141568
20
71.511953
30
0
40
3.23
50
178.508371
51
288.508371
0
ARC
8
VISIBLE
10
83.472647
20
64.746918
30
0
40
4.56
50
248.508371
51
108.508371
0
ARC
8
VISIBLE
10
78.795357
20
58.216459
30
0
40
3.23
50
68.508371
51
178.508371
0
ARC
8
VISIBLE
10
63.457066
20
42.840837
30
0
40
3.23
50
90.155331
51
200.155331
0
ARC
8
VISIBLE
10
56.819306
20
38.317113
30
0
40
4.56
50
160.155331
51
20.155331
0
ARC
8
VISIBLE
10
50.157115
20
42.80478
30
0
40
3.23
50
340.155331
51
90.155331
0
ARC
8
VISIBLE
10
116.022962
20
57.401779
30
0
40
3.23
50
68.019025
51
178.019025
0
ARC
8
VISIBLE
10
120.755855
20
63.892053
30
0
40
4.56
50
248.019025
51
108.019025
0
ARC
8
VISIBLE
10
116.482712
20
70.69383
30
0
40
3.23
50
178.019025
51
288.019025
0
ARC
8
VISIBLE
10
125.392711
20
79.727938
30
0
40
3.23
50
336.959503
51
86.959503
0
ARC
8
VISIBLE
10
131.794359
20
74.875841
30
0
40
4.56
50
156.959503
51
16.959503
0
ARC
8
VISIBLE
10
138.673989
20
79.022482
30
0
40
3.23
50
86.959503
51
196.959503
0
ARC
8
VISIBLE
10
147.58848
20
69.763561
30
0
40
3.23
50
250.511748
51
0.511748
0
ARC
8
VISIBLE
10
143.142343
20
63.073583
30
0
40
4.56
50
70.511748
51
290.511748
0
ARC
8
VISIBLE
10
147.70727
20
56.464091
30
0
40
3.23
50
0.511748
51
110.511748
0
ARC
8
VISIBLE
10
138.353455
20
47.91988
30
0
40
3.23
50
159.900189
51
269.900189
0
ARC
8
VISIBLE
10
131.711314
20
52.43717
30
0
40
4.56
50
339.900189
51
199.900189
0
ARC
8
VISIBLE
10
125.053475
20
47.943049
30
0
40
3.23
50
269.900189
51
19.900189
0
ARC
8
VISIBLE
10
193.635317
20
58.403343
30
0
40
3.23
50
73.367974
51
183.367974
0
ARC
8
VISIBLE
10
197.74257
20
65.30656
30
0
40
4.56
50
253.367974
51
113.367974
0
ARC
8
VISIBLE
10
192.853964
20
71.680371
30
0
40
3.23
50
183.367974
51
293.367974
0
ARC
8
VISIBLE
10
202.772664
20
80.92308
30
0
40
3.23
50
339.871058
51
89.871058
0
ARC
8
VISIBLE
10
209.412508
20
76.402415
30
0
40
4.56
50
159.871058
51
19.871058
0
ARC
8
VISIBLE
10
216.072631
20
80.893149
30
0
40
3.23
50
89.871058
51
199.871058
0
ARC
8
VISIBLE
10
225.726523
20
71.497167
30
0
40
3.23
50
245.413238
51
355.413238
0
ARC
8
VISIBLE
10
220.70345
20
65.22878
30
0
40
4.56
50
65.413238
51
285.413238
0
ARC
8
VISIBLE
10
224.66294
20
58.239762
30
0
40
3.23
50
355.413238
51
105.413238
0
ARC
8
VISIBLE
10
215.689705
20
48.481051
30
0
40
3.23
50
159.371769
51
269.371769
0
ARC
8
VISIBLE
10
209.089508
20
53.059406
30
0
40
4.56
50
339.371769
51
199.371769
0
ARC
8
VISIBLE
10
202.390505
20
48.626879
30
0
40
3.23
50
269.371769
51
19.371769
0
ARC
8
VISIBLE
10
264.110401
20
56.416171
30
0
40
3.23
50
0.225246
51
110.225246
0
ARC
8
VISIBLE
10
259.578582
20
63.048406
30
0
40
4.56
50
70.225246
51
290.225246
0
ARC
8
VISIBLE
10
264.058116
20
69.716068
30
0
40
3.23
50
250.225246
51
0.225246
0
ARC
8
VISIBLE
10
278.971418
20
85.597277
30
0
40
3.23
50
269.96045
51
19.96045
0
ARC
8
VISIBLE
10
285.624526
20
90.098397
30
0
40
4.56
50
339.96045
51
199.96045
0
ARC
8
VISIBLE
10
292.271414
20
85.588097
30
0
40
3.23
50
159.96045
51
269.96045
0
ARC
8
VISIBLE
10
292.394332
20
40.939633
30
0
40
3.23
50
90.888463
51
200.888463
0
ARC
8
VISIBLE
10
285.814997
20
36.331348
30
0
40
4.56
50
160.888463
51
20.888463
0
ARC
8
VISIBLE
10
279.095931
20
40.733403
30
0
40
3.23
50
340.888463
51
90.888463
0
ARC
8
VISIBLE
10
12.895003
20
129.473225
30
0
40
3.23
50
267.962208
51
17.962208
0
ARC
8
VISIBLE
10
19.701014
20
133.739621
30
0
40
4.56
50
337.962208
51
197.962208
0
ARC
8
VISIBLE
10
26.186592
20
129.000294
30
0
40
3.23
50
157.962208
51
267.962208
0
ARC
8
VISIBLE
10
41.190376
20
112.781833
30
0
40
3.23
50
175.894339
51
285.894339
0
ARC
8
VISIBLE
10
45.208411
20
105.826308
30
0
40
4.56
50
245.894339
51
105.894339
0
ARC
8
VISIBLE
10
40.238149
20
99.515964
30
0
40
3.23
50
65.894339
51
175.894339
0
ARC
8
VISIBLE
10
24.82491
20
91.068143
30
0
40
3.23
50
158.007131
51
268.007131
0
ARC
8
VISIBLE
10
18.335619
20
95.802384
30
0
40
4.56
50
338.007131
51
198.007131
0
ARC
8
VISIBLE
10
11.532954
20
91.530652
30
0
40
3.23
50
268.007131
51
18.007131
0
ARC
8
VISIBLE
10
79.194226
20
102.663964
30
0
40
3.23
50
71.220742
51
181.220742
0
ARC
8
VISIBLE
10
83.55724
20
109.408446
30
0
40
4.56
50
251.220742
51
111.220742
0
ARC
8
VISIBLE
10
78.910878
20
115.960946
30
0
40
3.23
50
181.220742
51
291.220742
0
ARC
8
VISIBLE
10
88.336571
20
124.180277
30
0
40
3.23
50
335.905085
51
85.905085
0
ARC
8
VISIBLE
10
94.647846
20
119.211199
30
0
40
4.56
50
155.905085
51
15.905085
0
ARC
8
VISIBLE
10
101.602617
20
123.230538
30
0
40
3.23
50
85.905085
51
195.905085
0
ARC
8
VISIBLE
10
111.353044
20
114.484742
30
0
40
3.23
50
247.927283
51
357.927283
0
ARC
8
VISIBLE
10
106.609764
20
108.002055
30
0
40
4.56
50
67.927283
51
287.927283
0
ARC
8
VISIBLE
10
110.872012
20
101.193444
30
0
40
3.23
50
357.927283
51
107.927283
0
ARC
8
VISIBLE
10
101.631454
20
93.231426
30
0
40
3.23
50
159.678847
51
269.678847
0
ARC
8
VISIBLE
10
95.006814
20
97.774341
30
0
40
4.56
50
339.678847
51
199.678847
0
ARC
8
VISIBLE
10
88.331663
20
93.305975
30
0
40
3.23
50
269.678847
51
19.678847
0
ARC
8
VISIBLE
10
147.777922
20
100.478719
30
0
40
3.23
50
358.644252
51
108.644252
0
ARC
8
VISIBLE
10
143.430812
20
107.233463
30
0
40
4.56
50
68.644252
51
288.644252
0
ARC
8
VISIBLE
10
148.092601
20
113.774996
30
0
40
3.23
50
248.644252
51
358.644252
0
ARC
8
VISIBLE
10
163.257315
20
130.155538
30
0
40
3.23
50
273.857309
51
23.857309
0
ARC
8
VISIBLE
10
169.589143
20
135.098401
30
0
40
4.56
50
343.857309
51
203.857309
0
ARC
8
VISIBLE
10
176.527186
20
131.050255
30
0
40
3.23
50
163.857309
51
273.857309
0
ARC
8
VISIBLE
10
191.923939
20
116.254255
30
0
40
3.23
50
180.420276
51
290.420276
0
ARC
8
VISIBLE
10
196.478307
20
109.637484
30
0
40
4.56
50
250.420276
51
110.420276
0
ARC
8
VISIBLE
10
192.021496
20
102.954613
30
0
40
3.23
50
70.420276
51
180.420276
0
ARC
8
VISIBLE
10
176.649353
20
86.474421
30
0
40
3.23
50
93.847125
51
203.847125
0
ARC
8
VISIBLE
10
170.316647
20
81.532683
30
0
40
4.56
50
163.847125
51
23.847125
0
ARC
8
VISIBLE
10
163.379323
20
85.582063
30
0
40
3.23
50
343.847125
51
93.847125
0
ARC
8
VISIBLE
10
232.856461
20
101.05824
30
0
40
3.23
50
71.902461
51
181.902461
0
ARC
8
VISIBLE
10
237.138921
20
107.854155
30
0
40
4.56
50
251.902461
51
111.902461
0
ARC
8
VISIBLE
10
232.414926
20
114.350909
30
0
40
3.23
50
181.902461
51
291.902461
0
ARC
8
VISIBLE
10
240.45975
20
122.033333
30
0
40
3.23
50
342.530658
51
92.530658
0
ARC
8
VISIBLE
10
247.30221
20
117.82564
30
0
40
4.56
50
162.530658
51
22.530658
0
ARC
8
VISIBLE
10
253.746779
20
122.620581
30
0
40
3.23
50
92.530658
51
202.530658
0
ARC
8
VISIBLE
10
269.005572
20
114.363859
30
0
40
3.23
50
183.277251
51
293.277251
0
ARC
8
VISIBLE
10
273.884079
20
107.982315
30
0
40
4.56
50
253.277251
51
113.277251
0
ARC
8
VISIBLE
10
269.765901
20
101.08561
30
0
40
3.23
50
73.277251
51
183.277251
0
ARC
8
VISIBLE
10
255.399438
20
92.50418
30
0
40
3.23
50
157.362443
51
267.362443
0
ARC
8
VISIBLE
10
248.963825
20
97.311137
30
0
40
4.56
50
337.362443
51
197.362443
0
ARC
8
VISIBLE
10
242.113527
20
93.116217
30
0
40
3.23
50
267.362443
51
17.362443
0
ARC
8
VISIBLE
10
35.8886
20
143.929272
30
0
40
3.23
50
358.750317
51
108.750317
0
ARC
8
VISIBLE
10
31.528992
20
150.675957
30
0
40
4.56
50
68.750317
51
288.750317
0
ARC
8
VISIBLE
10
36.178664
20
157.226108
30
0
40
3.23
50
248.750317
51
358.750317
0
ARC
8
VISIBLE
10
50.945297
20
172.654716
30
0
40
3.23
50
270.395226
51
20.395226
0
ARC
8
VISIBLE
10
57.564058
20
177.206191
30
0
40
4.56
50
340.395226
51
200.395226
0
ARC
8
VISIBLE
10
64.24498
20
172.746458
30
0
40
3.23
50
160.395226
51
270.395226
0
ARC
8
VISIBLE
10
78.746185
20
158.780535
30
0
40
3.23
50
179.762427
51
289.762427
0
ARC
8
VISIBLE
10
83.224284
20
152.11191
30
0
40
4.56
50
249.762427
51
109.762427
0
ARC
8
VISIBLE
10
78.691037
20
145.480649
30
0
40
3.23
50
69.762427
51
179.762427
0
ARC
8
VISIBLE
10
63.495037
20
136.948016
30
0
40
3.23
50
164.730792
51
274.730792
0
ARC
8
VISIBLE
10
56.496087
20
140.889924
30
0
40
4.56
50
344.730792
51
204.730792
0
ARC
8
VISIBLE
10
50.240347
20
135.85111
30
0
40
3.23
50
274.730792
51
24.730792
0
ARC
8
VISIBLE
10
111.813828
20
145.244322
30
0
40
3.23
50
359.74463
51
109.74463
0
ARC
8
VISIBLE
10
107.3378
20
151.914338
30
0
40
4.56
50
69.74463
51
289.74463
0
ARC
8
VISIBLE
10
111.873106
20
158.544189
30
0
40
3.23
50
249.74463
51
359.74463
0
ARC
8
VISIBLE
10
126.70206
20
168.371806
30
0
40
3.23
50
338.530342
51
88.530342
0
ARC
8
VISIBLE
10
133.234312
20
163.697021
30
0
40
4.56
50
158.530342
51
18.530342
0
ARC
8
VISIBLE
10
139.997685
20
168.030694
30
0
40
3.23
50
88.530342
51
198.530342
0
ARC
8
VISIBLE
10
148.444383
20
158.37964
30
0
40
3.23
50
249.870777
51
359.870777
0
ARC
8
VISIBLE
10
143.923685
20
151.739819
30
0
40
4.56
50
69.870777
51
289.870777
0
ARC
8
VISIBLE
10
148.414387
20
145.079673
30
0
40
3.23
50
359.870777
51
109.870777
0
ARC
8
VISIBLE
10
140.004018
20
129.055499
30
0
40
3.23
50
90.973555
51
200.973555
0
ARC
8
VISIBLE
10
133.431534
20
124.437449
30
0
40
4.56
50
160.973555
51
20.973555
0
ARC
8
VISIBLE
10
126.705937
20
128.82952
30
0
40
3.23
50
340.973555
51
90.973555
0
ARC
8
VISIBLE
10
186.335491
20
146.771022
30
0
40
3.23
50
355.28192
51
105.28192
0
ARC
8
VISIBLE
10
182.39203
20
153.769097
30
0
40
4.56
50
65.28192
51
285.28192
0
ARC
8
VISIBLE
10
187.429456
20
160.025955
30
0
40
3.23
50
245.28192
51
355.28192
0
ARC
8
VISIBLE
10
203.308442
20
168.007788
30
0
40
3.23
50
339.752049
51
89.752049
0
ARC
8
VISIBLE
10
209.938881
20
163.473341
30
0
40
4.56
50
159.752049
51
19.752049
0
ARC
8
VISIBLE
10
216.608317
20
167.950232
30
0
40
3.23
50
89.752049
51
199.752049
0
ARC
8
VISIBLE
10
231.739064
20
157.805414
30
0
40
3.23
50
180.705494
51
290.705494
0
ARC
8
VISIBLE
10
236.326315
20
151.211396
30
0
40
4.56
50
250.705494
51
110.705494
0
ARC
8
VISIBLE
10
231.902826
20
144.506422
30
0
40
3.23
50
70.705494
51
180.705494
0
ARC
8
VISIBLE
10
215.649338
20
135.617706
30
0
40
3.23
50
154.499765
51
264.499765
0
ARC
8
VISIBLE
10
209.461828
20
140.740073
30
0
40
4.56
50
334.499765
51
194.499765
0
ARC
8
VISIBLE
10
202.410574
20
136.892509
30
0
40
3.23
50
264.499765
51
14.499765
0
ARC
8
VISIBLE
10
261.692923
20
145.733608
30
0
40
3.23
50
0.705768
51
110.705768
0
ARC
8
VISIBLE
10
257.105641
20
152.327604
30
0
40
4.56
50
70.705768
51
290.705768
0
ARC
8
VISIBLE
10
261.529098
20
159.032599
30
0
40
3.23
50
250.705768
51
0.705768
0
ARC
8
VISIBLE
10
277.74088
20
175.008315
30
0
40
3.23
50
268.413967
51
18.413967
0
ARC
8
VISIBLE
10
284.513042
20
179.328242
30
0
40
4.56
50
338.413967
51
198.413967
0
ARC
8
VISIBLE
10
291.035785
20
174.640199
30
0
40
3.23
50
158.413967
51
268.413967
0
ARC
8
VISIBLE
10
291.220221
20
129.706509
30
0
40
3.23
50
90.508232
51
200.508232
0
ARC
8
VISIBLE
10
284.61045
20
125.141988
30
0
40
4.56
50
160.508232
51
20.508232
0
ARC
8
VISIBLE
10
277.920745
20
129.588536
30
0
40
3.23
50
340.508232
51
90.508232
0
ARC
8
VISIBLE
10
12.927902
20
218.428421
30
0
40
3.23
50
269.104938
51
19.104938
0
ARC
8
VISIBLE
10
19.647475
20
222.829702
30
0
40
4.56
50
339.104938
51
199.104938
0
ARC
8
VISIBLE
10
26.226279
20
218.22066
30
0
40
3.23
50
159.104938
51
269.104938
0
ARC
8
VISIBLE
10
36.028411
20
201.841273
30
0
40
3.23
50
250.909453
51
0.909453
0
ARC
8
VISIBLE
10
31.628818
20
195.120595
30
0
40
4.56
50
70.909453
51
290.909453
0
ARC
8
VISIBLE
10
36.239512
20
188.542948
30
0
40
3.23
50
0.909453
51
110.909453
0
ARC
8
VISIBLE
10
26.619331
20
179.490264
30
0
40
3.23
50
157.541925
51
267.541925
0
ARC
8
VISIBLE
10
20.168693
20
184.277037
30
0
40
4.56
50
337.541925
51
197.541925
0
ARC
8
VISIBLE
10
13.331569
20
180.060679
30
0
40
3.23
50
267.541925
51
17.541925
0
ARC
8
VISIBLE
10
72.659083
20
188.812913
30
0
40
3.23
50
358.534837
51
108.534837
0
ARC
8
VISIBLE
10
68.32488
20
195.575946
30
0
40
4.56
50
68.534837
51
288.534837
0
ARC
8
VISIBLE
10
72.999153
20
202.108565
30
0
40
3.23
50
248.534837
51
358.534837
0
ARC
8
VISIBLE
10
89.295952
20
218.090398
30
0
40
3.23
50
270.218166
51
20.218166
0
ARC
8
VISIBLE
10
95.928747
20
222.621398
30
0
40
4.56
50
340.218166
51
200.218166
0
ARC
8
VISIBLE
10
102.595856
20
218.14104
30
0
40
3.23
50
160.218166
51
270.218166
0
ARC
8
VISIBLE
10
112.067995
20
203.271652
30
0
40
3.23
50
249.690014
51
359.690014
0
ARC
8
VISIBLE
10
107.526371
20
196.646126
30
0
40
4.56
50
69.690014
51
289.690014
0
ARC
8
VISIBLE
10
111.996039
20
189.971847
30
0
40
3.23
50
359.690014
51
109.690014
0
ARC
8
VISIBLE
10
101.812956
20
180.707548
30
0
40
3.23
50
163.330376
51
273.330376
0
ARC
8
VISIBLE
10
94.912436
20
184.819329
30
0
40
4.56
50
343.330376
51
203.330376
0
ARC
8
VISIBLE
10
88.535418
20
179.934907
30
0
40
3.23
50
273.330376
51
23.330376
0
ARC
8
VISIBLE
10
148.665552
20
190.239439
30
0
40
3.23
50
359.144062
51
109.144062
0
ARC
8
VISIBLE
10
144.259684
20
196.956005
30
0
40
4.56
50
69.144062
51
289.144062
0
ARC
8
VISIBLE
10
148.864233
20
203.537955
30
0
40
3.23
50
249.144062
51
359.144062
0
ARC
8
VISIBLE
10
163.814519
20
219.124639
30
0
40
3.23
50
267.627798
51
17.627798
0
ARC
8
VISIBLE
10
170.645315
20
223.35124
30
0
40
4.56
50
337.627798
51
197.627798
0
ARC
8
VISIBLE
10
177.103121
20
218.57414
30
0
40
3.23
50
157.627798
51
267.627798
0
ARC
8
VISIBLE
10
186.188346
20
202.602063
30
0
40
3.23
50
254.966779
51
4.966779
0
ARC
8
VISIBLE
10
182.275297
20
195.586938
30
0
40
4.56
50
74.966779
51
294.966779
0
ARC
8
VISIBLE
10
187.339835
20
189.352004
30
0
40
3.23
50
4.966779
51
114.966779
0
ARC
8
VISIBLE
10
178.274668
20
180.759369
30
0
40
3.23
50
160.469642
51
270.469642
0
ARC
8
VISIBLE
10
171.587959
20
185.210421
30
0
40
4.56
50
340.469642
51
200.469642
0
ARC
8
VISIBLE
10
164.975115
20
180.650353
30
0
40
3.23
50
270.469642
51
20.469642
0
ARC
8
VISIBLE
10
224.370522
20
189.799438
30
0
40
3.23
50
3.430073
51
113.430073
0
ARC
8
VISIBLE
10
219.475011
20
196.167947
30
0
40
4.56
50
73.430073
51
293.430073
0
ARC
8
VISIBLE
10
223.574779
20
203.075612
30
0
40
3.23
50
253.430073
51
3.430073
0
ARC
8
VISIBLE
10
239.733517
20
212.949484
30
0
40
3.23
50
341.669148
51
91.669148
0
ARC
8
VISIBLE
10
246.511938
20
208.639386
30
0
40
4.56
50
161.669148
51
21.669148
0
ARC
8
VISIBLE
10
253.027874
20
213.336887
30
0
40
3.23
50
91.669148
51
201.669148
0
ARC
8
VISIBLE
10
269.11959
20
204.20641
30
0
40
3.23
50
177.133359
51
287.133359
0
ARC
8
VISIBLE
10
273.287087
20
197.339394
30
0
40
4.56
50
247.133359
51
107.133359
0
ARC
8
VISIBLE
10
268.454437
20
190.923053
30
0
40
3.23
50
67.133359
51
177.133359
0
ARC
8
VISIBLE
10
253.208807
20
174.94196
30
0
40
3.23
50
91.598224
51
201.598224
0
ARC
8
VISIBLE
10
246.687062
20
170.252528
30
0
40
4.56
50
161.598224
51
21.598224
0
ARC
8
VISIBLE
10
239.913981
20
174.571014
30
0
40
3.23
50
341.598224
51
91.598224
0
ARC
8
VISIBLE
10
41.936775
20
233.885488
30
0
40
3.23
50
71.562618
51
181.562618
0
ARC
8
VISIBLE
10
46.259469
20
240.655883
30
0
40
4.56
50
251.562618
51
111.562618
0
ARC
8
VISIBLE
10
41.574091
20
247.180542
30
0
40
3.23
50
181.562618
51
291.562618
0
ARC
8
VISIBLE
10
72.952241
20
247.058781
30
0
40
3.23
50
250.824198
51
0.824198
0
ARC
8
VISIBLE
10
68.542653
20
240.344656
30
0
40
4.56
50
70.824198
51
290.824198
0
ARC
8
VISIBLE
10
73.143555
20
233.760157
30
0
40
3.23
50
0.824198
51
110.824198
0
ARC
8
VISIBLE
10
64.452303
20
224.384764
30
0
40
3.23
50
160.0336
51
270.0336
0
ARC
8
VISIBLE
10
57.799662
20
228.886575
30
0
40
4.56
50
340.0336
51
200.0336
0
ARC
8
VISIBLE
10
51.152305
20
224.376965
30
0
40
3.23
50
270.0336
51
20.0336
0
ARC
8
VISIBLE
10
111.688009
20
233.769667
30
0
40
3.23
50
2.028151
51
112.028151
0
ARC
8
VISIBLE
10
106.949773
20
240.256041
30
0
40
4.56
50
72.028151
51
292.028151
0
ARC
8
VISIBLE
10
111.217315
20
247.061335
30
0
40
3.23
50
252.028151
51
2.028151
0
ARC
8
VISIBLE
10
155.32164
20
247.909494
30
0
40
3.23
50
180.442965
51
290.442965
0
ARC
8
VISIBLE
10
159.878628
20
241.294526
30
0
40
4.56
50
250.442965
51
110.442965
0
ARC
8
VISIBLE
10
155.424464
20
234.609891
30
0
40
3.23
50
70.442965
51
180.442965
0
ARC
8
VISIBLE
10
140.345712
20
225.495897
30
0
40
3.23
50
162.186522
51
272.186522
0
ARC
8
VISIBLE
10
133.528648
20
229.744612
30
0
40
4.56
50
342.186522
51
202.186522
0
ARC
8
VISIBLE
10
127.055395
20
224.988465
30
0
40
3.23
50
272.186522
51
22.186522
0
ARC
8
VISIBLE
10
192.12692
20
233.706381
30
0
40
3.23
50
67.568288
51
177.568288
0
ARC
8
VISIBLE
10
196.910725
20
240.159221
30
0
40
4.56
50
247.568288
51
107.568288
0
ARC
8
VISIBLE
10
192.691221
20
246.994404
30
0
40
3.23
50
177.568288
51
287.568288
0
ARC
8
VISIBLE
10
230.594588
20
247.414819
30
0
40
3.23
50
177.031064
51
287.031064
0
ARC
8
VISIBLE
10
234.749818
20
240.540374
30
0
40
4.56
50
247.031064
51
107.031064
0
ARC
8
VISIBLE
10
229.905721
20
234.132671
30
0
40
3.23
50
67.031064
51
177.031064
0
ARC
8
VISIBLE
10
213.932277
20
218.609456
30
0
40
3.23
50
91.379041
51
201.379041
0
ARC
8
VISIBLE
10
207.39264
20
213.945007
30
0
40
4.56
50
161.379041
51
21.379041
0
ARC
8
VISIBLE
10
200.63613
20
218.289372
30
0
40
3.23
50
341.379041
51
91.379041
0
ARC
8
VISIBLE
10
263.128121
20
234.834996
30
0
40
3.23
50
0.824265
51
110.824265
0
ARC
8
VISIBLE
10
258.527211
20
241.41949
30
0
40
4.56
50
70.824265
51
290.824265
0
ARC
8
VISIBLE
10
262.936792
20
248.13362
30
0
40
3.23
50
250.824265
51
0.824265
0
ARC
8
VISIBLE
10
291.771885
20
219.026721
30
0
40
3.23
50
87.613968
51
197.613968
0
ARC
8
VISIBLE
10
284.940069
20
214.801769
30
0
40
4.56
50
157.613968
51
17.613968
0
ARC
8
VISIBLE
10
278.483416
20
219.580427
30
0
40
3.23
50
337.613968
51
87.613968
0
ENDSEC
0
EOF
