0
SECTION
2
HEADER
9
$ACADVER
1
AC1015
9
$INSUNITS
70
4
0
ENDSEC
0
SECTION
2
TABLES
0
TABLE
2
LAYER
70
2
0
LAYER
2
VISIBLE
70
0
62
7
6
CONTINUOUS
0
LAYER
2
HIDDEN
70
0
62
8
6
DASHED
0
ENDTAB
0
ENDSEC
0
SECTION
2
ENTITIES
0
LINE
8
VISIBLE
10
0
20
0
30
0
11
37.249357
21
0
31
0
0
LINE
8
VISIBLE
10
0
20
0
30
0
11
0
21
37.249896
31
0
0
LINE
8
VISIBLE
10
37.249357
20
0
30
0
11
36.726462
21
12.628242
31
0
0
LINE
8
VISIBLE
10
41.908401
20
16.585991
30
0
11
43.775927
21
15.99254
31
0
0
LINE
8
VISIBLE
10
43.479689
20
23.146867
30
0
11
41.667618
21
22.401055
31
0
0
LINE
8
VISIBLE
10
36.176223
20
25.916855
30
0
11
35.682314
21
37.845056
31
0
0
LINE
8
VISIBLE
10
35.682314
20
37.845056
30
0
11
24.862283
21
37.664584
31
0
0
LINE
8
VISIBLE
10
22.587675
20
34.297972
30
0
11
23.288496
21
32.468031
31
0
0
LINE
8
VISIBLE
10
13.310348
20
32.301601
30
0
11
13.949751
21
34.153897
31
0
0
LINE
8
VISIBLE
10
11.564133
20
37.442779
30
0
11
0
21
37.249896
31
0
0
LINE
8
VISIBLE
10
38.750643
20
0
30
0
11
75.248771
21
0
31
0
0
LINE
8
VISIBLE
10
38.750643
20
0
30
0
11
38.225178
21
12.690299
31
0
0
LINE
8
VISIBLE
10
75.248771
20
0
30
0
11
74.481331
21
13.401483
31
0
0
LINE
8
VISIBLE
10
79.600014
20
17.44071
30
0
11
81.476693
21
16.876875
31
0
0
LINE
8
VISIBLE
10
81.067318
20
24.025621
30
0
11
79.267272
21
23.251237
31
0
0
LINE
8
VISIBLE
10
73.720947
20
26.679729
30
0
11
72.993275
21
39.386765
31
0
0
LINE
8
VISIBLE
10
72.993275
20
39.386765
30
0
11
61.726143
21
38.915576
31
0
0
LINE
8
VISIBLE
10
59.536804
20
35.492899
30
0
11
60.283363
21
33.681136
31
0
0
LINE
8
VISIBLE
10
50.312542
20
33.264158
30
0
11
50.905224
21
35.131928
31
0
0
LINE
8
VISIBLE
10
48.437758
20
38.359857
30
0
11
37.181774
21
37.889134
31
0
0
LINE
8
VISIBLE
10
37.181774
20
37.889134
30
0
11
37.674939
21
25.978912
31
0
0
LINE
8
VISIBLE
10
41.096712
20
23.788162
30
0
11
42.908783
21
24.533974
31
0
0
LINE
8
VISIBLE
10
43.32165
20
14.562983
30
0
11
41.454125
21
15.156434
31
0
0
LINE
8
VISIBLE
10
76.751229
20
0
30
0
11
113.248899
21
0
31
0
0
LINE
8
VISIBLE
10
76.751229
20
0
30
0
11
75.978877
21
13.48724
31
0
0
LINE
8
VISIBLE
10
113.248899
20
0
30
0
11
112.611512
21
11.756335
31
0
0
LINE
8
VISIBLE
10
109.16202
20
13.903177
30
0
11
107.359629
21
13.134267
31
0
0
LINE
8
VISIBLE
10
106.819367
20
23.099168
30
0
11
108.694324
21
22.529632
31
0
0
LINE
8
VISIBLE
10
111.891491
20
25.036831
30
0
11
111.287188
21
36.182953
31
0
0
LINE
8
VISIBLE
10
111.287188
20
36.182953
30
0
11
99.411639
21
37.203851
31
0
0
LINE
8
VISIBLE
10
96.804702
20
34.087474
30
0
11
97.31473
21
32.195463
31
0
0
LINE
8
VISIBLE
10
87.371867
20
33.050215
30
0
11
88.197324
21
34.82742
31
0
0
LINE
8
VISIBLE
10
86.160513
20
38.343002
30
0
11
74.498091
21
39.345579
31
0
0
LINE
8
VISIBLE
10
74.498091
20
39.345579
30
0
11
75.218494
21
26.765486
31
0
0
LINE
8
VISIBLE
10
78.674495
20
24.62914
30
0
11
80.474541
21
25.403523
31
0
0
LINE
8
VISIBLE
10
81.045088
20
15.440311
30
0
11
79.168408
21
16.004145
31
0
0
LINE
8
VISIBLE
10
114.751101
20
0
30
0
11
151.249998
21
0
31
0
0
LINE
8
VISIBLE
10
114.751101
20
0
30
0
11
114.109312
21
11.837541
31
0
0
LINE
8
VISIBLE
10
151.249998
20
0
30
0
11
151.223133
21
13.266328
31
0
0
LINE
8
VISIBLE
10
147.89021
20
15.590021
30
0
11
146.050196
21
14.916088
31
0
0
LINE
8
VISIBLE
10
146.029987
20
24.895603
30
0
11
147.872715
21
24.229128
31
0
0
LINE
8
VISIBLE
10
151.196198
20
26.566301
30
0
11
151.170962
21
39.02809
31
0
0
LINE
8
VISIBLE
10
151.170962
20
39.02809
30
0
11
138.647328
21
38.099043
31
0
0
LINE
8
VISIBLE
10
136.569498
20
34.607547
30
0
11
137.374092
21
32.820801
31
0
0
LINE
8
VISIBLE
10
127.421903
20
32.082513
30
0
11
127.954047
21
33.968423
31
0
0
LINE
8
VISIBLE
10
125.383773
20
37.115107
30
0
11
112.789506
21
36.18082
31
0
0
LINE
8
VISIBLE
10
112.789506
20
36.18082
30
0
11
113.389291
21
25.118037
31
0
0
LINE
8
VISIBLE
10
108.258354
20
21.094386
30
0
11
106.383397
21
21.663923
31
0
0
LINE
8
VISIBLE
10
106.771043
20
14.513965
30
0
11
108.573434
21
15.282875
31
0
0
LINE
8
VISIBLE
10
152.750002
20
0
30
0
11
189.24861
21
0
31
0
0
LINE
8
VISIBLE
10
152.750002
20
0
30
0
11
152.723129
21
13.269366
31
0
0
LINE
8
VISIBLE
10
189.24861
20
0
30
0
11
189.922034
21
11.056106
31
0
0
LINE
8
VISIBLE
10
186.741664
20
13.584578
30
0
11
184.862949
21
13.027562
31
0
0
LINE
8
VISIBLE
10
185.469675
20
22.988637
30
0
11
187.266897
21
22.207721
31
0
0
LINE
8
VISIBLE
10
190.730634
20
24.331503
30
0
11
191.357973
21
34.631007
31
0
0
LINE
8
VISIBLE
10
191.357973
20
34.631007
30
0
11
178.558591
21
36.075174
31
0
0
LINE
8
VISIBLE
10
175.869689
20
33.029237
30
0
11
176.329215
21
31.12433
31
0
0
LINE
8
VISIBLE
10
166.412603
20
32.243231
30
0
11
167.285037
21
33.997852
31
0
0
LINE
8
VISIBLE
10
165.342451
20
37.566364
30
0
11
152.67103
21
38.996093
31
0
0
LINE
8
VISIBLE
10
152.67103
20
38.996093
30
0
11
152.696195
21
26.569339
31
0
0
LINE
8
VISIBLE
10
147.36254
20
22.818553
30
0
11
145.519812
21
23.485028
31
0
0
LINE
8
VISIBLE
10
145.534313
20
16.324585
30
0
11
147.374326
21
16.998518
31
0
0
LINE
8
VISIBLE
10
190.75139
20
0
30
0
11
227.248254
21
0
31
0
0
LINE
8
VISIBLE
10
190.75139
20
0
30
0
11
191.419259
21
10.96491
31
0
0
LINE
8
VISIBLE
10
227.248254
20
0
30
0
11
228.102215
21
12.508575
31
0
0
LINE
8
VISIBLE
10
233.685786
20
15.876067
30
0
11
235.477236
21
15.081999
31
0
0
LINE
8
VISIBLE
10
235.964945
20
22.225828
30
0
11
234.082198
21
21.682598
31
0
0
LINE
8
VISIBLE
10
229.008097
20
25.777689
30
0
11
229.799598
21
37.371371
31
0
0
LINE
8
VISIBLE
10
229.799598
20
37.371371
30
0
11
218.065851
21
36.490299
31
0
0
LINE
8
VISIBLE
10
215.991165
20
32.996934
30
0
11
216.797367
21
31.210912
31
0
0
LINE
8
VISIBLE
10
206.845847
20
30.463665
30
0
11
207.376293
21
32.350053
31
0
0
LINE
8
VISIBLE
10
204.803188
20
35.494422
30
0
11
192.858714
21
34.597526
31
0
0
LINE
8
VISIBLE
10
192.858714
20
34.597526
30
0
11
192.227859
21
24.240307
31
0
0
LINE
8
VISIBLE
10
186.66912
20
20.83198
30
0
11
184.871898
21
21.612896
31
0
0
LINE
8
VISIBLE
10
184.436564
20
14.465684
30
0
11
186.315279
21
15.0227
31
0
0
LINE
8
VISIBLE
10
228.751746
20
0
30
0
11
265.24994
21
0
31
0
0
LINE
8
VISIBLE
10
228.751746
20
0
30
0
11
229.598731
21
12.406408
31
0
0
LINE
8
VISIBLE
10
265.24994
20
0
30
0
11
265.099108
21
11.909648
31
0
0
LINE
8
VISIBLE
10
261.741653
20
14.197751
30
0
11
259.908913
21
13.504281
31
0
0
LINE
8
VISIBLE
10
259.782535
20
23.483016
30
0
11
261.63225
21
22.836183
31
0
0
LINE
8
VISIBLE
10
264.930681
20
25.208581
30
0
11
264.78883
21
36.409096
31
0
0
LINE
8
VISIBLE
10
264.78883
20
36.409096
30
0
11
254.69279
21
36.711742
31
0
0
LINE
8
VISIBLE
10
251.114534
20
42.162646
30
0
11
251.839612
21
43.983112
31
0
0
LINE
8
VISIBLE
10
244.682369
20
44.197663
30
0
11
245.2971
21
42.337033
31
0
0
LINE
8
VISIBLE
10
241.398762
20
37.110253
30
0
11
231.305918
21
37.412803
31
0
0
LINE
8
VISIBLE
10
231.305918
20
37.412803
30
0
11
230.504614
21
25.675522
31
0
0
LINE
8
VISIBLE
10
233.666365
20
23.123807
30
0
11
235.549112
21
23.667037
31
0
0
LINE
8
VISIBLE
10
234.869391
20
13.710677
30
0
11
233.077942
21
14.504744
31
0
0
LINE
8
VISIBLE
10
266.75006
20
0
30
0
11
304
21
0
31
0
0
LINE
8
VISIBLE
10
266.75006
20
0
30
0
11
266.598987
21
11.928643
31
0
0
LINE
8
VISIBLE
10
304
20
0
30
0
11
304
21
37.249811
31
0
0
LINE
8
VISIBLE
10
304
20
37.249811
30
0
11
291.429978
21
36.967903
31
0
0
LINE
8
VISIBLE
10
289.17475
20
33.588278
30
0
11
289.886073
21
31.762394
31
0
0
LINE
8
VISIBLE
10
279.909046
20
31.538638
30
0
11
280.537797
21
33.394577
31
0
0
LINE
8
VISIBLE
10
278.133322
20
36.669699
30
0
11
266.289014
21
36.404066
31
0
0
LINE
8
VISIBLE
10
266.289014
20
36.404066
30
0
11
266.43056
21
25.227577
31
0
0
LINE
8
VISIBLE
10
261.13711
20
21.42026
30
0
11
259.287396
21
22.067094
31
0
0
LINE
8
VISIBLE
10
259.378074
20
14.90721
30
0
11
261.210814
21
15.60068
31
0
0
LINE
8
VISIBLE
10
0
20
38.750104
30
0
11
11.539117
21
38.94257
31
0
0
LINE
8
VISIBLE
10
0
20
38.750104
30
0
11
0
21
75.24999
31
0
0
LINE
8
VISIBLE
10
15.36765
20
33.664445
30
0
11
14.728247
21
31.812149
31
0
0
LINE
8
VISIBLE
10
21.887709
20
31.931565
30
0
11
21.186888
21
33.761506
31
0
0
LINE
8
VISIBLE
10
24.837268
20
39.164376
30
0
11
35.689107
21
39.345378
31
0
0
LINE
8
VISIBLE
10
35.689107
20
39.345378
30
0
11
36.279937
21
50.604625
31
0
0
LINE
8
VISIBLE
10
41.809825
20
54.059565
30
0
11
43.613549
21
53.293787
31
0
0
LINE
8
VISIBLE
10
43.988778
20
60.444407
30
0
11
42.114813
21
59.871616
31
0
0
LINE
8
VISIBLE
10
36.976898
20
63.886351
30
0
11
37.563195
21
75.05922
31
0
0
LINE
8
VISIBLE
10
37.563195
20
75.05922
30
0
11
25.822792
21
75.118845
31
0
0
LINE
8
VISIBLE
10
23.475482
20
71.802514
30
0
11
24.136327
21
69.957759
31
0
0
LINE
8
VISIBLE
10
14.15692
20
70.008441
30
0
11
14.836469
21
71.846388
31
0
0
LINE
8
VISIBLE
10
12.522964
20
75.186391
30
0
11
0
21
75.24999
31
0
0
LINE
8
VISIBLE
10
37.193562
20
39.390938
30
0
11
48.375083
21
39.858548
31
0
0
LINE
8
VISIBLE
10
37.193562
20
39.390938
30
0
11
37.777876
21
50.52602
31
0
0
LINE
8
VISIBLE
10
52.334968
20
34.678241
30
0
11
51.742286
21
32.810471
31
0
0
LINE
8
VISIBLE
10
58.896491
20
33.109658
30
0
11
58.149932
21
34.921421
31
0
0
LINE
8
VISIBLE
10
61.663468
20
40.414266
30
0
11
73.096717
21
40.892403
31
0
0
LINE
8
VISIBLE
10
73.096717
20
40.892403
30
0
11
75.132449
21
49.769384
31
0
0
LINE
8
VISIBLE
10
81.174524
20
52.220834
30
0
11
82.819501
21
51.155993
31
0
0
LINE
8
VISIBLE
10
84.42004
20
58.135279
30
0
11
82.475448
21
57.893624
31
0
0
LINE
8
VISIBLE
10
78.105328
20
62.732871
30
0
11
80.076744
21
71.329399
31
0
0
LINE
8
VISIBLE
10
80.076744
20
71.329399
30
0
11
66.233717
21
72.564567
31
0
0
LINE
8
VISIBLE
10
62.983235
20
78.217056
30
0
11
63.814438
21
79.991581
31
0
0
LINE
8
VISIBLE
10
56.682315
20
80.627956
30
0
11
57.186219
21
78.734305
31
0
0
LINE
8
VISIBLE
10
52.986346
20
73.746585
30
0
11
39.061577
21
74.989046
31
0
0
LINE
8
VISIBLE
10
39.061577
20
74.989046
30
0
11
38.474837
21
63.807746
31
0
0
LINE
8
VISIBLE
10
41.676352
20
61.306102
30
0
11
43.550317
21
61.878893
31
0
0
LINE
8
VISIBLE
10
43.027359
20
51.913069
30
0
11
41.223635
21
52.678848
31
0
0
LINE
8
VISIBLE
10
74.623709
20
40.840312
30
0
11
86.288989
21
39.83749
31
0
0
LINE
8
VISIBLE
10
74.623709
20
40.840312
30
0
11
76.594497
21
49.434097
31
0
0
LINE
8
VISIBLE
10
89.557742
20
34.195547
30
0
11
88.732285
21
32.418342
31
0
0
LINE
8
VISIBLE
10
95.86643
20
31.805046
30
0
11
95.356402
21
33.697057
31
0
0
LINE
8
VISIBLE
10
99.540115
20
38.698339
30
0
11
111.27416
21
37.689605
31
0
0
LINE
8
VISIBLE
10
111.27416
20
37.689605
30
0
11
111.609562
21
49.239698
31
0
0
LINE
8
VISIBLE
10
117.05711
20
52.823061
30
0
11
118.878255
21
52.099689
31
0
0
LINE
8
VISIBLE
10
119.086099
20
59.25713
30
0
11
117.226046
21
58.640655
31
0
0
LINE
8
VISIBLE
10
111.995615
20
62.534094
30
0
11
112.329561
21
74.034049
31
0
0
LINE
8
VISIBLE
10
112.329561
20
74.034049
30
0
11
102.829831
21
73.188973
31
0
0
LINE
8
VISIBLE
10
97.779449
20
79.189995
30
0
11
98.40996
21
81.556892
31
0
0
LINE
8
VISIBLE
10
89.143596
20
80.732576
30
0
11
90.182008
21
78.514143
31
0
0
LINE
8
VISIBLE
10
86.270224
20
71.715866
30
0
11
81.609223
21
71.301233
31
0
0
LINE
8
VISIBLE
10
81.609223
20
71.301233
30
0
11
79.567375
21
62.397584
31
0
0
LINE
8
VISIBLE
10
82.290465
20
59.382174
30
0
11
84.235057
21
59.623829
31
0
0
LINE
8
VISIBLE
10
82.004385
20
49.896793
30
0
11
80.359408
21
50.961634
31
0
0
LINE
8
VISIBLE
10
112.774625
20
37.683838
30
0
11
125.272803
21
38.610996
31
0
0
LINE
8
VISIBLE
10
112.774625
20
37.683838
30
0
11
113.108929
21
49.196158
31
0
0
LINE
8
VISIBLE
10
129.397677
20
33.561077
30
0
11
128.865533
21
31.675166
31
0
0
LINE
8
VISIBLE
10
136.00637
20
32.204898
30
0
11
135.201775
21
33.991645
31
0
0
LINE
8
VISIBLE
10
138.536357
20
39.594933
30
0
11
151.122797
21
40.528639
31
0
0
LINE
8
VISIBLE
10
151.122797
20
40.528639
30
0
11
150.352986
21
52.395172
31
0
0
LINE
8
VISIBLE
10
146.880894
20
54.505265
30
0
11
145.086768
21
53.717262
31
0
0
LINE
8
VISIBLE
10
144.44073
20
63.675865
30
0
11
146.321629
21
63.126269
31
0
0
LINE
8
VISIBLE
10
149.491994
20
65.667274
30
0
11
148.724131
21
77.503785
31
0
0
LINE
8
VISIBLE
10
148.724131
20
77.503785
30
0
11
137.954304
21
76.475397
31
0
0
LINE
8
VISIBLE
10
133.723548
20
81.436947
30
0
11
134.215686
21
83.33369
31
0
0
LINE
8
VISIBLE
10
127.087651
20
82.653049
30
0
11
127.929854
21
80.883719
31
0
0
LINE
8
VISIBLE
10
124.714527
20
75.211158
30
0
11
113.834206
21
74.172219
31
0
0
LINE
8
VISIBLE
10
113.834206
20
74.172219
30
0
11
113.494983
21
62.490554
31
0
0
LINE
8
VISIBLE
10
116.754146
20
60.064492
30
0
11
118.614199
21
60.680966
31
0
0
LINE
8
VISIBLE
10
118.324527
20
50.705635
30
0
11
116.503382
21
51.429007
31
0
0
LINE
8
VISIBLE
10
152.627122
20
40.510565
30
0
11
165.51063
21
39.056906
31
0
0
LINE
8
VISIBLE
10
152.627122
20
40.510565
30
0
11
151.84984
21
52.492276
31
0
0
LINE
8
VISIBLE
10
168.628168
20
33.330019
30
0
11
167.755734
21
31.575398
31
0
0
LINE
8
VISIBLE
10
174.871043
20
30.772571
30
0
11
174.411517
21
32.677478
31
0
0
LINE
8
VISIBLE
10
178.72677
20
37.565716
30
0
11
191.407662
21
36.134918
31
0
0
LINE
8
VISIBLE
10
191.407662
20
36.134918
30
0
11
191.53245
21
49.547056
31
0
0
LINE
8
VISIBLE
10
196.908254
20
53.237178
30
0
11
198.743314
21
52.54987
31
0
0
LINE
8
VISIBLE
10
198.809933
20
59.710018
30
0
11
196.962402
21
59.056973
31
0
0
LINE
8
VISIBLE
10
191.656189
20
62.846481
30
0
11
191.78187
21
76.354636
31
0
0
LINE
8
VISIBLE
10
191.78187
20
76.354636
30
0
11
177.606269
21
76.762555
31
0
0
LINE
8
VISIBLE
10
174.021476
20
82.209162
30
0
11
174.74437
21
84.030497
31
0
0
LINE
8
VISIBLE
10
167.586875
20
84.236461
30
0
11
168.203837
21
82.376571
31
0
0
LINE
8
VISIBLE
10
164.311772
20
77.145118
30
0
11
150.224253
21
77.550502
31
0
0
LINE
8
VISIBLE
10
150.224253
20
77.550502
30
0
11
150.988847
21
65.764378
31
0
0
LINE
8
VISIBLE
10
145.900923
20
61.686475
30
0
11
144.020024
21
62.236071
31
0
0
LINE
8
VISIBLE
10
144.483566
20
55.090633
30
0
11
146.277691
21
55.878636
31
0
0
LINE
8
VISIBLE
10
192.907452
20
36.105408
30
0
11
204.690871
21
36.990211
31
0
0
LINE
8
VISIBLE
10
192.907452
20
36.105408
30
0
11
193.032385
21
49.533101
31
0
0
LINE
8
VISIBLE
10
208.820289
20
31.944007
30
0
11
208.289844
21
30.057618
31
0
0
LINE
8
VISIBLE
10
215.4302
20
30.593779
30
0
11
214.623997
21
32.3798
31
0
0
LINE
8
VISIBLE
10
217.953534
20
37.986088
30
0
11
229.778642
21
38.874021
31
0
0
LINE
8
VISIBLE
10
229.778642
20
38.874021
30
0
11
228.432602
21
51.441106
31
0
0
LINE
8
VISIBLE
10
233.345161
20
55.72865
30
0
11
235.24744
21
55.258361
31
0
0
LINE
8
VISIBLE
10
234.484857
20
62.378096
30
0
11
232.725331
21
61.515597
31
0
0
LINE
8
VISIBLE
10
227.016163
20
64.665466
30
0
11
225.661609
21
77.312036
31
0
0
LINE
8
VISIBLE
10
225.661609
20
77.312036
30
0
11
216.105302
21
77.029528
31
0
0
LINE
8
VISIBLE
10
213.874229
20
73.633908
30
0
11
214.598553
21
71.813142
31
0
0
LINE
8
VISIBLE
10
204.623375
20
71.518251
30
0
11
205.238877
21
73.378626
31
0
0
LINE
8
VISIBLE
10
202.811109
20
76.636519
30
0
11
193.281937
21
76.354814
31
0
0
LINE
8
VISIBLE
10
193.281937
20
76.354814
30
0
11
193.156124
21
62.832525
31
0
0
LINE
8
VISIBLE
10
196.462508
20
60.471224
30
0
11
198.310039
21
61.124269
31
0
0
LINE
8
VISIBLE
10
198.217192
20
51.145165
30
0
11
196.382132
21
51.832473
31
0
0
LINE
8
VISIBLE
10
231.282922
20
38.914167
30
0
11
241.443707
21
38.60958
31
0
0
LINE
8
VISIBLE
10
231.282922
20
38.914167
30
0
11
229.924071
21
51.600855
31
0
0
LINE
8
VISIBLE
10
243.872822
20
41.866468
30
0
11
243.258091
21
43.727097
31
0
0
LINE
8
VISIBLE
10
253.233146
20
43.428078
30
0
11
252.508068
21
41.607611
31
0
0
LINE
8
VISIBLE
10
254.737735
20
38.211068
30
0
11
264.805696
21
37.909264
31
0
0
LINE
8
VISIBLE
10
264.805696
20
37.909264
30
0
11
265.197917
21
49.349891
31
0
0
LINE
8
VISIBLE
10
270.664164
20
52.904664
30
0
11
272.481494
21
52.171761
31
0
0
LINE
8
VISIBLE
10
272.726834
20
59.328014
30
0
11
270.863577
21
58.721293
31
0
0
LINE
8
VISIBLE
10
265.653616
20
62.642081
30
0
11
266.046896
21
74.113586
31
0
0
LINE
8
VISIBLE
10
266.046896
20
74.113586
30
0
11
253.144954
21
75.158445
31
0
0
LINE
8
VISIBLE
10
250.553467
20
72.02921
30
0
11
251.072849
21
70.139745
31
0
0
LINE
8
VISIBLE
10
241.125879
20
70.945296
30
0
11
241.942534
21
72.726563
31
0
0
LINE
8
VISIBLE
10
239.888355
20
76.232026
30
0
11
227.175595
21
77.261564
31
0
0
LINE
8
VISIBLE
10
227.175595
20
77.261564
30
0
11
228.507632
21
64.825215
31
0
0
LINE
8
VISIBLE
10
232.065103
20
62.862482
30
0
11
233.824629
21
63.724981
31
0
0
LINE
8
VISIBLE
10
234.887442
20
53.802201
30
0
11
232.985163
21
54.27249
31
0
0
LINE
8
VISIBLE
10
266.306425
20
37.904834
30
0
11
278.09969
21
38.169322
31
0
0
LINE
8
VISIBLE
10
266.306425
20
37.904834
30
0
11
266.697036
21
49.298496
31
0
0
LINE
8
VISIBLE
10
281.958484
20
32.91328
30
0
11
281.329733
21
31.057341
31
0
0
LINE
8
VISIBLE
10
288.488391
20
31.217888
30
0
11
287.777068
21
33.043773
31
0
0
LINE
8
VISIBLE
10
291.396346
20
38.467526
30
0
11
304
21
38.750189
31
0
0
LINE
8
VISIBLE
10
304
20
38.750189
30
0
11
304
21
75.249612
31
0
0
LINE
8
VISIBLE
10
304
20
75.249612
30
0
11
292.081177
21
74.865991
31
0
0
LINE
8
VISIBLE
10
288.171312
20
80.084154
30
0
11
288.781935
21
81.946136
31
0
0
LINE
8
VISIBLE
10
281.625183
20
81.715788
30
0
11
282.354277
21
79.896926
31
0
0
LINE
8
VISIBLE
10
278.788061
20
74.438138
30
0
11
267.5465
21
74.076316
31
0
0
LINE
8
VISIBLE
10
267.5465
20
74.076316
30
0
11
267.152736
21
62.590687
31
0
0
LINE
8
VISIBLE
10
270.399143
20
60.147583
30
0
11
272.2624
21
60.754303
31
0
0
LINE
8
VISIBLE
10
271.92047
20
50.780627
30
0
11
270.10314
21
51.513531
31
0
0
LINE
8
VISIBLE
10
0
20
76.75001
30
0
11
12.530582
21
76.686371
31
0
0
LINE
8
VISIBLE
10
0
20
76.75001
30
0
11
0
21
113.249508
31
0
0
LINE
8
VISIBLE
10
16.243384
20
71.326206
30
0
11
15.563835
21
69.488259
31
0
0
LINE
8
VISIBLE
10
22.724201
20
69.451894
30
0
11
22.063356
21
71.296648
31
0
0
LINE
8
VISIBLE
10
25.83041
20
76.618826
30
0
11
37.645941
21
76.558819
31
0
0
LINE
8
VISIBLE
10
37.645941
20
76.558819
30
0
11
38.372167
21
89.043877
31
0
0
LINE
8
VISIBLE
10
35.184901
20
91.563649
30
0
11
33.307715
21
91.001502
31
0
0
LINE
8
VISIBLE
10
33.887221
20
100.964198
30
0
11
35.68657
21
100.188196
31
0
0
LINE
8
VISIBLE
10
39.144491
20
102.321433
30
0
11
39.864152
21
114.69364
31
0
0
LINE
8
VISIBLE
10
39.864152
20
114.69364
30
0
11
27.003169
21
114.227734
31
0
0
LINE
8
VISIBLE
10
24.794749
20
110.817337
30
0
11
25.531178
21
109.001433
31
0
0
LINE
8
VISIBLE
10
15.558184
20
108.640148
30
0
11
16.161288
21
110.504579
31
0
0
LINE
8
VISIBLE
10
13.711888
20
113.746239
30
0
11
0
21
113.249508
31
0
0
LINE
8
VISIBLE
10
39.144335
20
76.487621
30
0
11
53.119657
21
75.24065
31
0
0
LINE
8
VISIBLE
10
39.144335
20
76.487621
30
0
11
39.869636
21
88.956772
31
0
0
LINE
8
VISIBLE
10
55.736663
20
78.348575
30
0
11
55.232759
21
80.242227
31
0
0
LINE
8
VISIBLE
10
65.172804
20
79.35531
30
0
11
64.341601
21
77.580785
31
0
0
LINE
8
VISIBLE
10
66.367027
20
74.058631
30
0
11
80.137572
21
72.829931
31
0
0
LINE
8
VISIBLE
10
80.137572
20
72.829931
30
0
11
78.365735
21
86.663331
31
0
0
LINE
8
VISIBLE
10
83.188545
20
91.051586
30
0
11
85.100146
21
90.620751
31
0
0
LINE
8
VISIBLE
10
84.190437
20
97.723186
30
0
11
82.449131
21
96.824472
31
0
0
LINE
8
VISIBLE
10
76.676022
20
99.855559
30
0
11
74.867705
21
113.973774
31
0
0
LINE
8
VISIBLE
10
74.867705
20
113.973774
30
0
11
64.727165
21
114.195823
31
0
0
LINE
8
VISIBLE
10
62.324425
20
110.919428
30
0
11
62.954159
21
109.063823
31
0
0
LINE
8
VISIBLE
10
52.977015
20
109.282295
30
0
11
53.687371
21
111.108556
31
0
0
LINE
8
VISIBLE
10
51.430353
20
114.486986
30
0
11
41.367485
21
114.707334
31
0
0
LINE
8
VISIBLE
10
41.367485
20
114.707334
30
0
11
40.64196
21
102.234329
31
0
0
LINE
8
VISIBLE
10
35.092554
20
98.810827
30
0
11
33.293205
21
99.586829
31
0
0
LINE
8
VISIBLE
10
32.877401
20
92.438454
30
0
11
34.754587
21
93.000601
31
0
0
LINE
8
VISIBLE
10
81.652253
20
72.810985
30
0
11
86.137312
21
73.209966
31
0
0
LINE
8
VISIBLE
10
81.652253
20
72.810985
30
0
11
79.853581
21
86.853901
31
0
0
LINE
8
VISIBLE
10
88.823472
20
77.878235
30
0
11
87.78506
21
80.096667
31
0
0
LINE
8
VISIBLE
10
99.859413
20
81.170776
30
0
11
99.228902
21
78.80388
31
0
0
LINE
8
VISIBLE
10
102.696919
20
74.683073
30
0
11
112.412996
21
75.547395
31
0
0
LINE
8
VISIBLE
10
112.412996
20
75.547395
30
0
11
113.484733
21
87.445293
31
0
0
LINE
8
VISIBLE
10
110.379018
20
90.064922
30
0
11
108.484942
21
89.562618
31
0
0
LINE
8
VISIBLE
10
109.380252
20
99.501911
30
0
11
111.154074
21
98.66921
31
0
0
LINE
8
VISIBLE
10
114.677937
20
100.691661
30
0
11
115.735042
21
112.427117
31
0
0
LINE
8
VISIBLE
10
115.735042
20
112.427117
30
0
11
102.657866
21
112.925348
31
0
0
LINE
8
VISIBLE
10
100.202407
20
109.688275
30
0
11
100.802023
21
107.822719
31
0
0
LINE
8
VISIBLE
10
90.829722
20
108.202657
30
0
11
91.569546
21
110.01718
31
0
0
LINE
8
VISIBLE
10
89.367508
20
113.431701
30
0
11
76.386042
21
113.926286
31
0
0
LINE
8
VISIBLE
10
76.386042
20
113.926286
30
0
11
78.163868
21
100.046128
31
0
0
LINE
8
VISIBLE
10
81.761181
20
98.157411
30
0
11
83.502488
21
99.056125
31
0
0
LINE
8
VISIBLE
10
84.770349
20
89.157455
30
0
11
82.858748
21
89.58829
31
0
0
LINE
8
VISIBLE
10
113.931767
20
75.688358
30
0
11
124.571944
21
76.704366
31
0
0
LINE
8
VISIBLE
10
113.931767
20
75.688358
30
0
11
114.978684
21
87.310721
31
0
0
LINE
8
VISIBLE
10
126.575464
20
80.239027
30
0
11
125.733261
21
82.008357
31
0
0
LINE
8
VISIBLE
10
135.667609
20
82.956967
30
0
11
135.175471
21
81.060224
31
0
0
LINE
8
VISIBLE
10
137.811721
20
77.968605
30
0
11
148.767113
21
79.014713
31
0
0
LINE
8
VISIBLE
10
148.767113
20
79.014713
30
0
11
150.48478
21
90.548847
31
0
0
LINE
8
VISIBLE
10
156.318644
20
93.461287
30
0
11
158.041215
21
92.527165
31
0
0
LINE
8
VISIBLE
10
159.095921
20
99.609519
30
0
11
157.175913
21
99.217851
31
0
0
LINE
8
VISIBLE
10
152.443816
20
103.703777
30
0
11
154.110798
21
114.897564
31
0
0
LINE
8
VISIBLE
10
154.110798
20
114.897564
30
0
11
142.456455
21
114.120961
31
0
0
LINE
8
VISIBLE
10
140.352464
20
110.645167
30
0
11
141.143617
21
108.852428
31
0
0
LINE
8
VISIBLE
10
131.186165
20
108.188899
30
0
11
131.732456
21
110.07076
31
0
0
LINE
8
VISIBLE
10
129.185886
20
113.236657
30
0
11
117.242346
21
112.440782
31
0
0
LINE
8
VISIBLE
10
117.242346
20
112.440782
30
0
11
116.171888
21
100.557089
31
0
0
LINE
8
VISIBLE
10
110.516656
20
97.311381
30
0
11
108.742834
21
98.144082
31
0
0
LINE
8
VISIBLE
10
108.100436
20
91.012499
30
0
11
109.994513
21
91.514804
31
0
0
LINE
8
VISIBLE
10
150.288801
20
79.049265
30
0
11
164.354918
21
78.644497
31
0
0
LINE
8
VISIBLE
10
150.288801
20
79.049265
30
0
11
151.968419
21
90.327903
31
0
0
LINE
8
VISIBLE
10
166.780125
20
81.904297
30
0
11
166.163162
21
83.764188
31
0
0
LINE
8
VISIBLE
10
176.138569
20
83.477135
30
0
11
175.415675
21
81.6558
31
0
0
LINE
8
VISIBLE
10
177.649415
20
78.261934
30
0
11
191.674
21
77.858361
31
0
0
LINE
8
VISIBLE
10
191.674
20
77.858361
30
0
11
190.15872
21
88.784847
31
0
0
LINE
8
VISIBLE
10
194.935586
20
93.22307
30
0
11
196.851568
21
92.812158
31
0
0
LINE
8
VISIBLE
10
195.867972
20
99.904738
30
0
11
194.136116
21
98.987945
31
0
0
LINE
8
VISIBLE
10
188.331766
20
101.95877
30
0
11
186.779406
21
113.152638
31
0
0
LINE
8
VISIBLE
10
186.779406
20
113.152638
30
0
11
177.810484
21
113.661592
31
0
0
LINE
8
VISIBLE
10
174.379125
20
119.206143
30
0
11
175.152577
21
121.006589
31
0
0
LINE
8
VISIBLE
10
168.003621
20
121.412267
30
0
11
168.568426
21
119.53588
31
0
0
LINE
8
VISIBLE
10
164.531847
20
114.415108
30
0
11
155.630713
21
114.920216
31
0
0
LINE
8
VISIBLE
10
155.630713
20
114.920216
30
0
11
153.927454
21
103.482833
31
0
0
LINE
8
VISIBLE
10
156.876098
20
100.687583
30
0
11
158.796106
21
101.079251
31
0
0
LINE
8
VISIBLE
10
157.326161
20
91.208567
30
0
11
155.60359
21
92.14269
31
0
0
LINE
8
VISIBLE
10
193.189137
20
77.852726
30
0
11
202.766785
21
78.135864
31
0
0
LINE
8
VISIBLE
10
193.189137
20
77.852726
30
0
11
191.644501
21
88.990894
31
0
0
LINE
8
VISIBLE
10
206.66296
20
72.907471
30
0
11
206.047459
21
71.047096
31
0
0
LINE
8
VISIBLE
10
213.20479
20
71.258685
30
0
11
212.480465
21
73.079451
31
0
0
LINE
8
VISIBLE
10
216.060977
20
78.528873
30
0
11
225.587577
21
78.810503
31
0
0
LINE
8
VISIBLE
10
225.587577
20
78.810503
30
0
11
225.646132
21
89.003241
31
0
0
LINE
8
VISIBLE
10
222.331365
20
91.35276
30
0
11
220.486171
21
90.693143
31
0
0
LINE
8
VISIBLE
10
220.5435
20
100.672514
30
0
11
222.380994
21
99.991742
31
0
0
LINE
8
VISIBLE
10
225.722537
20
102.303022
30
0
11
225.780989
21
112.477878
31
0
0
LINE
8
VISIBLE
10
225.780989
20
112.477878
30
0
11
213.623003
21
112.680339
31
0
0
LINE
8
VISIBLE
10
209.972477
20
118.08311
30
0
11
210.673249
21
119.91307
31
0
0
LINE
8
VISIBLE
10
203.513784
20
120.032293
30
0
11
204.153237
21
118.180015
31
0
0
LINE
8
VISIBLE
10
200.324846
20
112.901786
30
0
11
188.300781
21
113.102017
31
0
0
LINE
8
VISIBLE
10
188.300781
20
113.102017
30
0
11
189.817547
21
102.164817
31
0
0
LINE
8
VISIBLE
10
193.434328
20
100.31365
30
0
11
195.166184
21
101.230443
31
0
0
LINE
8
VISIBLE
10
196.537022
20
91.345508
30
0
11
194.621041
21
91.75642
31
0
0
LINE
8
VISIBLE
10
227.08739
20
78.773618
30
0
11
240.009436
21
77.727131
31
0
0
LINE
8
VISIBLE
10
227.08739
20
78.773618
30
0
11
227.146107
21
88.994624
31
0
0
LINE
8
VISIBLE
10
243.306061
20
72.101428
30
0
11
242.489406
21
70.320162
31
0
0
LINE
8
VISIBLE
10
249.626498
20
69.742167
30
0
11
249.107116
21
71.631632
31
0
0
LINE
8
VISIBLE
10
253.266035
20
76.65355
30
0
11
265.996449
21
75.622583
31
0
0
LINE
8
VISIBLE
10
265.996449
20
75.622583
30
0
11
264.998946
21
87.024447
31
0
0
LINE
8
VISIBLE
10
261.480295
20
89.055954
30
0
11
259.704337
21
88.227817
31
0
0
LINE
8
VISIBLE
10
258.83459
20
98.16938
30
0
11
260.727369
21
97.662206
31
0
0
LINE
8
VISIBLE
10
263.83981
20
100.27384
30
0
11
262.823861
21
111.886545
31
0
0
LINE
8
VISIBLE
10
262.823861
20
111.886545
30
0
11
251.660845
21
112.064589
31
0
0
LINE
8
VISIBLE
10
249.277627
20
108.773966
30
0
11
249.918383
21
106.922138
31
0
0
LINE
8
VISIBLE
10
239.940116
20
107.081285
30
0
11
240.639601
21
108.911737
31
0
0
LINE
8
VISIBLE
10
238.362536
20
112.276688
30
0
11
227.280874
21
112.453434
31
0
0
LINE
8
VISIBLE
10
227.280874
20
112.453434
30
0
11
227.222512
21
102.294404
31
0
0
LINE
8
VISIBLE
10
221.859875
20
98.585173
30
0
11
220.022381
21
99.265946
31
0
0
LINE
8
VISIBLE
10
219.981246
20
92.105606
30
0
11
221.82644
21
92.765223
31
0
0
LINE
8
VISIBLE
10
267.506271
20
75.575798
30
0
11
278.739807
21
75.937361
31
0
0
LINE
8
VISIBLE
10
267.506271
20
75.575798
30
0
11
266.493238
21
87.155177
31
0
0
LINE
8
VISIBLE
10
280.961972
20
79.338818
30
0
11
280.232877
21
81.157679
31
0
0
LINE
8
VISIBLE
10
290.207248
20
81.478715
30
0
11
289.596625
21
79.616733
31
0
0
LINE
8
VISIBLE
10
292.032923
20
76.365215
30
0
11
304
21
76.750388
31
0
0
LINE
8
VISIBLE
10
304
20
76.750388
30
0
11
304
21
113.249568
31
0
0
LINE
8
VISIBLE
10
304
20
113.249568
30
0
11
290.427647
21
112.788864
31
0
0
LINE
8
VISIBLE
10
288.21146
20
109.38351
30
0
11
288.943748
21
107.565932
31
0
0
LINE
8
VISIBLE
10
278.969957
20
107.227378
30
0
11
279.577308
21
109.090429
31
0
0
LINE
8
VISIBLE
10
277.135303
20
112.337664
30
0
11
264.328157
21
111.902934
31
0
0
LINE
8
VISIBLE
10
264.328157
20
111.902934
30
0
11
265.334102
21
100.40457
31
0
0
LINE
8
VISIBLE
10
260.339136
20
96.213318
30
0
11
258.446358
21
96.720492
31
0
0
LINE
8
VISIBLE
10
259.070414
20
89.587281
30
0
11
260.846371
21
90.415417
31
0
0
LINE
8
VISIBLE
10
0
20
114.750492
30
0
11
13.657584
21
115.245256
31
0
0
LINE
8
VISIBLE
10
0
20
114.750492
30
0
11
0
21
151.248919
31
0
0
LINE
8
VISIBLE
10
17.588476
20
110.042914
30
0
11
16.985372
21
108.178483
31
0
0
LINE
8
VISIBLE
10
24.141136
20
108.43771
30
0
11
23.404707
21
110.253615
31
0
0
LINE
8
VISIBLE
10
26.948865
20
115.72675
30
0
11
39.829629
21
116.193373
31
0
0
LINE
8
VISIBLE
10
39.829629
20
116.193373
30
0
11
38.567026
21
128.026284
31
0
0
LINE
8
VISIBLE
10
35.010342
20
129.990443
30
0
11
33.25047
21
129.12865
31
0
0
LINE
8
VISIBLE
10
32.191638
20
139.051855
30
0
11
34.093727
21
138.580803
31
0
0
LINE
8
VISIBLE
10
37.155891
20
141.251211
30
0
11
35.883424
21
153.176567
31
0
0
LINE
8
VISIBLE
10
35.883424
20
153.176567
30
0
11
24.957505
21
152.589629
31
0
0
LINE
8
VISIBLE
10
20.936397
20
157.722558
30
0
11
21.506862
21
159.597233
31
0
0
LINE
8
VISIBLE
10
14.356713
20
159.213129
30
0
11
15.12473
21
157.410357
31
0
0
LINE
8
VISIBLE
10
11.676655
20
151.876186
30
0
11
0
21
151.248919
31
0
0
LINE
8
VISIBLE
10
41.336543
20
116.208371
30
0
11
51.463191
21
115.986626
31
0
0
LINE
8
VISIBLE
10
41.336543
20
116.208371
30
0
11
40.058559
21
128.185434
31
0
0
LINE
8
VISIBLE
10
55.085341
20
110.564791
30
0
11
54.374985
21
108.73853
31
0
0
LINE
8
VISIBLE
10
61.533726
20
108.581773
30
0
11
60.903993
21
110.437379
31
0
0
LINE
8
VISIBLE
10
64.760003
20
115.695463
30
0
11
74.749595
21
115.47672
31
0
0
LINE
8
VISIBLE
10
74.749595
20
115.47672
30
0
11
74.289061
21
127.472581
31
0
0
LINE
8
VISIBLE
10
70.873898
20
129.673623
30
0
11
69.05959
21
128.933271
31
0
0
LINE
8
VISIBLE
10
68.676747
20
138.90546
30
0
11
70.542477
21
138.306388
31
0
0
LINE
8
VISIBLE
10
73.778835
20
140.76279
30
0
11
73.31515
21
152.84074
31
0
0
LINE
8
VISIBLE
10
73.31515
20
152.84074
30
0
11
61.937494
21
152.956145
31
0
0
LINE
8
VISIBLE
10
59.573419
20
149.651743
30
0
11
60.224914
21
147.803666
31
0
0
LINE
8
VISIBLE
10
50.245891
20
147.904885
30
0
11
50.934739
21
149.739367
31
0
0
LINE
8
VISIBLE
10
48.638178
20
153.091042
30
0
11
37.388889
21
153.205145
31
0
0
LINE
8
VISIBLE
10
37.388889
20
153.205145
30
0
11
38.647424
21
141.410361
31
0
0
LINE
8
VISIBLE
10
33.733146
20
137.124788
30
0
11
31.831056
21
137.59584
31
0
0
LINE
8
VISIBLE
10
32.590783
20
130.4758
30
0
11
34.350655
21
131.337593
31
0
0
LINE
8
VISIBLE
10
76.252398
20
115.432466
30
0
11
89.424616
21
114.930614
31
0
0
LINE
8
VISIBLE
10
76.252398
20
115.432466
30
0
11
75.787956
21
127.530125
31
0
0
LINE
8
VISIBLE
10
92.958531
20
109.450859
30
0
11
92.218707
21
107.636335
31
0
0
LINE
8
VISIBLE
10
99.373974
20
107.363724
30
0
11
98.774358
21
109.22928
31
0
0
LINE
8
VISIBLE
10
102.714974
20
114.42426
30
0
11
115.726248
21
113.92854
31
0
0
LINE
8
VISIBLE
10
115.726248
20
113.92854
30
0
11
114.599779
21
125.940326
31
0
0
LINE
8
VISIBLE
10
111.068515
20
127.949826
30
0
11
109.297762
21
127.110618
31
0
0
LINE
8
VISIBLE
10
108.365966
20
137.046557
30
0
11
110.261874
21
136.55121
31
0
0
LINE
8
VISIBLE
10
113.35795
20
139.182224
30
0
11
112.212965
21
151.391447
31
0
0
LINE
8
VISIBLE
10
112.212965
20
151.391447
30
0
11
100.084709
21
151.849396
31
0
0
LINE
8
VISIBLE
10
96.548931
20
157.327949
30
0
11
97.288138
21
159.142724
31
0
0
LINE
8
VISIBLE
10
90.132779
20
159.412903
30
0
11
90.733029
21
157.547551
31
0
0
LINE
8
VISIBLE
10
86.79418
20
152.351231
30
0
11
74.817686
21
152.80345
31
0
0
LINE
8
VISIBLE
10
74.817686
20
152.80345
30
0
11
75.277731
21
140.820334
31
0
0
LINE
8
VISIBLE
10
70.083899
20
136.878206
30
0
11
68.218169
21
137.477278
31
0
0
LINE
8
VISIBLE
10
68.492864
20
130.322091
30
0
11
70.307172
21
131.062443
31
0
0
LINE
8
VISIBLE
10
117.231438
20
113.943382
30
0
11
129.086153
21
114.733338
31
0
0
LINE
8
VISIBLE
10
117.231438
20
113.943382
30
0
11
116.093227
21
126.080382
31
0
0
LINE
8
VISIBLE
10
133.172987
20
109.652584
30
0
11
132.626695
21
107.770723
31
0
0
LINE
8
VISIBLE
10
139.771308
20
108.246815
30
0
11
138.980155
21
110.039553
31
0
0
LINE
8
VISIBLE
10
142.356722
20
115.617641
30
0
11
154.118707
21
116.401418
31
0
0
LINE
8
VISIBLE
10
154.118707
20
116.401418
30
0
11
152.508469
21
126.42662
31
0
0
LINE
8
VISIBLE
10
148.852802
20
128.199757
30
0
11
147.141015
21
127.246016
31
0
0
LINE
8
VISIBLE
10
145.558397
20
137.099262
30
0
11
147.482754
21
136.729555
31
0
0
LINE
8
VISIBLE
10
150.39927
20
139.55831
30
0
11
148.755462
21
149.792521
31
0
0
LINE
8
VISIBLE
10
148.755462
20
149.792521
30
0
11
137.759408
21
150.274859
31
0
0
LINE
8
VISIBLE
10
135.285358
20
147.051972
30
0
11
135.874226
21
145.182996
31
0
0
LINE
8
VISIBLE
10
125.904278
20
145.620325
30
0
11
126.654533
21
147.43056
31
0
0
LINE
8
VISIBLE
10
124.472185
20
150.857698
30
0
11
113.725394
21
151.329102
31
0
0
LINE
8
VISIBLE
10
113.725394
20
151.329102
30
0
11
114.851397
21
139.32228
31
0
0
LINE
8
VISIBLE
10
109.882695
20
135.099927
30
0
11
107.986787
21
135.595274
31
0
0
LINE
8
VISIBLE
10
108.655363
20
128.466097
30
0
11
110.426116
21
129.305305
31
0
0
LINE
8
VISIBLE
10
155.634561
20
116.422411
30
0
11
164.61683
21
115.912699
31
0
0
LINE
8
VISIBLE
10
155.634561
20
116.422411
30
0
11
153.989487
21
126.664499
31
0
0
LINE
8
VISIBLE
10
167.132085
20
119.103532
30
0
11
166.56728
21
120.979919
31
0
0
LINE
8
VISIBLE
10
176.530787
20
120.414525
30
0
11
175.757334
21
118.614079
31
0
0
LINE
8
VISIBLE
10
177.895467
20
115.159183
30
0
11
186.679228
21
114.660736
31
0
0
LINE
8
VISIBLE
10
186.679228
20
114.660736
30
0
11
186.54832
21
127.162449
31
0
0
LINE
8
VISIBLE
10
191.850107
20
130.958147
30
0
11
193.698399
21
130.307259
31
0
0
LINE
8
VISIBLE
10
193.623424
20
137.467324
30
0
11
191.789168
21
136.777875
31
0
0
LINE
8
VISIBLE
10
186.409061
20
140.46172
30
0
11
186.278227
21
152.956352
31
0
0
LINE
8
VISIBLE
10
186.278227
20
152.956352
30
0
11
174.899284
21
151.970809
31
0
0
LINE
8
VISIBLE
10
172.864723
20
148.453924
30
0
11
173.691317
21
146.677248
31
0
0
LINE
8
VISIBLE
10
163.749003
20
145.816134
30
0
11
164.25782
21
147.708471
31
0
0
LINE
8
VISIBLE
10
161.64889
20
150.823179
30
0
11
150.267475
21
149.837422
31
0
0
LINE
8
VISIBLE
10
150.267475
20
149.837422
30
0
11
151.880288
21
139.796189
31
0
0
LINE
8
VISIBLE
10
147.19975
20
135.256494
30
0
11
145.275392
21
135.626201
31
0
0
LINE
8
VISIBLE
10
146.410943
20
128.556358
30
0
11
148.12273
21
129.510099
31
0
0
LINE
8
VISIBLE
10
188.179902
20
114.604237
30
0
11
200.349822
21
114.401578
31
0
0
LINE
8
VISIBLE
10
188.179902
20
114.604237
30
0
11
188.048238
21
127.178155
31
0
0
LINE
8
VISIBLE
10
202.735352
20
117.690524
30
0
11
202.095898
21
119.542803
31
0
0
LINE
8
VISIBLE
10
212.07405
20
119.376642
30
0
11
211.373279
21
117.546682
31
0
0
LINE
8
VISIBLE
10
213.647978
20
114.180131
30
0
11
225.839237
21
113.977116
31
0
0
LINE
8
VISIBLE
10
225.839237
20
113.977116
30
0
11
226.753993
21
126.413988
31
0
0
LINE
8
VISIBLE
10
223.605696
20
128.982285
30
0
11
221.72012
21
128.448956
31
0
0
LINE
8
VISIBLE
10
222.452157
20
138.401607
30
0
11
224.239408
21
137.598135
31
0
0
LINE
8
VISIBLE
10
227.729599
20
139.678158
30
0
11
228.638513
21
152.035603
31
0
0
LINE
8
VISIBLE
10
228.638513
20
152.035603
30
0
11
214.862349
21
152.362496
31
0
0
LINE
8
VISIBLE
10
212.453615
20
149.090505
30
0
11
213.079951
21
147.23375
31
0
0
LINE
8
VISIBLE
10
203.103223
20
147.470487
30
0
11
203.816922
21
149.295444
31
0
0
LINE
8
VISIBLE
10
201.566092
20
152.678001
30
0
11
187.777798
21
153.005181
31
0
0
LINE
8
VISIBLE
10
187.777798
20
153.005181
30
0
11
187.908978
21
140.477426
31
0
0
LINE
8
VISIBLE
10
191.261407
20
138.181965
30
0
11
193.095663
21
138.871414
31
0
0
LINE
8
VISIBLE
10
193.200155
20
128.892425
30
0
11
191.351864
21
129.543314
31
0
0
LINE
8
VISIBLE
10
227.34149
20
113.952658
30
0
11
238.386457
21
113.776498
31
0
0
LINE
8
VISIBLE
10
227.34149
20
113.952658
30
0
11
228.249952
21
126.303958
31
0
0
LINE
8
VISIBLE
10
242.04078
20
108.376294
30
0
11
241.341294
21
106.545842
31
0
0
LINE
8
VISIBLE
10
248.500841
20
106.431651
30
0
11
247.860086
21
108.28348
31
0
0
LINE
8
VISIBLE
10
251.684766
20
113.564398
30
0
11
262.842077
21
113.386446
31
0
0
LINE
8
VISIBLE
10
262.842077
20
113.386446
30
0
11
264.090117
21
124.604175
31
0
0
LINE
8
VISIBLE
10
261.040001
20
127.288335
30
0
11
259.135811
21
126.825847
31
0
0
LINE
8
VISIBLE
10
260.239286
20
136.744187
30
0
11
261.995262
21
135.874484
31
0
0
LINE
8
VISIBLE
10
265.560748
20
137.822618
30
0
11
266.798834
21
148.950878
31
0
0
LINE
8
VISIBLE
10
266.798834
20
148.950878
30
0
11
255.103411
21
149.909974
31
0
0
LINE
8
VISIBLE
10
251.812495
20
155.539019
30
0
11
252.630957
21
157.319456
31
0
0
LINE
8
VISIBLE
10
245.494456
20
157.904692
30
0
11
246.01192
21
156.014701
31
0
0
LINE
8
VISIBLE
10
241.847908
20
150.997006
30
0
11
230.136812
21
151.957387
31
0
0
LINE
8
VISIBLE
10
230.136812
20
151.957387
30
0
11
229.225558
21
139.568127
31
0
0
LINE
8
VISIBLE
10
223.624365
20
136.230026
30
0
11
221.837114
21
137.033498
31
0
0
LINE
8
VISIBLE
10
221.311867
20
129.892331
30
0
11
223.197443
21
130.425659
31
0
0
LINE
8
VISIBLE
10
264.353358
20
113.404654
30
0
11
277.084416
21
113.836801
31
0
0
LINE
8
VISIBLE
10
264.353358
20
113.404654
30
0
11
265.580919
21
124.438314
31
0
0
LINE
8
VISIBLE
10
281.00344
20
108.625513
30
0
11
280.396089
21
106.762462
31
0
0
LINE
8
VISIBLE
10
287.552425
20
107.005379
30
0
11
286.820137
21
108.822957
31
0
0
LINE
8
VISIBLE
10
290.37676
20
114.288
30
0
11
304
21
114.750432
31
0
0
LINE
8
VISIBLE
10
304
20
114.750432
30
0
11
304
21
151.248416
31
0
0
LINE
8
VISIBLE
10
304
20
151.248416
30
0
11
292.499451
21
150.500673
31
0
0
LINE
8
VISIBLE
10
290.389861
20
147.028275
30
0
11
291.178125
21
145.234263
31
0
0
LINE
8
VISIBLE
10
281.219616
20
144.586781
30
0
11
281.768939
21
146.467759
31
0
0
LINE
8
VISIBLE
10
279.227474
20
149.637755
30
0
11
268.305502
21
148.92763
31
0
0
LINE
8
VISIBLE
10
268.305502
20
148.92763
30
0
11
267.05155
21
137.656757
31
0
0
LINE
8
VISIBLE
10
261.329519
20
134.530316
30
0
11
259.573544
21
135.400019
31
0
0
LINE
8
VISIBLE
10
258.781785
20
128.28347
30
0
11
260.685975
21
128.745958
31
0
0
LINE
8
VISIBLE
10
0
20
152.751081
30
0
11
11.596191
21
153.374026
31
0
0
LINE
8
VISIBLE
10
0
20
152.751081
30
0
11
0
21
189.249803
31
0
0
LINE
8
VISIBLE
10
13.74474
20
156.822454
30
0
11
12.976724
21
158.625226
31
0
0
LINE
8
VISIBLE
10
22.941891
20
159.160552
30
0
11
22.371426
21
157.285878
31
0
0
LINE
8
VISIBLE
10
24.877042
20
154.08747
30
0
11
35.783301
21
154.673351
31
0
0
LINE
8
VISIBLE
10
35.783301
20
154.673351
30
0
11
35.470505
21
165.720602
31
0
0
LINE
8
VISIBLE
10
40.703752
20
169.610254
30
0
11
42.563358
21
168.992434
31
0
0
LINE
8
VISIBLE
10
42.360695
20
176.150023
30
0
11
40.539027
21
175.427969
31
0
0
LINE
8
VISIBLE
10
35.094073
20
179.015274
30
0
11
34.781694
21
190.047763
31
0
0
LINE
8
VISIBLE
10
34.781694
20
190.047763
30
0
11
24.420593
21
189.810059
31
0
0
LINE
8
VISIBLE
10
22.167104
20
186.429274
30
0
11
22.879366
21
184.603755
31
0
0
LINE
8
VISIBLE
10
12.902456
20
184.374865
30
0
11
13.530252
21
186.231127
31
0
0
LINE
8
VISIBLE
10
11.124091
20
189.505011
30
0
11
0
21
189.249803
31
0
0
LINE
8
VISIBLE
10
37.28297
20
154.706297
30
0
11
48.653392
21
154.590965
31
0
0
LINE
8
VISIBLE
10
37.28297
20
154.706297
30
0
11
36.969904
21
165.763057
31
0
0
LINE
8
VISIBLE
10
52.339002
20
149.212066
30
0
11
51.650154
21
147.377584
31
0
0
LINE
8
VISIBLE
10
58.810244
20
147.304959
30
0
11
58.158749
21
149.153036
31
0
0
LINE
8
VISIBLE
10
61.952707
20
154.456068
30
0
11
73.287596
21
154.341097
31
0
0
LINE
8
VISIBLE
10
73.287596
20
154.341097
30
0
11
73.29296
21
164.301647
31
0
0
LINE
8
VISIBLE
10
69.966005
20
166.633876
30
0
11
68.12427
21
165.964662
31
0
0
LINE
8
VISIBLE
10
68.129643
20
175.944197
30
0
11
69.970657
21
175.273
31
0
0
LINE
8
VISIBLE
10
73.300121
20
177.601645
30
0
11
73.305513
21
187.616042
31
0
0
LINE
8
VISIBLE
10
73.305513
20
187.616042
30
0
11
61.370734
21
188.388763
31
0
0
LINE
8
VISIBLE
10
57.983669
20
193.960483
30
0
11
58.771446
21
195.754708
31
0
0
LINE
8
VISIBLE
10
51.625949
20
196.217345
30
0
11
52.175783
21
194.336516
31
0
0
LINE
8
VISIBLE
10
48.098523
20
189.248076
30
0
11
36.283278
21
190.013057
31
0
0
LINE
8
VISIBLE
10
36.283278
20
190.013057
30
0
11
36.593472
21
179.057729
31
0
0
LINE
8
VISIBLE
10
39.986308
20
176.822423
30
0
11
41.807975
21
177.544477
31
0
0
LINE
8
VISIBLE
10
42.090427
20
167.568939
30
0
11
40.230822
21
168.186759
31
0
0
LINE
8
VISIBLE
10
74.787578
20
154.305656
30
0
11
86.850778
21
153.850163
31
0
0
LINE
8
VISIBLE
10
74.787578
20
154.305656
30
0
11
74.792959
21
164.300839
31
0
0
LINE
8
VISIBLE
10
89.305136
20
157.088071
30
0
11
88.704886
21
158.953422
31
0
0
LINE
8
VISIBLE
10
98.677315
20
158.576875
30
0
11
97.938108
21
156.7621
31
0
0
LINE
8
VISIBLE
10
100.141307
20
153.348328
30
0
11
112.12913
21
152.895681
31
0
0
LINE
8
VISIBLE
10
112.12913
20
152.895681
30
0
11
111.835725
21
164.968131
31
0
0
LINE
8
VISIBLE
10
117.08452
20
168.836777
30
0
11
118.941634
21
168.211509
31
0
0
LINE
8
VISIBLE
10
118.76766
20
175.369853
30
0
11
116.943113
21
174.655106
31
0
0
LINE
8
VISIBLE
10
111.512581
20
178.264205
30
0
11
111.21895
21
190.345949
31
0
0
LINE
8
VISIBLE
10
111.21895
20
190.345949
30
0
11
99.690141
21
189.483837
31
0
0
LINE
8
VISIBLE
10
95.562277
20
194.531313
30
0
11
96.093304
21
196.417538
31
0
0
LINE
8
VISIBLE
10
88.952783
20
195.883578
30
0
11
89.758435
21
194.097308
31
0
0
LINE
8
VISIBLE
10
86.427172
20
188.492046
30
0
11
74.805517
21
187.622991
31
0
0
LINE
8
VISIBLE
10
74.805517
20
187.622991
30
0
11
74.800121
21
177.600837
31
0
0
LINE
8
VISIBLE
10
69.456868
20
173.863737
30
0
11
67.615854
21
174.534934
31
0
0
LINE
8
VISIBLE
10
67.611999
20
167.374477
30
0
11
69.453734
21
168.043691
31
0
0
LINE
8
VISIBLE
10
113.631055
20
152.834683
30
0
11
124.537918
21
152.356257
31
0
0
LINE
8
VISIBLE
10
113.631055
20
152.834683
30
0
11
113.335282
21
165.004576
31
0
0
LINE
8
VISIBLE
10
128.040236
20
146.856253
30
0
11
127.28998
21
145.046018
31
0
0
LINE
8
VISIBLE
10
134.443559
20
144.732229
30
0
11
133.854691
21
146.601204
31
0
0
LINE
8
VISIBLE
10
137.825142
20
151.773418
30
0
11
148.722086
21
151.295428
31
0
0
LINE
8
VISIBLE
10
148.722086
20
151.295428
30
0
11
150.031982
21
164.629161
31
0
0
LINE
8
VISIBLE
10
146.947561
20
167.273829
30
0
11
145.049483
21
166.786863
31
0
0
LINE
8
VISIBLE
10
146.025168
20
176.718588
30
0
11
147.792196
21
175.871565
31
0
0
LINE
8
VISIBLE
10
151.332305
20
177.865443
30
0
11
152.629438
21
191.069258
31
0
0
LINE
8
VISIBLE
10
152.629438
20
191.069258
30
0
11
139.365215
21
190.851878
31
0
0
LINE
8
VISIBLE
10
135.538218
20
196.131116
30
0
11
136.17816
21
197.983226
31
0
0
LINE
8
VISIBLE
10
129.018664
20
197.865893
30
0
11
129.718953
21
196.035747
31
0
0
LINE
8
VISIBLE
10
126.067001
20
190.63394
30
0
11
112.717711
21
190.415165
31
0
0
LINE
8
VISIBLE
10
112.717711
20
190.415165
30
0
11
113.012138
21
178.30065
31
0
0
LINE
8
VISIBLE
10
116.395987
20
176.051764
30
0
11
118.220534
21
176.766511
31
0
0
LINE
8
VISIBLE
10
118.463002
20
166.789921
30
0
11
116.605888
21
167.41519
31
0
0
LINE
8
VISIBLE
10
150.233696
20
151.340112
30
0
11
161.519458
21
152.317584
31
0
0
LINE
8
VISIBLE
10
150.233696
20
151.340112
30
0
11
151.524796
21
164.482508
31
0
0
LINE
8
VISIBLE
10
165.70637
20
147.318981
30
0
11
165.197553
21
145.426643
31
0
0
LINE
8
VISIBLE
10
172.331304
20
146.044505
30
0
11
171.504709
21
147.821181
31
0
0
LINE
8
VISIBLE
10
174.769852
20
153.465215
30
0
11
186.312163
21
154.464907
31
0
0
LINE
8
VISIBLE
10
186.312163
20
154.464907
30
0
11
187.031458
21
165.778705
31
0
0
LINE
8
VISIBLE
10
183.857818
20
168.315618
30
0
11
181.97763
21
167.763596
31
0
0
LINE
8
VISIBLE
10
182.610818
20
177.723023
30
0
11
184.405959
21
176.937336
31
0
0
LINE
8
VISIBLE
10
187.875326
20
179.051907
30
0
11
188.586068
21
190.231182
31
0
0
LINE
8
VISIBLE
10
188.586068
20
190.231182
30
0
11
178.050932
21
190.486564
31
0
0
LINE
8
VISIBLE
10
175.640524
20
187.215807
30
0
11
176.265909
21
185.358732
31
0
0
LINE
8
VISIBLE
10
166.289304
20
185.600574
30
0
11
167.003936
21
187.425166
31
0
0
LINE
8
VISIBLE
10
164.754838
20
190.808874
30
0
11
154.136366
21
191.066276
31
0
0
LINE
8
VISIBLE
10
154.136366
20
191.066276
30
0
11
152.825119
21
177.71879
31
0
0
LINE
8
VISIBLE
10
147.143815
20
174.518937
30
0
11
145.376787
21
175.36596
31
0
0
LINE
8
VISIBLE
10
144.676719
20
168.239807
30
0
11
146.574797
21
168.726773
31
0
0
LINE
8
VISIBLE
10
187.817719
20
154.504656
30
0
11
201.601675
21
154.177578
31
0
0
LINE
8
VISIBLE
10
187.817719
20
154.504656
30
0
11
188.528436
21
165.683532
31
0
0
LINE
8
VISIBLE
10
205.213894
20
148.749121
30
0
11
204.500195
21
146.924163
31
0
0
LINE
8
VISIBLE
10
211.658638
20
146.754302
30
0
11
211.032303
21
148.611057
31
0
0
LINE
8
VISIBLE
10
214.897933
20
153.862074
30
0
11
228.704013
21
153.534471
31
0
0
LINE
8
VISIBLE
10
228.704013
20
153.534471
30
0
11
228.838715
21
164.128681
31
0
0
LINE
8
VISIBLE
10
225.540402
20
166.501244
30
0
11
223.690656
21
165.854503
31
0
0
LINE
8
VISIBLE
10
223.817531
20
175.833232
30
0
11
225.650236
21
175.13967
31
0
0
LINE
8
VISIBLE
10
229.007806
20
177.427606
30
0
11
229.142999
21
188.060484
31
0
0
LINE
8
VISIBLE
10
229.142999
20
188.060484
30
0
11
216.242856
21
188.758226
31
0
0
LINE
8
VISIBLE
10
212.796812
20
194.293662
30
0
11
213.565491
21
196.096152
31
0
0
LINE
8
VISIBLE
10
206.415484
20
196.482881
30
0
11
206.98526
21
194.607997
31
0
0
LINE
8
VISIBLE
10
202.962268
20
189.476545
30
0
11
190.0854
21
190.173028
31
0
0
LINE
8
VISIBLE
10
190.0854
20
190.173028
30
0
11
189.372304
21
178.956734
31
0
0
LINE
8
VISIBLE
10
183.804529
20
175.563188
30
0
11
182.009388
21
176.348876
31
0
0
LINE
8
VISIBLE
10
181.555067
20
169.202845
30
0
11
183.435255
21
169.754868
31
0
0
LINE
8
VISIBLE
10
230.203149
20
153.456982
30
0
11
241.970505
21
152.491987
31
0
0
LINE
8
VISIBLE
10
230.203149
20
153.456982
30
0
11
230.338594
21
164.10961
31
0
0
LINE
8
VISIBLE
10
244.565166
20
155.618592
30
0
11
244.047702
21
157.508583
31
0
0
LINE
8
VISIBLE
10
253.993849
20
156.692938
30
0
11
253.175388
21
154.912501
31
0
0
LINE
8
VISIBLE
10
255.226008
20
151.404956
30
0
11
266.883102
21
150.449003
31
0
0
LINE
8
VISIBLE
10
266.883102
20
150.449003
30
0
11
266.935167
21
162.534633
31
0
0
LINE
8
VISIBLE
10
272.29247
20
166.251565
30
0
11
274.13094
21
165.573433
31
0
0
LINE
8
VISIBLE
10
274.161787
20
172.733824
30
0
11
272.317542
21
172.071558
31
0
0
LINE
8
VISIBLE
10
266.992463
20
175.83451
30
0
11
267.044779
21
187.978269
31
0
0
LINE
8
VISIBLE
10
267.044779
20
187.978269
30
0
11
255.499193
21
187.991403
31
0
0
LINE
8
VISIBLE
10
253.16497
20
184.665847
30
0
11
253.833081
21
182.823711
31
0
0
LINE
8
VISIBLE
10
243.853551
20
182.835063
30
0
11
244.525851
21
184.675674
31
0
0
LINE
8
VISIBLE
10
242.199201
20
188.006533
30
0
11
230.642601
21
188.01968
31
0
0
LINE
8
VISIBLE
10
230.642601
20
188.01968
30
0
11
230.507684
21
177.408535
31
0
0
LINE
8
VISIBLE
10
225.119327
20
173.736767
30
0
11
223.286622
21
174.430329
31
0
0
LINE
8
VISIBLE
10
223.195587
20
167.27045
30
0
11
225.045334
21
167.917191
31
0
0
LINE
8
VISIBLE
10
268.38306
20
150.43584
30
0
11
279.130153
21
151.134595
31
0
0
LINE
8
VISIBLE
10
268.38306
20
150.43584
30
0
11
268.435153
21
162.528171
31
0
0
LINE
8
VISIBLE
10
283.208794
20
146.047262
30
0
11
282.659471
21
144.166284
31
0
0
LINE
8
VISIBLE
10
289.804842
20
144.630862
30
0
11
289.016578
21
146.424873
31
0
0
LINE
8
VISIBLE
10
292.40213
20
151.997513
30
0
11
304
21
152.751584
31
0
0
LINE
8
VISIBLE
10
304
20
152.751584
30
0
11
304
21
189.249537
31
0
0
LINE
8
VISIBLE
10
304
20
189.249537
30
0
11
292.57125
21
188.847789
31
0
0
LINE
8
VISIBLE
10
288.64594
20
194.054344
30
0
11
289.251043
21
195.918126
31
0
0
LINE
8
VISIBLE
10
282.095005
20
195.666574
30
0
11
282.829486
21
193.849881
31
0
0
LINE
8
VISIBLE
10
279.279459
20
188.38055
30
0
11
268.5449
21
188.003204
31
0
0
LINE
8
VISIBLE
10
268.5449
20
188.003204
30
0
11
268.492449
21
175.828048
31
0
0
LINE
8
VISIBLE
10
271.810589
20
173.483294
30
0
11
273.654834
21
174.14556
31
0
0
LINE
8
VISIBLE
10
273.611842
20
164.166117
30
0
11
271.773372
21
164.844249
31
0
0
LINE
8
VISIBLE
10
0
20
190.750197
30
0
11
11.089688
21
191.004616
31
0
0
LINE
8
VISIBLE
10
0
20
190.750197
30
0
11
0
21
228
31
0
0
LINE
8
VISIBLE
10
14.951187
20
185.750561
30
0
11
14.323391
21
183.894299
31
0
0
LINE
8
VISIBLE
10
21.481965
20
184.058531
30
0
11
20.769702
21
185.884049
31
0
0
LINE
8
VISIBLE
10
24.386189
20
191.309664
30
0
11
34.807751
21
191.548755
31
0
0
LINE
8
VISIBLE
10
34.807751
20
191.548755
30
0
11
35.562564
21
202.822297
31
0
0
LINE
8
VISIBLE
10
41.14172
20
206.197098
30
0
11
42.934208
21
205.405377
31
0
0
LINE
8
VISIBLE
10
43.412561
20
212.549839
30
0
11
41.530527
21
212.004143
31
0
0
LINE
8
VISIBLE
10
36.451067
20
216.092586
30
0
11
37.248321
21
228
31
0
0
LINE
8
VISIBLE
10
37.248321
20
228
30
0
11
0
21
228
31
0
0
LINE
8
VISIBLE
10
36.308819
20
191.514544
30
0
11
48.195438
21
190.744942
31
0
0
LINE
8
VISIBLE
10
36.308819
20
191.514544
30
0
11
37.059213
21
202.72209
31
0
0
LINE
8
VISIBLE
10
50.736042
20
193.915628
30
0
11
50.186208
21
195.796457
31
0
0
LINE
8
VISIBLE
10
60.144892
20
195.151679
30
0
11
59.357116
21
193.357454
31
0
0
LINE
8
VISIBLE
10
61.467649
20
189.885629
30
0
11
73.344072
21
189.116686
31
0
0
LINE
8
VISIBLE
10
73.344072
20
189.116686
30
0
11
73.953428
21
201.554182
31
0
0
LINE
8
VISIBLE
10
79.471284
20
205.028306
30
0
11
81.277656
21
204.268796
31
0
0
LINE
8
VISIBLE
10
81.628052
20
211.420676
30
0
11
79.756087
21
210.84138
31
0
0
LINE
8
VISIBLE
10
74.604261
20
214.838249
30
0
11
75.2491
21
228
31
0
0
LINE
8
VISIBLE
10
75.2491
20
228
30
0
11
38.751679
21
228
31
0
0
LINE
8
VISIBLE
10
38.751679
20
228
30
0
11
37.947717
21
215.992378
31
0
0
LINE
8
VISIBLE
10
41.112807
20
213.444806
30
0
11
42.994841
21
213.990502
31
0
0
LINE
8
VISIBLE
10
42.32816
20
204.03326
30
0
11
40.535672
21
204.824981
31
0
0
LINE
8
VISIBLE
10
74.846536
20
189.130247
30
0
11
86.315316
21
189.98787
31
0
0
LINE
8
VISIBLE
10
74.846536
20
189.130247
30
0
11
75.451631
21
201.48078
31
0
0
LINE
8
VISIBLE
10
88.391078
20
193.480595
30
0
11
87.585426
21
195.266865
31
0
0
LINE
8
VISIBLE
10
97.537176
20
196.011047
30
0
11
97.006149
21
194.124821
31
0
0
LINE
8
VISIBLE
10
99.578285
20
190.97966
30
0
11
111.237292
21
191.851508
31
0
0
LINE
8
VISIBLE
10
111.237292
20
191.851508
30
0
11
111.856462
21
202.978282
31
0
0
LINE
8
VISIBLE
10
108.662874
20
205.490038
30
0
11
106.787106
21
204.923176
31
0
0
LINE
8
VISIBLE
10
107.341578
20
214.887296
30
0
11
109.142871
21
214.115817
31
0
0
LINE
8
VISIBLE
10
112.595421
20
216.257737
30
0
11
113.24884
21
228
31
0
0
LINE
8
VISIBLE
10
113.24884
20
228
30
0
11
76.7509
21
228
31
0
0
LINE
8
VISIBLE
10
76.7509
20
228
30
0
11
76.102464
21
214.764847
31
0
0
LINE
8
VISIBLE
10
79.312647
20
212.274336
30
0
11
81.184612
21
212.853631
31
0
0
LINE
8
VISIBLE
10
80.696265
20
202.886051
30
0
11
78.889893
21
203.645561
31
0
0
LINE
8
VISIBLE
10
112.74319
20
191.915784
30
0
11
126.042422
21
192.133739
31
0
0
LINE
8
VISIBLE
10
112.74319
20
191.915784
30
0
11
113.354145
21
202.89494
31
0
0
LINE
8
VISIBLE
10
128.31801
20
195.499689
30
0
11
127.617721
21
197.329834
31
0
0
LINE
8
VISIBLE
10
137.595917
20
197.493362
30
0
11
136.955974
21
195.641252
31
0
0
LINE
8
VISIBLE
10
139.340636
20
192.351676
30
0
11
152.677738
21
192.570251
31
0
0
LINE
8
VISIBLE
10
152.677738
20
192.570251
30
0
11
152.247521
21
203.241655
31
0
0
LINE
8
VISIBLE
10
148.828138
20
205.436134
30
0
11
147.015255
21
204.692298
31
0
0
LINE
8
VISIBLE
10
146.613257
20
214.663733
30
0
11
148.480135
21
214.068246
31
0
0
LINE
8
VISIBLE
10
151.711768
20
216.53086
30
0
11
151.249391
21
228
31
0
0
LINE
8
VISIBLE
10
151.249391
20
228
30
0
11
114.75116
21
228
31
0
0
LINE
8
VISIBLE
10
114.75116
20
228
30
0
11
114.093104
21
216.174396
31
0
0
LINE
8
VISIBLE
10
108.552318
20
212.73696
30
0
11
106.751025
21
213.508439
31
0
0
LINE
8
VISIBLE
10
106.353184
20
206.359042
30
0
11
108.228951
21
206.925904
31
0
0
LINE
8
VISIBLE
10
154.179141
20
192.56568
30
0
11
164.791189
21
192.308434
31
0
0
LINE
8
VISIBLE
10
154.179141
20
192.56568
30
0
11
153.746304
21
203.302079
31
0
0
LINE
8
VISIBLE
10
168.400629
20
186.878128
30
0
11
167.685996
21
185.053536
31
0
0
LINE
8
VISIBLE
10
174.844351
20
184.880011
30
0
11
174.218966
21
186.737086
31
0
0
LINE
8
VISIBLE
10
178.087283
20
191.986123
30
0
11
188.646719
21
191.730153
31
0
0
LINE
8
VISIBLE
10
188.646719
20
191.730153
30
0
11
188.831552
21
202.84442
31
0
0
LINE
8
VISIBLE
10
194.234242
20
206.495065
30
0
11
196.064218
21
205.794334
31
0
0
LINE
8
VISIBLE
10
196.183282
20
212.953802
30
0
11
194.331018
21
212.314307
31
0
0
LINE
8
VISIBLE
10
189.052704
20
216.142581
30
0
11
189.249896
21
228
31
0
0
LINE
8
VISIBLE
10
189.249896
20
228
30
0
11
152.750609
21
228
31
0
0
LINE
8
VISIBLE
10
152.750609
20
228
30
0
11
153.210551
21
216.591284
31
0
0
LINE
8
VISIBLE
10
148.0243
20
212.639186
30
0
11
146.157423
21
213.234673
31
0
0
LINE
8
VISIBLE
10
146.445862
20
206.080027
30
0
11
148.258745
21
206.823863
31
0
0
LINE
8
VISIBLE
10
190.145959
20
191.671945
30
0
11
203.043281
21
190.974356
31
0
0
LINE
8
VISIBLE
10
190.145959
20
191.671945
30
0
11
190.331345
21
202.819478
31
0
0
LINE
8
VISIBLE
10
205.550071
20
194.171843
30
0
11
204.980294
21
196.046727
31
0
0
LINE
8
VISIBLE
10
214.945264
20
195.507743
30
0
11
214.176586
21
193.705253
31
0
0
LINE
8
VISIBLE
10
216.323869
20
190.256036
30
0
11
229.112718
21
189.564314
31
0
0
LINE
8
VISIBLE
10
229.112718
20
189.564314
30
0
11
228.523978
21
201.706742
31
0
0
LINE
8
VISIBLE
10
233.677827
20
205.701003
30
0
11
235.549498
21
205.12076
31
0
0
LINE
8
VISIBLE
10
235.202722
20
212.272816
30
0
11
233.395966
21
211.514221
31
0
0
LINE
8
VISIBLE
10
227.879869
20
214.991136
30
0
11
227.249119
21
228
31
0
0
LINE
8
VISIBLE
10
227.249119
20
228
30
0
11
190.750104
21
228
31
0
0
LINE
8
VISIBLE
10
190.750104
20
228
30
0
11
190.552497
21
216.117639
31
0
0
LINE
8
VISIBLE
10
193.841496
20
213.732182
30
0
11
195.69376
21
214.371677
31
0
0
LINE
8
VISIBLE
10
195.527821
20
204.393521
30
0
11
193.697845
21
205.094252
31
0
0
LINE
8
VISIBLE
10
230.616643
20
189.51971
30
0
11
242.200908
21
189.506532
31
0
0
LINE
8
VISIBLE
10
230.616643
20
189.51971
30
0
11
230.022218
21
201.779386
31
0
0
LINE
8
VISIBLE
10
245.934806
20
184.161041
30
0
11
245.262506
21
182.32043
31
0
0
LINE
8
VISIBLE
10
252.422959
20
182.312284
30
0
11
251.754849
21
184.15442
31
0
0
LINE
8
VISIBLE
10
255.500899
20
189.491402
30
0
11
267.012849
21
189.478306
31
0
0
LINE
8
VISIBLE
10
267.012849
20
189.478306
30
0
11
266.453929
21
201.686364
31
0
0
LINE
8
VISIBLE
10
263.022619
20
203.862147
30
0
11
261.213823
21
203.108428
31
0
0
LINE
8
VISIBLE
10
260.757409
20
213.077521
30
0
11
262.627509
21
212.492232
31
0
0
LINE
8
VISIBLE
10
265.845654
20
214.972447
30
0
11
265.249214
21
228
31
0
0
LINE
8
VISIBLE
10
265.249214
20
228
30
0
11
228.750881
21
228
31
0
0
LINE
8
VISIBLE
10
228.750881
20
228
30
0
11
229.378109
21
215.06378
31
0
0
LINE
8
VISIBLE
10
232.815275
20
212.89726
30
0
11
234.622031
21
213.655855
31
0
0
LINE
8
VISIBLE
10
235.105333
20
203.68803
30
0
11
233.233662
21
204.268272
31
0
0
LINE
8
VISIBLE
10
268.513289
20
189.50302
30
0
11
279.226763
21
189.879624
31
0
0
LINE
8
VISIBLE
10
268.513289
20
189.50302
30
0
11
267.952359
21
201.754966
31
0
0
LINE
8
VISIBLE
10
281.43884
20
193.28765
30
0
11
280.704359
21
195.104343
31
0
0
LINE
8
VISIBLE
10
290.677735
20
195.454931
30
0
11
290.072632
21
193.591148
31
0
0
LINE
8
VISIBLE
10
292.518554
20
190.346863
30
0
11
304
21
190.750463
31
0
0
LINE
8
VISIBLE
10
304
20
190.750463
30
0
11
304
21
228
31
0
0
LINE
8
VISIBLE
10
304
20
228
30
0
11
266.750786
21
228
31
0
0
LINE
8
VISIBLE
10
266.750786
20
228
30
0
11
267.344084
21
215.041049
31
0
0
LINE
8
VISIBLE
10
262.179481
20
211.060704
30
0
11
260.309381
21
211.645993
31
0
0
LINE
8
VISIBLE
10
260.636865
20
204.493028
30
0
11
262.44566
21
205.246748
31
0
0
LINE
8
VISIBLE
10
37.249357
20
0
30
0
11
38.750643
21
0
31
0
0
LINE
8
VISIBLE
10
75.248771
20
0
30
0
11
76.751229
21
0
31
0
0
LINE
8
VISIBLE
10
113.248899
20
0
30
0
11
114.751101
21
0
31
0
0
LINE
8
VISIBLE
10
151.249998
20
0
30
0
11
152.750002
21
0
31
0
0
LINE
8
VISIBLE
10
189.24861
20
0
30
0
11
190.75139
21
0
31
0
0
LINE
8
VISIBLE
10
227.248254
20
0
30
0
11
228.751746
21
0
31
0
0
LINE
8
VISIBLE
10
265.24994
20
0
30
0
11
266.75006
21
0
31
0
0
LINE
8
VISIBLE
10
304
20
37.249811
30
0
11
304
21
38.750189
31
0
0
LINE
8
VISIBLE
10
304
20
75.249612
30
0
11
304
21
76.750388
31
0
0
LINE
8
VISIBLE
10
304
20
113.249568
30
0
11
304
21
114.750432
31
0
0
LINE
8
VISIBLE
10
304
20
151.248416
30
0
11
304
21
152.751584
31
0
0
LINE
8
VISIBLE
10
304
20
189.249537
30
0
11
304
21
190.750463
31
0
0
LINE
8
VISIBLE
10
266.750786
20
228
30
0
11
265.249214
21
228
31
0
0
LINE
8
VISIBLE
10
228.750881
20
228
30
0
11
227.249119
21
228
31
0
0
LINE
8
VISIBLE
10
190.750104
20
228
30
0
11
189.249896
21
228
31
0
0
LINE
8
VISIBLE
10
152.750609
20
228
30
0
11
151.249391
21
228
31
0
0
LINE
8
VISIBLE
10
114.75116
20
228
30
0
11
113.24884
21
228
31
0
0
LINE
8
VISIBLE
10
76.7509
20
228
30
0
11
75.2491
21
228
31
0
0
LINE
8
VISIBLE
10
38.751679
20
228
30
0
11
37.248321
21
228
31
0
0
LINE
8
VISIBLE
10
0
20
190.750197
30
0
11
0
21
189.249803
31
0
0
LINE
8
VISIBLE
10
0
20
152.751081
30
0
11
0
21
151.248919
31
0
0
LINE
8
VISIBLE
10
0
20
114.750492
30
0
11
0
21
113.249508
31
0
0
LINE
8
VISIBLE
10
0
20
76.75001
30
0
11
0
21
75.24999
31
0
0
LINE
8
VISIBLE
10
0
20
38.750104
30
0
11
0
21
37.249896
31
0
0
ARC
8
VISIBLE
10
11.605492
20
34.963124
30
0
40
2.48
50
340.955572
51
90.955572
0
ARC
8
VISIBLE
10
18.32971
20
30.568942
30
0
40
5.31
50
160.955572
51
20.955572
0
ARC
8
VISIBLE
10
24.903642
20
35.184929
30
0
40
2.48
50
90.955572
51
200.955572
0
ARC
8
VISIBLE
10
40.152815
20
26.081513
30
0
40
3.98
50
182.371082
51
292.371082
0
ARC
8
VISIBLE
10
44.929789
20
19.623614
30
0
40
3.81
50
252.371082
51
112.371082
0
ARC
8
VISIBLE
10
40.703054
20
12.7929
30
0
40
3.98
50
72.371082
51
182.371082
0
ARC
8
VISIBLE
10
40.703054
20
12.7929
30
0
40
2.48
50
72.371082
51
182.371082
0
ARC
8
VISIBLE
10
44.929789
20
19.623614
30
0
40
5.31
50
252.371082
51
112.371082
0
ARC
8
VISIBLE
10
40.152815
20
26.081513
30
0
40
2.48
50
182.371082
51
292.371082
0
ARC
8
VISIBLE
10
48.54138
20
35.882023
30
0
40
2.48
50
342.394705
51
92.394705
0
ARC
8
VISIBLE
10
55.373836
20
31.658106
30
0
40
5.31
50
162.394705
51
22.394705
0
ARC
8
VISIBLE
10
61.829765
20
36.437742
30
0
40
2.48
50
92.394705
51
202.394705
0
ARC
8
VISIBLE
10
77.694438
20
26.907272
30
0
40
3.98
50
183.277483
51
293.277483
0
ARC
8
VISIBLE
10
82.572971
20
20.525748
30
0
40
3.81
50
253.277483
51
113.277483
0
ARC
8
VISIBLE
10
78.454821
20
13.629026
30
0
40
3.98
50
73.277483
51
183.277483
0
ARC
8
VISIBLE
10
78.454821
20
13.629026
30
0
40
2.48
50
73.277483
51
183.277483
0
ARC
8
VISIBLE
10
82.572971
20
20.525748
30
0
40
5.31
50
253.277483
51
113.277483
0
ARC
8
VISIBLE
10
77.694438
20
26.907272
30
0
40
2.48
50
183.277483
51
293.277483
0
ARC
8
VISIBLE
10
85.9481
20
35.872116
30
0
40
2.48
50
335.086569
51
85.086569
0
ARC
8
VISIBLE
10
92.187746
20
30.813386
30
0
40
5.31
50
155.086569
51
15.086569
0
ARC
8
VISIBLE
10
99.199226
20
34.732964
30
0
40
2.48
50
85.086569
51
195.086569
0
ARC
8
VISIBLE
10
109.415128
20
24.902572
30
0
40
2.48
50
253.103335
51
3.103335
0
ARC
8
VISIBLE
10
105.276034
20
18.018398
30
0
40
5.31
50
73.103335
51
293.103335
0
ARC
8
VISIBLE
10
110.135149
20
11.622076
30
0
40
2.48
50
3.103335
51
113.103335
0
ARC
8
VISIBLE
10
110.135149
20
11.622076
30
0
40
3.98
50
3.103335
51
113.103335
0
ARC
8
VISIBLE
10
105.276034
20
18.018398
30
0
40
3.81
50
73.103335
51
293.103335
0
ARC
8
VISIBLE
10
109.415128
20
24.902572
30
0
40
3.98
50
253.103335
51
3.103335
0
ARC
8
VISIBLE
10
125.567244
20
34.641903
30
0
40
2.48
50
344.242629
51
94.242629
0
ARC
8
VISIBLE
10
132.532355
20
30.640506
30
0
40
5.31
50
164.242629
51
24.242629
0
ARC
8
VISIBLE
10
138.830798
20
35.625839
30
0
40
2.48
50
94.242629
51
204.242629
0
ARC
8
VISIBLE
10
148.716204
20
26.561279
30
0
40
2.48
50
250.116031
51
0.116031
0
ARC
8
VISIBLE
10
144.223968
20
19.902168
30
0
40
5.31
50
70.116031
51
290.116031
0
ARC
8
VISIBLE
10
148.743138
20
13.261306
30
0
40
2.48
50
0.116031
51
110.116031
0
ARC
8
VISIBLE
10
148.743138
20
13.261306
30
0
40
3.98
50
0.116031
51
110.116031
0
ARC
8
VISIBLE
10
144.223968
20
19.902168
30
0
40
3.81
50
70.116031
51
290.116031
0
ARC
8
VISIBLE
10
148.716204
20
26.561279
30
0
40
3.98
50
250.116031
51
0.116031
0
ARC
8
VISIBLE
10
165.064394
20
35.102001
30
0
40
2.48
50
333.562487
51
83.562487
0
ARC
8
VISIBLE
10
171.167286
20
29.879104
30
0
40
5.31
50
153.562487
51
13.562487
0
ARC
8
VISIBLE
10
178.280534
20
33.610811
30
0
40
2.48
50
83.562487
51
193.562487
0
ARC
8
VISIBLE
10
188.255221
20
24.482279
30
0
40
2.48
50
246.514439
51
356.514439
0
ARC
8
VISIBLE
10
183.353545
20
18.118514
30
0
40
5.31
50
66.514439
51
286.514439
0
ARC
8
VISIBLE
10
187.446621
20
11.206882
30
0
40
2.48
50
356.514439
51
106.514439
0
ARC
8
VISIBLE
10
187.446621
20
11.206882
30
0
40
3.98
50
356.514439
51
106.514439
0
ARC
8
VISIBLE
10
183.353545
20
18.118514
30
0
40
3.81
50
66.514439
51
286.514439
0
ARC
8
VISIBLE
10
188.255221
20
24.482279
30
0
40
3.98
50
246.514439
51
356.514439
0
ARC
8
VISIBLE
10
204.988885
20
33.021384
30
0
40
2.48
50
344.294211
51
94.294211
0
ARC
8
VISIBLE
10
211.957595
20
29.02626
30
0
40
5.31
50
164.294211
51
24.294211
0
ARC
8
VISIBLE
10
218.251548
20
34.017261
30
0
40
2.48
50
94.294211
51
204.294211
0
ARC
8
VISIBLE
10
232.978854
20
25.506605
30
0
40
3.98
50
176.094477
51
286.094477
0
ARC
8
VISIBLE
10
237.021161
20
18.565158
30
0
40
3.81
50
246.094477
51
106.094477
0
ARC
8
VISIBLE
10
232.072972
20
12.237492
30
0
40
3.98
50
66.094477
51
176.094477
0
ARC
8
VISIBLE
10
232.072972
20
12.237492
30
0
40
2.48
50
66.094477
51
176.094477
0
ARC
8
VISIBLE
10
237.021161
20
18.565158
30
0
40
5.31
50
246.094477
51
106.094477
0
ARC
8
VISIBLE
10
232.978854
20
25.506605
30
0
40
2.48
50
176.094477
51
286.094477
0
ARC
8
VISIBLE
10
241.518015
20
41.088466
30
0
40
3.98
50
268.282975
51
18.282975
0
ARC
8
VISIBLE
10
248.300035
20
45.392899
30
0
40
3.81
50
338.282975
51
198.282975
0
ARC
8
VISIBLE
10
254.812044
20
40.689955
30
0
40
3.98
50
158.282975
51
268.282975
0
ARC
8
VISIBLE
10
262.45088
20
25.177175
30
0
40
2.48
50
250.725595
51
0.725595
0
ARC
8
VISIBLE
10
258.029743
20
18.47065
30
0
40
5.31
50
70.725595
51
290.725595
0
ARC
8
VISIBLE
10
262.619307
20
11.878242
30
0
40
2.48
50
0.725595
51
110.725595
0
ARC
8
VISIBLE
10
262.619307
20
11.878242
30
0
40
3.98
50
0.725595
51
110.725595
0
ARC
8
VISIBLE
10
258.029743
20
18.47065
30
0
40
3.81
50
70.725595
51
290.725595
0
ARC
8
VISIBLE
10
262.45088
20
25.177175
30
0
40
3.98
50
250.725595
51
0.725595
0
ARC
8
VISIBLE
10
278.188927
20
34.190322
30
0
40
2.48
50
341.284759
51
91.284759
0
ARC
8
VISIBLE
10
284.938279
20
29.834846
30
0
40
5.31
50
161.284759
51
21.284759
0
ARC
8
VISIBLE
10
291.485583
20
34.488527
30
0
40
2.48
50
91.284759
51
201.284759
0
ARC
8
VISIBLE
10
12.510369
20
72.706422
30
0
40
2.48
50
339.709017
51
89.709017
0
ARC
8
VISIBLE
10
19.1374
20
68.166997
30
0
40
5.31
50
159.709017
51
19.709017
0
ARC
8
VISIBLE
10
25.810197
20
72.638877
30
0
40
2.48
50
89.709017
51
199.709017
0
ARC
8
VISIBLE
10
40.951429
20
63.677787
30
0
40
3.98
50
176.996152
51
286.996152
0
ARC
8
VISIBLE
10
45.10247
20
56.800811
30
0
40
3.81
50
246.996152
51
106.996152
0
ARC
8
VISIBLE
10
40.254469
20
50.396061
30
0
40
3.98
50
66.996152
51
176.996152
0
ARC
8
VISIBLE
10
24.903642
20
35.184929
30
0
40
3.98
50
90.955572
51
200.955572
0
ARC
8
VISIBLE
10
18.32971
20
30.568942
30
0
40
3.81
50
160.955572
51
20.955572
0
ARC
8
VISIBLE
10
11.605492
20
34.963124
30
0
40
3.98
50
340.955572
51
90.955572
0
ARC
8
VISIBLE
10
40.254469
20
50.396061
30
0
40
2.48
50
66.996152
51
176.996152
0
ARC
8
VISIBLE
10
45.10247
20
56.800811
30
0
40
5.31
50
246.996152
51
106.996152
0
ARC
8
VISIBLE
10
40.951429
20
63.677787
30
0
40
2.48
50
176.996152
51
286.996152
0
ARC
8
VISIBLE
10
53.340063
20
77.710836
30
0
40
3.98
50
264.901191
51
14.901191
0
ARC
8
VISIBLE
10
60.364187
20
81.607709
30
0
40
3.81
50
334.901191
51
194.901191
0
ARC
8
VISIBLE
10
66.587434
20
76.528817
30
0
40
3.98
50
154.901191
51
264.901191
0
ARC
8
VISIBLE
10
81.984627
20
61.843243
30
0
40
3.98
50
167.083861
51
277.083861
0
ARC
8
VISIBLE
10
84.889897
20
54.354362
30
0
40
3.81
50
237.083861
51
97.083861
0
ARC
8
VISIBLE
10
79.011749
20
48.879756
30
0
40
3.98
50
57.083861
51
167.083861
0
ARC
8
VISIBLE
10
61.829765
20
36.437742
30
0
40
3.98
50
92.394705
51
202.394705
0
ARC
8
VISIBLE
10
55.373836
20
31.658106
30
0
40
3.81
50
162.394705
51
22.394705
0
ARC
8
VISIBLE
10
48.54138
20
35.882023
30
0
40
3.98
50
342.394705
51
92.394705
0
ARC
8
VISIBLE
10
79.011749
20
48.879756
30
0
40
2.48
50
57.083861
51
167.083861
0
ARC
8
VISIBLE
10
84.889897
20
54.354362
30
0
40
5.31
50
237.083861
51
97.083861
0
ARC
8
VISIBLE
10
81.984627
20
61.843243
30
0
40
2.48
50
167.083861
51
277.083861
0
ARC
8
VISIBLE
10
85.846014
20
76.484535
30
0
40
4.7875
50
275.083529
51
25.083529
0
ARC
8
VISIBLE
10
93.626765
20
82.831074
30
0
40
4.95
50
345.083529
51
205.083529
0
ARC
8
VISIBLE
10
102.405621
20
77.957642
30
0
40
4.7875
50
165.083529
51
275.083529
0
ARC
8
VISIBLE
10
115.973938
20
62.418568
30
0
40
3.98
50
178.336664
51
288.336664
0
ARC
8
VISIBLE
10
120.284724
20
55.640585
30
0
40
3.81
50
248.336664
51
108.336664
0
ARC
8
VISIBLE
10
115.587885
20
49.124172
30
0
40
3.98
50
68.336664
51
178.336664
0
ARC
8
VISIBLE
10
99.199226
20
34.732964
30
0
40
3.98
50
85.086569
51
195.086569
0
ARC
8
VISIBLE
10
92.187746
20
30.813386
30
0
40
3.81
50
155.086569
51
15.086569
0
ARC
8
VISIBLE
10
85.9481
20
35.872116
30
0
40
3.98
50
335.086569
51
85.086569
0
ARC
8
VISIBLE
10
115.587885
20
49.124172
30
0
40
2.48
50
68.336664
51
178.336664
0
ARC
8
VISIBLE
10
120.284724
20
55.640585
30
0
40
5.31
50
248.336664
51
108.336664
0
ARC
8
VISIBLE
10
115.973938
20
62.418568
30
0
40
2.48
50
178.336664
51
288.336664
0
ARC
8
VISIBLE
10
124.336206
20
79.173137
30
0
40
3.98
50
275.454516
51
25.454516
0
ARC
8
VISIBLE
10
130.527802
20
84.290566
30
0
40
3.81
50
345.454516
51
205.454516
0
ARC
8
VISIBLE
10
137.575983
20
80.437376
30
0
40
3.98
50
165.454516
51
275.454516
0
ARC
8
VISIBLE
10
147.017196
20
65.506728
30
0
40
2.48
50
253.711713
51
3.711713
0
ARC
8
VISIBLE
10
142.951432
20
58.578994
30
0
40
5.31
50
73.711713
51
293.711713
0
ARC
8
VISIBLE
10
147.878188
20
52.234626
30
0
40
2.48
50
3.711713
51
113.711713
0
ARC
8
VISIBLE
10
138.830798
20
35.625839
30
0
40
3.98
50
94.242629
51
204.242629
0
ARC
8
VISIBLE
10
132.532355
20
30.640506
30
0
40
3.81
50
164.242629
51
24.242629
0
ARC
8
VISIBLE
10
125.567244
20
34.641903
30
0
40
3.98
50
344.242629
51
94.242629
0
ARC
8
VISIBLE
10
147.878188
20
52.234626
30
0
40
3.98
50
3.711713
51
113.711713
0
ARC
8
VISIBLE
10
142.951432
20
58.578994
30
0
40
3.81
50
73.711713
51
293.711713
0
ARC
8
VISIBLE
10
147.017196
20
65.506728
30
0
40
3.98
50
253.711713
51
3.711713
0
ARC
8
VISIBLE
10
164.426253
20
81.123471
30
0
40
3.98
50
268.351707
51
18.351707
0
ARC
8
VISIBLE
10
171.203105
20
85.436037
30
0
40
3.81
50
338.351707
51
198.351707
0
ARC
8
VISIBLE
10
177.72075
20
80.740908
30
0
40
3.98
50
158.351707
51
268.351707
0
ARC
8
VISIBLE
10
195.636017
20
62.809452
30
0
40
3.98
50
179.466929
51
289.466929
0
ARC
8
VISIBLE
10
200.079664
20
56.11782
30
0
40
3.81
50
249.466929
51
109.466929
0
ARC
8
VISIBLE
10
195.512278
20
49.510028
30
0
40
3.98
50
69.466929
51
179.466929
0
ARC
8
VISIBLE
10
178.280534
20
33.610811
30
0
40
3.98
50
83.562487
51
193.562487
0
ARC
8
VISIBLE
10
171.167286
20
29.879104
30
0
40
3.81
50
153.562487
51
13.562487
0
ARC
8
VISIBLE
10
165.064394
20
35.102001
30
0
40
3.98
50
333.562487
51
83.562487
0
ARC
8
VISIBLE
10
195.512278
20
49.510028
30
0
40
2.48
50
69.466929
51
179.466929
0
ARC
8
VISIBLE
10
200.079664
20
56.11782
30
0
40
5.31
50
249.466929
51
109.466929
0
ARC
8
VISIBLE
10
195.636017
20
62.809452
30
0
40
2.48
50
179.466929
51
289.466929
0
ARC
8
VISIBLE
10
202.884392
20
74.157602
30
0
40
2.48
50
341.69331
51
91.69331
0
ARC
8
VISIBLE
10
209.66463
20
69.850363
30
0
40
5.31
50
161.69331
51
21.69331
0
ARC
8
VISIBLE
10
216.178584
20
74.550611
30
0
40
2.48
50
91.69331
51
201.69331
0
ARC
8
VISIBLE
10
230.973528
20
65.089333
30
0
40
3.98
50
186.113549
51
296.113549
0
ARC
8
VISIBLE
10
236.161834
20
58.957007
30
0
40
3.81
50
256.113549
51
116.113549
0
ARC
8
VISIBLE
10
232.389967
20
51.864973
30
0
40
3.98
50
76.113549
51
186.113549
0
ARC
8
VISIBLE
10
218.251548
20
34.017261
30
0
40
3.98
50
94.294211
51
204.294211
0
ARC
8
VISIBLE
10
211.957595
20
29.02626
30
0
40
3.81
50
164.294211
51
24.294211
0
ARC
8
VISIBLE
10
204.988885
20
33.021384
30
0
40
3.98
50
344.294211
51
94.294211
0
ARC
8
VISIBLE
10
232.389967
20
51.864973
30
0
40
2.48
50
76.113549
51
186.113549
0
ARC
8
VISIBLE
10
236.161834
20
58.957007
30
0
40
5.31
50
256.113549
51
116.113549
0
ARC
8
VISIBLE
10
230.973528
20
65.089333
30
0
40
2.48
50
186.113549
51
296.113549
0
ARC
8
VISIBLE
10
239.688169
20
73.760119
30
0
40
2.48
50
335.370028
51
85.370028
0
ARC
8
VISIBLE
10
245.952766
20
68.73232
30
0
40
5.31
50
155.370028
51
15.370028
0
ARC
8
VISIBLE
10
252.944768
20
72.686538
30
0
40
2.48
50
85.370028
51
195.370028
0
ARC
8
VISIBLE
10
269.631279
20
62.505714
30
0
40
3.98
50
178.036485
51
288.036485
0
ARC
8
VISIBLE
10
273.906496
20
55.705239
30
0
40
3.81
50
248.036485
51
108.036485
0
ARC
8
VISIBLE
10
269.17558
20
49.213523
30
0
40
3.98
50
68.036485
51
178.036485
0
ARC
8
VISIBLE
10
254.812044
20
40.689955
30
0
40
2.48
50
158.282975
51
268.282975
0
ARC
8
VISIBLE
10
248.300035
20
45.392899
30
0
40
5.31
50
338.282975
51
198.282975
0
ARC
8
VISIBLE
10
241.518015
20
41.088466
30
0
40
2.48
50
268.282975
51
18.282975
0
ARC
8
VISIBLE
10
269.17558
20
49.213523
30
0
40
2.48
50
68.036485
51
178.036485
0
ARC
8
VISIBLE
10
273.906496
20
55.705239
30
0
40
5.31
50
248.036485
51
108.036485
0
ARC
8
VISIBLE
10
269.631279
20
62.505714
30
0
40
2.48
50
178.036485
51
288.036485
0
ARC
8
VISIBLE
10
278.660027
20
78.416078
30
0
40
3.98
50
271.843491
51
21.843491
0
ARC
8
VISIBLE
10
285.161639
20
83.133384
30
0
40
3.81
50
341.843491
51
201.843491
0
ARC
8
VISIBLE
10
291.953143
20
78.843931
30
0
40
3.98
50
161.843491
51
271.843491
0
ARC
8
VISIBLE
10
291.485583
20
34.488527
30
0
40
3.98
50
91.284759
51
201.284759
0
ARC
8
VISIBLE
10
284.938279
20
29.834846
30
0
40
3.81
50
161.284759
51
21.284759
0
ARC
8
VISIBLE
10
278.188927
20
34.190322
30
0
40
3.98
50
341.284759
51
91.284759
0
ARC
8
VISIBLE
10
13.80167
20
111.267865
30
0
40
2.48
50
342.074708
51
92.074708
0
ARC
8
VISIBLE
10
20.610429
20
107.005854
30
0
40
5.31
50
162.074708
51
22.074708
0
ARC
8
VISIBLE
10
27.092952
20
111.749359
30
0
40
2.48
50
92.074708
51
202.074708
0
ARC
8
VISIBLE
10
36.668676
20
102.465446
30
0
40
2.48
50
246.670993
51
356.670993
0
ARC
8
VISIBLE
10
31.784406
20
96.088312
30
0
40
5.31
50
66.670993
51
286.670993
0
ARC
8
VISIBLE
10
35.896352
20
89.187889
30
0
40
2.48
50
356.670993
51
106.670993
0
ARC
8
VISIBLE
10
25.810197
20
72.638877
30
0
40
3.98
50
89.709017
51
199.709017
0
ARC
8
VISIBLE
10
19.1374
20
68.166997
30
0
40
3.81
50
159.709017
51
19.709017
0
ARC
8
VISIBLE
10
12.510369
20
72.706422
30
0
40
3.98
50
339.709017
51
89.709017
0
ARC
8
VISIBLE
10
35.896352
20
89.187889
30
0
40
3.98
50
356.670993
51
106.670993
0
ARC
8
VISIBLE
10
31.784406
20
96.088312
30
0
40
3.81
50
66.670993
51
286.670993
0
ARC
8
VISIBLE
10
36.668676
20
102.465446
30
0
40
3.98
50
246.670993
51
356.670993
0
ARC
8
VISIBLE
10
51.376061
20
112.00758
30
0
40
2.48
50
338.745584
51
88.745584
0
ARC
8
VISIBLE
10
57.925828
20
107.357367
30
0
40
5.31
50
158.745584
51
18.745584
0
ARC
8
VISIBLE
10
64.672873
20
111.716417
30
0
40
2.48
50
88.745584
51
198.745584
0
ARC
8
VISIBLE
10
80.623772
20
100.361203
30
0
40
3.98
50
187.29893
51
297.29893
0
ARC
8
VISIBLE
10
85.937829
20
94.337522
30
0
40
3.81
50
257.29893
51
117.29893
0
ARC
8
VISIBLE
10
82.313485
20
87.168975
30
0
40
3.98
50
77.29893
51
187.29893
0
ARC
8
VISIBLE
10
66.587434
20
76.528817
30
0
40
2.48
50
154.901191
51
264.901191
0
ARC
8
VISIBLE
10
60.364187
20
81.607709
30
0
40
5.31
50
334.901191
51
194.901191
0
ARC
8
VISIBLE
10
53.340063
20
77.710836
30
0
40
2.48
50
264.901191
51
14.901191
0
ARC
8
VISIBLE
10
82.313485
20
87.168975
30
0
40
2.48
50
77.29893
51
187.29893
0
ARC
8
VISIBLE
10
85.937829
20
94.337522
30
0
40
5.31
50
257.29893
51
117.29893
0
ARC
8
VISIBLE
10
80.623772
20
100.361203
30
0
40
2.48
50
187.29893
51
297.29893
0
ARC
8
VISIBLE
10
89.273091
20
110.953499
30
0
40
2.48
50
337.818127
51
87.818127
0
ARC
8
VISIBLE
10
95.74673
20
106.197878
30
0
40
5.31
50
157.818127
51
17.818127
0
ARC
8
VISIBLE
10
102.563448
20
110.447146
30
0
40
2.48
50
87.818127
51
197.818127
0
ARC
8
VISIBLE
10
112.207938
20
100.914153
30
0
40
2.48
50
244.852811
51
354.852811
0
ARC
8
VISIBLE
10
107.123793
20
94.695197
30
0
40
5.31
50
64.852811
51
284.852811
0
ARC
8
VISIBLE
10
111.014733
20
87.667785
30
0
40
2.48
50
354.852811
51
104.852811
0
ARC
8
VISIBLE
10
102.405621
20
77.957642
30
0
40
3.2875
50
165.083529
51
275.083529
0
ARC
8
VISIBLE
10
93.626765
20
82.831074
30
0
40
6.45
50
345.083529
51
205.083529
0
ARC
8
VISIBLE
10
85.846014
20
76.484535
30
0
40
3.2875
50
275.083529
51
25.083529
0
ARC
8
VISIBLE
10
111.014733
20
87.667785
30
0
40
3.98
50
354.852811
51
104.852811
0
ARC
8
VISIBLE
10
107.123793
20
94.695197
30
0
40
3.81
50
64.852811
51
284.852811
0
ARC
8
VISIBLE
10
112.207938
20
100.914153
30
0
40
3.98
50
244.852811
51
354.852811
0
ARC
8
VISIBLE
10
129.350779
20
110.762145
30
0
40
2.48
50
343.81235
51
93.81235
0
ARC
8
VISIBLE
10
136.285643
20
106.708556
30
0
40
5.31
50
163.81235
51
23.81235
0
ARC
8
VISIBLE
10
142.621348
20
111.646448
30
0
40
2.48
50
93.81235
51
203.81235
0
ARC
8
VISIBLE
10
156.380404
20
103.117539
30
0
40
3.98
50
171.529746
51
281.529746
0
ARC
8
VISIBLE
10
159.857451
20
95.876401
30
0
40
3.81
50
241.529746
51
101.529746
0
ARC
8
VISIBLE
10
154.421368
20
89.962609
30
0
40
3.98
50
61.529746
51
171.529746
0
ARC
8
VISIBLE
10
137.575983
20
80.437376
30
0
40
2.48
50
165.454516
51
275.454516
0
ARC
8
VISIBLE
10
130.527802
20
84.290566
30
0
40
5.31
50
345.454516
51
205.454516
0
ARC
8
VISIBLE
10
124.336206
20
79.173137
30
0
40
2.48
50
275.454516
51
25.454516
0
ARC
8
VISIBLE
10
154.421368
20
89.962609
30
0
40
2.48
50
61.529746
51
171.529746
0
ARC
8
VISIBLE
10
159.857451
20
95.876401
30
0
40
5.31
50
241.529746
51
101.529746
0
ARC
8
VISIBLE
10
156.380404
20
103.117539
30
0
40
2.48
50
171.529746
51
281.529746
0
ARC
8
VISIBLE
10
164.757335
20
118.388716
30
0
40
3.98
50
266.752149
51
16.752149
0
ARC
8
VISIBLE
10
171.651927
20
122.510432
30
0
40
3.81
50
336.752149
51
196.752149
0
ARC
8
VISIBLE
10
178.035973
20
117.6352
30
0
40
3.98
50
156.752149
51
266.752149
0
ARC
8
VISIBLE
10
192.274038
20
102.505482
30
0
40
3.98
50
187.895395
51
297.895395
0
ARC
8
VISIBLE
10
197.650514
20
96.537447
30
0
40
3.81
50
257.895395
51
117.895395
0
ARC
8
VISIBLE
10
194.100992
20
89.331559
30
0
40
3.98
50
77.895395
51
187.895395
0
ARC
8
VISIBLE
10
177.72075
20
80.740908
30
0
40
2.48
50
158.351707
51
268.351707
0
ARC
8
VISIBLE
10
171.203105
20
85.436037
30
0
40
5.31
50
338.351707
51
198.351707
0
ARC
8
VISIBLE
10
164.426253
20
81.123471
30
0
40
2.48
50
268.351707
51
18.351707
0
ARC
8
VISIBLE
10
194.100992
20
89.331559
30
0
40
2.48
50
77.895395
51
187.895395
0
ARC
8
VISIBLE
10
197.650514
20
96.537447
30
0
40
5.31
50
257.895395
51
117.895395
0
ARC
8
VISIBLE
10
192.274038
20
102.505482
30
0
40
2.48
50
187.895395
51
297.895395
0
ARC
8
VISIBLE
10
200.391114
20
116.881234
30
0
40
3.98
50
269.045971
51
19.045971
0
ARC
8
VISIBLE
10
207.115213
20
121.275597
30
0
40
3.81
50
339.045971
51
199.045971
0
ARC
8
VISIBLE
10
213.68927
20
116.659787
30
0
40
3.98
50
159.045971
51
269.045971
0
ARC
8
VISIBLE
10
223.242578
20
102.317268
30
0
40
2.48
50
249.670851
51
359.670851
0
ARC
8
VISIBLE
10
218.698738
20
95.693262
30
0
40
5.31
50
69.670851
51
289.670851
0
ARC
8
VISIBLE
10
223.166173
20
89.017488
30
0
40
2.48
50
359.670851
51
109.670851
0
ARC
8
VISIBLE
10
216.178584
20
74.550611
30
0
40
3.98
50
91.69331
51
201.69331
0
ARC
8
VISIBLE
10
209.66463
20
69.850363
30
0
40
3.81
50
161.69331
51
21.69331
0
ARC
8
VISIBLE
10
202.884392
20
74.157602
30
0
40
3.98
50
341.69331
51
91.69331
0
ARC
8
VISIBLE
10
223.166173
20
89.017488
30
0
40
3.98
50
359.670851
51
109.670851
0
ARC
8
VISIBLE
10
218.698738
20
95.693262
30
0
40
3.81
50
69.670851
51
289.670851
0
ARC
8
VISIBLE
10
223.242578
20
102.317268
30
0
40
3.98
50
249.670851
51
359.670851
0
ARC
8
VISIBLE
10
238.322987
20
109.797004
30
0
40
2.48
50
339.086245
51
89.086245
0
ARC
8
VISIBLE
10
244.900287
20
105.185815
30
0
40
5.31
50
159.086245
51
19.086245
0
ARC
8
VISIBLE
10
251.621295
20
109.584904
30
0
40
2.48
50
89.086245
51
199.086245
0
ARC
8
VISIBLE
10
261.369246
20
100.0577
30
0
40
2.48
50
254.999846
51
4.999846
0
ARC
8
VISIBLE
10
257.460247
20
93.040318
30
0
40
5.31
50
74.999846
51
294.999846
0
ARC
8
VISIBLE
10
262.528382
20
86.808308
30
0
40
2.48
50
4.999846
51
114.999846
0
ARC
8
VISIBLE
10
252.944768
20
72.686538
30
0
40
3.98
50
85.370028
51
195.370028
0
ARC
8
VISIBLE
10
245.952766
20
68.73232
30
0
40
3.81
50
155.370028
51
15.370028
0
ARC
8
VISIBLE
10
239.688169
20
73.760119
30
0
40
3.98
50
335.370028
51
85.370028
0
ARC
8
VISIBLE
10
262.528382
20
86.808308
30
0
40
3.98
50
4.999846
51
114.999846
0
ARC
8
VISIBLE
10
257.460247
20
93.040318
30
0
40
3.81
50
74.999846
51
294.999846
0
ARC
8
VISIBLE
10
261.369246
20
100.0577
30
0
40
3.98
50
254.999846
51
4.999846
0
ARC
8
VISIBLE
10
277.219437
20
109.859092
30
0
40
2.48
50
341.94412
51
91.94412
0
ARC
8
VISIBLE
10
284.018464
20
105.581574
30
0
40
5.31
50
161.94412
51
21.94412
0
ARC
8
VISIBLE
10
290.511781
20
110.310291
30
0
40
2.48
50
91.94412
51
201.94412
0
ARC
8
VISIBLE
10
291.953143
20
78.843931
30
0
40
2.48
50
161.843491
51
271.843491
0
ARC
8
VISIBLE
10
285.161639
20
83.133384
30
0
40
5.31
50
341.843491
51
201.843491
0
ARC
8
VISIBLE
10
278.660027
20
78.416078
30
0
40
2.48
50
271.843491
51
21.843491
0
ARC
8
VISIBLE
10
11.463158
20
155.850455
30
0
40
3.98
50
273.074959
51
23.074959
0
ARC
8
VISIBLE
10
17.861886
20
160.706401
30
0
40
3.81
50
343.074959
51
203.074959
0
ARC
8
VISIBLE
10
24.744009
20
156.563899
30
0
40
3.98
50
163.074959
51
273.074959
0
ARC
8
VISIBLE
10
34.689889
20
140.988082
30
0
40
2.48
50
256.090567
51
6.090567
0
ARC
8
VISIBLE
10
30.915178
20
133.897561
30
0
40
5.31
50
76.090567
51
296.090567
0
ARC
8
VISIBLE
10
36.101024
20
127.763155
30
0
40
2.48
50
6.090567
51
116.090567
0
ARC
8
VISIBLE
10
27.092952
20
111.749359
30
0
40
3.98
50
92.074708
51
202.074708
0
ARC
8
VISIBLE
10
20.610429
20
107.005854
30
0
40
3.81
50
162.074708
51
22.074708
0
ARC
8
VISIBLE
10
13.80167
20
111.267865
30
0
40
3.98
50
342.074708
51
92.074708
0
ARC
8
VISIBLE
10
36.101024
20
127.763155
30
0
40
3.98
50
6.090567
51
116.090567
0
ARC
8
VISIBLE
10
30.915178
20
133.897561
30
0
40
3.81
50
76.090567
51
296.090567
0
ARC
8
VISIBLE
10
34.689889
20
140.988082
30
0
40
3.98
50
256.090567
51
6.090567
0
ARC
8
VISIBLE
10
48.613024
20
150.61117
30
0
40
2.48
50
339.418861
51
89.418861
0
ARC
8
VISIBLE
10
55.216982
20
146.038242
30
0
40
5.31
50
159.418861
51
19.418861
0
ARC
8
VISIBLE
10
61.91234
20
150.476273
30
0
40
2.48
50
89.418861
51
199.418861
0
ARC
8
VISIBLE
10
71.300661
20
140.66765
30
0
40
2.48
50
252.198567
51
2.198567
0
ARC
8
VISIBLE
10
67.053379
20
133.849694
30
0
40
5.31
50
72.198567
51
292.198567
0
ARC
8
VISIBLE
10
71.810886
20
127.377441
30
0
40
2.48
50
2.198567
51
112.198567
0
ARC
8
VISIBLE
10
64.672873
20
111.716417
30
0
40
3.98
50
88.745584
51
198.745584
0
ARC
8
VISIBLE
10
57.925828
20
107.357367
30
0
40
3.81
50
158.745584
51
18.745584
0
ARC
8
VISIBLE
10
51.376061
20
112.00758
30
0
40
3.98
50
338.745584
51
88.745584
0
ARC
8
VISIBLE
10
71.810886
20
127.377441
30
0
40
3.98
50
2.198567
51
112.198567
0
ARC
8
VISIBLE
10
67.053379
20
133.849694
30
0
40
3.81
50
72.198567
51
292.198567
0
ARC
8
VISIBLE
10
71.300661
20
140.66765
30
0
40
3.98
50
252.198567
51
2.198567
0
ARC
8
VISIBLE
10
86.944353
20
156.328397
30
0
40
3.98
50
267.837604
51
17.837604
0
ARC
8
VISIBLE
10
93.759627
20
160.579982
30
0
40
3.81
50
337.837604
51
197.837604
0
ARC
8
VISIBLE
10
100.234882
20
155.826562
30
0
40
3.98
50
157.837604
51
267.837604
0
ARC
8
VISIBLE
10
110.888784
20
138.950665
30
0
40
2.48
50
255.357547
51
5.357547
0
ARC
8
VISIBLE
10
107.023671
20
131.909015
30
0
40
5.31
50
75.357547
51
295.357547
0
ARC
8
VISIBLE
10
112.130614
20
125.708767
30
0
40
2.48
50
5.357547
51
115.357547
0
ARC
8
VISIBLE
10
102.563448
20
110.447146
30
0
40
3.98
50
87.818127
51
197.818127
0
ARC
8
VISIBLE
10
95.74673
20
106.197878
30
0
40
3.81
50
157.818127
51
17.818127
0
ARC
8
VISIBLE
10
89.273091
20
110.953499
30
0
40
3.98
50
337.818127
51
87.818127
0
ARC
8
VISIBLE
10
112.130614
20
125.708767
30
0
40
3.98
50
5.357547
51
115.357547
0
ARC
8
VISIBLE
10
107.023671
20
131.909015
30
0
40
3.81
50
75.357547
51
295.357547
0
ARC
8
VISIBLE
10
110.888784
20
138.950665
30
0
40
3.98
50
255.357547
51
5.357547
0
ARC
8
VISIBLE
10
124.363505
20
148.380081
30
0
40
2.48
50
337.488352
51
87.488352
0
ARC
8
VISIBLE
10
130.809665
20
143.587278
30
0
40
5.31
50
157.488352
51
17.488352
0
ARC
8
VISIBLE
10
137.650728
20
147.797242
30
0
40
2.48
50
87.488352
51
197.488352
0
ARC
8
VISIBLE
10
147.950655
20
139.165016
30
0
40
2.48
50
259.124854
51
9.124854
0
ARC
8
VISIBLE
10
144.556562
20
131.884626
30
0
40
5.31
50
79.124854
51
299.124854
0
ARC
8
VISIBLE
10
150.059853
20
126.033326
30
0
40
2.48
50
9.124854
51
119.124854
0
ARC
8
VISIBLE
10
142.621348
20
111.646448
30
0
40
3.98
50
93.81235
51
203.81235
0
ARC
8
VISIBLE
10
136.285643
20
106.708556
30
0
40
3.81
50
163.81235
51
23.81235
0
ARC
8
VISIBLE
10
129.350779
20
110.762145
30
0
40
3.98
50
343.81235
51
93.81235
0
ARC
8
VISIBLE
10
150.059853
20
126.033326
30
0
40
3.98
50
9.124854
51
119.124854
0
ARC
8
VISIBLE
10
144.556562
20
131.884626
30
0
40
3.81
50
79.124854
51
299.124854
0
ARC
8
VISIBLE
10
147.950655
20
139.165016
30
0
40
3.98
50
259.124854
51
9.124854
0
ARC
8
VISIBLE
10
161.862884
20
148.352428
30
0
40
2.48
50
344.950096
51
94.950096
0
ARC
8
VISIBLE
10
168.87687
20
144.437338
30
0
40
5.31
50
164.950096
51
24.950096
0
ARC
8
VISIBLE
10
175.113278
20
149.500059
30
0
40
2.48
50
94.950096
51
204.950096
0
ARC
8
VISIBLE
10
190.388842
20
140.503393
30
0
40
3.98
50
180.599934
51
290.599934
0
ARC
8
VISIBLE
10
194.963937
20
133.900936
30
0
40
3.81
50
250.599934
51
110.599934
0
ARC
8
VISIBLE
10
190.528102
20
127.204122
30
0
40
3.98
50
70.599934
51
180.599934
0
ARC
8
VISIBLE
10
178.035973
20
117.6352
30
0
40
2.48
50
156.752149
51
266.752149
0
ARC
8
VISIBLE
10
171.651927
20
122.510432
30
0
40
5.31
50
336.752149
51
196.752149
0
ARC
8
VISIBLE
10
164.757335
20
118.388716
30
0
40
2.48
50
266.752149
51
16.752149
0
ARC
8
VISIBLE
10
190.528102
20
127.204122
30
0
40
2.48
50
70.599934
51
180.599934
0
ARC
8
VISIBLE
10
194.963937
20
133.900936
30
0
40
5.31
50
250.599934
51
110.599934
0
ARC
8
VISIBLE
10
190.388842
20
140.503393
30
0
40
2.48
50
180.599934
51
290.599934
0
ARC
8
VISIBLE
10
201.507261
20
150.198698
30
0
40
2.48
50
338.640692
51
88.640692
0
ARC
8
VISIBLE
10
208.048504
20
145.536503
30
0
40
5.31
50
158.640692
51
18.640692
0
ARC
8
VISIBLE
10
214.803518
20
149.883194
30
0
40
2.48
50
88.640692
51
198.640692
0
ARC
8
VISIBLE
10
225.25628
20
139.860075
30
0
40
2.48
50
245.793358
51
355.793358
0
ARC
8
VISIBLE
10
220.274904
20
133.558502
30
0
40
5.31
50
65.793358
51
285.793358
0
ARC
8
VISIBLE
10
224.280674
20
126.595906
30
0
40
2.48
50
355.793358
51
105.793358
0
ARC
8
VISIBLE
10
213.68927
20
116.659787
30
0
40
2.48
50
159.045971
51
269.045971
0
ARC
8
VISIBLE
10
207.115213
20
121.275597
30
0
40
5.31
50
339.045971
51
199.045971
0
ARC
8
VISIBLE
10
200.391114
20
116.881234
30
0
40
2.48
50
269.045971
51
19.045971
0
ARC
8
VISIBLE
10
224.280674
20
126.595906
30
0
40
3.98
50
355.793358
51
105.793358
0
ARC
8
VISIBLE
10
220.274904
20
133.558502
30
0
40
3.81
50
65.793358
51
285.793358
0
ARC
8
VISIBLE
10
225.25628
20
139.860075
30
0
40
3.98
50
245.793358
51
355.793358
0
ARC
8
VISIBLE
10
242.1732
20
154.96369
30
0
40
3.98
50
265.311889
51
15.311889
0
ARC
8
VISIBLE
10
249.169211
20
158.910811
30
0
40
3.81
50
335.311889
51
195.311889
0
ARC
8
VISIBLE
10
255.428703
20
153.876658
30
0
40
3.98
50
155.311889
51
265.311889
0
ARC
8
VISIBLE
10
263.095956
20
138.096841
30
0
40
2.48
50
243.651608
51
353.651608
0
ARC
8
VISIBLE
10
257.882558
20
131.985833
30
0
40
5.31
50
63.651608
51
283.651608
0
ARC
8
VISIBLE
10
261.625325
20
124.878398
30
0
40
2.48
50
353.651608
51
103.651608
0
ARC
8
VISIBLE
10
251.621295
20
109.584904
30
0
40
3.98
50
89.086245
51
199.086245
0
ARC
8
VISIBLE
10
244.900287
20
105.185815
30
0
40
3.81
50
159.086245
51
19.086245
0
ARC
8
VISIBLE
10
238.322987
20
109.797004
30
0
40
3.98
50
339.086245
51
89.086245
0
ARC
8
VISIBLE
10
261.625325
20
124.878398
30
0
40
3.98
50
353.651608
51
103.651608
0
ARC
8
VISIBLE
10
257.882558
20
131.985833
30
0
40
3.81
50
63.651608
51
283.651608
0
ARC
8
VISIBLE
10
263.095956
20
138.096841
30
0
40
3.98
50
243.651608
51
353.651608
0
ARC
8
VISIBLE
10
279.388379
20
147.162981
30
0
40
2.48
50
343.720024
51
93.720024
0
ARC
8
VISIBLE
10
286.316703
20
143.098222
30
0
40
5.31
50
163.720024
51
23.720024
0
ARC
8
VISIBLE
10
292.660356
20
148.025899
30
0
40
2.48
50
93.720024
51
203.720024
0
ARC
8
VISIBLE
10
290.511781
20
110.310291
30
0
40
3.98
50
91.94412
51
201.94412
0
ARC
8
VISIBLE
10
284.018464
20
105.581574
30
0
40
3.81
50
161.94412
51
21.94412
0
ARC
8
VISIBLE
10
277.219437
20
109.859092
30
0
40
3.98
50
341.94412
51
91.94412
0
ARC
8
VISIBLE
10
11.180973
20
187.025663
30
0
40
2.48
50
341.314247
51
91.314247
0
ARC
8
VISIBLE
10
17.932566
20
182.673661
30
0
40
5.31
50
161.314247
51
21.314247
0
ARC
8
VISIBLE
10
24.477474
20
187.330711
30
0
40
2.48
50
91.314247
51
201.314247
0
ARC
8
VISIBLE
10
39.072479
20
179.12792
30
0
40
3.98
50
181.621865
51
291.621865
0
ARC
8
VISIBLE
10
43.764601
20
172.60811
30
0
40
3.81
50
251.621865
51
111.621865
0
ARC
8
VISIBLE
10
39.44891
20
165.833248
30
0
40
3.98
50
71.621865
51
181.621865
0
ARC
8
VISIBLE
10
24.744009
20
156.563899
30
0
40
2.48
50
163.074959
51
273.074959
0
ARC
8
VISIBLE
10
17.861886
20
160.706401
30
0
40
5.31
50
343.074959
51
203.074959
0
ARC
8
VISIBLE
10
11.463158
20
155.850455
30
0
40
2.48
50
273.074959
51
23.074959
0
ARC
8
VISIBLE
10
39.44891
20
165.833248
30
0
40
2.48
50
71.621865
51
181.621865
0
ARC
8
VISIBLE
10
43.764601
20
172.60811
30
0
40
5.31
50
251.621865
51
111.621865
0
ARC
8
VISIBLE
10
39.072479
20
179.12792
30
0
40
2.48
50
181.621865
51
291.621865
0
ARC
8
VISIBLE
10
48.355671
20
193.21976
30
0
40
3.98
50
266.29554
51
16.29554
0
ARC
8
VISIBLE
10
55.28289
20
197.286401
30
0
40
3.81
50
336.29554
51
196.29554
0
ARC
8
VISIBLE
10
61.627882
20
192.360447
30
0
40
3.98
50
156.29554
51
266.29554
0
ARC
8
VISIBLE
10
70.820121
20
177.60298
30
0
40
2.48
50
249.969149
51
359.969149
0
ARC
8
VISIBLE
10
66.31083
20
170.955407
30
0
40
5.31
50
69.969149
51
289.969149
0
ARC
8
VISIBLE
10
70.81296
20
164.302982
30
0
40
2.48
50
359.969149
51
109.969149
0
ARC
8
VISIBLE
10
61.91234
20
150.476273
30
0
40
3.98
50
89.418861
51
199.418861
0
ARC
8
VISIBLE
10
55.216982
20
146.038242
30
0
40
3.81
50
159.418861
51
19.418861
0
ARC
8
VISIBLE
10
48.613024
20
150.61117
30
0
40
3.98
50
339.418861
51
89.418861
0
ARC
8
VISIBLE
10
70.81296
20
164.302982
30
0
40
3.98
50
359.969149
51
109.969149
0
ARC
8
VISIBLE
10
66.31083
20
170.955407
30
0
40
3.81
50
69.969149
51
289.969149
0
ARC
8
VISIBLE
10
70.820121
20
177.60298
30
0
40
3.98
50
249.969149
51
359.969149
0
ARC
8
VISIBLE
10
86.13038
20
192.460965
30
0
40
3.98
50
274.276558
51
24.276558
0
ARC
8
VISIBLE
10
92.425871
20
197.450026
30
0
40
3.81
50
344.276558
51
204.276558
0
ARC
8
VISIBLE
10
99.39335
20
193.452755
30
0
40
3.98
50
164.276558
51
274.276558
0
ARC
8
VISIBLE
10
115.491406
20
178.360905
30
0
40
3.98
50
181.392224
51
291.392224
0
ARC
8
VISIBLE
10
120.157359
20
171.822341
30
0
40
3.81
50
251.392224
51
111.392224
0
ARC
8
VISIBLE
10
115.81455
20
165.064831
30
0
40
3.98
50
71.392224
51
181.392224
0
ARC
8
VISIBLE
10
100.234882
20
155.826562
30
0
40
2.48
50
157.837604
51
267.837604
0
ARC
8
VISIBLE
10
93.759627
20
160.579982
30
0
40
5.31
50
337.837604
51
197.837604
0
ARC
8
VISIBLE
10
86.944353
20
156.328397
30
0
40
2.48
50
267.837604
51
17.837604
0
ARC
8
VISIBLE
10
115.81455
20
165.064831
30
0
40
2.48
50
71.392224
51
181.392224
0
ARC
8
VISIBLE
10
120.157359
20
171.822341
30
0
40
5.31
50
251.392224
51
111.392224
0
ARC
8
VISIBLE
10
115.491406
20
178.360905
30
0
40
2.48
50
181.392224
51
291.392224
0
ARC
8
VISIBLE
10
126.001784
20
194.613406
30
0
40
3.98
50
270.938907
51
20.938907
0
ARC
8
VISIBLE
10
132.577059
20
199.227481
30
0
40
3.81
50
340.938907
51
200.938907
0
ARC
8
VISIBLE
10
139.299998
20
194.831343
30
0
40
3.98
50
160.938907
51
270.938907
0
ARC
8
VISIBLE
10
148.864186
20
178.107909
30
0
40
2.48
50
244.389307
51
354.389307
0
ARC
8
VISIBLE
10
143.729899
20
171.930286
30
0
40
5.31
50
64.389307
51
284.389307
0
ARC
8
VISIBLE
10
147.563863
20
164.871628
30
0
40
2.48
50
354.389307
51
104.389307
0
ARC
8
VISIBLE
10
137.650728
20
147.797242
30
0
40
3.98
50
87.488352
51
197.488352
0
ARC
8
VISIBLE
10
130.809665
20
143.587278
30
0
40
3.81
50
157.488352
51
17.488352
0
ARC
8
VISIBLE
10
124.363505
20
148.380081
30
0
40
3.98
50
337.488352
51
87.488352
0
ARC
8
VISIBLE
10
147.563863
20
164.871628
30
0
40
3.98
50
354.389307
51
104.389307
0
ARC
8
VISIBLE
10
143.729899
20
171.930286
30
0
40
3.81
50
64.389307
51
284.389307
0
ARC
8
VISIBLE
10
148.864186
20
178.107909
30
0
40
3.98
50
244.389307
51
354.389307
0
ARC
8
VISIBLE
10
164.694738
20
188.329602
30
0
40
2.48
50
338.611367
51
88.611367
0
ARC
8
VISIBLE
10
171.233595
20
183.664059
30
0
40
5.31
50
158.611367
51
18.611367
0
ARC
8
VISIBLE
10
177.990832
20
188.007292
30
0
40
2.48
50
88.611367
51
198.611367
0
ARC
8
VISIBLE
10
185.400323
20
179.20926
30
0
40
2.48
50
246.362214
51
356.362214
0
ARC
8
VISIBLE
10
180.481756
20
172.85854
30
0
40
5.31
50
66.362214
51
286.362214
0
ARC
8
VISIBLE
10
184.556455
20
165.936058
30
0
40
2.48
50
356.362214
51
106.362214
0
ARC
8
VISIBLE
10
175.113278
20
149.500059
30
0
40
3.98
50
94.950096
51
204.950096
0
ARC
8
VISIBLE
10
168.87687
20
144.437338
30
0
40
3.81
50
164.950096
51
24.950096
0
ARC
8
VISIBLE
10
161.862884
20
148.352428
30
0
40
3.98
50
344.950096
51
94.950096
0
ARC
8
VISIBLE
10
184.556455
20
165.936058
30
0
40
3.98
50
356.362214
51
106.362214
0
ARC
8
VISIBLE
10
180.481756
20
172.85854
30
0
40
3.81
50
66.362214
51
286.362214
0
ARC
8
VISIBLE
10
185.400323
20
179.20926
30
0
40
3.98
50
246.362214
51
356.362214
0
ARC
8
VISIBLE
10
203.177223
20
193.450736
30
0
40
3.98
50
266.904008
51
16.904008
0
ARC
8
VISIBLE
10
210.060866
20
197.590711
30
0
40
3.81
50
336.904008
51
196.904008
0
ARC
8
VISIBLE
10
216.457811
20
192.732417
30
0
40
3.98
50
156.904008
51
266.904008
0
ARC
8
VISIBLE
10
226.528006
20
177.459136
30
0
40
2.48
50
249.271545
51
359.271545
0
ARC
8
VISIBLE
10
221.938113
20
170.866957
30
0
40
5.31
50
69.271545
51
289.271545
0
ARC
8
VISIBLE
10
226.358915
20
164.16021
30
0
40
2.48
50
359.271545
51
109.271545
0
ARC
8
VISIBLE
10
214.803518
20
149.883194
30
0
40
3.98
50
88.640692
51
198.640692
0
ARC
8
VISIBLE
10
208.048504
20
145.536503
30
0
40
3.81
50
158.640692
51
18.640692
0
ARC
8
VISIBLE
10
201.507261
20
150.198698
30
0
40
3.98
50
338.640692
51
88.640692
0
ARC
8
VISIBLE
10
226.358915
20
164.16021
30
0
40
3.98
50
359.271545
51
109.271545
0
ARC
8
VISIBLE
10
221.938113
20
170.866957
30
0
40
3.81
50
69.271545
51
289.271545
0
ARC
8
VISIBLE
10
226.528006
20
177.459136
30
0
40
3.98
50
249.271545
51
359.271545
0
ARC
8
VISIBLE
10
242.19638
20
185.526535
30
0
40
2.48
50
339.934821
51
89.934821
0
ARC
8
VISIBLE
10
248.84125
20
181.013261
30
0
40
5.31
50
159.934821
51
19.934821
0
ARC
8
VISIBLE
10
255.496371
20
185.511405
30
0
40
2.48
50
89.934821
51
199.934821
0
ARC
8
VISIBLE
10
270.972426
20
175.817364
30
0
40
3.98
50
179.753171
51
289.753171
0
ARC
8
VISIBLE
10
275.449448
20
169.148015
30
0
40
3.81
50
249.753171
51
109.753171
0
ARC
8
VISIBLE
10
270.91513
20
162.517487
30
0
40
3.98
50
69.753171
51
179.753171
0
ARC
8
VISIBLE
10
255.428703
20
153.876658
30
0
40
2.48
50
155.311889
51
265.311889
0
ARC
8
VISIBLE
10
249.169211
20
158.910811
30
0
40
5.31
50
335.311889
51
195.311889
0
ARC
8
VISIBLE
10
242.1732
20
154.96369
30
0
40
2.48
50
265.311889
51
15.311889
0
ARC
8
VISIBLE
10
270.91513
20
162.517487
30
0
40
2.48
50
69.753171
51
179.753171
0
ARC
8
VISIBLE
10
275.449448
20
169.148015
30
0
40
5.31
50
249.753171
51
109.753171
0
ARC
8
VISIBLE
10
270.972426
20
175.817364
30
0
40
2.48
50
179.753171
51
289.753171
0
ARC
8
VISIBLE
10
279.139639
20
192.358093
30
0
40
3.98
50
272.013256
51
22.013256
0
ARC
8
VISIBLE
10
285.627245
20
197.094643
30
0
40
3.81
50
342.013256
51
202.013256
0
ARC
8
VISIBLE
10
292.431429
20
192.825332
30
0
40
3.98
50
162.013256
51
272.013256
0
ARC
8
VISIBLE
10
292.660356
20
148.025899
30
0
40
3.98
50
93.720024
51
203.720024
0
ARC
8
VISIBLE
10
286.316703
20
143.098222
30
0
40
3.81
50
163.720024
51
23.720024
0
ARC
8
VISIBLE
10
279.388379
20
147.162981
30
0
40
3.98
50
343.720024
51
93.720024
0
ARC
8
VISIBLE
10
40.422176
20
215.826702
30
0
40
3.98
50
176.169515
51
286.169515
0
ARC
8
VISIBLE
10
44.47357
20
208.890555
30
0
40
3.81
50
246.169515
51
106.169515
0
ARC
8
VISIBLE
10
39.533673
20
202.556414
30
0
40
3.98
50
66.169515
51
176.169515
0
ARC
8
VISIBLE
10
24.477474
20
187.330711
30
0
40
3.98
50
91.314247
51
201.314247
0
ARC
8
VISIBLE
10
17.932566
20
182.673661
30
0
40
3.81
50
161.314247
51
21.314247
0
ARC
8
VISIBLE
10
11.180973
20
187.025663
30
0
40
3.98
50
341.314247
51
91.314247
0
ARC
8
VISIBLE
10
39.533673
20
202.556414
30
0
40
2.48
50
66.169515
51
176.169515
0
ARC
8
VISIBLE
10
44.47357
20
208.890555
30
0
40
5.31
50
246.169515
51
106.169515
0
ARC
8
VISIBLE
10
40.422176
20
215.826702
30
0
40
2.48
50
176.169515
51
286.169515
0
ARC
8
VISIBLE
10
78.579492
20
214.643488
30
0
40
3.98
50
177.195124
51
287.195124
0
ARC
8
VISIBLE
10
82.75439
20
207.780969
30
0
40
3.81
50
247.195124
51
107.195124
0
ARC
8
VISIBLE
10
77.92866
20
201.359422
30
0
40
3.98
50
67.195124
51
177.195124
0
ARC
8
VISIBLE
10
61.627882
20
192.360447
30
0
40
2.48
50
156.29554
51
266.29554
0
ARC
8
VISIBLE
10
55.28289
20
197.286401
30
0
40
5.31
50
336.29554
51
196.29554
0
ARC
8
VISIBLE
10
48.355671
20
193.21976
30
0
40
2.48
50
266.29554
51
16.29554
0
ARC
8
VISIBLE
10
77.92866
20
201.359422
30
0
40
2.48
50
67.195124
51
177.195124
0
ARC
8
VISIBLE
10
82.75439
20
207.780969
30
0
40
5.31
50
247.195124
51
107.195124
0
ARC
8
VISIBLE
10
78.579492
20
214.643488
30
0
40
2.48
50
177.195124
51
287.195124
0
ARC
8
VISIBLE
10
110.119251
20
216.395528
30
0
40
2.48
50
246.814959
51
356.814959
0
ARC
8
VISIBLE
10
105.25102
20
210.006141
30
0
40
5.31
50
66.814959
51
286.814959
0
ARC
8
VISIBLE
10
109.380292
20
203.116072
30
0
40
2.48
50
356.814959
51
106.814959
0
ARC
8
VISIBLE
10
99.39335
20
193.452755
30
0
40
2.48
50
164.276558
51
274.276558
0
ARC
8
VISIBLE
10
92.425871
20
197.450026
30
0
40
5.31
50
344.276558
51
204.276558
0
ARC
8
VISIBLE
10
86.13038
20
192.460965
30
0
40
2.48
50
274.276558
51
24.276558
0
ARC
8
VISIBLE
10
109.380292
20
203.116072
30
0
40
3.98
50
356.814959
51
106.814959
0
ARC
8
VISIBLE
10
105.25102
20
210.006141
30
0
40
3.81
50
66.814959
51
286.814959
0
ARC
8
VISIBLE
10
110.119251
20
216.395528
30
0
40
3.98
50
246.814959
51
356.814959
0
ARC
8
VISIBLE
10
149.233781
20
216.43096
30
0
40
2.48
50
252.308625
51
2.308625
0
ARC
8
VISIBLE
10
144.999603
20
209.604858
30
0
40
5.31
50
72.308625
51
292.308625
0
ARC
8
VISIBLE
10
149.769534
20
203.141755
30
0
40
2.48
50
2.308625
51
112.308625
0
ARC
8
VISIBLE
10
139.299998
20
194.831343
30
0
40
2.48
50
160.938907
51
270.938907
0
ARC
8
VISIBLE
10
132.577059
20
199.227481
30
0
40
5.31
50
340.938907
51
200.938907
0
ARC
8
VISIBLE
10
126.001784
20
194.613406
30
0
40
2.48
50
270.938907
51
20.938907
0
ARC
8
VISIBLE
10
149.769534
20
203.141755
30
0
40
3.98
50
2.308625
51
112.308625
0
ARC
8
VISIBLE
10
144.999603
20
209.604858
30
0
40
3.81
50
72.308625
51
292.308625
0
ARC
8
VISIBLE
10
149.233781
20
216.43096
30
0
40
3.98
50
252.308625
51
2.308625
0
ARC
8
VISIBLE
10
193.032154
20
216.076402
30
0
40
3.98
50
179.047244
51
289.047244
0
ARC
8
VISIBLE
10
197.426667
20
209.3524
30
0
40
3.81
50
249.047244
51
109.047244
0
ARC
8
VISIBLE
10
192.811002
20
202.77824
30
0
40
3.98
50
69.047244
51
179.047244
0
ARC
8
VISIBLE
10
177.990832
20
188.007292
30
0
40
3.98
50
88.611367
51
198.611367
0
ARC
8
VISIBLE
10
171.233595
20
183.664059
30
0
40
3.81
50
158.611367
51
18.611367
0
ARC
8
VISIBLE
10
164.694738
20
188.329602
30
0
40
3.98
50
338.611367
51
88.611367
0
ARC
8
VISIBLE
10
192.811002
20
202.77824
30
0
40
2.48
50
69.047244
51
179.047244
0
ARC
8
VISIBLE
10
197.426667
20
209.3524
30
0
40
5.31
50
249.047244
51
109.047244
0
ARC
8
VISIBLE
10
193.032154
20
216.076402
30
0
40
2.48
50
179.047244
51
289.047244
0
ARC
8
VISIBLE
10
231.855199
20
215.183885
30
0
40
3.98
50
182.775879
51
292.775879
0
ARC
8
VISIBLE
10
236.677678
20
208.759896
30
0
40
3.81
50
252.775879
51
112.775879
0
ARC
8
VISIBLE
10
232.499308
20
201.899491
30
0
40
3.98
50
72.775879
51
182.775879
0
ARC
8
VISIBLE
10
216.457811
20
192.732417
30
0
40
2.48
50
156.904008
51
266.904008
0
ARC
8
VISIBLE
10
210.060866
20
197.590711
30
0
40
5.31
50
336.904008
51
196.904008
0
ARC
8
VISIBLE
10
203.177223
20
193.450736
30
0
40
2.48
50
266.904008
51
16.904008
0
ARC
8
VISIBLE
10
232.499308
20
201.899491
30
0
40
2.48
50
72.775879
51
182.775879
0
ARC
8
VISIBLE
10
236.677678
20
208.759896
30
0
40
5.31
50
252.775879
51
112.775879
0
ARC
8
VISIBLE
10
231.855199
20
215.183885
30
0
40
2.48
50
182.775879
51
292.775879
0
ARC
8
VISIBLE
10
263.368249
20
214.859024
30
0
40
2.48
50
252.621336
51
2.621336
0
ARC
8
VISIBLE
10
259.17139
20
208.009914
30
0
40
5.31
50
72.621336
51
292.621336
0
ARC
8
VISIBLE
10
263.976524
20
201.572941
30
0
40
2.48
50
2.621336
51
112.621336
0
ARC
8
VISIBLE
10
255.496371
20
185.511405
30
0
40
3.98
50
89.934821
51
199.934821
0
ARC
8
VISIBLE
10
248.84125
20
181.013261
30
0
40
3.81
50
159.934821
51
19.934821
0
ARC
8
VISIBLE
10
242.19638
20
185.526535
30
0
40
3.98
50
339.934821
51
89.934821
0
ARC
8
VISIBLE
10
263.976524
20
201.572941
30
0
40
3.98
50
2.621336
51
112.621336
0
ARC
8
VISIBLE
10
259.17139
20
208.009914
30
0
40
3.81
50
72.621336
51
292.621336
0
ARC
8
VISIBLE
10
263.368249
20
214.859024
30
0
40
3.98
50
252.621336
51
2.621336
0
ARC
8
VISIBLE
10
292.431429
20
192.825332
30
0
40
2.48
50
162.013256
51
272.013256
0
ARC
8
VISIBLE
10
285.627245
20
197.094643
30
0
40
5.31
50
342.013256
51
202.013256
0
ARC
8
VISIBLE
10
279.139639
20
192.358093
30
0
40
2.48
50
272.013256
51
22.013256
0
ENDSEC
0
EOF
