0
SECTION
2
HEADER
9
$ACADVER
1
AC1015
9
$INSUNITS
70
4
0
ENDSEC
0
SECTION
2
TABLES
0
TABLE
2
LAYER
70
2
0
LAYER
2
VISIBLE
70
0
62
7
6
CONTINUOUS
0
LAYER
2
HIDDEN
70
0
62
8
6
DASHED
0
ENDTAB
0
ENDSEC
0
SECTION
2
ENTITIES
0
LINE
8
VISIBLE
10
0
20
0
30
0
11
37.249938
21
0
31
0
0
LINE
8
VISIBLE
10
0
20
0
30
0
11
0
21
37.248448
31
0
0
LINE
8
VISIBLE
10
37.249938
20
0
30
0
11
37.425234
21
13.599801
31
0
0
LINE
8
VISIBLE
10
42.814234
20
17.270626
30
0
11
44.646817
21
16.576743
31
0
0
LINE
8
VISIBLE
10
44.739105
20
23.736606
30
0
11
42.889246
21
23.090189
31
0
0
LINE
8
VISIBLE
10
37.596652
20
26.898696
30
0
11
37.761382
21
39.678677
31
0
0
LINE
8
VISIBLE
10
37.761382
20
39.678677
30
0
11
25.94532
21
38.918224
31
0
0
LINE
8
VISIBLE
10
21.870026
20
44.008239
30
0
11
22.420586
21
45.888855
31
0
0
LINE
8
VISIBLE
10
15.274911
20
45.428978
30
0
11
16.061995
21
43.634448
31
0
0
LINE
8
VISIBLE
10
12.672779
20
38.064037
30
0
11
0
21
37.248448
31
0
0
LINE
8
VISIBLE
10
38.750062
20
0
30
0
11
75.249712
21
0
31
0
0
LINE
8
VISIBLE
10
38.750062
20
0
30
0
11
38.92511
21
13.580468
31
0
0
LINE
8
VISIBLE
10
75.249712
20
0
30
0
11
74.87126
21
13.646377
31
0
0
LINE
8
VISIBLE
10
80.106767
20
17.532986
30
0
11
81.966014
21
16.914085
31
0
0
LINE
8
VISIBLE
10
81.767511
20
24.071791
30
0
11
79.945423
21
23.350796
31
0
0
LINE
8
VISIBLE
10
74.502556
20
26.941265
30
0
11
74.143834
21
39.876208
31
0
0
LINE
8
VISIBLE
10
74.143834
20
39.876208
30
0
11
63.35054
21
39.831652
31
0
0
LINE
8
VISIBLE
10
61.033861
20
36.493851
30
0
11
61.711662
21
34.655258
31
0
0
LINE
8
VISIBLE
10
51.732211
20
34.614063
30
0
11
52.39481
21
36.458188
31
0
0
LINE
8
VISIBLE
10
50.050653
20
39.77675
30
0
11
39.262196
21
39.732215
31
0
0
LINE
8
VISIBLE
10
39.262196
20
39.732215
30
0
11
39.096528
21
26.879363
31
0
0
LINE
8
VISIBLE
10
42.394425
20
24.506223
30
0
11
44.244285
21
25.152641
31
0
0
LINE
8
VISIBLE
10
44.115663
20
15.173934
30
0
11
42.283079
21
15.867816
31
0
0
LINE
8
VISIBLE
10
76.750288
20
0
30
0
11
113.248464
21
0
31
0
0
LINE
8
VISIBLE
10
76.750288
20
0
30
0
11
76.370683
21
13.68796
31
0
0
LINE
8
VISIBLE
10
113.248464
20
0
30
0
11
112.441233
21
12.604539
31
0
0
LINE
8
VISIBLE
10
117.532524
20
16.678238
30
0
11
119.412968
21
16.127088
31
0
0
LINE
8
VISIBLE
10
118.955329
20
23.272907
30
0
11
117.160554
21
22.486386
31
0
0
LINE
8
VISIBLE
10
111.591204
20
25.877347
30
0
11
110.823411
21
37.86609
31
0
0
LINE
8
VISIBLE
10
110.823411
20
37.86609
30
0
11
99.799007
21
38.483074
31
0
0
LINE
8
VISIBLE
10
96.36333
20
44.02495
30
0
11
97.135381
21
45.825998
31
0
0
LINE
8
VISIBLE
10
89.98611
20
46.226109
30
0
11
90.552377
21
44.350162
31
0
0
LINE
8
VISIBLE
10
86.519786
20
39.226249
30
0
11
75.645559
21
39.834828
31
0
0
LINE
8
VISIBLE
10
75.645559
20
39.834828
30
0
11
76.001979
21
26.982848
31
0
0
LINE
8
VISIBLE
10
79.393515
20
24.745571
30
0
11
81.215602
21
25.466566
31
0
0
LINE
8
VISIBLE
10
81.492256
20
15.490866
30
0
11
79.63301
21
16.109767
31
0
0
LINE
8
VISIBLE
10
114.751536
20
0
30
0
11
151.249478
21
0
31
0
0
LINE
8
VISIBLE
10
114.751536
20
0
30
0
11
113.938166
21
12.700407
31
0
0
LINE
8
VISIBLE
10
151.249478
20
0
30
0
11
150.780583
21
12.564985
31
0
0
LINE
8
VISIBLE
10
147.367782
20
14.769687
30
0
11
145.552682
21
14.03128
31
0
0
LINE
8
VISIBLE
10
145.180528
20
24.003874
30
0
11
147.045615
21
23.402802
31
0
0
LINE
8
VISIBLE
10
150.284604
20
25.855734
30
0
11
149.84154
21
37.728525
31
0
0
LINE
8
VISIBLE
10
149.84154
20
37.728525
30
0
11
137.694792
21
37.759984
31
0
0
LINE
8
VISIBLE
10
135.355743
20
34.437821
30
0
11
136.021177
21
32.594717
31
0
0
LINE
8
VISIBLE
10
126.041675
20
32.620563
30
0
11
126.716647
21
34.460196
31
0
0
LINE
8
VISIBLE
10
124.394837
20
37.79443
30
0
11
112.329072
21
37.82568
31
0
0
LINE
8
VISIBLE
10
112.329072
20
37.82568
30
0
11
113.088138
21
25.973215
31
0
0
LINE
8
VISIBLE
10
116.558486
20
23.860254
30
0
11
118.353262
21
24.646775
31
0
0
LINE
8
VISIBLE
10
118.991073
20
14.687643
30
0
11
117.110629
21
15.238792
31
0
0
LINE
8
VISIBLE
10
152.750522
20
0
30
0
11
189.249285
21
0
31
0
0
LINE
8
VISIBLE
10
152.750522
20
0
30
0
11
152.27954
21
12.620922
31
0
0
LINE
8
VISIBLE
10
189.249285
20
0
30
0
11
189.828896
21
13.266462
31
0
0
LINE
8
VISIBLE
10
195.328289
20
16.769739
30
0
11
197.138655
21
16.019799
31
0
0
LINE
8
VISIBLE
10
197.451197
20
23.173433
30
0
11
195.582324
21
22.584239
31
0
0
LINE
8
VISIBLE
10
190.409418
20
26.553787
30
0
11
190.952321
21
38.980061
31
0
0
LINE
8
VISIBLE
10
190.952321
20
38.980061
30
0
11
177.820583
21
38.572413
31
0
0
LINE
8
VISIBLE
10
175.594535
20
35.173497
30
0
11
176.321552
21
33.353804
31
0
0
LINE
8
VISIBLE
10
166.346821
20
33.04416
30
0
11
166.95957
21
34.905443
31
0
0
LINE
8
VISIBLE
10
164.526987
20
38.159742
30
0
11
151.341767
21
37.750434
31
0
0
LINE
8
VISIBLE
10
151.341767
20
37.750434
30
0
11
151.783561
21
25.911671
31
0
0
LINE
8
VISIBLE
10
146.585506
20
21.975112
30
0
11
144.720419
21
22.576184
31
0
0
LINE
8
VISIBLE
10
144.987444
20
15.420707
30
0
11
146.802545
21
16.159114
31
0
0
LINE
8
VISIBLE
10
190.750715
20
0
30
0
11
227.249275
21
0
31
0
0
LINE
8
VISIBLE
10
190.750715
20
0
30
0
11
191.327466
21
13.20099
31
0
0
LINE
8
VISIBLE
10
227.249275
20
0
30
0
11
226.681539
21
12.907317
31
0
0
LINE
8
VISIBLE
10
223.254137
20
15.089251
30
0
11
221.443992
21
14.338777
31
0
0
LINE
8
VISIBLE
10
221.00546
20
24.308673
30
0
11
222.874507
21
23.720031
31
0
0
LINE
8
VISIBLE
10
226.097095
20
26.194469
30
0
11
225.558917
21
38.4298
31
0
0
LINE
8
VISIBLE
10
225.558917
20
38.4298
30
0
11
215.643328
21
38.598334
31
0
0
LINE
8
VISIBLE
10
211.994663
20
44.002362
30
0
11
212.696065
21
45.832081
31
0
0
LINE
8
VISIBLE
10
205.536641
20
45.953768
30
0
11
206.175457
21
44.10127
31
0
0
LINE
8
VISIBLE
10
202.345249
20
38.82436
30
0
11
192.454294
21
38.992475
31
0
0
LINE
8
VISIBLE
10
192.454294
20
38.992475
30
0
11
191.907988
21
26.488315
31
0
0
LINE
8
VISIBLE
10
195.131307
20
24.014827
30
0
11
197.00018
21
24.604021
31
0
0
LINE
8
VISIBLE
10
196.56459
20
14.633996
30
0
11
194.754224
21
15.383936
31
0
0
LINE
8
VISIBLE
10
228.750725
20
0
30
0
11
265.248819
21
0
31
0
0
LINE
8
VISIBLE
10
228.750725
20
0
30
0
11
228.18009
21
12.973231
31
0
0
LINE
8
VISIBLE
10
265.248819
20
0
30
0
11
265.921071
21
11.976677
31
0
0
LINE
8
VISIBLE
10
271.463512
20
15.411443
30
0
11
273.264433
21
14.639097
31
0
0
LINE
8
VISIBLE
10
273.665719
20
21.788301
30
0
11
271.789678
21
21.222343
31
0
0
LINE
8
VISIBLE
10
266.666428
20
25.255775
30
0
11
267.293959
21
36.435729
31
0
0
LINE
8
VISIBLE
10
267.293959
20
36.435729
30
0
11
253.787238
21
37.088099
31
0
0
LINE
8
VISIBLE
10
251.298949
20
33.876193
30
0
11
251.87954
21
32.004629
31
0
0
LINE
8
VISIBLE
10
241.911624
20
32.486077
30
0
11
242.669884
21
34.292974
31
0
0
LINE
8
VISIBLE
10
240.502724
20
37.729737
30
0
11
227.062607
21
38.37889
31
0
0
LINE
8
VISIBLE
10
227.062607
20
38.37889
30
0
11
227.595647
21
26.260384
31
0
0
LINE
8
VISIBLE
10
222.423912
20
22.289309
30
0
11
220.554865
21
22.877952
31
0
0
LINE
8
VISIBLE
10
220.869518
20
15.724411
30
0
11
222.679663
21
16.474884
31
0
0
LINE
8
VISIBLE
10
266.751181
20
0
30
0
11
304
21
0
31
0
0
LINE
8
VISIBLE
10
266.751181
20
0
30
0
11
267.418714
21
11.892614
31
0
0
LINE
8
VISIBLE
10
304
20
0
30
0
11
304
21
37.249789
31
0
0
LINE
8
VISIBLE
10
304
20
37.249789
30
0
11
292.708481
21
36.982045
31
0
0
LINE
8
VISIBLE
10
290.457594
20
33.599527
30
0
11
291.171262
21
31.774557
31
0
0
LINE
8
VISIBLE
10
281.19453
20
31.53799
30
0
11
281.820897
21
33.394734
31
0
0
LINE
8
VISIBLE
10
279.412218
20
36.666765
30
0
11
268.795158
21
36.415014
31
0
0
LINE
8
VISIBLE
10
268.795158
20
36.415014
30
0
11
268.16407
21
25.171712
31
0
0
LINE
8
VISIBLE
10
271.356448
20
22.658418
30
0
11
273.232488
21
23.224376
31
0
0
LINE
8
VISIBLE
10
272.673216
20
13.260524
30
0
11
270.872295
21
14.03287
31
0
0
LINE
8
VISIBLE
10
0
20
38.751552
30
0
11
12.576442
21
39.56094
31
0
0
LINE
8
VISIBLE
10
0
20
38.751552
30
0
11
0
21
75.248924
31
0
0
LINE
8
VISIBLE
10
14.688315
20
43.03195
30
0
11
13.901232
21
44.826479
31
0
0
LINE
8
VISIBLE
10
23.860164
20
45.467412
30
0
11
23.309604
21
43.586795
31
0
0
LINE
8
VISIBLE
10
25.848983
20
40.415128
30
0
11
37.699115
21
41.177773
31
0
0
LINE
8
VISIBLE
10
37.699115
20
41.177773
30
0
11
36.76803
21
50.605093
31
0
0
LINE
8
VISIBLE
10
33.226884
20
52.597129
30
0
11
31.460297
21
51.749187
31
0
0
LINE
8
VISIBLE
10
30.479445
20
61.680403
30
0
11
32.377776
21
61.194425
31
0
0
LINE
8
VISIBLE
10
35.460821
20
63.840696
30
0
11
34.516742
21
73.399577
31
0
0
LINE
8
VISIBLE
10
34.516742
20
73.399577
30
0
11
24.200262
21
73.952316
31
0
0
LINE
8
VISIBLE
10
20.751407
20
79.486001
30
0
11
21.519169
21
81.288881
31
0
0
LINE
8
VISIBLE
10
14.368966
20
81.671977
30
0
11
14.939696
21
79.797382
31
0
0
LINE
8
VISIBLE
10
10.919311
20
74.663887
30
0
11
0
21
75.248924
31
0
0
LINE
8
VISIBLE
10
39.20106
20
41.231975
30
0
11
50.044461
21
41.276737
31
0
0
LINE
8
VISIBLE
10
39.20106
20
41.231975
30
0
11
38.260767
21
50.752522
31
0
0
LINE
8
VISIBLE
10
53.806455
20
35.950981
30
0
11
53.143856
21
34.106856
31
0
0
LINE
8
VISIBLE
10
60.304253
20
34.136414
30
0
11
59.626452
21
35.975006
31
0
0
LINE
8
VISIBLE
10
63.344348
20
41.33164
30
0
11
74.255049
21
41.376679
31
0
0
LINE
8
VISIBLE
10
74.255049
20
41.376679
30
0
11
75.925854
21
49.931681
31
0
0
LINE
8
VISIBLE
10
81.884933
20
52.578499
30
0
11
83.563699
21
51.567766
31
0
0
LINE
8
VISIBLE
10
84.936216
20
58.59545
30
0
11
83.00052
21
58.290627
31
0
0
LINE
8
VISIBLE
10
78.4752
20
62.985065
30
0
11
80.097336
21
71.290867
31
0
0
LINE
8
VISIBLE
10
80.097336
20
71.290867
30
0
11
64.708258
21
72.001199
31
0
0
LINE
8
VISIBLE
10
61.218539
20
77.509206
30
0
11
61.972936
21
79.317719
31
0
0
LINE
8
VISIBLE
10
54.820094
20
79.647881
30
0
11
55.404683
21
77.777563
31
0
0
LINE
8
VISIBLE
10
51.422404
20
72.614451
30
0
11
36.031418
21
73.324871
31
0
0
LINE
8
VISIBLE
10
36.031418
20
73.324871
30
0
11
36.953558
21
63.988126
31
0
0
LINE
8
VISIBLE
10
32.005768
20
59.741287
30
0
11
30.107437
21
60.227265
31
0
0
LINE
8
VISIBLE
10
30.811213
20
53.101477
30
0
11
32.577799
21
53.949419
31
0
0
LINE
8
VISIBLE
10
75.774266
20
41.329972
30
0
11
86.603603
21
40.723905
31
0
0
LINE
8
VISIBLE
10
75.774266
20
41.329972
30
0
11
77.39804
21
49.64416
31
0
0
LINE
8
VISIBLE
10
89.116373
20
43.916695
30
0
11
88.550107
21
45.792643
31
0
0
LINE
8
VISIBLE
10
98.51405
20
45.235008
30
0
11
97.742
21
43.43396
31
0
0
LINE
8
VISIBLE
10
99.882823
20
39.98073
30
0
11
110.818975
21
39.368685
31
0
0
LINE
8
VISIBLE
10
110.818975
20
39.368685
30
0
11
111.447294
21
51.611369
31
0
0
LINE
8
VISIBLE
10
116.973204
20
55.072667
30
0
11
118.777808
21
54.308964
31
0
0
LINE
8
VISIBLE
10
119.144813
20
61.46001
30
0
11
117.271508
21
60.885064
31
0
0
LINE
8
VISIBLE
10
112.128979
20
64.893888
30
0
11
112.747478
21
76.94524
31
0
0
LINE
8
VISIBLE
10
112.747478
20
76.94524
30
0
11
102.982923
21
75.18986
31
0
0
LINE
8
VISIBLE
10
97.418334
20
80.717425
30
0
11
97.835621
21
83.131056
31
0
0
LINE
8
VISIBLE
10
88.67944
20
81.485044
30
0
11
89.911232
21
79.367869
31
0
0
LINE
8
VISIBLE
10
86.620221
20
72.248328
30
0
11
81.637736
21
71.352623
31
0
0
LINE
8
VISIBLE
10
81.637736
20
71.352623
30
0
11
79.947386
21
62.697544
31
0
0
LINE
8
VISIBLE
10
82.767184
20
59.772367
30
0
11
84.702879
21
60.07719
31
0
0
LINE
8
VISIBLE
10
82.790001
20
50.282701
30
0
11
81.111235
21
51.293434
31
0
0
LINE
8
VISIBLE
10
112.318744
20
39.325712
30
0
11
124.398722
21
39.294425
31
0
0
LINE
8
VISIBLE
10
112.318744
20
39.325712
30
0
11
112.945322
21
51.534487
31
0
0
LINE
8
VISIBLE
10
128.124852
20
33.943517
30
0
11
127.44988
21
32.103884
31
0
0
LINE
8
VISIBLE
10
134.610314
20
32.085339
30
0
11
133.94488
21
33.928443
31
0
0
LINE
8
VISIBLE
10
137.698677
20
39.259979
30
0
11
149.803855
21
39.228627
31
0
0
LINE
8
VISIBLE
10
149.803855
20
39.228627
30
0
11
149.65706
21
50.029434
31
0
0
LINE
8
VISIBLE
10
146.297488
20
52.314427
30
0
11
144.465391
21
51.619259
31
0
0
LINE
8
VISIBLE
10
144.329771
20
61.597873
30
0
11
146.180084
21
60.952754
31
0
0
LINE
8
VISIBLE
10
149.476316
20
63.328206
30
0
11
149.328439
21
74.208734
31
0
0
LINE
8
VISIBLE
10
149.328439
20
74.208734
30
0
11
138.375074
21
75.093196
31
0
0
LINE
8
VISIBLE
10
135.784322
20
71.963351
30
0
11
136.304149
21
70.074008
31
0
0
LINE
8
VISIBLE
10
126.356989
20
70.877221
30
0
11
127.173225
21
72.65868
31
0
0
LINE
8
VISIBLE
10
125.118222
20
76.16366
30
0
11
114.254361
21
77.040895
31
0
0
LINE
8
VISIBLE
10
114.254361
20
77.040895
30
0
11
113.627007
21
64.817006
31
0
0
LINE
8
VISIBLE
10
116.831397
20
62.319046
30
0
11
118.704703
21
62.893991
31
0
0
LINE
8
VISIBLE
10
118.193206
20
52.927573
30
0
11
116.388603
21
53.691276
31
0
0
LINE
8
VISIBLE
10
151.303703
20
39.249975
30
0
11
164.480445
21
39.659019
31
0
0
LINE
8
VISIBLE
10
151.303703
20
39.249975
30
0
11
151.156922
21
50.049819
31
0
0
LINE
8
VISIBLE
10
168.384348
20
34.436395
30
0
11
167.7716
21
32.575112
31
0
0
LINE
8
VISIBLE
10
174.92861
20
32.797286
30
0
11
174.201593
21
34.616979
31
0
0
LINE
8
VISIBLE
10
177.774041
20
40.071691
30
0
11
190.920561
21
40.479797
31
0
0
LINE
8
VISIBLE
10
190.920561
20
40.479797
30
0
11
189.862996
21
52.563082
31
0
0
LINE
8
VISIBLE
10
194.857808
20
56.754517
30
0
11
196.750605
21
56.247412
31
0
0
LINE
8
VISIBLE
10
196.126287
20
63.380601
30
0
11
194.35036
21
62.552399
31
0
0
LINE
8
VISIBLE
10
188.703374
20
65.812432
30
0
11
187.642878
21
77.929204
31
0
0
LINE
8
VISIBLE
10
187.642878
20
77.929204
30
0
11
175.888112
21
76.746142
31
0
0
LINE
8
VISIBLE
10
173.902673
20
73.201293
30
0
11
174.753904
21
71.436288
31
0
0
LINE
8
VISIBLE
10
164.824531
20
70.436944
30
0
11
165.306974
21
72.336176
31
0
0
LINE
8
VISIBLE
10
162.654965
20
75.414288
30
0
11
150.82837
21
74.223997
31
0
0
LINE
8
VISIBLE
10
150.82837
20
74.223997
30
0
11
150.976178
21
63.34859
31
0
0
LINE
8
VISIBLE
10
145.686256
20
59.536373
30
0
11
143.835944
21
60.181493
31
0
0
LINE
8
VISIBLE
10
143.933253
20
53.021696
30
0
11
145.765349
21
53.716864
31
0
0
LINE
8
VISIBLE
10
192.425123
20
40.493187
30
0
11
202.370741
21
40.324143
31
0
0
LINE
8
VISIBLE
10
192.425123
20
40.493187
30
0
11
191.357284
21
52.693867
31
0
0
LINE
8
VISIBLE
10
204.757403
20
43.612268
30
0
11
204.118587
21
45.464766
31
0
0
LINE
8
VISIBLE
10
214.096682
20
45.29517
30
0
11
213.39528
21
43.465451
31
0
0
LINE
8
VISIBLE
10
215.66882
20
40.098118
30
0
11
225.612413
21
39.929108
31
0
0
LINE
8
VISIBLE
10
225.612413
20
39.929108
30
0
11
227.091873
21
52.375267
31
0
0
LINE
8
VISIBLE
10
224.062009
20
55.082268
30
0
11
222.154398
21
54.634099
31
0
0
LINE
8
VISIBLE
10
223.33236
20
64.543869
30
0
11
225.081753
21
63.660997
31
0
0
LINE
8
VISIBLE
10
228.661775
20
65.582288
30
0
11
230.12187
21
77.86554
31
0
0
LINE
8
VISIBLE
10
230.12187
20
77.86554
30
0
11
216.2924
21
77.91053
31
0
0
LINE
8
VISIBLE
10
213.951147
20
74.589919
30
0
11
214.615359
21
72.746374
31
0
0
LINE
8
VISIBLE
10
204.635876
20
72.77884
30
0
11
205.312068
21
74.618024
31
0
0
LINE
8
VISIBLE
10
202.99247
20
77.953798
30
0
11
189.142516
21
77.998854
31
0
0
LINE
8
VISIBLE
10
189.142516
20
77.998854
30
0
11
190.197661
21
65.943217
31
0
0
LINE
8
VISIBLE
10
193.716387
20
63.911839
30
0
11
195.492314
21
64.740041
31
0
0
LINE
8
VISIBLE
10
196.362426
20
54.79851
30
0
11
194.469629
21
55.305615
31
0
0
LINE
8
VISIBLE
10
227.1169
20
39.878017
30
0
11
240.575089
21
39.22799
31
0
0
LINE
8
VISIBLE
10
227.1169
20
39.878017
30
0
11
228.581386
21
52.198211
31
0
0
LINE
8
VISIBLE
10
244.053031
20
33.71254
30
0
11
243.294772
21
31.905643
31
0
0
LINE
8
VISIBLE
10
250.446892
20
31.560197
30
0
11
249.866301
21
33.431761
31
0
0
LINE
8
VISIBLE
10
253.859603
20
38.586352
30
0
11
267.330521
21
37.935711
31
0
0
LINE
8
VISIBLE
10
267.330521
20
37.935711
30
0
11
267.260278
21
49.938951
31
0
0
LINE
8
VISIBLE
10
263.918488
20
52.249873
30
0
11
262.081067
21
51.568903
31
0
0
LINE
8
VISIBLE
10
262.022668
20
61.548268
30
0
11
263.867933
21
60.888849
31
0
0
LINE
8
VISIBLE
10
267.182448
20
63.238723
30
0
11
267.111641
21
75.338298
31
0
0
LINE
8
VISIBLE
10
267.111641
20
75.338298
30
0
11
255.993414
21
76.114261
31
0
0
LINE
8
VISIBLE
10
252.634383
20
81.702927
30
0
11
253.431164
21
83.493171
31
0
0
LINE
8
VISIBLE
10
246.288082
20
83.991701
30
0
11
246.82846
21
82.108133
31
0
0
LINE
8
VISIBLE
10
242.725687
20
77.040241
30
0
11
231.626408
21
77.814881
31
0
0
LINE
8
VISIBLE
10
231.626408
20
77.814881
30
0
11
230.151289
21
65.405232
31
0
0
LINE
8
VISIBLE
10
224.40593
20
62.321869
30
0
11
222.656538
21
63.204741
31
0
0
LINE
8
VISIBLE
10
221.811333
20
56.094341
30
0
11
223.718945
21
56.542509
31
0
0
LINE
8
VISIBLE
10
268.830661
20
37.916277
30
0
11
279.37666
21
38.166344
31
0
0
LINE
8
VISIBLE
10
268.830661
20
37.916277
30
0
11
268.760253
21
49.947729
31
0
0
LINE
8
VISIBLE
10
283.242202
20
32.915262
30
0
11
282.615835
21
31.058517
31
0
0
LINE
8
VISIBLE
10
289.77428
20
31.228258
30
0
11
289.060613
21
33.053227
31
0
0
LINE
8
VISIBLE
10
292.672923
20
38.481624
30
0
11
304
21
38.750211
31
0
0
LINE
8
VISIBLE
10
304
20
38.750211
30
0
11
304
21
75.25
31
0
0
LINE
8
VISIBLE
10
304
20
75.25
30
0
11
292.577986
21
75.262029
31
0
0
LINE
8
VISIBLE
10
288.843637
20
80.607205
30
0
11
289.515781
21
82.447872
31
0
0
LINE
8
VISIBLE
10
282.355327
20
82.455413
30
0
11
283.023593
21
80.613334
31
0
0
LINE
8
VISIBLE
10
279.277993
20
75.276036
30
0
11
268.611966
21
75.287268
31
0
0
LINE
8
VISIBLE
10
268.611966
20
75.287268
30
0
11
268.682422
21
63.247501
31
0
0
LINE
8
VISIBLE
10
263.36316
20
59.476332
30
0
11
261.517895
21
60.135751
31
0
0
LINE
8
VISIBLE
10
261.559797
20
52.975416
30
0
11
263.397218
21
53.656385
31
0
0
LINE
8
VISIBLE
10
0
20
76.751076
30
0
11
10.999563
21
76.161738
31
0
0
LINE
8
VISIBLE
10
0
20
76.751076
30
0
11
0
21
113.248956
31
0
0
LINE
8
VISIBLE
10
13.504728
20
79.360499
30
0
11
12.933998
21
81.235094
31
0
0
LINE
8
VISIBLE
10
22.899241
20
80.701173
30
0
11
22.131479
21
78.898293
31
0
0
LINE
8
VISIBLE
10
24.280515
20
75.450168
30
0
11
34.530347
21
74.901
31
0
0
LINE
8
VISIBLE
10
34.530347
20
74.901
30
0
11
35.780094
21
86.48899
31
0
0
LINE
8
VISIBLE
10
41.491565
20
89.634681
30
0
11
43.250459
21
88.770895
31
0
0
LINE
8
VISIBLE
10
44.018251
20
95.89007
30
0
11
42.115629
21
95.421173
31
0
0
LINE
8
VISIBLE
10
37.206208
20
99.71231
30
0
11
38.447209
21
111.219213
31
0
0
LINE
8
VISIBLE
10
38.447209
20
111.219213
30
0
11
26.240127
21
111.863661
31
0
0
LINE
8
VISIBLE
10
22.786939
20
117.394643
30
0
11
23.553289
21
119.198124
31
0
0
LINE
8
VISIBLE
10
16.402789
20
119.57562
30
0
11
16.974986
21
117.701474
31
0
0
LINE
8
VISIBLE
10
12.958622
20
112.564831
30
0
11
0
21
113.248956
31
0
0
LINE
8
VISIBLE
10
36.03101
20
74.826487
30
0
11
51.491568
21
74.112855
31
0
0
LINE
8
VISIBLE
10
36.03101
20
74.826487
30
0
11
37.271446
21
86.32815
31
0
0
LINE
8
VISIBLE
10
53.972988
20
77.330071
30
0
11
53.388399
21
79.20039
31
0
0
LINE
8
VISIBLE
10
63.35732
20
78.740242
30
0
11
62.602924
21
76.931728
31
0
0
LINE
8
VISIBLE
10
64.777422
20
73.499604
30
0
11
80.13902
21
72.79054
31
0
0
LINE
8
VISIBLE
10
80.13902
20
72.79054
30
0
11
78.189823
21
87.541704
31
0
0
LINE
8
VISIBLE
10
82.995098
20
91.949153
30
0
11
84.908401
21
91.525942
31
0
0
LINE
8
VISIBLE
10
83.970383
20
98.624694
30
0
11
82.232673
21
97.719044
31
0
0
LINE
8
VISIBLE
10
76.447526
20
100.72709
30
0
11
74.478603
21
115.627532
31
0
0
LINE
8
VISIBLE
10
74.478603
20
115.627532
30
0
11
63.892662
21
114.287143
31
0
0
LINE
8
VISIBLE
10
59.511361
20
119.11627
30
0
11
59.94495
21
121.027248
31
0
0
LINE
8
VISIBLE
10
52.841211
20
120.127774
30
0
11
53.737416
21
118.385175
31
0
0
LINE
8
VISIBLE
10
50.698013
20
112.616439
30
0
11
39.95996
21
111.256789
31
0
0
LINE
8
VISIBLE
10
39.95996
20
111.256789
30
0
11
38.69756
21
99.551471
31
0
0
LINE
8
VISIBLE
10
41.756696
20
96.877596
30
0
11
43.659319
21
97.346493
31
0
0
LINE
8
VISIBLE
10
42.589247
20
87.424493
30
0
11
40.830352
21
88.288279
31
0
0
LINE
8
VISIBLE
10
81.640609
20
72.877185
30
0
11
86.354819
21
73.724662
31
0
0
LINE
8
VISIBLE
10
81.640609
20
72.877185
30
0
11
79.676896
21
87.738204
31
0
0
LINE
8
VISIBLE
10
88.614704
20
78.613537
30
0
11
87.382912
21
80.730713
31
0
0
LINE
8
VISIBLE
10
99.313693
20
82.875516
30
0
11
98.896407
21
80.461885
31
0
0
LINE
8
VISIBLE
10
102.717521
20
76.666194
30
0
11
112.829344
21
78.484002
31
0
0
LINE
8
VISIBLE
10
112.829344
20
78.484002
30
0
11
113.388655
21
88.435968
31
0
0
LINE
8
VISIBLE
10
110.196456
20
90.949488
30
0
11
108.320375
21
90.383663
31
0
0
LINE
8
VISIBLE
10
108.880352
20
100.347475
30
0
11
110.681219
21
99.575002
31
0
0
LINE
8
VISIBLE
10
114.134952
20
101.715013
30
0
11
114.687414
21
111.545117
31
0
0
LINE
8
VISIBLE
10
114.687414
20
111.545117
30
0
11
101.835261
21
112.898464
31
0
0
LINE
8
VISIBLE
10
99.169099
20
109.832603
30
0
11
99.642787
21
107.931168
31
0
0
LINE
8
VISIBLE
10
89.718124
20
108.976247
30
0
11
90.577477
21
110.737311
31
0
0
LINE
8
VISIBLE
10
88.608391
20
114.291269
30
0
11
75.992674
21
115.619719
31
0
0
LINE
8
VISIBLE
10
75.992674
20
115.619719
30
0
11
77.934599
21
100.92359
31
0
0
LINE
8
VISIBLE
10
81.539415
20
99.04923
30
0
11
83.277124
21
99.954879
31
0
0
LINE
8
VISIBLE
10
84.584441
20
90.061343
30
0
11
82.671138
21
90.484554
31
0
0
LINE
8
VISIBLE
10
114.334818
20
78.53928
30
0
11
125.238952
21
77.658794
31
0
0
LINE
8
VISIBLE
10
114.334818
20
78.53928
30
0
11
114.886292
21
88.351799
31
0
0
LINE
8
VISIBLE
10
128.5369
20
72.033866
30
0
11
127.720663
21
70.252407
31
0
0
LINE
8
VISIBLE
10
134.857891
20
69.676091
30
0
11
134.338065
21
71.565434
31
0
0
LINE
8
VISIBLE
10
138.495803
20
76.58833
30
0
11
149.347342
21
75.71209
31
0
0
LINE
8
VISIBLE
10
149.347342
20
75.71209
30
0
11
149.76159
21
87.406372
31
0
0
LINE
8
VISIBLE
10
146.517966
20
89.853171
30
0
11
144.65402
21
89.248572
31
0
0
LINE
8
VISIBLE
10
145.007304
20
99.221852
30
0
11
146.823799
21
98.486881
31
0
0
LINE
8
VISIBLE
10
150.232422
20
100.698036
30
0
11
150.646216
21
112.379483
31
0
0
LINE
8
VISIBLE
10
150.646216
20
112.379483
30
0
11
140.117378
21
112.105995
31
0
0
LINE
8
VISIBLE
10
137.874147
20
108.718394
30
0
11
138.591941
21
106.895043
31
0
0
LINE
8
VISIBLE
10
128.61577
20
106.63591
30
0
11
129.237936
21
108.494067
31
0
0
LINE
8
VISIBLE
10
126.821862
20
111.760641
30
0
11
116.186367
21
111.484383
31
0
0
LINE
8
VISIBLE
10
116.186367
20
111.484383
30
0
11
115.632588
21
101.630845
31
0
0
LINE
8
VISIBLE
10
110.089904
20
98.196471
30
0
11
108.289038
21
98.968945
31
0
0
LINE
8
VISIBLE
10
107.887246
20
91.819768
30
0
11
109.763327
21
92.385594
31
0
0
LINE
8
VISIBLE
10
150.849047
20
75.733656
30
0
11
162.504756
21
76.906748
31
0
0
LINE
8
VISIBLE
10
150.849047
20
75.733656
30
0
11
151.26065
21
87.353271
31
0
0
LINE
8
VISIBLE
10
166.760802
20
71.966875
30
0
11
166.27836
21
70.067643
31
0
0
LINE
8
VISIBLE
10
173.402825
20
70.784686
30
0
11
172.551594
21
72.549691
31
0
0
LINE
8
VISIBLE
10
175.737903
20
78.238602
30
0
11
187.566282
21
79.429073
31
0
0
LINE
8
VISIBLE
10
187.566282
20
79.429073
30
0
11
187.437328
21
91.163272
31
0
0
LINE
8
VISIBLE
10
192.737147
20
94.961717
30
0
11
194.585775
21
94.311787
31
0
0
LINE
8
VISIBLE
10
194.50709
20
101.471812
30
0
11
192.673191
21
100.781412
31
0
0
LINE
8
VISIBLE
10
187.291175
20
104.462469
30
0
11
187.163714
21
116.060794
31
0
0
LINE
8
VISIBLE
10
187.163714
20
116.060794
30
0
11
176.356125
21
114.952573
31
0
0
LINE
8
VISIBLE
10
172.090818
20
119.884452
30
0
11
172.569696
21
121.784586
31
0
0
LINE
8
VISIBLE
10
165.446589
20
121.054176
30
0
11
166.30113
21
119.290771
31
0
0
LINE
8
VISIBLE
10
163.125501
20
113.595892
30
0
11
152.15038
21
112.470492
31
0
0
LINE
8
VISIBLE
10
152.15038
20
112.470492
30
0
11
151.731482
21
100.644935
31
0
0
LINE
8
VISIBLE
10
146.261191
20
97.096387
30
0
11
144.444697
21
97.831359
31
0
0
LINE
8
VISIBLE
10
144.19121
20
90.675389
30
0
11
146.055156
21
91.279988
31
0
0
LINE
8
VISIBLE
10
189.065603
20
79.499112
30
0
11
202.99735
21
79.45379
31
0
0
LINE
8
VISIBLE
10
189.065603
20
79.499112
30
0
11
188.937237
21
91.179755
31
0
0
LINE
8
VISIBLE
10
206.719931
20
74.100411
30
0
11
206.043738
21
72.261227
31
0
0
LINE
8
VISIBLE
10
213.204158
20
72.237932
30
0
11
212.539947
21
74.081477
31
0
0
LINE
8
VISIBLE
10
216.297279
20
79.410522
30
0
11
230.17531
21
79.365375
31
0
0
LINE
8
VISIBLE
10
230.17531
20
79.365375
30
0
11
229.711922
21
88.165779
31
0
0
LINE
8
VISIBLE
10
234.849115
20
92.181437
30
0
11
236.723184
21
91.608983
31
0
0
LINE
8
VISIBLE
10
236.346669
20
98.759535
30
0
11
234.543083
21
97.993433
31
0
0
LINE
8
VISIBLE
10
229.012575
20
101.44738
30
0
11
228.539984
21
110.422553
31
0
0
LINE
8
VISIBLE
10
228.539984
20
110.422553
30
0
11
215.061451
21
112.316789
31
0
0
LINE
8
VISIBLE
10
212.101208
20
118.126542
30
0
11
213.021155
21
119.856725
31
0
0
LINE
8
VISIBLE
10
205.930378
20
120.853243
30
0
11
206.337798
21
118.936516
31
0
0
LINE
8
VISIBLE
10
201.890879
20
114.167744
30
0
11
188.66418
21
116.026588
31
0
0
LINE
8
VISIBLE
10
188.66418
20
116.026588
30
0
11
188.791084
21
104.478952
31
0
0
LINE
8
VISIBLE
10
192.144702
20
102.185229
30
0
11
193.978601
21
102.875628
31
0
0
LINE
8
VISIBLE
10
194.088266
20
92.896695
30
0
11
192.239637
21
93.546626
31
0
0
LINE
8
VISIBLE
10
231.680051
20
79.314786
30
0
11
242.830121
21
78.536601
31
0
0
LINE
8
VISIBLE
10
231.680051
20
79.314786
30
0
11
231.209847
21
88.244653
31
0
0
LINE
8
VISIBLE
10
245.386623
20
81.694484
30
0
11
244.846245
21
83.578051
31
0
0
LINE
8
VISIBLE
10
254.801564
20
82.88325
30
0
11
254.004784
21
81.093006
31
0
0
LINE
8
VISIBLE
10
256.097848
20
77.610621
30
0
11
267.03492
21
76.847301
31
0
0
LINE
8
VISIBLE
10
267.03492
20
76.847301
30
0
11
266.066188
21
88.070263
31
0
0
LINE
8
VISIBLE
10
271.066013
20
92.255716
30
0
11
272.958202
21
91.746346
31
0
0
LINE
8
VISIBLE
10
272.342423
20
98.880277
30
0
11
270.565506
21
98.054201
31
0
0
LINE
8
VISIBLE
10
264.922425
20
101.320991
30
0
11
263.941606
21
112.683994
31
0
0
LINE
8
VISIBLE
10
263.941606
20
112.683994
30
0
11
253.626514
21
111.983193
31
0
0
LINE
8
VISIBLE
10
251.527033
20
108.504673
30
0
11
252.320511
21
106.712962
31
0
0
LINE
8
VISIBLE
10
242.363927
20
106.036518
30
0
11
242.907777
21
107.919086
31
0
0
LINE
8
VISIBLE
10
240.357103
20
111.081677
30
0
11
230.044249
21
110.381028
31
0
0
LINE
8
VISIBLE
10
230.044249
20
110.381028
30
0
11
230.5105
21
101.526253
31
0
0
LINE
8
VISIBLE
10
233.956645
20
99.374045
30
0
11
235.760232
21
100.140148
31
0
0
LINE
8
VISIBLE
10
236.28498
20
90.174418
30
0
11
234.410912
21
90.746872
31
0
0
LINE
8
VISIBLE
10
268.545673
20
76.787339
30
0
11
279.279573
21
76.776035
31
0
0
LINE
8
VISIBLE
10
268.545673
20
76.787339
30
0
11
267.560631
21
88.199258
31
0
0
LINE
8
VISIBLE
10
281.613515
20
80.101789
30
0
11
280.945249
21
81.943868
31
0
0
LINE
8
VISIBLE
10
290.924779
20
81.933358
30
0
11
290.252635
21
80.09269
31
0
0
LINE
8
VISIBLE
10
292.579566
20
76.762028
30
0
11
304
21
76.75
31
0
0
LINE
8
VISIBLE
10
304
20
76.75
30
0
11
304
21
113.249935
31
0
0
LINE
8
VISIBLE
10
304
20
113.249935
30
0
11
290.972036
21
113.078604
31
0
0
LINE
8
VISIBLE
10
288.685565
20
109.720037
30
0
11
289.379927
21
107.887635
31
0
0
LINE
8
VISIBLE
10
279.401254
20
107.756406
30
0
11
280.047187
21
109.606434
31
0
0
LINE
8
VISIBLE
10
277.673186
20
112.903711
30
0
11
265.442102
21
112.742861
31
0
0
LINE
8
VISIBLE
10
265.442102
20
112.742861
30
0
11
266.416868
21
101.449987
31
0
0
LINE
8
VISIBLE
10
269.93316
20
99.414399
30
0
11
271.710077
21
100.240475
31
0
0
LINE
8
VISIBLE
10
272.568289
20
90.29791
30
0
11
270.6761
21
90.807279
31
0
0
LINE
8
VISIBLE
10
0
20
114.751044
30
0
11
13.037701
21
114.062745
31
0
0
LINE
8
VISIBLE
10
0
20
114.751044
30
0
11
0
21
151.24851
31
0
0
LINE
8
VISIBLE
10
15.54036
20
117.263467
30
0
11
14.968163
21
119.137614
31
0
0
LINE
8
VISIBLE
10
24.933821
20
118.611497
30
0
11
24.167471
21
116.808016
31
0
0
LINE
8
VISIBLE
10
26.319206
20
113.361575
30
0
11
38.553361
21
112.715698
31
0
0
LINE
8
VISIBLE
10
38.553361
20
112.715698
30
0
11
38.926288
21
124.064089
31
0
0
LINE
8
VISIBLE
10
35.676414
20
126.502581
30
0
11
33.814021
21
125.893215
31
0
0
LINE
8
VISIBLE
10
34.141788
20
135.867367
30
0
11
35.960157
21
135.137045
31
0
0
LINE
8
VISIBLE
10
39.363112
20
137.356914
30
0
11
39.737265
21
148.742619
31
0
0
LINE
8
VISIBLE
10
39.737265
20
148.742619
30
0
11
26.844995
21
149.555625
31
0
0
LINE
8
VISIBLE
10
23.448592
20
155.121657
30
0
11
24.233358
21
156.917201
31
0
0
LINE
8
VISIBLE
10
17.087096
20
157.367855
30
0
11
17.640083
21
155.48795
31
0
0
LINE
8
VISIBLE
10
13.571362
20
150.39268
30
0
11
0
21
151.24851
31
0
0
LINE
8
VISIBLE
10
40.056315
20
112.780966
30
0
11
50.509588
21
114.104558
31
0
0
LINE
8
VISIBLE
10
40.056315
20
112.780966
30
0
11
40.425478
21
124.014824
31
0
0
LINE
8
VISIBLE
10
52.403487
20
117.699146
30
0
11
51.507283
21
119.441746
31
0
0
LINE
8
VISIBLE
10
61.407769
20
120.695343
30
0
11
60.97418
21
118.784365
31
0
0
LINE
8
VISIBLE
10
63.704237
20
115.775261
30
0
11
74.378712
21
117.126861
31
0
0
LINE
8
VISIBLE
10
74.378712
20
117.126861
30
0
11
74.439692
21
126.496
31
0
0
LINE
8
VISIBLE
10
79.805161
20
130.201134
30
0
11
81.642135
21
129.518958
31
0
0
LINE
8
VISIBLE
10
81.688739
20
136.679264
30
0
11
79.843041
21
136.021057
31
0
0
LINE
8
VISIBLE
10
74.526256
20
139.795718
30
0
11
74.586544
21
149.05857
31
0
0
LINE
8
VISIBLE
10
74.586544
20
149.05857
30
0
11
64.583746
21
148.95193
31
0
0
LINE
8
VISIBLE
10
60.787042
20
154.252997
30
0
11
61.43758
21
156.101412
31
0
0
LINE
8
VISIBLE
10
54.277529
20
156.025079
30
0
11
54.967326
21
154.190953
31
0
0
LINE
8
VISIBLE
10
51.284501
20
148.810147
30
0
11
41.236774
21
148.703029
31
0
0
LINE
8
VISIBLE
10
41.236774
20
148.703029
30
0
11
40.862303
21
137.307648
31
0
0
LINE
8
VISIBLE
10
35.401109
20
133.745117
30
0
11
33.58274
21
134.475438
31
0
0
LINE
8
VISIBLE
10
33.347562
20
127.318844
30
0
11
35.209955
21
127.92821
31
0
0
LINE
8
VISIBLE
10
75.878829
20
117.140001
30
0
11
88.765474
21
115.783022
31
0
0
LINE
8
VISIBLE
10
75.878829
20
117.140001
30
0
11
75.939661
21
126.486237
31
0
0
LINE
8
VISIBLE
10
91.92554
20
110.079492
30
0
11
91.066187
21
108.318427
31
0
0
LINE
8
VISIBLE
10
98.187273
20
107.568568
30
0
11
97.713585
21
109.470003
31
0
0
LINE
8
VISIBLE
10
101.992344
20
114.390216
30
0
11
114.731724
21
113.048744
31
0
0
LINE
8
VISIBLE
10
114.731724
20
113.048744
30
0
11
114.816813
21
126.09982
31
0
0
LINE
8
VISIBLE
10
111.503867
20
128.451906
30
0
11
109.658162
21
127.79372
31
0
0
LINE
8
VISIBLE
10
109.723224
20
137.773044
30
0
11
111.56019
21
137.090847
31
0
0
LINE
8
VISIBLE
10
114.903523
20
139.399537
30
0
11
114.988647
21
152.456021
31
0
0
LINE
8
VISIBLE
10
114.988647
20
152.456021
30
0
11
102.232471
21
151.364638
31
0
0
LINE
8
VISIBLE
10
98.05079
20
156.367619
30
0
11
98.561586
21
158.259423
31
0
0
LINE
8
VISIBLE
10
91.427193
20
157.649024
30
0
11
92.251928
21
155.871484
31
0
0
LINE
8
VISIBLE
10
88.980884
20
150.230869
30
0
11
76.087026
21
149.127707
31
0
0
LINE
8
VISIBLE
10
76.087026
20
149.127707
30
0
11
76.026224
21
139.785955
31
0
0
LINE
8
VISIBLE
10
79.339196
20
137.433905
30
0
11
81.184893
21
138.092112
31
0
0
LINE
8
VISIBLE
10
81.119941
20
128.112788
30
0
11
79.282968
21
128.794964
31
0
0
LINE
8
VISIBLE
10
116.231348
20
112.986057
30
0
11
126.782913
21
113.260136
31
0
0
LINE
8
VISIBLE
10
116.231348
20
112.986057
30
0
11
116.316781
21
126.090041
31
0
0
LINE
8
VISIBLE
10
130.660321
20
108.01781
30
0
11
130.038155
21
106.159654
31
0
0
LINE
8
VISIBLE
10
137.196199
20
106.345585
30
0
11
136.478405
21
108.168936
31
0
0
LINE
8
VISIBLE
10
140.078428
20
113.605489
30
0
11
150.676431
21
113.880774
31
0
0
LINE
8
VISIBLE
10
150.676431
20
113.880774
30
0
11
150.716711
21
125.861117
31
0
0
LINE
8
VISIBLE
10
147.396355
20
128.202731
30
0
11
145.552738
21
127.538721
31
0
0
LINE
8
VISIBLE
10
145.58629
20
137.5182
30
0
11
147.425401
21
136.841807
31
0
0
LINE
8
VISIBLE
10
150.761427
20
139.161042
30
0
11
150.801723
21
151.146145
31
0
0
LINE
8
VISIBLE
10
150.801723
20
151.146145
30
0
11
140.264522
21
151.559925
31
0
0
LINE
8
VISIBLE
10
137.805286
20
148.32572
30
0
11
138.402723
21
146.459466
31
0
0
LINE
8
VISIBLE
10
128.430873
20
146.851045
30
0
11
129.172814
21
148.664704
31
0
0
LINE
8
VISIBLE
10
126.974764
20
152.081793
30
0
11
116.488923
21
152.493556
31
0
0
LINE
8
VISIBLE
10
116.488923
20
152.493556
30
0
11
116.403491
21
139.389758
31
0
0
LINE
8
VISIBLE
10
111.037981
20
135.684683
30
0
11
109.201015
21
136.366879
31
0
0
LINE
8
VISIBLE
10
109.154333
20
129.206574
30
0
11
111.000037
21
129.86476
31
0
0
LINE
8
VISIBLE
10
152.176777
20
113.981064
30
0
11
162.972492
21
115.088067
31
0
0
LINE
8
VISIBLE
10
152.176777
20
113.981064
30
0
11
152.216702
21
125.856074
31
0
0
LINE
8
VISIBLE
10
164.951275
20
118.636635
30
0
11
164.096734
21
120.40004
31
0
0
LINE
8
VISIBLE
10
174.024215
20
121.418014
30
0
11
173.545336
21
119.517879
31
0
0
LINE
8
VISIBLE
10
176.203116
20
116.444749
30
0
11
187.2355
21
117.576021
31
0
0
LINE
8
VISIBLE
10
187.2355
20
117.576021
30
0
11
188.572074
21
128.121302
31
0
0
LINE
8
VISIBLE
10
185.563309
20
130.851733
30
0
11
183.652277
21
130.418382
31
0
0
LINE
8
VISIBLE
10
184.907106
20
140.318712
30
0
11
186.649594
21
139.422291
31
0
0
LINE
8
VISIBLE
10
190.244418
20
141.315743
30
0
11
191.547584
21
151.597441
31
0
0
LINE
8
VISIBLE
10
191.547584
20
151.597441
30
0
11
178.635577
21
151.442369
31
0
0
LINE
8
VISIBLE
10
174.831727
20
156.73831
30
0
11
175.479771
21
158.5876
31
0
0
LINE
8
VISIBLE
10
168.319829
20
158.50161
30
0
11
169.0121
21
156.668417
31
0
0
LINE
8
VISIBLE
10
165.336536
20
151.282648
30
0
11
152.301665
21
151.1261
31
0
0
LINE
8
VISIBLE
10
152.301665
20
151.1261
30
0
11
152.261419
21
139.155998
31
0
0
LINE
8
VISIBLE
10
146.907635
20
135.434001
30
0
11
145.068524
21
136.110394
31
0
0
LINE
8
VISIBLE
10
145.044449
20
128.949976
30
0
11
146.888067
21
129.613987
31
0
0
LINE
8
VISIBLE
10
188.741722
20
117.530431
30
0
11
202.099633
21
115.653147
31
0
0
LINE
8
VISIBLE
10
188.741722
20
117.530431
30
0
11
190.060169
21
127.932692
31
0
0
LINE
8
VISIBLE
10
204.870578
20
118.624643
30
0
11
204.463158
21
120.54137
31
0
0
LINE
8
VISIBLE
10
214.345578
20
119.152523
30
0
11
213.425632
21
117.42234
31
0
0
LINE
8
VISIBLE
10
215.270205
20
113.802192
30
0
11
228.490741
21
111.944214
31
0
0
LINE
8
VISIBLE
10
228.490741
20
111.944214
30
0
11
228.256684
21
124.936791
31
0
0
LINE
8
VISIBLE
10
233.529695
20
128.772366
30
0
11
235.382842
21
128.135436
31
0
0
LINE
8
VISIBLE
10
235.25387
20
135.294732
30
0
11
233.424865
21
134.591469
31
0
0
LINE
8
VISIBLE
10
228.017128
20
138.234633
30
0
11
227.780426
21
151.374057
31
0
0
LINE
8
VISIBLE
10
227.780426
20
151.374057
30
0
11
217.103438
21
151.44457
31
0
0
LINE
8
VISIBLE
10
214.751071
20
148.131822
30
0
11
215.409102
21
146.286062
31
0
0
LINE
8
VISIBLE
10
205.429784
20
146.351967
30
0
11
206.112135
21
148.188876
31
0
0
LINE
8
VISIBLE
10
203.803728
20
151.532403
30
0
11
193.060334
21
151.603355
31
0
0
LINE
8
VISIBLE
10
193.060334
20
151.603355
30
0
11
191.732513
21
141.127132
31
0
0
LINE
8
VISIBLE
10
185.9634
20
138.088448
30
0
11
184.220912
21
138.984869
31
0
0
LINE
8
VISIBLE
10
183.320554
20
131.881242
30
0
11
185.231586
21
132.314593
31
0
0
LINE
8
VISIBLE
10
229.992125
20
111.880945
30
0
11
240.255428
21
112.578227
31
0
0
LINE
8
VISIBLE
10
229.992125
20
111.880945
30
0
11
229.756441
21
124.963809
31
0
0
LINE
8
VISIBLE
10
244.348849
20
107.502779
30
0
11
243.804999
21
105.620211
31
0
0
LINE
8
VISIBLE
10
250.948989
20
106.105569
30
0
11
250.15551
21
107.89728
31
0
0
LINE
8
VISIBLE
10
253.524839
20
113.479743
30
0
11
263.862672
21
114.182089
31
0
0
LINE
8
VISIBLE
10
263.862672
20
114.182089
30
0
11
263.631932
21
126.896821
31
0
0
LINE
8
VISIBLE
10
260.261985
20
129.166487
30
0
11
258.433075
21
128.462981
31
0
0
LINE
8
VISIBLE
10
258.252001
20
138.440873
30
0
11
260.105233
21
137.804189
31
0
0
LINE
8
VISIBLE
10
263.390611
20
140.194632
30
0
11
263.160871
21
152.854233
31
0
0
LINE
8
VISIBLE
10
263.160871
20
152.854233
30
0
11
252.882989
21
152.413461
31
0
0
LINE
8
VISIBLE
10
250.697292
20
148.988457
30
0
11
251.445778
21
147.177489
31
0
0
LINE
8
VISIBLE
10
241.475407
20
146.749905
30
0
11
242.066101
21
148.618304
31
0
0
LINE
8
VISIBLE
10
239.595203
20
151.843608
30
0
11
229.28018
21
151.401243
31
0
0
LINE
8
VISIBLE
10
229.28018
20
151.401243
30
0
11
229.516885
21
138.261651
31
0
0
LINE
8
VISIBLE
10
232.88653
20
135.991538
30
0
11
234.715534
21
136.694801
31
0
0
LINE
8
VISIBLE
10
234.895283
20
126.716885
30
0
11
233.042136
21
127.353815
31
0
0
LINE
8
VISIBLE
10
265.361833
20
114.241935
30
0
11
277.653461
21
114.403582
31
0
0
LINE
8
VISIBLE
10
265.361833
20
114.241935
30
0
11
265.131685
21
126.924038
31
0
0
LINE
8
VISIBLE
10
281.463351
20
109.111984
30
0
11
280.817417
21
107.261955
31
0
0
LINE
8
VISIBLE
10
287.977256
20
107.356114
30
0
11
287.282894
21
109.188516
31
0
0
LINE
8
VISIBLE
10
290.952311
20
114.578475
30
0
11
304
21
114.750065
31
0
0
LINE
8
VISIBLE
10
304
20
114.750065
30
0
11
304
21
151.249376
31
0
0
LINE
8
VISIBLE
10
304
20
151.249376
30
0
11
290.56229
21
151.797726
31
0
0
LINE
8
VISIBLE
10
287.043201
20
157.287014
30
0
11
287.787927
21
159.099531
31
0
0
LINE
8
VISIBLE
10
280.633424
20
159.391483
30
0
11
281.227994
21
157.524314
31
0
0
LINE
8
VISIBLE
10
277.27335
20
152.340005
30
0
11
264.66111
21
152.85467
31
0
0
LINE
8
VISIBLE
10
264.66111
20
152.85467
30
0
11
264.890364
21
140.221848
31
0
0
LINE
8
VISIBLE
10
259.617863
20
136.385574
30
0
11
257.764631
21
137.022258
31
0
0
LINE
8
VISIBLE
10
257.894553
20
129.862979
30
0
11
259.723464
21
130.566485
31
0
0
LINE
8
VISIBLE
10
0
20
152.75149
30
0
11
13.665767
21
151.889706
31
0
0
LINE
8
VISIBLE
10
0
20
152.75149
30
0
11
0
21
189.2498
31
0
0
LINE
8
VISIBLE
10
16.20105
20
155.064649
30
0
11
15.648063
21
156.944553
31
0
0
LINE
8
VISIBLE
10
25.607815
20
156.316476
30
0
11
24.823048
21
154.520933
31
0
0
LINE
8
VISIBLE
10
26.9394
20
151.052651
30
0
11
39.741769
21
150.245315
31
0
0
LINE
8
VISIBLE
10
39.741769
20
150.245315
30
0
11
39.451659
21
162.599293
31
0
0
LINE
8
VISIBLE
10
36.069655
20
164.850953
30
0
11
34.244523
21
164.137702
31
0
0
LINE
8
VISIBLE
10
34.010236
20
174.114488
30
0
11
35.866837
21
173.487696
31
0
0
LINE
8
VISIBLE
10
39.139419
20
175.895627
30
0
11
38.846915
21
188.351552
31
0
0
LINE
8
VISIBLE
10
38.846915
20
188.351552
30
0
11
26.420837
21
188.638877
31
0
0
LINE
8
VISIBLE
10
22.805331
20
194.065145
30
0
11
23.517924
21
195.890535
31
0
0
LINE
8
VISIBLE
10
16.359379
20
196.05606
30
0
11
16.986839
21
194.199685
31
0
0
LINE
8
VISIBLE
10
13.124391
20
188.946327
30
0
11
0
21
189.2498
31
0
0
LINE
8
VISIBLE
10
41.243172
20
150.203182
30
0
11
51.268511
21
150.310062
31
0
0
LINE
8
VISIBLE
10
41.243172
20
150.203182
30
0
11
40.951246
21
162.634508
31
0
0
LINE
8
VISIBLE
10
53.563336
20
153.662926
30
0
11
52.873539
21
155.497051
31
0
0
LINE
8
VISIBLE
10
62.852508
20
155.603437
30
0
11
62.20197
21
153.755022
31
0
0
LINE
8
VISIBLE
10
64.567755
20
150.451845
30
0
11
74.619121
21
150.559002
31
0
0
LINE
8
VISIBLE
10
74.619121
20
150.559002
30
0
11
75.085494
21
162.850445
31
0
0
LINE
8
VISIBLE
10
71.848037
20
165.305397
30
0
11
69.982575
21
164.705491
31
0
0
LINE
8
VISIBLE
10
70.360955
20
174.67785
30
0
11
72.175594
21
173.93831
31
0
0
LINE
8
VISIBLE
10
75.589771
20
176.140881
30
0
11
76.053669
21
188.367101
31
0
0
LINE
8
VISIBLE
10
76.053669
20
188.367101
30
0
11
64.856959
21
188.357186
31
0
0
LINE
8
VISIBLE
10
61.112254
20
193.695113
30
0
11
61.780828
21
195.53708
31
0
0
LINE
8
VISIBLE
10
54.620373
20
195.530739
30
0
11
55.292209
21
193.689959
31
0
0
LINE
8
VISIBLE
10
51.556964
20
188.345409
30
0
11
40.347706
21
188.335483
31
0
0
LINE
8
VISIBLE
10
40.347706
20
188.335483
30
0
11
40.639006
21
175.930842
31
0
0
LINE
8
VISIBLE
10
35.38704
20
172.066501
30
0
11
33.530439
21
172.693293
31
0
0
LINE
8
VISIBLE
10
33.698542
20
165.534809
30
0
11
35.523675
21
166.248059
31
0
0
LINE
8
VISIBLE
10
76.123132
20
150.636276
30
0
11
88.853015
21
151.725409
31
0
0
LINE
8
VISIBLE
10
76.123132
20
150.636276
30
0
11
76.584415
21
162.793571
31
0
0
LINE
8
VISIBLE
10
90.891254
20
155.240164
30
0
11
90.066518
21
157.017704
31
0
0
LINE
8
VISIBLE
10
100.009728
20
157.868417
30
0
11
99.498932
21
155.976613
31
0
0
LINE
8
VISIBLE
10
102.104602
20
152.859178
30
0
11
114.999658
21
153.962443
31
0
0
LINE
8
VISIBLE
10
114.999658
20
153.962443
30
0
11
115.088049
21
164.662833
31
0
0
LINE
8
VISIBLE
10
111.779203
20
167.020683
30
0
11
109.932355
21
166.365711
31
0
0
LINE
8
VISIBLE
10
110.014788
20
176.344906
30
0
11
111.850564
21
175.659513
31
0
0
LINE
8
VISIBLE
10
115.19791
20
177.96238
30
0
11
115.28566
21
188.585149
31
0
0
LINE
8
VISIBLE
10
115.28566
20
188.585149
30
0
11
103.091437
21
188.516217
31
0
0
LINE
8
VISIBLE
10
99.321328
20
193.83623
30
0
11
99.981114
21
195.681364
31
0
0
LINE
8
VISIBLE
10
92.82077
20
195.640887
30
0
11
93.501374
21
193.803331
31
0
0
LINE
8
VISIBLE
10
89.79165
20
188.441035
30
0
11
77.554929
21
188.371862
31
0
0
LINE
8
VISIBLE
10
77.554929
20
188.371862
30
0
11
77.088692
21
176.084008
31
0
0
LINE
8
VISIBLE
10
71.609489
20
172.549237
30
0
11
69.79485
21
173.288777
31
0
0
LINE
8
VISIBLE
10
69.523357
20
166.133468
30
0
11
71.388819
21
166.733375
31
0
0
LINE
8
VISIBLE
10
116.499972
20
153.994278
30
0
11
127.033622
21
153.580638
31
0
0
LINE
8
VISIBLE
10
116.499972
20
153.994278
30
0
11
116.587998
21
164.650443
31
0
0
LINE
8
VISIBLE
10
130.561137
20
148.096761
30
0
11
129.819196
21
146.283102
31
0
0
LINE
8
VISIBLE
10
136.974139
20
146.002139
30
0
11
136.376702
21
147.868393
31
0
0
LINE
8
VISIBLE
10
140.323379
20
153.05877
30
0
11
150.821201
21
152.646537
31
0
0
LINE
8
VISIBLE
10
150.821201
20
152.646537
30
0
11
151.094982
21
165.028873
31
0
0
LINE
8
VISIBLE
10
147.8191
20
167.432312
30
0
11
145.96336
21
166.802975
31
0
0
LINE
8
VISIBLE
10
146.18396
20
176.780072
30
0
11
148.01007
21
176.069326
31
0
0
LINE
8
VISIBLE
10
151.388981
20
178.325623
30
0
11
151.661664
21
190.658276
31
0
0
LINE
8
VISIBLE
10
151.661664
20
190.658276
30
0
11
140.917993
21
190.033888
31
0
0
LINE
8
VISIBLE
10
136.874423
20
195.149142
30
0
11
137.436665
21
197.026299
31
0
0
LINE
8
VISIBLE
10
130.28827
20
196.610857
30
0
11
131.064181
21
194.811469
31
0
0
LINE
8
VISIBLE
10
127.640397
20
189.262237
30
0
11
116.786094
21
188.63142
31
0
0
LINE
8
VISIBLE
10
116.786094
20
188.63142
30
0
11
116.697859
21
177.949989
31
0
0
LINE
8
VISIBLE
10
111.325908
20
174.25426
30
0
11
109.490133
21
174.939653
31
0
0
LINE
8
VISIBLE
10
109.430985
20
167.77944
30
0
11
111.277833
21
168.434412
31
0
0
LINE
8
VISIBLE
10
152.321123
20
152.626442
30
0
11
165.318523
21
152.78254
31
0
0
LINE
8
VISIBLE
10
152.321123
20
152.626442
30
0
11
152.594615
21
164.995716
31
0
0
LINE
8
VISIBLE
10
167.608824
20
156.138496
30
0
11
166.916553
21
157.97169
31
0
0
LINE
8
VISIBLE
10
176.895369
20
158.091535
30
0
11
176.247325
21
156.242244
31
0
0
LINE
8
VISIBLE
10
178.617564
20
152.942261
30
0
11
191.546034
21
153.097531
31
0
0
LINE
8
VISIBLE
10
191.546034
20
153.097531
30
0
11
190.097717
21
164.094025
31
0
0
LINE
8
VISIBLE
10
186.493697
20
165.969914
30
0
11
184.755604
21
165.065001
31
0
0
LINE
8
VISIBLE
10
183.452481
20
174.95909
30
0
11
185.365605
21
174.535069
31
0
0
LINE
8
VISIBLE
10
188.361011
20
177.280149
30
0
11
186.882866
21
188.503115
31
0
0
LINE
8
VISIBLE
10
186.882866
20
188.503115
30
0
11
176.576398
21
189.161084
31
0
0
LINE
8
VISIBLE
10
173.184313
20
194.729749
30
0
11
173.970473
21
196.524684
31
0
0
LINE
8
VISIBLE
10
166.824562
20
196.980882
30
0
11
167.376091
21
195.100549
31
0
0
LINE
8
VISIBLE
10
163.303418
20
190.008436
30
0
11
153.161977
21
190.65587
31
0
0
LINE
8
VISIBLE
10
153.161977
20
190.65587
30
0
11
152.888615
21
178.292466
31
0
0
LINE
8
VISIBLE
10
147.466007
20
174.671472
30
0
11
145.639897
21
175.382218
31
0
0
LINE
8
VISIBLE
10
145.481614
20
168.22351
30
0
11
147.337353
21
168.852848
31
0
0
LINE
8
VISIBLE
10
193.058215
20
153.103401
30
0
11
203.813634
21
153.032371
31
0
0
LINE
8
VISIBLE
10
193.058215
20
153.103401
30
0
11
191.584874
21
164.289894
31
0
0
LINE
8
VISIBLE
10
207.518255
20
147.666548
30
0
11
206.835904
21
145.82964
31
0
0
LINE
8
VISIBLE
10
213.996206
20
145.782352
30
0
11
213.338175
21
147.628112
31
0
0
LINE
8
VISIBLE
10
217.113344
20
152.944537
30
0
11
227.696471
21
152.874644
31
0
0
LINE
8
VISIBLE
10
227.696471
20
152.874644
30
0
11
226.641438
21
164.655775
31
0
0
LINE
8
VISIBLE
10
223.118629
20
166.680062
30
0
11
221.344373
21
165.848285
31
0
0
LINE
8
VISIBLE
10
220.45424
20
175.788043
30
0
11
222.348055
21
175.284752
31
0
0
LINE
8
VISIBLE
10
225.455134
20
177.902763
30
0
11
224.389896
21
189.797843
31
0
0
LINE
8
VISIBLE
10
224.389896
20
189.797843
30
0
11
212.982514
21
189.384192
31
0
0
LINE
8
VISIBLE
10
210.774214
20
185.973718
30
0
11
211.510707
21
184.15784
31
0
0
LINE
8
VISIBLE
10
201.537726
20
183.796202
30
0
11
202.140764
21
185.660654
31
0
0
LINE
8
VISIBLE
10
199.691249
20
188.902228
30
0
11
188.397194
21
188.492686
31
0
0
LINE
8
VISIBLE
10
188.397194
20
188.492686
30
0
11
189.848168
21
177.476018
31
0
0
LINE
8
VISIBLE
10
185.041024
20
173.070607
30
0
11
183.127901
21
173.494629
31
0
0
LINE
8
VISIBLE
10
184.062909
20
166.39548
30
0
11
185.801002
21
167.300393
31
0
0
LINE
8
VISIBLE
10
229.200275
20
152.899195
30
0
11
239.530934
21
153.34223
31
0
0
LINE
8
VISIBLE
10
229.200275
20
152.899195
30
0
11
228.135459
21
164.789569
31
0
0
LINE
8
VISIBLE
10
243.496327
20
148.166138
30
0
11
242.905633
21
146.297739
31
0
0
LINE
8
VISIBLE
10
250.059515
20
146.604537
30
0
11
249.311029
21
148.415505
31
0
0
LINE
8
VISIBLE
10
252.81872
20
153.912084
30
0
11
263.198519
21
154.357227
31
0
0
LINE
8
VISIBLE
10
263.198519
20
154.357227
30
0
11
264.098589
21
166.413692
31
0
0
LINE
8
VISIBLE
10
269.703439
20
169.745648
30
0
11
271.489808
21
168.940217
31
0
0
LINE
8
VISIBLE
10
272.022886
20
176.080804
30
0
11
270.136726
21
175.549544
31
0
0
LINE
8
VISIBLE
10
265.08874
20
179.676784
30
0
11
265.975672
21
191.557262
31
0
0
LINE
8
VISIBLE
10
265.975672
20
191.557262
30
0
11
252.605727
21
190.990194
31
0
0
LINE
8
VISIBLE
10
250.418417
20
187.56622
30
0
11
251.16605
21
185.754899
31
0
0
LINE
8
VISIBLE
10
241.195478
20
185.332011
30
0
11
241.787052
21
187.200132
31
0
0
LINE
8
VISIBLE
10
239.317673
20
190.426599
30
0
11
225.890592
21
189.857107
31
0
0
LINE
8
VISIBLE
10
225.890592
20
189.857107
30
0
11
226.949155
21
178.036557
31
0
0
LINE
8
VISIBLE
10
221.962795
20
173.835071
30
0
11
220.06898
21
174.338362
31
0
0
LINE
8
VISIBLE
10
220.707663
20
167.206445
30
0
11
222.481918
21
168.038222
31
0
0
LINE
8
VISIBLE
10
264.702469
20
154.354231
30
0
11
277.334509
21
153.838758
31
0
0
LINE
8
VISIBLE
10
264.702469
20
154.354231
30
0
11
265.594426
21
166.302021
31
0
0
LINE
8
VISIBLE
10
279.798709
20
157.069181
30
0
11
279.204139
21
158.936351
31
0
0
LINE
8
VISIBLE
10
289.175376
20
158.529457
30
0
11
288.43065
21
156.716939
31
0
0
LINE
8
VISIBLE
10
290.623449
20
153.296478
30
0
11
304
21
152.750624
31
0
0
LINE
8
VISIBLE
10
304
20
152.750624
30
0
11
304
21
189.248516
31
0
0
LINE
8
VISIBLE
10
304
20
189.248516
30
0
11
291.982936
21
190.0049
31
0
0
LINE
8
VISIBLE
10
289.448029
20
186.829658
30
0
11
290.001239
21
184.949819
31
0
0
LINE
8
VISIBLE
10
280.041413
20
185.576716
30
0
11
280.825967
21
187.372352
31
0
0
LINE
8
VISIBLE
10
278.709204
20
190.840383
30
0
11
267.479098
21
191.547234
31
0
0
LINE
8
VISIBLE
10
267.479098
20
191.547234
30
0
11
266.584577
21
179.565112
31
0
0
LINE
8
VISIBLE
10
269.730056
20
176.993365
30
0
11
271.616216
21
177.524625
31
0
0
LINE
8
VISIBLE
10
270.873265
20
167.572783
30
0
11
269.086895
21
168.378215
31
0
0
LINE
8
VISIBLE
10
0
20
190.7502
30
0
11
13.159066
21
190.445927
31
0
0
LINE
8
VISIBLE
10
0
20
190.7502
30
0
11
0
21
228
31
0
0
LINE
8
VISIBLE
10
15.565818
20
193.719375
30
0
11
14.938357
21
195.575751
31
0
0
LINE
8
VISIBLE
10
24.915226
20
195.345058
30
0
11
24.202634
21
193.519668
31
0
0
LINE
8
VISIBLE
10
26.455512
20
190.138476
30
0
11
38.798094
21
189.853081
31
0
0
LINE
8
VISIBLE
10
38.798094
20
189.853081
30
0
11
38.310327
21
201.867451
31
0
0
LINE
8
VISIBLE
10
43.495458
20
205.821018
30
0
11
45.362504
21
205.22606
31
0
0
LINE
8
VISIBLE
10
45.072039
20
212.380624
30
0
11
43.259367
21
211.636274
31
0
0
LINE
8
VISIBLE
10
37.77081
20
215.156504
30
0
11
37.249382
21
228
31
0
0
LINE
8
VISIBLE
10
37.249382
20
228
30
0
11
0
21
228
31
0
0
LINE
8
VISIBLE
10
40.300046
20
189.835441
30
0
11
51.555635
21
189.845408
31
0
0
LINE
8
VISIBLE
10
40.300046
20
189.835441
30
0
11
39.809092
21
201.928299
31
0
0
LINE
8
VISIBLE
10
53.883125
20
193.175681
30
0
11
53.211289
21
195.016461
31
0
0
LINE
8
VISIBLE
10
63.190821
20
195.025298
30
0
11
62.522246
21
193.183331
31
0
0
LINE
8
VISIBLE
10
64.85563
20
189.857186
30
0
11
76.066472
21
189.867113
31
0
0
LINE
8
VISIBLE
10
76.066472
20
189.867113
30
0
11
75.8089
21
201.894362
31
0
0
LINE
8
VISIBLE
10
72.431556
20
204.153006
30
0
11
70.604953
21
203.443528
31
0
0
LINE
8
VISIBLE
10
70.391283
20
213.420776
30
0
11
72.246585
21
212.79015
31
0
0
LINE
8
VISIBLE
10
75.524136
20
215.191313
30
0
11
75.249828
21
228
31
0
0
LINE
8
VISIBLE
10
75.249828
20
228
30
0
11
38.750618
21
228
31
0
0
LINE
8
VISIBLE
10
38.750618
20
228
30
0
11
39.269575
21
215.217352
31
0
0
LINE
8
VISIBLE
10
42.689581
20
213.023842
30
0
11
44.502252
21
213.768191
31
0
0
LINE
8
VISIBLE
10
44.907074
20
203.79687
30
0
11
43.040028
21
204.391828
31
0
0
LINE
8
VISIBLE
10
77.566713
20
189.871953
30
0
11
89.783171
21
189.941011
31
0
0
LINE
8
VISIBLE
10
77.566713
20
189.871953
30
0
11
77.308556
21
201.926478
31
0
0
LINE
8
VISIBLE
10
92.094758
20
193.282341
30
0
11
91.414154
21
195.119898
31
0
0
LINE
8
VISIBLE
10
101.39353
20
195.17631
30
0
11
100.733744
21
193.331176
31
0
0
LINE
8
VISIBLE
10
103.082958
20
190.016193
30
0
11
115.251494
21
190.08498
31
0
0
LINE
8
VISIBLE
10
115.251494
20
190.08498
30
0
11
114.622743
21
201.989417
31
0
0
LINE
8
VISIBLE
10
111.176252
20
204.141071
30
0
11
109.372789
21
203.374679
31
0
0
LINE
8
VISIBLE
10
108.846438
20
213.340324
30
0
11
110.720598
21
212.768171
31
0
0
LINE
8
VISIBLE
10
113.921261
20
215.270905
30
0
11
113.248955
21
228
31
0
0
LINE
8
VISIBLE
10
113.248955
20
228
30
0
11
76.750172
21
228
31
0
0
LINE
8
VISIBLE
10
76.750172
20
228
30
0
11
77.023792
21
215.223429
31
0
0
LINE
8
VISIBLE
10
71.763852
20
211.36995
30
0
11
69.90855
21
212.000576
31
0
0
LINE
8
VISIBLE
10
70.061861
20
204.84176
30
0
11
71.888464
21
205.551237
31
0
0
LINE
8
VISIBLE
10
116.751106
20
190.131918
30
0
11
127.553368
21
190.75971
31
0
0
LINE
8
VISIBLE
10
116.751106
20
190.131918
30
0
11
116.120656
21
202.068531
31
0
0
LINE
8
VISIBLE
10
129.686781
20
194.217523
30
0
11
128.91087
21
196.016911
31
0
0
LINE
8
VISIBLE
10
138.873595
20
196.595913
30
0
11
138.311353
21
194.718756
31
0
0
LINE
8
VISIBLE
10
140.830964
20
191.531361
30
0
11
151.671083
21
192.161354
31
0
0
LINE
8
VISIBLE
10
151.671083
20
192.161354
30
0
11
151.542912
21
203.068728
31
0
0
LINE
8
VISIBLE
10
156.839838
20
206.871206
30
0
11
158.688961
21
206.222683
31
0
0
LINE
8
VISIBLE
10
158.604825
20
213.382646
30
0
11
156.771453
21
212.690851
31
0
0
LINE
8
VISIBLE
10
151.386636
20
216.36781
30
0
11
151.249948
21
228
31
0
0
LINE
8
VISIBLE
10
151.249948
20
228
30
0
11
114.751045
21
228
31
0
0
LINE
8
VISIBLE
10
114.751045
20
228
30
0
11
115.419173
21
215.350019
31
0
0
LINE
8
VISIBLE
10
110.282625
20
211.333535
30
0
11
108.408465
21
211.905688
31
0
0
LINE
8
VISIBLE
10
108.786129
20
204.755197
30
0
11
110.589592
21
205.521589
31
0
0
LINE
8
VISIBLE
10
153.171222
20
192.158334
30
0
11
163.398984
21
191.505389
31
0
0
LINE
8
VISIBLE
10
153.171222
20
192.158334
30
0
11
153.042808
21
203.086353
31
0
0
LINE
8
VISIBLE
10
165.93673
20
194.678364
30
0
11
165.385201
21
196.558696
31
0
0
LINE
8
VISIBLE
10
175.344462
20
195.922893
30
0
11
174.558303
21
194.127959
31
0
0
LINE
8
VISIBLE
10
176.671964
20
190.658036
30
0
11
186.844818
21
190.008597
31
0
0
LINE
8
VISIBLE
10
186.844818
20
190.008597
30
0
11
187.604565
21
202.016783
31
0
0
LINE
8
VISIBLE
10
193.1713
20
205.412035
30
0
11
194.966681
21
204.626897
31
0
0
LINE
8
VISIBLE
10
195.418813
20
211.773066
30
0
11
193.538794
21
211.220468
31
0
0
LINE
8
VISIBLE
10
188.444365
20
215.290242
30
0
11
189.2485
21
228
31
0
0
LINE
8
VISIBLE
10
189.2485
20
228
30
0
11
152.750052
21
228
31
0
0
LINE
8
VISIBLE
10
152.750052
20
228
30
0
11
152.886533
21
216.385435
31
0
0
LINE
8
VISIBLE
10
156.241896
20
214.094264
30
0
11
158.075268
21
214.78606
31
0
0
LINE
8
VISIBLE
10
158.192528
20
204.807213
30
0
11
156.343406
21
205.455736
31
0
0
LINE
8
VISIBLE
10
188.346757
20
189.991843
30
0
11
199.636892
21
190.401243
31
0
0
LINE
8
VISIBLE
10
188.346757
20
189.991843
30
0
11
189.101572
21
201.922068
31
0
0
LINE
8
VISIBLE
10
203.567968
20
185.19904
30
0
11
202.96493
21
183.334588
31
0
0
LINE
8
VISIBLE
10
210.120685
20
183.594068
30
0
11
209.384192
21
185.409946
31
0
0
LINE
8
VISIBLE
10
212.928157
20
190.883207
30
0
11
224.377891
21
191.298394
31
0
0
LINE
8
VISIBLE
10
224.377891
20
191.298394
30
0
11
225.270614
21
202.715265
31
0
0
LINE
8
VISIBLE
10
230.887151
20
206.027483
30
0
11
232.670676
21
205.215772
31
0
0
LINE
8
VISIBLE
10
233.228872
20
212.354439
30
0
11
231.340855
21
211.829818
31
0
0
LINE
8
VISIBLE
10
226.30742
20
215.974792
30
0
11
227.247711
21
228
31
0
0
LINE
8
VISIBLE
10
227.247711
20
228
30
0
11
190.7515
21
228
31
0
0
LINE
8
VISIBLE
10
190.7515
20
228
30
0
11
189.941372
21
215.195528
31
0
0
LINE
8
VISIBLE
10
193.11579
20
212.659588
30
0
11
194.995809
21
213.212187
31
0
0
LINE
8
VISIBLE
10
194.365672
20
203.252565
30
0
11
192.570291
21
204.037703
31
0
0
LINE
8
VISIBLE
10
225.887155
20
191.35831
30
0
11
239.25411
21
191.925251
31
0
0
LINE
8
VISIBLE
10
225.887155
20
191.35831
30
0
11
226.766049
21
202.598332
31
0
0
LINE
8
VISIBLE
10
243.217065
20
186.747292
30
0
11
242.625491
21
184.879172
31
0
0
LINE
8
VISIBLE
10
249.779517
20
185.1826
30
0
11
249.031884
21
186.99392
31
0
0
LINE
8
VISIBLE
10
252.542163
20
192.488846
30
0
11
266.020347
21
193.060505
31
0
0
LINE
8
VISIBLE
10
266.020347
20
193.060505
30
0
11
265.789984
21
203.506241
31
0
0
LINE
8
VISIBLE
10
262.411202
20
205.762732
30
0
11
260.585052
21
205.052091
31
0
0
LINE
8
VISIBLE
10
260.365024
20
215.029201
30
0
11
262.220728
21
214.399757
31
0
0
LINE
8
VISIBLE
10
265.496748
20
216.803008
30
0
11
265.249818
21
228
31
0
0
LINE
8
VISIBLE
10
265.249818
20
228
30
0
11
228.752289
21
228
31
0
0
LINE
8
VISIBLE
10
228.752289
20
228
30
0
11
227.802855
21
215.857859
31
0
0
LINE
8
VISIBLE
10
230.939267
20
213.275061
30
0
11
232.827284
21
213.799682
31
0
0
LINE
8
VISIBLE
10
232.049326
20
203.850515
30
0
11
230.265801
21
204.662226
31
0
0
LINE
8
VISIBLE
10
267.520997
20
193.047566
30
0
11
278.803431
21
192.33742
31
0
0
LINE
8
VISIBLE
10
267.520997
20
193.047566
30
0
11
267.28962
21
203.539313
31
0
0
LINE
8
VISIBLE
10
282.200494
20
186.771791
30
0
11
281.41594
21
184.976154
31
0
0
LINE
8
VISIBLE
10
288.562256
20
184.526347
30
0
11
288.009046
21
186.406186
31
0
0
LINE
8
VISIBLE
10
292.077163
20
191.501938
30
0
11
304
21
190.751484
31
0
0
LINE
8
VISIBLE
10
304
20
190.751484
30
0
11
304
21
228
31
0
0
LINE
8
VISIBLE
10
304
20
228
30
0
11
266.750182
21
228
31
0
0
LINE
8
VISIBLE
10
266.750182
20
228
30
0
11
266.996383
21
216.83608
31
0
0
LINE
8
VISIBLE
10
261.7389
20
212.979249
30
0
11
259.883196
21
213.608694
31
0
0
LINE
8
VISIBLE
10
260.041069
20
206.449976
30
0
11
261.867219
21
207.160617
31
0
0
LINE
8
VISIBLE
10
37.249938
20
0
30
0
11
38.750062
21
0
31
0
0
LINE
8
VISIBLE
10
75.249712
20
0
30
0
11
76.750288
21
0
31
0
0
LINE
8
VISIBLE
10
113.248464
20
0
30
0
11
114.751536
21
0
31
0
0
LINE
8
VISIBLE
10
151.249478
20
0
30
0
11
152.750522
21
0
31
0
0
LINE
8
VISIBLE
10
189.249285
20
0
30
0
11
190.750715
21
0
31
0
0
LINE
8
VISIBLE
10
227.249275
20
0
30
0
11
228.750725
21
0
31
0
0
LINE
8
VISIBLE
10
265.248819
20
0
30
0
11
266.751181
21
0
31
0
0
LINE
8
VISIBLE
10
304
20
37.249789
30
0
11
304
21
38.750211
31
0
0
LINE
8
VISIBLE
10
304
20
75.25
30
0
11
304
21
76.75
31
0
0
LINE
8
VISIBLE
10
304
20
113.249935
30
0
11
304
21
114.750065
31
0
0
LINE
8
VISIBLE
10
304
20
151.249376
30
0
11
304
21
152.750624
31
0
0
LINE
8
VISIBLE
10
304
20
189.248516
30
0
11
304
21
190.751484
31
0
0
LINE
8
VISIBLE
10
266.750182
20
228
30
0
11
265.249818
21
228
31
0
0
LINE
8
VISIBLE
10
228.752289
20
228
30
0
11
227.247711
21
228
31
0
0
LINE
8
VISIBLE
10
190.7515
20
228
30
0
11
189.2485
21
228
31
0
0
LINE
8
VISIBLE
10
152.750052
20
228
30
0
11
151.249948
21
228
31
0
0
LINE
8
VISIBLE
10
114.751045
20
228
30
0
11
113.248955
21
228
31
0
0
LINE
8
VISIBLE
10
76.750172
20
228
30
0
11
75.249828
21
228
31
0
0
LINE
8
VISIBLE
10
38.750618
20
228
30
0
11
37.249382
21
228
31
0
0
LINE
8
VISIBLE
10
0
20
190.7502
30
0
11
0
21
189.2498
31
0
0
LINE
8
VISIBLE
10
0
20
152.75149
30
0
11
0
21
151.24851
31
0
0
LINE
8
VISIBLE
10
0
20
114.751044
30
0
11
0
21
113.248956
31
0
0
LINE
8
VISIBLE
10
0
20
76.751076
30
0
11
0
21
75.248924
31
0
0
LINE
8
VISIBLE
10
0
20
38.751552
30
0
11
0
21
37.248448
31
0
0
ARC
8
VISIBLE
10
12.417165
20
42.03582
30
0
40
3.98
50
273.682335
51
23.682335
0
ARC
8
VISIBLE
10
18.764058
20
46.959323
30
0
40
3.81
50
343.682335
51
203.682335
0
ARC
8
VISIBLE
10
25.689706
20
42.890008
30
0
40
3.98
50
163.682335
51
273.682335
0
ARC
8
VISIBLE
10
41.576322
20
26.8474
30
0
40
3.98
50
179.261519
51
289.261519
0
ARC
8
VISIBLE
10
45.99595
20
20.13988
30
0
40
3.81
50
249.261519
51
109.261519
0
ARC
8
VISIBLE
10
41.404904
20
13.548504
30
0
40
3.98
50
69.261519
51
179.261519
0
ARC
8
VISIBLE
10
41.404904
20
13.548504
30
0
40
2.48
50
69.261519
51
179.261519
0
ARC
8
VISIBLE
10
45.99595
20
20.13988
30
0
40
5.31
50
249.261519
51
109.261519
0
ARC
8
VISIBLE
10
41.576322
20
26.8474
30
0
40
2.48
50
179.261519
51
289.261519
0
ARC
8
VISIBLE
10
50.060891
20
37.296771
30
0
40
2.48
50
340.236518
51
90.236518
0
ARC
8
VISIBLE
10
56.729434
20
32.818549
30
0
40
5.31
50
160.236518
51
20.236518
0
ARC
8
VISIBLE
10
63.360777
20
37.351673
30
0
40
2.48
50
90.236518
51
200.236518
0
ARC
8
VISIBLE
10
78.481026
20
27.051599
30
0
40
3.98
50
181.588563
51
291.588563
0
ARC
8
VISIBLE
10
83.169358
20
20.529063
30
0
40
3.81
50
251.588563
51
111.588563
0
ARC
8
VISIBLE
10
78.84973
20
13.756711
30
0
40
3.98
50
71.588563
51
181.588563
0
ARC
8
VISIBLE
10
78.84973
20
13.756711
30
0
40
2.48
50
71.588563
51
181.588563
0
ARC
8
VISIBLE
10
83.169358
20
20.529063
30
0
40
5.31
50
251.588563
51
111.588563
0
ARC
8
VISIBLE
10
78.481026
20
27.051599
30
0
40
2.48
50
181.588563
51
291.588563
0
ARC
8
VISIBLE
10
86.74218
20
43.200031
30
0
40
3.98
50
266.796767
51
16.796767
0
ARC
8
VISIBLE
10
93.63356
20
47.327115
30
0
40
3.81
50
336.796767
51
196.796767
0
ARC
8
VISIBLE
10
100.0214
20
42.456855
30
0
40
3.98
50
156.796767
51
266.796767
0
ARC
8
VISIBLE
10
115.563067
20
26.131717
30
0
40
3.98
50
183.664381
51
293.664381
0
ARC
8
VISIBLE
10
120.484581
20
19.783281
30
0
40
3.81
50
253.664381
51
113.664381
0
ARC
8
VISIBLE
10
116.413096
20
12.858908
30
0
40
3.98
50
73.664381
51
183.664381
0
ARC
8
VISIBLE
10
116.413096
20
12.858908
30
0
40
2.48
50
73.664381
51
183.664381
0
ARC
8
VISIBLE
10
120.484581
20
19.783281
30
0
40
5.31
50
253.664381
51
113.664381
0
ARC
8
VISIBLE
10
115.563067
20
26.131717
30
0
40
2.48
50
183.664381
51
293.664381
0
ARC
8
VISIBLE
10
124.388414
20
35.314439
30
0
40
2.48
50
339.851607
51
89.851607
0
ARC
8
VISIBLE
10
131.026722
20
30.791519
30
0
40
5.31
50
159.851607
51
19.851607
0
ARC
8
VISIBLE
10
137.688369
20
35.279993
30
0
40
2.48
50
89.851607
51
199.851607
0
ARC
8
VISIBLE
10
147.806329
20
25.76325
30
0
40
2.48
50
252.137149
51
2.137149
0
ARC
8
VISIBLE
10
143.551741
20
18.949851
30
0
40
5.31
50
72.137149
51
292.137149
0
ARC
8
VISIBLE
10
148.302308
20
12.472501
30
0
40
2.48
50
2.137149
51
112.137149
0
ARC
8
VISIBLE
10
148.302308
20
12.472501
30
0
40
3.98
50
2.137149
51
112.137149
0
ARC
8
VISIBLE
10
143.551741
20
18.949851
30
0
40
3.81
50
72.137149
51
292.137149
0
ARC
8
VISIBLE
10
147.806329
20
25.76325
30
0
40
3.98
50
252.137149
51
2.137149
0
ARC
8
VISIBLE
10
164.603936
20
35.680936
30
0
40
2.48
50
341.778056
51
91.778056
0
ARC
8
VISIBLE
10
171.390537
20
31.38373
30
0
40
5.31
50
161.778056
51
21.778056
0
ARC
8
VISIBLE
10
177.897532
20
36.093607
30
0
40
2.48
50
91.778056
51
201.778056
0
ARC
8
VISIBLE
10
194.385625
20
26.380067
30
0
40
3.98
50
177.498342
51
287.498342
0
ARC
8
VISIBLE
10
198.596781
20
19.539738
30
0
40
3.81
50
247.498342
51
107.498342
0
ARC
8
VISIBLE
10
193.805102
20
13.092742
30
0
40
3.98
50
67.498342
51
177.498342
0
ARC
8
VISIBLE
10
193.805102
20
13.092742
30
0
40
2.48
50
67.498342
51
177.498342
0
ARC
8
VISIBLE
10
198.596781
20
19.539738
30
0
40
5.31
50
247.498342
51
107.498342
0
ARC
8
VISIBLE
10
194.385625
20
26.380067
30
0
40
2.48
50
177.498342
51
287.498342
0
ARC
8
VISIBLE
10
202.412887
20
42.803785
30
0
40
3.98
50
269.026245
51
19.026245
0
ARC
8
VISIBLE
10
209.138498
20
47.195833
30
0
40
3.81
50
339.026245
51
199.026245
0
ARC
8
VISIBLE
10
215.710966
20
42.577759
30
0
40
3.98
50
159.026245
51
269.026245
0
ARC
8
VISIBLE
10
223.619491
20
26.08549
30
0
40
2.48
50
252.518566
51
2.518566
0
ARC
8
VISIBLE
10
219.410354
20
19.243919
30
0
40
5.31
50
72.518566
51
292.518566
0
ARC
8
VISIBLE
10
224.203934
20
12.798338
30
0
40
2.48
50
2.518566
51
112.518566
0
ARC
8
VISIBLE
10
224.203934
20
12.798338
30
0
40
3.98
50
2.518566
51
112.518566
0
ARC
8
VISIBLE
10
219.410354
20
19.243919
30
0
40
3.81
50
72.518566
51
292.518566
0
ARC
8
VISIBLE
10
223.619491
20
26.08549
30
0
40
3.98
50
252.518566
51
2.518566
0
ARC
8
VISIBLE
10
240.38308
20
35.252625
30
0
40
2.48
50
337.23478
51
87.23478
0
ARC
8
VISIBLE
10
246.807966
20
30.431341
30
0
40
5.31
50
157.23478
51
17.23478
0
ARC
8
VISIBLE
10
253.667594
20
34.610987
30
0
40
2.48
50
87.23478
51
197.23478
0
ARC
8
VISIBLE
10
270.640173
20
25.032728
30
0
40
3.98
50
176.787355
51
286.787355
0
ARC
8
VISIBLE
10
274.766125
20
18.140671
30
0
40
3.81
50
246.787355
51
106.787355
0
ARC
8
VISIBLE
10
269.894816
20
11.75363
30
0
40
3.98
50
66.787355
51
176.787355
0
ARC
8
VISIBLE
10
269.894816
20
11.75363
30
0
40
2.48
50
66.787355
51
176.787355
0
ARC
8
VISIBLE
10
274.766125
20
18.140671
30
0
40
5.31
50
246.787355
51
106.787355
0
ARC
8
VISIBLE
10
270.640173
20
25.032728
30
0
40
2.48
50
176.787355
51
286.787355
0
ARC
8
VISIBLE
10
279.471007
20
34.187462
30
0
40
2.48
50
341.35834
51
91.35834
0
ARC
8
VISIBLE
10
286.225948
20
29.840657
30
0
40
5.31
50
161.35834
51
21.35834
0
ARC
8
VISIBLE
10
292.76727
20
34.502742
30
0
40
2.48
50
91.35834
51
201.35834
0
ARC
8
VISIBLE
10
11.132247
20
78.638186
30
0
40
3.98
50
266.933124
51
16.933124
0
ARC
8
VISIBLE
10
18.013785
20
82.781659
30
0
40
3.81
50
336.933124
51
196.933124
0
ARC
8
VISIBLE
10
24.413198
20
77.926616
30
0
40
3.98
50
156.933124
51
266.933124
0
ARC
8
VISIBLE
10
32.992828
20
63.596946
30
0
40
2.48
50
255.640502
51
5.640502
0
ARC
8
VISIBLE
10
29.162537
20
56.536294
30
0
40
5.31
50
75.640502
51
295.640502
0
ARC
8
VISIBLE
10
34.300037
20
50.361343
30
0
40
2.48
50
5.640502
51
115.640502
0
ARC
8
VISIBLE
10
25.689706
20
42.890008
30
0
40
2.48
50
163.682335
51
273.682335
0
ARC
8
VISIBLE
10
18.764058
20
46.959323
30
0
40
5.31
50
343.682335
51
203.682335
0
ARC
8
VISIBLE
10
12.417165
20
42.03582
30
0
40
2.48
50
273.682335
51
23.682335
0
ARC
8
VISIBLE
10
34.300037
20
50.361343
30
0
40
3.98
50
5.640502
51
115.640502
0
ARC
8
VISIBLE
10
29.162537
20
56.536294
30
0
40
3.81
50
75.640502
51
295.640502
0
ARC
8
VISIBLE
10
32.992828
20
63.596946
30
0
40
3.98
50
255.640502
51
5.640502
0
ARC
8
VISIBLE
10
51.605918
20
76.590217
30
0
40
3.98
50
267.357205
51
17.357205
0
ARC
8
VISIBLE
10
58.4566
20
80.784511
30
0
40
3.81
50
337.357205
51
197.357205
0
ARC
8
VISIBLE
10
64.891772
20
75.976966
30
0
40
3.98
50
157.357205
51
267.357205
0
ARC
8
VISIBLE
10
82.3814
20
62.222178
30
0
40
3.98
50
168.949148
51
278.949148
0
ARC
8
VISIBLE
10
85.528891
20
54.83183
30
0
40
3.81
50
238.949148
51
98.949148
0
ARC
8
VISIBLE
10
79.832054
20
49.168794
30
0
40
3.98
50
58.949148
51
168.949148
0
ARC
8
VISIBLE
10
63.360777
20
37.351673
30
0
40
3.98
50
90.236518
51
200.236518
0
ARC
8
VISIBLE
10
56.729434
20
32.818549
30
0
40
3.81
50
160.236518
51
20.236518
0
ARC
8
VISIBLE
10
50.060891
20
37.296771
30
0
40
3.98
50
340.236518
51
90.236518
0
ARC
8
VISIBLE
10
79.832054
20
49.168794
30
0
40
2.48
50
58.949148
51
168.949148
0
ARC
8
VISIBLE
10
85.528891
20
54.83183
30
0
40
5.31
50
238.949148
51
98.949148
0
ARC
8
VISIBLE
10
82.3814
20
62.222178
30
0
40
2.48
50
168.949148
51
278.949148
0
ARC
8
VISIBLE
10
85.773148
20
76.960294
30
0
40
4.7875
50
280.191241
51
30.191241
0
ARC
8
VISIBLE
10
92.95798
20
83.974339
30
0
40
4.95
50
350.191241
51
210.191241
0
ARC
8
VISIBLE
10
102.13585
20
79.901826
30
0
40
4.7875
50
170.191241
51
280.191241
0
ARC
8
VISIBLE
10
116.103748
20
64.689895
30
0
40
3.98
50
177.062046
51
287.062046
0
ARC
8
VISIBLE
10
120.262694
20
57.817697
30
0
40
3.81
50
247.062046
51
107.062046
0
ARC
8
VISIBLE
10
115.422063
20
51.407376
30
0
40
3.98
50
67.062046
51
177.062046
0
ARC
8
VISIBLE
10
100.0214
20
42.456855
30
0
40
2.48
50
156.796767
51
266.796767
0
ARC
8
VISIBLE
10
93.63356
20
47.327115
30
0
40
5.31
50
336.796767
51
196.796767
0
ARC
8
VISIBLE
10
86.74218
20
43.200031
30
0
40
2.48
50
266.796767
51
16.796767
0
ARC
8
VISIBLE
10
115.422063
20
51.407376
30
0
40
2.48
50
67.062046
51
177.062046
0
ARC
8
VISIBLE
10
120.262694
20
57.817697
30
0
40
5.31
50
247.062046
51
107.062046
0
ARC
8
VISIBLE
10
116.103748
20
64.689895
30
0
40
2.48
50
177.062046
51
287.062046
0
ARC
8
VISIBLE
10
124.918617
20
73.691706
30
0
40
2.48
50
335.383498
51
85.383498
0
ARC
8
VISIBLE
10
131.184396
20
68.66538
30
0
40
5.31
50
155.383498
51
15.383498
0
ARC
8
VISIBLE
10
138.175469
20
72.621242
30
0
40
2.48
50
85.383498
51
195.383498
0
ARC
8
VISIBLE
10
146.996545
20
63.294503
30
0
40
2.48
50
250.778661
51
0.778661
0
ARC
8
VISIBLE
10
142.581622
20
56.583885
30
0
40
5.31
50
70.778661
51
290.778661
0
ARC
8
VISIBLE
10
147.177289
20
49.995731
30
0
40
2.48
50
0.778661
51
110.778661
0
ARC
8
VISIBLE
10
137.688369
20
35.279993
30
0
40
3.98
50
89.851607
51
199.851607
0
ARC
8
VISIBLE
10
131.026722
20
30.791519
30
0
40
3.81
50
159.851607
51
19.851607
0
ARC
8
VISIBLE
10
124.388414
20
35.314439
30
0
40
3.98
50
339.851607
51
89.851607
0
ARC
8
VISIBLE
10
147.177289
20
49.995731
30
0
40
3.98
50
0.778661
51
110.778661
0
ARC
8
VISIBLE
10
142.581622
20
56.583885
30
0
40
3.81
50
70.778661
51
290.778661
0
ARC
8
VISIBLE
10
146.996545
20
63.294503
30
0
40
3.98
50
250.778661
51
0.778661
0
ARC
8
VISIBLE
10
162.903311
20
72.946754
30
0
40
2.48
50
345.747197
51
95.747197
0
ARC
8
VISIBLE
10
169.971083
20
69.129618
30
0
40
5.31
50
165.747197
51
25.747197
0
ARC
8
VISIBLE
10
176.136457
20
74.278608
30
0
40
2.48
50
95.747197
51
205.747197
0
ARC
8
VISIBLE
10
192.668217
20
66.159447
30
0
40
3.98
50
185.00195
51
295.00195
0
ARC
8
VISIBLE
10
197.736581
20
59.927623
30
0
40
3.81
50
255.00195
51
115.00195
0
ARC
8
VISIBLE
10
193.827839
20
52.910097
30
0
40
3.98
50
75.00195
51
185.00195
0
ARC
8
VISIBLE
10
177.897532
20
36.093607
30
0
40
3.98
50
91.778056
51
201.778056
0
ARC
8
VISIBLE
10
171.390537
20
31.38373
30
0
40
3.81
50
161.778056
51
21.778056
0
ARC
8
VISIBLE
10
164.603936
20
35.680936
30
0
40
3.98
50
341.778056
51
91.778056
0
ARC
8
VISIBLE
10
193.827839
20
52.910097
30
0
40
2.48
50
75.00195
51
185.00195
0
ARC
8
VISIBLE
10
197.736581
20
59.927623
30
0
40
5.31
50
255.00195
51
115.00195
0
ARC
8
VISIBLE
10
192.668217
20
66.159447
30
0
40
2.48
50
185.00195
51
295.00195
0
ARC
8
VISIBLE
10
202.984402
20
75.473811
30
0
40
2.48
50
339.813606
51
89.813606
0
ARC
8
VISIBLE
10
209.619709
20
70.94649
30
0
40
5.31
50
159.813606
51
19.813606
0
ARC
8
VISIBLE
10
216.284332
20
75.430544
30
0
40
2.48
50
89.813606
51
199.813606
0
ARC
8
VISIBLE
10
226.199112
20
65.875022
30
0
40
2.48
50
243.221129
51
353.221129
0
ARC
8
VISIBLE
10
220.939949
20
59.803356
30
0
40
5.31
50
63.221129
51
283.221129
0
ARC
8
VISIBLE
10
224.62921
20
52.668001
30
0
40
2.48
50
353.221129
51
103.221129
0
ARC
8
VISIBLE
10
215.710966
20
42.577759
30
0
40
2.48
50
159.026245
51
269.026245
0
ARC
8
VISIBLE
10
209.138498
20
47.195833
30
0
40
5.31
50
339.026245
51
199.026245
0
ARC
8
VISIBLE
10
202.412887
20
42.803785
30
0
40
2.48
50
269.026245
51
19.026245
0
ARC
8
VISIBLE
10
224.62921
20
52.668001
30
0
40
3.98
50
353.221129
51
103.221129
0
ARC
8
VISIBLE
10
220.939949
20
59.803356
30
0
40
3.81
50
63.221129
51
283.221129
0
ARC
8
VISIBLE
10
226.199112
20
65.875022
30
0
40
3.98
50
243.221129
51
353.221129
0
ARC
8
VISIBLE
10
243.002785
20
81.010583
30
0
40
3.98
50
266.00769
51
16.00769
0
ARC
8
VISIBLE
10
249.950348
20
85.042371
30
0
40
3.81
50
336.00769
51
196.00769
0
ARC
8
VISIBLE
10
256.270512
20
80.084603
30
0
40
3.98
50
156.00769
51
266.00769
0
ARC
8
VISIBLE
10
264.702491
20
63.224211
30
0
40
2.48
50
250.335291
51
0.335291
0
ARC
8
VISIBLE
10
260.235771
20
56.547958
30
0
40
5.31
50
70.335291
51
290.335291
0
ARC
8
VISIBLE
10
264.780321
20
49.924438
30
0
40
2.48
50
0.335291
51
110.335291
0
ARC
8
VISIBLE
10
253.667594
20
34.610987
30
0
40
3.98
50
87.23478
51
197.23478
0
ARC
8
VISIBLE
10
246.807966
20
30.431341
30
0
40
3.81
50
157.23478
51
17.23478
0
ARC
8
VISIBLE
10
240.38308
20
35.252625
30
0
40
3.98
50
337.23478
51
87.23478
0
ARC
8
VISIBLE
10
264.780321
20
49.924438
30
0
40
3.98
50
0.335291
51
110.335291
0
ARC
8
VISIBLE
10
260.235771
20
56.547958
30
0
40
3.81
50
70.335291
51
290.335291
0
ARC
8
VISIBLE
10
264.702491
20
63.224211
30
0
40
3.98
50
250.335291
51
0.335291
0
ARC
8
VISIBLE
10
279.282185
20
79.256033
30
0
40
3.98
50
269.939659
51
19.939659
0
ARC
8
VISIBLE
10
285.936926
20
83.754739
30
0
40
3.81
50
339.939659
51
199.939659
0
ARC
8
VISIBLE
10
292.582178
20
79.242026
30
0
40
3.98
50
159.939659
51
269.939659
0
ARC
8
VISIBLE
10
292.76727
20
34.502742
30
0
40
3.98
50
91.35834
51
201.35834
0
ARC
8
VISIBLE
10
286.225948
20
29.840657
30
0
40
3.81
50
161.35834
51
21.35834
0
ARC
8
VISIBLE
10
279.471007
20
34.187462
30
0
40
3.98
50
341.35834
51
91.35834
0
ARC
8
VISIBLE
10
13.168446
20
116.539296
30
0
40
3.98
50
266.97799
51
16.97799
0
ARC
8
VISIBLE
10
20.046737
20
120.688157
30
0
40
3.81
50
336.97799
51
196.97799
0
ARC
8
VISIBLE
10
26.44995
20
115.838126
30
0
40
3.98
50
156.97799
51
266.97799
0
ARC
8
VISIBLE
10
41.163262
20
99.285548
30
0
40
3.98
50
173.844533
51
283.844533
0
ARC
8
VISIBLE
10
44.929939
20
92.190756
30
0
40
3.81
50
243.844533
51
103.844533
0
ARC
8
VISIBLE
10
39.737148
20
86.062228
30
0
40
3.98
50
63.844533
51
173.844533
0
ARC
8
VISIBLE
10
24.413198
20
77.926616
30
0
40
2.48
50
156.933124
51
266.933124
0
ARC
8
VISIBLE
10
18.013785
20
82.781659
30
0
40
5.31
50
336.933124
51
196.933124
0
ARC
8
VISIBLE
10
11.132247
20
78.638186
30
0
40
2.48
50
266.933124
51
16.933124
0
ARC
8
VISIBLE
10
39.737148
20
86.062228
30
0
40
2.48
50
63.844533
51
173.844533
0
ARC
8
VISIBLE
10
44.929939
20
92.190756
30
0
40
5.31
50
243.844533
51
103.844533
0
ARC
8
VISIBLE
10
41.163262
20
99.285548
30
0
40
2.48
50
173.844533
51
283.844533
0
ARC
8
VISIBLE
10
50.198059
20
116.564913
30
0
40
3.98
50
277.216376
51
27.216376
0
ARC
8
VISIBLE
10
56.22939
20
121.870286
30
0
40
3.81
50
347.216376
51
207.216376
0
ARC
8
VISIBLE
10
63.392707
20
118.235616
30
0
40
3.98
50
167.216376
51
277.216376
0
ARC
8
VISIBLE
10
80.393228
20
101.248469
30
0
40
3.98
50
187.527371
51
297.527371
0
ARC
8
VISIBLE
10
85.731259
20
95.246024
30
0
40
3.81
50
257.527371
51
117.527371
0
ARC
8
VISIBLE
10
82.135525
20
88.063083
30
0
40
3.98
50
77.527371
51
187.527371
0
ARC
8
VISIBLE
10
64.891772
20
75.976966
30
0
40
2.48
50
157.357205
51
267.357205
0
ARC
8
VISIBLE
10
58.4566
20
80.784511
30
0
40
5.31
50
337.357205
51
197.357205
0
ARC
8
VISIBLE
10
51.605918
20
76.590217
30
0
40
2.48
50
267.357205
51
17.357205
0
ARC
8
VISIBLE
10
82.135525
20
88.063083
30
0
40
2.48
50
77.527371
51
187.527371
0
ARC
8
VISIBLE
10
85.731259
20
95.246024
30
0
40
5.31
50
257.527371
51
117.527371
0
ARC
8
VISIBLE
10
80.393228
20
101.248469
30
0
40
2.48
50
187.527371
51
297.527371
0
ARC
8
VISIBLE
10
88.348679
20
111.824906
30
0
40
2.48
50
333.988839
51
83.988839
0
ARC
8
VISIBLE
10
94.490267
20
106.647566
30
0
40
5.31
50
153.988839
51
13.988839
0
ARC
8
VISIBLE
10
101.57555
20
110.4321
30
0
40
2.48
50
83.988839
51
193.988839
0
ARC
8
VISIBLE
10
111.658859
20
101.854172
30
0
40
2.48
50
246.783301
51
356.783301
0
ARC
8
VISIBLE
10
106.787098
20
95.467477
30
0
40
5.31
50
66.783301
51
286.783301
0
ARC
8
VISIBLE
10
110.912563
20
88.575127
30
0
40
2.48
50
356.783301
51
106.783301
0
ARC
8
VISIBLE
10
102.13585
20
79.901826
30
0
40
3.2875
50
170.191241
51
280.191241
0
ARC
8
VISIBLE
10
92.95798
20
83.974339
30
0
40
6.45
50
350.191241
51
210.191241
0
ARC
8
VISIBLE
10
85.773148
20
76.960294
30
0
40
3.2875
50
280.191241
51
30.191241
0
ARC
8
VISIBLE
10
110.912563
20
88.575127
30
0
40
3.98
50
356.783301
51
106.783301
0
ARC
8
VISIBLE
10
106.787098
20
95.467477
30
0
40
3.81
50
66.783301
51
286.783301
0
ARC
8
VISIBLE
10
111.658859
20
101.854172
30
0
40
3.98
50
246.783301
51
356.783301
0
ARC
8
VISIBLE
10
126.886259
20
109.281478
30
0
40
2.48
50
341.487933
51
91.487933
0
ARC
8
VISIBLE
10
133.651014
20
104.949962
30
0
40
5.31
50
161.487933
51
21.487933
0
ARC
8
VISIBLE
10
140.181774
20
109.626831
30
0
40
2.48
50
91.487933
51
201.487933
0
ARC
8
VISIBLE
10
147.753977
20
100.78583
30
0
40
2.48
50
247.971253
51
357.971253
0
ARC
8
VISIBLE
10
143.015674
20
94.299505
30
0
40
5.31
50
67.971253
51
287.971253
0
ARC
8
VISIBLE
10
147.283145
20
87.494167
30
0
40
2.48
50
357.971253
51
107.971253
0
ARC
8
VISIBLE
10
138.175469
20
72.621242
30
0
40
3.98
50
85.383498
51
195.383498
0
ARC
8
VISIBLE
10
131.184396
20
68.66538
30
0
40
3.81
50
155.383498
51
15.383498
0
ARC
8
VISIBLE
10
124.918617
20
73.691706
30
0
40
3.98
50
335.383498
51
85.383498
0
ARC
8
VISIBLE
10
147.283145
20
87.494167
30
0
40
3.98
50
357.971253
51
107.971253
0
ARC
8
VISIBLE
10
143.015674
20
94.299505
30
0
40
3.81
50
67.971253
51
287.971253
0
ARC
8
VISIBLE
10
147.753977
20
100.78583
30
0
40
3.98
50
247.971253
51
357.971253
0
ARC
8
VISIBLE
10
162.719517
20
117.555131
30
0
40
3.98
50
275.854704
51
25.854704
0
ARC
8
VISIBLE
10
168.875218
20
122.71568
30
0
40
3.81
50
345.854704
51
205.854704
0
ARC
8
VISIBLE
10
175.950141
20
118.911813
30
0
40
3.98
50
165.854704
51
275.854704
0
ARC
8
VISIBLE
10
191.270935
20
104.506205
30
0
40
3.98
50
180.629633
51
290.629633
0
ARC
8
VISIBLE
10
195.849451
20
97.906119
30
0
40
3.81
50
250.629633
51
110.629633
0
ARC
8
VISIBLE
10
191.417088
20
91.207008
30
0
40
3.98
50
70.629633
51
180.629633
0
ARC
8
VISIBLE
10
176.136457
20
74.278608
30
0
40
3.98
50
95.747197
51
205.747197
0
ARC
8
VISIBLE
10
169.971083
20
69.129618
30
0
40
3.81
50
165.747197
51
25.747197
0
ARC
8
VISIBLE
10
162.903311
20
72.946754
30
0
40
3.98
50
345.747197
51
95.747197
0
ARC
8
VISIBLE
10
191.417088
20
91.207008
30
0
40
2.48
50
70.629633
51
180.629633
0
ARC
8
VISIBLE
10
195.849451
20
97.906119
30
0
40
5.31
50
250.629633
51
110.629633
0
ARC
8
VISIBLE
10
191.270935
20
104.506205
30
0
40
2.48
50
180.629633
51
290.629633
0
ARC
8
VISIBLE
10
202.444774
20
118.109013
30
0
40
3.98
50
262.000203
51
12.000203
0
ARC
8
VISIBLE
10
209.657118
20
121.6454
30
0
40
3.81
50
332.000203
51
192.000203
0
ARC
8
VISIBLE
10
215.615346
20
116.258058
30
0
40
3.98
50
152.000203
51
262.000203
0
ARC
8
VISIBLE
10
232.987069
20
101.656658
30
0
40
3.98
50
183.014144
51
293.014144
0
ARC
8
VISIBLE
10
237.83622
20
95.252779
30
0
40
3.81
50
253.014144
51
113.014144
0
ARC
8
VISIBLE
10
233.686416
20
88.375057
30
0
40
3.98
50
73.014144
51
183.014144
0
ARC
8
VISIBLE
10
216.284332
20
75.430544
30
0
40
3.98
50
89.813606
51
199.813606
0
ARC
8
VISIBLE
10
209.619709
20
70.94649
30
0
40
3.81
50
159.813606
51
19.813606
0
ARC
8
VISIBLE
10
202.984402
20
75.473811
30
0
40
3.98
50
339.813606
51
89.813606
0
ARC
8
VISIBLE
10
233.686416
20
88.375057
30
0
40
2.48
50
73.014144
51
183.014144
0
ARC
8
VISIBLE
10
237.83622
20
95.252779
30
0
40
5.31
50
253.014144
51
113.014144
0
ARC
8
VISIBLE
10
232.987069
20
101.656658
30
0
40
2.48
50
183.014144
51
293.014144
0
ARC
8
VISIBLE
10
240.525205
20
108.607381
30
0
40
2.48
50
343.886668
51
93.886668
0
ARC
8
VISIBLE
10
247.465322
20
104.56279
30
0
40
5.31
50
163.886668
51
23.886668
0
ARC
8
VISIBLE
10
253.794616
20
109.508897
30
0
40
2.48
50
93.886668
51
203.886668
0
ARC
8
VISIBLE
10
268.887681
20
101.66326
30
0
40
3.98
50
184.933369
51
294.933369
0
ARC
8
VISIBLE
10
273.948582
20
95.425374
30
0
40
3.81
50
254.933369
51
114.933369
0
ARC
8
VISIBLE
10
270.031443
20
88.412531
30
0
40
3.98
50
74.933369
51
184.933369
0
ARC
8
VISIBLE
10
256.270512
20
80.084603
30
0
40
2.48
50
156.00769
51
266.00769
0
ARC
8
VISIBLE
10
249.950348
20
85.042371
30
0
40
5.31
50
336.00769
51
196.00769
0
ARC
8
VISIBLE
10
243.002785
20
81.010583
30
0
40
2.48
50
266.00769
51
16.00769
0
ARC
8
VISIBLE
10
270.031443
20
88.412531
30
0
40
2.48
50
74.933369
51
184.933369
0
ARC
8
VISIBLE
10
273.948582
20
95.425374
30
0
40
5.31
50
254.933369
51
114.933369
0
ARC
8
VISIBLE
10
268.887681
20
101.66326
30
0
40
2.48
50
184.933369
51
294.933369
0
ARC
8
VISIBLE
10
277.705797
20
110.423926
30
0
40
2.48
50
340.753453
51
90.753453
0
ARC
8
VISIBLE
10
284.414472
20
106.006051
30
0
40
5.31
50
160.753453
51
20.753453
0
ARC
8
VISIBLE
10
291.004647
20
110.598819
30
0
40
2.48
50
90.753453
51
200.753453
0
ARC
8
VISIBLE
10
292.582178
20
79.242026
30
0
40
2.48
50
159.939659
51
269.939659
0
ARC
8
VISIBLE
10
285.936926
20
83.754739
30
0
40
5.31
50
339.939659
51
199.939659
0
ARC
8
VISIBLE
10
279.282185
20
79.256033
30
0
40
2.48
50
269.939659
51
19.939659
0
ARC
8
VISIBLE
10
13.821849
20
154.36479
30
0
40
3.98
50
266.391621
51
16.391621
0
ARC
8
VISIBLE
10
20.742239
20
158.443041
30
0
40
3.81
50
336.391621
51
196.391621
0
ARC
8
VISIBLE
10
27.095483
20
153.527735
30
0
40
3.98
50
156.391621
51
266.391621
0
ARC
8
VISIBLE
10
36.88445
20
137.438367
30
0
40
2.48
50
248.117843
51
358.117843
0
ARC
8
VISIBLE
10
32.162757
20
130.93994
30
0
40
5.31
50
68.117843
51
288.117843
0
ARC
8
VISIBLE
10
36.447626
20
124.145542
30
0
40
2.48
50
358.117843
51
108.117843
0
ARC
8
VISIBLE
10
26.44995
20
115.838126
30
0
40
2.48
50
156.97799
51
266.97799
0
ARC
8
VISIBLE
10
20.046737
20
120.688157
30
0
40
5.31
50
336.97799
51
196.97799
0
ARC
8
VISIBLE
10
13.168446
20
116.539296
30
0
40
2.48
50
266.97799
51
16.97799
0
ARC
8
VISIBLE
10
36.447626
20
124.145542
30
0
40
3.98
50
358.117843
51
108.117843
0
ARC
8
VISIBLE
10
32.162757
20
130.93994
30
0
40
3.81
50
68.117843
51
288.117843
0
ARC
8
VISIBLE
10
36.88445
20
137.438367
30
0
40
3.98
50
248.117843
51
358.117843
0
ARC
8
VISIBLE
10
51.242073
20
152.789921
30
0
40
3.98
50
270.610806
51
20.610806
0
ARC
8
VISIBLE
10
57.843663
20
157.366268
30
0
40
3.81
50
340.610806
51
200.610806
0
ARC
8
VISIBLE
10
64.541317
20
152.931704
30
0
40
3.98
50
160.610806
51
270.610806
0
ARC
8
VISIBLE
10
78.506171
20
139.769814
30
0
40
3.98
50
179.627087
51
289.627087
0
ARC
8
VISIBLE
10
82.968506
20
133.090629
30
0
40
3.81
50
249.627087
51
109.627087
0
ARC
8
VISIBLE
10
78.419608
20
126.470096
30
0
40
3.98
50
69.627087
51
179.627087
0
ARC
8
VISIBLE
10
63.392707
20
118.235616
30
0
40
2.48
50
167.216376
51
277.216376
0
ARC
8
VISIBLE
10
56.22939
20
121.870286
30
0
40
5.31
50
347.216376
51
207.216376
0
ARC
8
VISIBLE
10
50.198059
20
116.564913
30
0
40
2.48
50
277.216376
51
27.216376
0
ARC
8
VISIBLE
10
78.419608
20
126.470096
30
0
40
2.48
50
69.627087
51
179.627087
0
ARC
8
VISIBLE
10
82.968506
20
133.090629
30
0
40
5.31
50
249.627087
51
109.627087
0
ARC
8
VISIBLE
10
78.506171
20
139.769814
30
0
40
2.48
50
179.627087
51
289.627087
0
ARC
8
VISIBLE
10
88.641605
20
154.196382
30
0
40
3.98
50
274.890158
51
24.890158
0
ARC
8
VISIBLE
10
94.883306
20
159.252577
30
0
40
3.81
50
344.890158
51
204.890158
0
ARC
8
VISIBLE
10
101.893193
20
155.330151
30
0
40
3.98
50
164.890158
51
274.890158
0
ARC
8
VISIBLE
10
112.423575
20
139.415706
30
0
40
2.48
50
249.626456
51
359.626456
0
ARC
8
VISIBLE
10
107.874605
20
132.795222
30
0
40
5.31
50
69.626456
51
289.626456
0
ARC
8
VISIBLE
10
112.336866
20
126.115988
30
0
40
2.48
50
359.626456
51
109.626456
0
ARC
8
VISIBLE
10
101.57555
20
110.4321
30
0
40
3.98
50
83.988839
51
193.988839
0
ARC
8
VISIBLE
10
94.490267
20
106.647566
30
0
40
3.81
50
153.988839
51
13.988839
0
ARC
8
VISIBLE
10
88.348679
20
111.824906
30
0
40
3.98
50
333.988839
51
83.988839
0
ARC
8
VISIBLE
10
112.336866
20
126.115988
30
0
40
3.98
50
359.626456
51
109.626456
0
ARC
8
VISIBLE
10
107.874605
20
132.795222
30
0
40
3.81
50
69.626456
51
289.626456
0
ARC
8
VISIBLE
10
112.423575
20
139.415706
30
0
40
3.98
50
249.626456
51
359.626456
0
ARC
8
VISIBLE
10
126.877454
20
149.603703
30
0
40
2.48
50
337.751239
51
87.751239
0
ARC
8
VISIBLE
10
133.345536
20
144.840527
30
0
40
5.31
50
157.751239
51
17.751239
0
ARC
8
VISIBLE
10
140.167211
20
149.081835
30
0
40
2.48
50
87.751239
51
197.751239
0
ARC
8
VISIBLE
10
148.281442
20
139.16938
30
0
40
2.48
50
249.807363
51
359.807363
0
ARC
8
VISIBLE
10
143.753397
20
132.534566
30
0
40
5.31
50
69.807363
51
289.807363
0
ARC
8
VISIBLE
10
148.236725
20
125.869455
30
0
40
2.48
50
359.807363
51
109.807363
0
ARC
8
VISIBLE
10
140.181774
20
109.626831
30
0
40
3.98
50
91.487933
51
201.487933
0
ARC
8
VISIBLE
10
133.651014
20
104.949962
30
0
40
3.81
50
161.487933
51
21.487933
0
ARC
8
VISIBLE
10
126.886259
20
109.281478
30
0
40
3.98
50
341.487933
51
91.487933
0
ARC
8
VISIBLE
10
148.236725
20
125.869455
30
0
40
3.98
50
359.807363
51
109.807363
0
ARC
8
VISIBLE
10
143.753397
20
132.534566
30
0
40
3.81
50
69.807363
51
289.807363
0
ARC
8
VISIBLE
10
148.281442
20
139.16938
30
0
40
3.98
50
249.807363
51
359.807363
0
ARC
8
VISIBLE
10
165.28874
20
155.262361
30
0
40
3.98
50
270.688086
51
20.688086
0
ARC
8
VISIBLE
10
171.884151
20
159.847608
30
0
40
3.81
50
340.688086
51
200.688086
0
ARC
8
VISIBLE
10
178.587781
20
155.422082
30
0
40
3.98
50
160.688086
51
270.688086
0
ARC
8
VISIBLE
10
187.784101
20
141.627578
30
0
40
2.48
50
242.776498
51
352.776498
0
ARC
8
VISIBLE
10
182.477979
20
135.596907
30
0
40
5.31
50
62.776498
51
282.776498
0
ARC
8
VISIBLE
10
186.111757
20
128.433138
30
0
40
2.48
50
352.776498
51
102.776498
0
ARC
8
VISIBLE
10
175.950141
20
118.911813
30
0
40
2.48
50
165.854704
51
275.854704
0
ARC
8
VISIBLE
10
168.875218
20
122.71568
30
0
40
5.31
50
345.854704
51
205.854704
0
ARC
8
VISIBLE
10
162.719517
20
117.555131
30
0
40
2.48
50
275.854704
51
25.854704
0
ARC
8
VISIBLE
10
186.111757
20
128.433138
30
0
40
3.98
50
352.776498
51
102.776498
0
ARC
8
VISIBLE
10
182.477979
20
135.596907
30
0
40
3.81
50
62.776498
51
282.776498
0
ARC
8
VISIBLE
10
187.784101
20
141.627578
30
0
40
3.98
50
242.776498
51
352.776498
0
ARC
8
VISIBLE
10
203.78735
20
149.052457
30
0
40
2.48
50
339.621614
51
89.621614
0
ARC
8
VISIBLE
10
210.407449
20
144.502927
30
0
40
5.31
50
159.621614
51
19.621614
0
ARC
8
VISIBLE
10
217.08706
20
148.964624
30
0
40
2.48
50
89.621614
51
199.621614
0
ARC
8
VISIBLE
10
231.996483
20
138.30632
30
0
40
3.98
50
181.032053
51
291.032053
0
ARC
8
VISIBLE
10
236.621241
20
131.738555
30
0
40
3.81
50
251.032053
51
111.032053
0
ARC
8
VISIBLE
10
232.236039
20
125.008478
30
0
40
3.98
50
71.032053
51
181.032053
0
ARC
8
VISIBLE
10
215.615346
20
116.258058
30
0
40
2.48
50
152.000203
51
262.000203
0
ARC
8
VISIBLE
10
209.657118
20
121.6454
30
0
40
5.31
50
332.000203
51
192.000203
0
ARC
8
VISIBLE
10
202.444774
20
118.109013
30
0
40
2.48
50
262.000203
51
12.000203
0
ARC
8
VISIBLE
10
232.236039
20
125.008478
30
0
40
2.48
50
71.032053
51
181.032053
0
ARC
8
VISIBLE
10
236.621241
20
131.738555
30
0
40
5.31
50
251.032053
51
111.032053
0
ARC
8
VISIBLE
10
231.996483
20
138.30632
30
0
40
2.48
50
181.032053
51
291.032053
0
ARC
8
VISIBLE
10
239.701461
20
149.365885
30
0
40
2.48
50
342.455654
51
92.455654
0
ARC
8
VISIBLE
10
246.538407
20
145.149238
30
0
40
5.31
50
162.455654
51
22.455654
0
ARC
8
VISIBLE
10
252.989248
20
149.935739
30
0
40
2.48
50
92.455654
51
202.455654
0
ARC
8
VISIBLE
10
260.911019
20
140.149633
30
0
40
2.48
50
251.039658
51
1.039658
0
ARC
8
VISIBLE
10
256.52671
20
133.418974
30
0
40
5.31
50
71.039658
51
291.039658
0
ARC
8
VISIBLE
10
261.15234
20
126.851823
30
0
40
2.48
50
1.039658
51
111.039658
0
ARC
8
VISIBLE
10
253.794616
20
109.508897
30
0
40
3.98
50
93.886668
51
203.886668
0
ARC
8
VISIBLE
10
247.465322
20
104.56279
30
0
40
3.81
50
163.886668
51
23.886668
0
ARC
8
VISIBLE
10
240.525205
20
108.607381
30
0
40
3.98
50
343.886668
51
93.886668
0
ARC
8
VISIBLE
10
261.15234
20
126.851823
30
0
40
3.98
50
1.039658
51
111.039658
0
ARC
8
VISIBLE
10
256.52671
20
133.418974
30
0
40
3.81
50
71.039658
51
291.039658
0
ARC
8
VISIBLE
10
260.911019
20
140.149633
30
0
40
3.98
50
251.039658
51
1.039658
0
ARC
8
VISIBLE
10
277.435626
20
156.316695
30
0
40
3.98
50
267.663239
51
17.663239
0
ARC
8
VISIBLE
10
284.263807
20
160.54752
30
0
40
3.81
50
337.663239
51
197.663239
0
ARC
8
VISIBLE
10
290.724566
20
155.774416
30
0
40
3.98
50
157.663239
51
267.663239
0
ARC
8
VISIBLE
10
291.004647
20
110.598819
30
0
40
3.98
50
90.753453
51
200.753453
0
ARC
8
VISIBLE
10
284.414472
20
106.006051
30
0
40
3.81
50
160.753453
51
20.753453
0
ARC
8
VISIBLE
10
277.705797
20
110.423926
30
0
40
3.98
50
340.753453
51
90.753453
0
ARC
8
VISIBLE
10
13.216395
20
192.925264
30
0
40
3.98
50
268.675399
51
18.675399
0
ARC
8
VISIBLE
10
19.968774
20
197.276046
30
0
40
3.81
50
338.675399
51
198.675399
0
ARC
8
VISIBLE
10
26.512841
20
192.617813
30
0
40
3.98
50
158.675399
51
268.675399
0
ARC
8
VISIBLE
10
36.660103
20
175.837405
30
0
40
2.48
50
251.345238
51
1.345238
0
ARC
8
VISIBLE
10
32.311753
20
169.083458
30
0
40
5.31
50
71.345238
51
291.345238
0
ARC
8
VISIBLE
10
36.972343
20
162.54107
30
0
40
2.48
50
1.345238
51
111.345238
0
ARC
8
VISIBLE
10
27.095483
20
153.527735
30
0
40
2.48
50
156.391621
51
266.391621
0
ARC
8
VISIBLE
10
20.742239
20
158.443041
30
0
40
5.31
50
336.391621
51
196.391621
0
ARC
8
VISIBLE
10
13.821849
20
154.36479
30
0
40
2.48
50
266.391621
51
16.391621
0
ARC
8
VISIBLE
10
36.972343
20
162.54107
30
0
40
3.98
50
1.345238
51
111.345238
0
ARC
8
VISIBLE
10
32.311753
20
169.083458
30
0
40
3.81
50
71.345238
51
291.345238
0
ARC
8
VISIBLE
10
36.660103
20
175.837405
30
0
40
3.98
50
251.345238
51
1.345238
0
ARC
8
VISIBLE
10
51.553439
20
192.325407
30
0
40
3.98
50
270.050736
51
20.050736
0
ARC
8
VISIBLE
10
58.199447
20
196.837006
30
0
40
3.81
50
340.050736
51
200.050736
0
ARC
8
VISIBLE
10
64.853434
20
192.337185
30
0
40
3.98
50
160.050736
51
270.050736
0
ARC
8
VISIBLE
10
73.111554
20
176.234912
30
0
40
2.48
50
247.827077
51
357.827077
0
ARC
8
VISIBLE
10
68.356944
20
169.76053
30
0
40
5.31
50
67.827077
51
287.827077
0
ARC
8
VISIBLE
10
72.607277
20
162.944475
30
0
40
2.48
50
357.827077
51
107.827077
0
ARC
8
VISIBLE
10
64.541317
20
152.931704
30
0
40
2.48
50
160.610806
51
270.610806
0
ARC
8
VISIBLE
10
57.843663
20
157.366268
30
0
40
5.31
50
340.610806
51
200.610806
0
ARC
8
VISIBLE
10
51.242073
20
152.789921
30
0
40
2.48
50
270.610806
51
20.610806
0
ARC
8
VISIBLE
10
72.607277
20
162.944475
30
0
40
3.98
50
357.827077
51
107.827077
0
ARC
8
VISIBLE
10
68.356944
20
169.76053
30
0
40
3.81
50
67.827077
51
287.827077
0
ARC
8
VISIBLE
10
73.111554
20
176.234912
30
0
40
3.98
50
247.827077
51
357.827077
0
ARC
8
VISIBLE
10
89.769152
20
192.420971
30
0
40
3.98
50
270.323883
51
20.323883
0
ARC
8
VISIBLE
10
96.393576
20
196.964202
30
0
40
3.81
50
340.323883
51
200.323883
0
ARC
8
VISIBLE
10
103.068939
20
192.496153
30
0
40
3.98
50
160.323883
51
270.323883
0
ARC
8
VISIBLE
10
112.717995
20
177.982865
30
0
40
2.48
50
249.526717
51
359.526717
0
ARC
8
VISIBLE
10
108.157507
20
171.37031
30
0
40
5.31
50
69.526717
51
289.526717
0
ARC
8
VISIBLE
10
112.608134
20
164.683319
30
0
40
2.48
50
359.526717
51
109.526717
0
ARC
8
VISIBLE
10
101.893193
20
155.330151
30
0
40
2.48
50
164.890158
51
274.890158
0
ARC
8
VISIBLE
10
94.883306
20
159.252577
30
0
40
5.31
50
344.890158
51
204.890158
0
ARC
8
VISIBLE
10
88.641605
20
154.196382
30
0
40
2.48
50
274.890158
51
24.890158
0
ARC
8
VISIBLE
10
112.608134
20
164.683319
30
0
40
3.98
50
359.526717
51
109.526717
0
ARC
8
VISIBLE
10
108.157507
20
171.37031
30
0
40
3.81
50
69.526717
51
289.526717
0
ARC
8
VISIBLE
10
112.717995
20
177.982865
30
0
40
3.98
50
249.526717
51
359.526717
0
ARC
8
VISIBLE
10
127.409482
20
193.235533
30
0
40
3.98
50
273.326105
51
23.326105
0
ARC
8
VISIBLE
10
133.786863
20
198.11948
30
0
40
3.81
50
343.326105
51
203.326105
0
ARC
8
VISIBLE
10
140.687078
20
194.007184
30
0
40
3.98
50
163.326105
51
273.326105
0
ARC
8
VISIBLE
10
148.909587
20
178.380444
30
0
40
2.48
50
248.733362
51
358.733362
0
ARC
8
VISIBLE
10
144.257977
20
171.831669
30
0
40
5.31
50
68.733362
51
288.733362
0
ARC
8
VISIBLE
10
148.615588
20
165.083694
30
0
40
2.48
50
358.733362
51
108.733362
0
ARC
8
VISIBLE
10
140.167211
20
149.081835
30
0
40
3.98
50
87.751239
51
197.751239
0
ARC
8
VISIBLE
10
133.345536
20
144.840527
30
0
40
3.81
50
157.751239
51
17.751239
0
ARC
8
VISIBLE
10
126.877454
20
149.603703
30
0
40
3.98
50
337.751239
51
87.751239
0
ARC
8
VISIBLE
10
148.615588
20
165.083694
30
0
40
3.98
50
358.733362
51
108.733362
0
ARC
8
VISIBLE
10
144.257977
20
171.831669
30
0
40
3.81
50
68.733362
51
288.733362
0
ARC
8
VISIBLE
10
148.909587
20
178.380444
30
0
40
3.98
50
248.733362
51
358.733362
0
ARC
8
VISIBLE
10
163.556987
20
193.980351
30
0
40
3.98
50
266.347171
51
16.347171
0
ARC
8
VISIBLE
10
170.480539
20
198.053232
30
0
40
3.81
50
336.347171
51
196.347171
0
ARC
8
VISIBLE
10
176.829966
20
193.132998
30
0
40
3.98
50
156.347171
51
266.347171
0
ARC
8
VISIBLE
10
185.902245
20
176.956312
30
0
40
2.48
50
257.503077
51
7.503077
0
ARC
8
VISIBLE
10
182.303465
20
169.774897
30
0
40
5.31
50
77.503077
51
297.503077
0
ARC
8
VISIBLE
10
187.638952
20
163.770188
30
0
40
2.48
50
7.503077
51
117.503077
0
ARC
8
VISIBLE
10
178.587781
20
155.422082
30
0
40
2.48
50
160.688086
51
270.688086
0
ARC
8
VISIBLE
10
171.884151
20
159.847608
30
0
40
5.31
50
340.688086
51
200.688086
0
ARC
8
VISIBLE
10
165.28874
20
155.262361
30
0
40
2.48
50
270.688086
51
20.688086
0
ARC
8
VISIBLE
10
187.638952
20
163.770188
30
0
40
3.98
50
7.503077
51
117.503077
0
ARC
8
VISIBLE
10
182.303465
20
169.774897
30
0
40
3.81
50
77.503077
51
297.503077
0
ARC
8
VISIBLE
10
185.902245
20
176.956312
30
0
40
3.98
50
257.503077
51
7.503077
0
ARC
8
VISIBLE
10
199.781119
20
186.423857
30
0
40
2.48
50
342.076734
51
92.076734
0
ARC
8
VISIBLE
10
206.590029
20
182.162087
30
0
40
5.31
50
162.076734
51
22.076734
0
ARC
8
VISIBLE
10
213.072384
20
186.905821
30
0
40
2.48
50
92.076734
51
202.076734
0
ARC
8
VISIBLE
10
222.985019
20
177.681557
30
0
40
2.48
50
255.117345
51
5.117345
0
ARC
8
VISIBLE
10
219.090419
20
170.656173
30
0
40
5.31
50
75.117345
51
295.117345
0
ARC
8
VISIBLE
10
224.171323
20
164.43457
30
0
40
2.48
50
5.117345
51
115.117345
0
ARC
8
VISIBLE
10
217.08706
20
148.964624
30
0
40
3.98
50
89.621614
51
199.621614
0
ARC
8
VISIBLE
10
210.407449
20
144.502927
30
0
40
3.81
50
159.621614
51
19.621614
0
ARC
8
VISIBLE
10
203.78735
20
149.052457
30
0
40
3.98
50
339.621614
51
89.621614
0
ARC
8
VISIBLE
10
224.171323
20
164.43457
30
0
40
3.98
50
5.117345
51
115.117345
0
ARC
8
VISIBLE
10
219.090419
20
170.656173
30
0
40
3.81
50
75.117345
51
295.117345
0
ARC
8
VISIBLE
10
222.985019
20
177.681557
30
0
40
3.98
50
255.117345
51
5.117345
0
ARC
8
VISIBLE
10
239.422765
20
187.948826
30
0
40
2.48
50
342.428668
51
92.428668
0
ARC
8
VISIBLE
10
246.257723
20
183.72896
30
0
40
5.31
50
162.428668
51
22.428668
0
ARC
8
VISIBLE
10
252.710818
20
188.512421
30
0
40
2.48
50
92.428668
51
202.428668
0
ARC
8
VISIBLE
10
269.057695
20
179.380483
30
0
40
3.98
50
175.730527
51
285.730527
0
ARC
8
VISIBLE
10
273.055827
20
172.413498
30
0
40
3.81
50
245.730527
51
105.730527
0
ARC
8
VISIBLE
10
268.067544
20
166.117391
30
0
40
3.98
50
65.730527
51
175.730527
0
ARC
8
VISIBLE
10
252.989248
20
149.935739
30
0
40
3.98
50
92.455654
51
202.455654
0
ARC
8
VISIBLE
10
246.538407
20
145.149238
30
0
40
3.81
50
162.455654
51
22.455654
0
ARC
8
VISIBLE
10
239.701461
20
149.365885
30
0
40
3.98
50
342.455654
51
92.455654
0
ARC
8
VISIBLE
10
268.067544
20
166.117391
30
0
40
2.48
50
65.730527
51
175.730527
0
ARC
8
VISIBLE
10
273.055827
20
172.413498
30
0
40
5.31
50
245.730527
51
105.730527
0
ARC
8
VISIBLE
10
269.057695
20
179.380483
30
0
40
2.48
50
175.730527
51
285.730527
0
ARC
8
VISIBLE
10
278.553415
20
188.365281
30
0
40
2.48
50
336.398409
51
86.398409
0
ARC
8
VISIBLE
10
284.90724
20
183.450727
30
0
40
5.31
50
156.398409
51
16.398409
0
ARC
8
VISIBLE
10
291.827147
20
187.529798
30
0
40
2.48
50
86.398409
51
196.398409
0
ARC
8
VISIBLE
10
290.724566
20
155.774416
30
0
40
2.48
50
157.663239
51
267.663239
0
ARC
8
VISIBLE
10
284.263807
20
160.54752
30
0
40
5.31
50
337.663239
51
197.663239
0
ARC
8
VISIBLE
10
277.435626
20
156.316695
30
0
40
2.48
50
267.663239
51
17.663239
0
ARC
8
VISIBLE
10
41.747534
20
215.317954
30
0
40
3.98
50
182.324852
51
292.324852
0
ARC
8
VISIBLE
10
46.519295
20
208.856202
30
0
40
3.81
50
252.324852
51
112.324852
0
ARC
8
VISIBLE
10
42.287051
20
202.028901
30
0
40
3.98
50
72.324852
51
182.324852
0
ARC
8
VISIBLE
10
26.512841
20
192.617813
30
0
40
2.48
50
158.675399
51
268.675399
0
ARC
8
VISIBLE
10
19.968774
20
197.276046
30
0
40
5.31
50
338.675399
51
198.675399
0
ARC
8
VISIBLE
10
13.216395
20
192.925264
30
0
40
2.48
50
268.675399
51
18.675399
0
ARC
8
VISIBLE
10
42.287051
20
202.028901
30
0
40
2.48
50
72.324852
51
182.324852
0
ARC
8
VISIBLE
10
46.519295
20
208.856202
30
0
40
5.31
50
252.324852
51
112.324852
0
ARC
8
VISIBLE
10
41.747534
20
215.317954
30
0
40
2.48
50
182.324852
51
292.324852
0
ARC
8
VISIBLE
10
73.044704
20
215.138214
30
0
40
2.48
50
251.226844
51
1.226844
0
ARC
8
VISIBLE
10
68.682408
20
208.393268
30
0
40
5.31
50
71.226844
51
291.226844
0
ARC
8
VISIBLE
10
73.329468
20
201.841263
30
0
40
2.48
50
1.226844
51
111.226844
0
ARC
8
VISIBLE
10
64.853434
20
192.337185
30
0
40
2.48
50
160.050736
51
270.050736
0
ARC
8
VISIBLE
10
58.199447
20
196.837006
30
0
40
5.31
50
340.050736
51
200.050736
0
ARC
8
VISIBLE
10
51.553439
20
192.325407
30
0
40
2.48
50
270.050736
51
20.050736
0
ARC
8
VISIBLE
10
73.329468
20
201.841263
30
0
40
3.98
50
1.226844
51
111.226844
0
ARC
8
VISIBLE
10
68.682408
20
208.393268
30
0
40
3.81
50
71.226844
51
291.226844
0
ARC
8
VISIBLE
10
73.044704
20
215.138214
30
0
40
3.98
50
251.226844
51
1.226844
0
ARC
8
VISIBLE
10
111.444713
20
215.140102
30
0
40
2.48
50
253.023355
51
3.023355
0
ARC
8
VISIBLE
10
107.296014
20
208.261713
30
0
40
5.31
50
73.023355
51
293.023355
0
ARC
8
VISIBLE
10
112.146195
20
201.858614
30
0
40
2.48
50
3.023355
51
113.023355
0
ARC
8
VISIBLE
10
103.068939
20
192.496153
30
0
40
2.48
50
160.323883
51
270.323883
0
ARC
8
VISIBLE
10
96.393576
20
196.964202
30
0
40
5.31
50
340.323883
51
200.323883
0
ARC
8
VISIBLE
10
89.769152
20
192.420971
30
0
40
2.48
50
270.323883
51
20.323883
0
ARC
8
VISIBLE
10
112.146195
20
201.858614
30
0
40
3.98
50
3.023355
51
113.023355
0
ARC
8
VISIBLE
10
107.296014
20
208.261713
30
0
40
3.81
50
73.023355
51
293.023355
0
ARC
8
VISIBLE
10
111.444713
20
215.140102
30
0
40
3.98
50
253.023355
51
3.023355
0
ARC
8
VISIBLE
10
155.366362
20
216.414575
30
0
40
3.98
50
180.673243
51
290.673243
0
ARC
8
VISIBLE
10
159.9499
20
209.817976
30
0
40
3.81
50
250.673243
51
110.673243
0
ARC
8
VISIBLE
10
155.522637
20
203.115493
30
0
40
3.98
50
70.673243
51
180.673243
0
ARC
8
VISIBLE
10
140.687078
20
194.007184
30
0
40
2.48
50
163.326105
51
273.326105
0
ARC
8
VISIBLE
10
133.786863
20
198.11948
30
0
40
5.31
50
343.326105
51
203.326105
0
ARC
8
VISIBLE
10
127.409482
20
193.235533
30
0
40
2.48
50
273.326105
51
23.326105
0
ARC
8
VISIBLE
10
155.522637
20
203.115493
30
0
40
2.48
50
70.673243
51
180.673243
0
ARC
8
VISIBLE
10
159.9499
20
209.817976
30
0
40
5.31
50
250.673243
51
110.673243
0
ARC
8
VISIBLE
10
155.366362
20
216.414575
30
0
40
2.48
50
180.673243
51
290.673243
0
ARC
8
VISIBLE
10
192.416423
20
215.038934
30
0
40
3.98
50
176.379772
51
286.379772
0
ARC
8
VISIBLE
10
196.493243
20
208.1177
30
0
40
3.81
50
246.379772
51
106.379772
0
ARC
8
VISIBLE
10
191.576623
20
201.765474
30
0
40
3.98
50
66.379772
51
176.379772
0
ARC
8
VISIBLE
10
176.829966
20
193.132998
30
0
40
2.48
50
156.347171
51
266.347171
0
ARC
8
VISIBLE
10
170.480539
20
198.053232
30
0
40
5.31
50
336.347171
51
196.347171
0
ARC
8
VISIBLE
10
163.556987
20
193.980351
30
0
40
2.48
50
266.347171
51
16.347171
0
ARC
8
VISIBLE
10
191.576623
20
201.765474
30
0
40
2.48
50
66.379772
51
176.379772
0
ARC
8
VISIBLE
10
196.493243
20
208.1177
30
0
40
5.31
50
246.379772
51
106.379772
0
ARC
8
VISIBLE
10
192.416423
20
215.038934
30
0
40
2.48
50
176.379772
51
286.379772
0
ARC
8
VISIBLE
10
230.275308
20
215.664529
30
0
40
3.98
50
175.528951
51
285.528951
0
ARC
8
VISIBLE
10
234.248905
20
208.683522
30
0
40
3.81
50
245.528951
51
105.528951
0
ARC
8
VISIBLE
10
229.238502
20
202.405003
30
0
40
3.98
50
65.528951
51
175.528951
0
ARC
8
VISIBLE
10
213.072384
20
186.905821
30
0
40
3.98
50
92.076734
51
202.076734
0
ARC
8
VISIBLE
10
206.590029
20
182.162087
30
0
40
3.81
50
162.076734
51
22.076734
0
ARC
8
VISIBLE
10
199.781119
20
186.423857
30
0
40
3.98
50
342.076734
51
92.076734
0
ARC
8
VISIBLE
10
229.238502
20
202.405003
30
0
40
2.48
50
65.528951
51
175.528951
0
ARC
8
VISIBLE
10
234.248905
20
208.683522
30
0
40
5.31
50
245.528951
51
105.528951
0
ARC
8
VISIBLE
10
230.275308
20
215.664529
30
0
40
2.48
50
175.528951
51
285.528951
0
ARC
8
VISIBLE
10
263.01735
20
216.748329
30
0
40
2.48
50
251.263353
51
1.263353
0
ARC
8
VISIBLE
10
258.659353
20
210.000604
30
0
40
5.31
50
71.263353
51
291.263353
0
ARC
8
VISIBLE
10
263.310587
20
203.451562
30
0
40
2.48
50
1.263353
51
111.263353
0
ARC
8
VISIBLE
10
252.710818
20
188.512421
30
0
40
3.98
50
92.428668
51
202.428668
0
ARC
8
VISIBLE
10
246.257723
20
183.72896
30
0
40
3.81
50
162.428668
51
22.428668
0
ARC
8
VISIBLE
10
239.422765
20
187.948826
30
0
40
3.98
50
342.428668
51
92.428668
0
ARC
8
VISIBLE
10
263.310587
20
203.451562
30
0
40
3.98
50
1.263353
51
111.263353
0
ARC
8
VISIBLE
10
258.659353
20
210.000604
30
0
40
3.81
50
71.263353
51
291.263353
0
ARC
8
VISIBLE
10
263.01735
20
216.748329
30
0
40
3.98
50
251.263353
51
1.263353
0
ARC
8
VISIBLE
10
291.827147
20
187.529798
30
0
40
3.98
50
86.398409
51
196.398409
0
ARC
8
VISIBLE
10
284.90724
20
183.450727
30
0
40
3.81
50
156.398409
51
16.398409
0
ARC
8
VISIBLE
10
278.553415
20
188.365281
30
0
40
3.98
50
336.398409
51
86.398409
0
ENDSEC
0
EOF
