0
SECTION
2
HEADER
9
$ACADVER
1
AC1015
9
$INSUNITS
70
4
0
ENDSEC
0
SECTION
2
TABLES
0
TABLE
2
LAYER
70
2
0
LAYER
2
VISIBLE
70
0
62
7
6
CONTINUOUS
0
LAYER
2
HIDDEN
70
0
62
8
6
DASHED
0
ENDTAB
0
ENDSEC
0
SECTION
2
ENTITIES
0
LINE
8
VISIBLE
10
0
20
0
30
0
11
38
21
0
31
0
0
LINE
8
VISIBLE
10
0
20
0
30
0
11
0
21
38
31
0
0
LINE
8
VISIBLE
10
38
20
0
30
0
11
38.115588
21
13.176644
31
0
0
LINE
8
VISIBLE
10
42.476771
20
16.173711
30
0
11
44.312195
21
15.487379
31
0
0
LINE
8
VISIBLE
10
44.38737
20
24.057046
30
0
11
42.540187
21
23.403018
31
0
0
LINE
8
VISIBLE
10
38.232253
20
26.476132
30
0
11
38.347841
21
39.652776
31
0
0
LINE
8
VISIBLE
10
38.347841
20
39.652776
30
0
11
25.817753
21
39.112735
31
0
0
LINE
8
VISIBLE
10
22.598709
20
43.312744
30
0
11
23.189004
21
45.18127
31
0
0
LINE
8
VISIBLE
10
14.626956
20
44.812249
30
0
11
15.375829
21
43.001441
31
0
0
LINE
8
VISIBLE
10
12.530088
20
38.540042
30
0
11
0
21
38
31
0
0
LINE
8
VISIBLE
10
38
20
0
30
0
11
76
21
0
31
0
0
LINE
8
VISIBLE
10
76
20
0
30
0
11
75.75005
21
13.227595
31
0
0
LINE
8
VISIBLE
10
80.026658
20
16.344155
30
0
11
81.880366
21
15.708858
31
0
0
LINE
8
VISIBLE
10
81.718455
20
24.277325
30
0
11
79.890071
21
23.572451
31
0
0
LINE
8
VISIBLE
10
75.498776
20
26.525221
30
0
11
75.248827
21
39.752793
31
0
0
LINE
8
VISIBLE
10
75.248827
20
39.752793
30
0
11
67.92133
21
39.732928
31
0
0
LINE
8
VISIBLE
10
67.92133
20
39.732928
30
0
11
67.061198
21
42.076333
31
0
0
LINE
8
VISIBLE
10
46.557181
20
42.020746
30
0
11
45.709768
21
39.672711
31
0
0
LINE
8
VISIBLE
10
45.709768
20
39.672711
30
0
11
38.347841
21
39.652753
31
0
0
LINE
8
VISIBLE
10
76
20
0
30
0
11
114
21
0
31
0
0
LINE
8
VISIBLE
10
114
20
0
30
0
11
113.461542
21
12.548698
31
0
0
LINE
8
VISIBLE
10
117.662163
20
15.766945
30
0
11
119.530576
21
15.176295
31
0
0
LINE
8
VISIBLE
10
119.163181
20
23.738413
30
0
11
117.352231
21
22.989884
31
0
0
LINE
8
VISIBLE
10
112.891371
20
25.836471
30
0
11
112.352914
21
38.385169
31
0
0
LINE
8
VISIBLE
10
112.352914
20
38.385169
30
0
11
100.446357
21
38.824042
31
0
0
LINE
8
VISIBLE
10
97.572878
20
43.267626
30
0
11
98.310455
21
45.083064
31
0
0
LINE
8
VISIBLE
10
89.746274
20
45.398738
30
0
11
90.348199
21
43.533926
31
0
0
LINE
8
VISIBLE
10
87.155383
20
39.313944
30
0
11
75.248826
21
39.752817
31
0
0
LINE
8
VISIBLE
10
114
20
0
30
0
11
152
21
0
31
0
0
LINE
8
VISIBLE
10
152
20
0
30
0
11
151.687457
21
12.510959
31
0
0
LINE
8
VISIBLE
10
147.278283
20
15.436965
30
0
11
145.454221
21
14.720983
31
0
0
LINE
8
VISIBLE
10
145.240195
20
23.288307
30
0
11
147.097733
21
22.664296
31
0
0
LINE
8
VISIBLE
10
151.355306
20
25.806811
30
0
11
151.042763
21
38.31777
31
0
0
LINE
8
VISIBLE
10
151.042763
20
38.31777
30
0
11
138.347828
21
38.339885
31
0
0
LINE
8
VISIBLE
10
135.320177
20
42.679891
30
0
11
135.993589
21
44.520096
31
0
0
LINE
8
VISIBLE
10
127.423605
20
44.535025
30
0
11
128.090602
21
42.692485
31
0
0
LINE
8
VISIBLE
10
125.047848
20
38.363054
30
0
11
112.352914
21
38.385169
31
0
0
LINE
8
VISIBLE
10
152
20
0
30
0
11
190
21
0
31
0
0
LINE
8
VISIBLE
10
190
20
0
30
0
11
190.382463
21
12.937829
31
0
0
LINE
8
VISIBLE
10
194.804981
20
15.843626
30
0
11
196.625748
21
15.119303
31
0
0
LINE
8
VISIBLE
10
196.87898
20
23.685557
30
0
11
195.018606
21
23.070055
31
0
0
LINE
8
VISIBLE
10
190.77546
20
26.232022
30
0
11
191.15788
21
39.168418
31
0
0
LINE
8
VISIBLE
10
191.15788
20
39.168418
30
0
11
182.338509
21
38.981087
31
0
0
LINE
8
VISIBLE
10
182.338509
20
38.981087
30
0
11
181.435112
21
41.308156
31
0
0
LINE
8
VISIBLE
10
160.935643
20
40.872729
30
0
11
160.131874
21
38.509399
31
0
0
LINE
8
VISIBLE
10
160.131874
20
38.509399
30
0
11
151.042798
21
38.316339
31
0
0
LINE
8
VISIBLE
10
190
20
0
30
0
11
228
21
0
31
0
0
LINE
8
VISIBLE
10
228
20
0
30
0
11
227.622602
21
12.742148
31
0
0
LINE
8
VISIBLE
10
223.19992
20
15.647695
30
0
11
221.379194
21
14.923269
31
0
0
LINE
8
VISIBLE
10
221.125478
20
23.48951
30
0
11
222.985887
21
22.874112
31
0
0
LINE
8
VISIBLE
10
227.228855
20
26.036319
30
0
11
226.851457
21
38.778467
31
0
0
LINE
8
VISIBLE
10
226.851457
20
38.778467
30
0
11
215.65429
21
38.901245
31
0
0
LINE
8
VISIBLE
10
212.666793
20
43.268989
30
0
11
213.357148
21
45.102905
31
0
0
LINE
8
VISIBLE
10
204.787667
20
45.19687
30
0
11
205.437642
21
43.348258
31
0
0
LINE
8
VISIBLE
10
202.355089
20
39.047073
30
0
11
191.157923
21
39.169851
31
0
0
LINE
8
VISIBLE
10
191.157923
20
39.169851
30
0
11
191.15788
21
39.168418
31
0
0
LINE
8
VISIBLE
10
228
20
0
30
0
11
266
21
0
31
0
0
LINE
8
VISIBLE
10
266
20
0
30
0
11
266.448261
21
12.07071
31
0
0
LINE
8
VISIBLE
10
270.892639
20
14.942962
30
0
11
272.707873
21
14.204884
31
0
0
LINE
8
VISIBLE
10
273.025912
20
22.768977
30
0
11
271.160934
21
22.167568
31
0
0
LINE
8
VISIBLE
10
266.941833
20
25.361549
30
0
11
267.389964
21
37.428763
31
0
0
LINE
8
VISIBLE
10
267.389964
20
37.428763
30
0
11
258.009724
21
37.740262
31
0
0
LINE
8
VISIBLE
10
258.009724
20
37.740262
30
0
11
257.234273
21
40.113035
31
0
0
LINE
8
VISIBLE
10
236.741477
20
40.79356
30
0
11
235.810318
21
38.477461
31
0
0
LINE
8
VISIBLE
10
235.810318
20
38.477461
30
0
11
226.851561
21
38.774963
31
0
0
LINE
8
VISIBLE
10
266
20
0
30
0
11
304
21
0
31
0
0
LINE
8
VISIBLE
10
304
20
0
30
0
11
304
21
37.999236
31
0
0
LINE
8
VISIBLE
10
304
20
37.999236
30
0
11
296.897997
21
37.8891
31
0
0
LINE
8
VISIBLE
10
296.897997
20
37.8891
30
0
11
296.007951
21
40.221307
31
0
0
LINE
8
VISIBLE
10
275.506323
20
39.903371
30
0
11
274.689024
21
37.544686
31
0
0
LINE
8
VISIBLE
10
274.689024
20
37.544686
30
0
11
267.390066
21
37.431495
31
0
0
LINE
8
VISIBLE
10
267.390066
20
37.431495
30
0
11
267.389964
21
37.428763
31
0
0
LINE
8
VISIBLE
10
0
20
44.355895
30
0
11
7.804971
21
44.692286
31
0
0
LINE
8
VISIBLE
10
0
20
44.355895
30
0
11
0
21
82.35
31
0
0
LINE
8
VISIBLE
10
7.804971
20
44.692286
30
0
11
8.75896
21
42.385497
31
0
0
LINE
8
VISIBLE
10
29.244036
20
43.268395
30
0
11
29.996013
21
45.648711
31
0
0
LINE
8
VISIBLE
10
29.996013
20
45.648711
30
0
11
38.34747
21
46.008655
31
0
0
LINE
8
VISIBLE
10
38.34747
20
46.008655
30
0
11
37.659396
21
56.910944
31
0
0
LINE
8
VISIBLE
10
33.142098
20
59.667091
30
0
11
31.346595
21
58.882233
31
0
0
LINE
8
VISIBLE
10
30.806792
20
67.435212
30
0
11
32.686725
21
66.882321
31
0
0
LINE
8
VISIBLE
10
36.821662
20
70.184535
30
0
11
36.133217
21
81.092703
31
0
0
LINE
8
VISIBLE
10
36.133217
20
81.092703
30
0
11
24.712586
21
81.490097
31
0
0
LINE
8
VISIBLE
10
21.829956
20
85.92775
30
0
11
22.56379
21
87.744704
31
0
0
LINE
8
VISIBLE
10
13.998976
20
88.042727
30
0
11
14.604743
21
86.17916
31
0
0
LINE
8
VISIBLE
10
11.420631
20
81.952606
30
0
11
0
21
82.35
31
0
0
LINE
8
VISIBLE
10
38.347841
20
46.002776
30
0
11
50.148358
21
46.034768
31
0
0
LINE
8
VISIBLE
10
38.347841
20
46.002776
30
0
11
38.34747
21
46.008655
31
0
0
LINE
8
VISIBLE
10
53.195306
20
41.708287
30
0
11
52.530095
21
39.865103
31
0
0
LINE
8
VISIBLE
10
61.10006
20
39.888336
30
0
11
60.424865
21
41.727887
31
0
0
LINE
8
VISIBLE
10
63.448309
20
46.070825
30
0
11
75.248826
21
46.102817
31
0
0
LINE
8
VISIBLE
10
75.248826
20
46.102817
30
0
11
75.566452
21
58.300539
31
0
0
LINE
8
VISIBLE
10
79.978717
20
61.221881
30
0
11
81.802021
21
60.50397
31
0
0
LINE
8
VISIBLE
10
82.025106
20
69.071063
30
0
11
80.16691
21
68.449017
31
0
0
LINE
8
VISIBLE
10
75.912663
20
71.596032
30
0
11
76.230288
21
83.793755
31
0
0
LINE
8
VISIBLE
10
76.230288
20
83.793755
30
0
11
62.816716
21
82.890179
31
0
0
LINE
8
VISIBLE
10
59.497033
20
87.011104
30
0
11
60.041963
21
88.89336
31
0
0
LINE
8
VISIBLE
10
51.491345
20
88.317366
30
0
11
52.283794
21
86.5252
31
0
0
LINE
8
VISIBLE
10
49.546789
20
81.996279
30
0
11
36.133217
21
81.092703
31
0
0
LINE
8
VISIBLE
10
75.248938
20
46.107125
30
0
11
82.936485
21
45.823764
31
0
0
LINE
8
VISIBLE
10
82.936485
20
45.823764
30
0
11
83.703277
21
43.448179
31
0
0
LINE
8
VISIBLE
10
104.193455
20
42.692916
30
0
11
105.133056
21
45.005604
31
0
0
LINE
8
VISIBLE
10
105.133056
20
45.005604
30
0
11
112.353063
21
44.739476
31
0
0
LINE
8
VISIBLE
10
112.353063
20
44.739476
30
0
11
112.794892
21
57.513433
31
0
0
LINE
8
VISIBLE
10
117.231947
20
60.396985
30
0
11
119.049053
21
59.663528
31
0
0
LINE
8
VISIBLE
10
119.345298
20
68.228402
30
0
11
117.481856
21
67.62225
31
0
0
LINE
8
VISIBLE
10
113.254642
20
70.805484
30
0
11
113.696621
21
83.583747
31
0
0
LINE
8
VISIBLE
10
113.696621
20
83.583747
30
0
11
101.61335
21
83.651477
31
0
0
LINE
8
VISIBLE
10
98.602487
20
88.003147
30
0
11
99.283003
21
89.840736
31
0
0
LINE
8
VISIBLE
10
90.713141
20
89.888772
30
0
11
91.373015
21
88.04367
31
0
0
LINE
8
VISIBLE
10
88.313559
20
83.726025
30
0
11
76.230288
21
83.793755
31
0
0
LINE
8
VISIBLE
10
112.352914
20
44.735179
30
0
11
120.603095
21
44.720807
31
0
0
LINE
8
VISIBLE
10
112.352914
20
44.735179
30
0
11
112.353063
21
44.739476
31
0
0
LINE
8
VISIBLE
10
120.603095
20
44.720807
30
0
11
121.452783
21
42.373595
31
0
0
LINE
8
VISIBLE
10
141.956845
20
42.337876
30
0
11
142.814705
21
44.682114
31
0
0
LINE
8
VISIBLE
10
142.814705
20
44.682114
30
0
11
151.042763
21
44.66778
31
0
0
LINE
8
VISIBLE
10
151.042763
20
44.66778
30
0
11
150.937141
21
56.49294
31
0
0
LINE
8
VISIBLE
10
146.57548
20
59.48931
30
0
11
144.740165
21
58.802685
31
0
0
LINE
8
VISIBLE
10
144.663621
20
67.37234
30
0
11
146.510908
21
66.718607
31
0
0
LINE
8
VISIBLE
10
150.818351
20
69.792409
30
0
11
150.71281
21
81.608623
31
0
0
LINE
8
VISIBLE
10
150.71281
20
81.608623
30
0
11
142.958048
21
82.020529
31
0
0
LINE
8
VISIBLE
10
142.958048
20
82.020529
30
0
11
142.229896
21
84.408241
31
0
0
LINE
8
VISIBLE
10
121.754667
20
85.495815
30
0
11
120.777672
21
83.198675
31
0
0
LINE
8
VISIBLE
10
120.777672
20
83.198675
30
0
11
113.696312
21
83.574812
31
0
0
LINE
8
VISIBLE
10
151.042763
20
44.66777
30
0
11
164.451842
21
44.952591
31
0
0
LINE
8
VISIBLE
10
167.578418
20
40.683299
30
0
11
166.947467
21
38.828108
31
0
0
LINE
8
VISIBLE
10
175.515531
20
39.010101
30
0
11
174.806373
21
40.836827
31
0
0
LINE
8
VISIBLE
10
177.748843
20
45.235031
30
0
11
191.157923
21
45.519851
31
0
0
LINE
8
VISIBLE
10
191.157923
20
45.519851
30
0
11
190.410896
21
58.213585
31
0
0
LINE
8
VISIBLE
10
194.559821
20
61.498208
30
0
11
196.437388
21
60.937338
31
0
0
LINE
8
VISIBLE
10
195.933915
20
69.492533
30
0
11
194.135094
21
68.715307
31
0
0
LINE
8
VISIBLE
10
189.629542
20
71.490614
30
0
11
188.883356
21
84.170063
31
0
0
LINE
8
VISIBLE
10
188.883356
20
84.170063
30
0
11
181.304469
21
83.660413
31
0
0
LINE
8
VISIBLE
10
181.304469
20
83.660413
30
0
11
180.295232
21
85.943571
31
0
0
LINE
8
VISIBLE
10
159.837343
20
84.567858
30
0
11
159.142877
21
82.170132
31
0
0
LINE
8
VISIBLE
10
159.142877
20
82.170132
30
0
11
150.712858
21
81.603246
31
0
0
LINE
8
VISIBLE
10
191.1579
20
45.520233
30
0
11
197.96916
21
45.445547
31
0
0
LINE
8
VISIBLE
10
197.96916
20
45.445547
30
0
11
198.797164
21
43.090598
31
0
0
LINE
8
VISIBLE
10
219.300025
20
42.865782
30
0
11
220.179468
21
45.202008
31
0
0
LINE
8
VISIBLE
10
220.179468
20
45.202008
30
0
11
226.851487
21
45.128848
31
0
0
LINE
8
VISIBLE
10
226.851487
20
45.128848
30
0
11
227.882596
21
57.981464
31
0
0
LINE
8
VISIBLE
10
223.804474
20
61.353592
30
0
11
221.915402
21
60.832785
31
0
0
LINE
8
VISIBLE
10
222.600733
20
69.375336
30
0
11
224.382614
21
68.560024
31
0
0
LINE
8
VISIBLE
10
228.946178
20
71.238869
30
0
11
229.977316
21
84.09185
31
0
0
LINE
8
VISIBLE
10
229.977316
20
84.09185
30
0
11
220.52142
21
84.11313
31
0
0
LINE
8
VISIBLE
10
220.52142
20
84.11313
30
0
11
219.672926
21
86.460773
31
0
0
LINE
8
VISIBLE
10
199.168885
20
86.506917
30
0
11
198.309832
21
84.163116
31
0
0
LINE
8
VISIBLE
10
198.309832
20
84.163116
30
0
11
188.882517
21
84.184332
31
0
0
LINE
8
VISIBLE
10
188.882517
20
84.184332
30
0
11
188.883356
21
84.170063
31
0
0
LINE
8
VISIBLE
10
226.851457
20
45.128467
30
0
11
240.474439
21
44.676075
31
0
0
LINE
8
VISIBLE
10
226.851457
20
45.128467
30
0
11
226.851487
21
45.128848
31
0
0
LINE
8
VISIBLE
10
243.364106
20
40.243
30
0
11
242.633155
21
38.424884
31
0
0
LINE
8
VISIBLE
10
251.19843
20
38.140448
30
0
11
250.589709
21
40.003052
31
0
0
LINE
8
VISIBLE
10
253.767112
20
44.234651
30
0
11
267.390094
21
43.782259
31
0
0
LINE
8
VISIBLE
10
267.390094
20
43.782259
30
0
11
267.340377
21
56.428869
31
0
0
LINE
8
VISIBLE
10
262.993753
20
59.447012
30
0
11
261.155027
21
58.769572
31
0
0
LINE
8
VISIBLE
10
261.121336
20
67.339503
30
0
11
262.965331
21
66.676541
31
0
0
LINE
8
VISIBLE
10
267.288091
20
69.728766
30
0
11
267.238373
21
82.375376
31
0
0
LINE
8
VISIBLE
10
267.238373
20
82.375376
30
0
11
255.2508
21
82.927602
31
0
0
LINE
8
VISIBLE
10
252.418283
20
87.397409
30
0
11
253.172514
21
89.205991
31
0
0
LINE
8
VISIBLE
10
244.611597
20
89.600364
30
0
11
245.196356
21
87.730098
31
0
0
LINE
8
VISIBLE
10
241.96489
20
83.539639
30
0
11
229.977317
21
84.091866
31
0
0
LINE
8
VISIBLE
10
267.390094
20
43.782259
30
0
11
279.045847
21
43.963015
31
0
0
LINE
8
VISIBLE
10
282.147903
20
39.675875
30
0
11
281.50633
21
37.824329
31
0
0
LINE
8
VISIBLE
10
290.075297
20
37.957216
30
0
11
289.37662
21
39.787977
31
0
0
LINE
8
VISIBLE
10
292.344248
20
44.169244
30
0
11
304
21
44.35
31
0
0
LINE
8
VISIBLE
10
304
20
44.35
30
0
11
304
21
82.35
31
0
0
LINE
8
VISIBLE
10
304
20
82.35
30
0
11
292.269185
21
82.358097
31
0
0
LINE
8
VISIBLE
10
289.236971
20
86.694917
30
0
11
289.908447
21
88.535828
31
0
0
LINE
8
VISIBLE
10
281.338452
20
88.541744
30
0
11
282.007387
21
86.699907
31
0
0
LINE
8
VISIBLE
10
278.969188
20
82.367278
30
0
11
267.238373
21
82.375376
31
0
0
LINE
8
VISIBLE
10
0
20
88.703843
30
0
11
7.188326
21
88.453717
31
0
0
LINE
8
VISIBLE
10
0
20
88.703843
30
0
11
0
21
126.7
31
0
0
LINE
8
VISIBLE
10
7.188326
20
88.453717
30
0
11
7.960012
21
86.079717
31
0
0
LINE
8
VISIBLE
10
28.451703
20
85.366685
30
0
11
29.386535
21
87.681305
31
0
0
LINE
8
VISIBLE
10
29.386535
20
87.681305
30
0
11
36.133492
21
87.446536
31
0
0
LINE
8
VISIBLE
10
36.133492
20
87.446536
30
0
11
37.016438
21
99.747219
31
0
0
LINE
8
VISIBLE
10
41.557347
20
102.464288
30
0
11
43.346012
21
101.663968
31
0
0
LINE
8
VISIBLE
10
43.95959
20
110.211971
30
0
11
42.074957
21
109.675321
31
0
0
LINE
8
VISIBLE
10
37.968665
20
113.013088
30
0
11
38.851885
21
125.317604
31
0
0
LINE
8
VISIBLE
10
38.851885
20
125.317604
30
0
11
26.071737
21
125.772337
31
0
0
LINE
8
VISIBLE
10
23.192587
20
130.212249
30
0
11
23.927845
21
132.028627
31
0
0
LINE
8
VISIBLE
10
15.363268
20
132.333365
30
0
11
15.967573
21
130.469323
31
0
0
LINE
8
VISIBLE
10
12.780148
20
126.245267
30
0
11
0
21
126.7
31
0
0
LINE
8
VISIBLE
10
36.134255
20
87.457164
30
0
11
44.674256
21
88.032443
31
0
0
LINE
8
VISIBLE
10
44.674256
20
88.032443
30
0
11
45.683759
21
85.749401
31
0
0
LINE
8
VISIBLE
10
66.141488
20
87.127491
30
0
11
66.835675
21
89.525298
31
0
0
LINE
8
VISIBLE
10
66.835675
20
89.525298
30
0
11
76.229982
21
90.158125
31
0
0
LINE
8
VISIBLE
10
76.229982
20
90.158125
30
0
11
75.964959
21
102.595151
31
0
0
LINE
8
VISIBLE
10
80.234037
20
105.722018
30
0
11
82.089272
21
105.091194
31
0
0
LINE
8
VISIBLE
10
81.906693
20
113.659246
30
0
11
80.080015
21
112.949963
31
0
0
LINE
8
VISIBLE
10
75.681611
20
115.892133
30
0
11
75.416281
21
128.343529
31
0
0
LINE
8
VISIBLE
10
75.416281
20
128.343529
30
0
11
63.761428
21
127.37902
31
0
0
LINE
8
VISIBLE
10
60.379059
20
131.448651
30
0
11
60.895115
21
133.339027
31
0
0
LINE
8
VISIBLE
10
52.354315
20
132.632224
30
0
11
53.174103
21
130.852397
31
0
0
LINE
8
VISIBLE
10
50.506739
20
126.282114
30
0
11
38.851885
21
125.317604
31
0
0
LINE
8
VISIBLE
10
76.230286
20
90.143855
30
0
11
83.8934
21
90.100901
31
0
0
LINE
8
VISIBLE
10
76.230286
20
90.143855
30
0
11
76.229982
21
90.158125
31
0
0
LINE
8
VISIBLE
10
83.8934
20
90.100901
30
0
11
84.734013
21
87.750424
31
0
0
LINE
8
VISIBLE
10
105.237784
20
87.635496
30
0
11
106.104694
21
89.976402
31
0
0
LINE
8
VISIBLE
10
106.104694
20
89.976402
30
0
11
113.696624
21
89.933847
31
0
0
LINE
8
VISIBLE
10
113.696624
20
89.933847
30
0
11
114.099898
21
101.076622
31
0
0
LINE
8
VISIBLE
10
109.877786
20
104.266621
30
0
11
108.013377
21
103.663452
31
0
0
LINE
8
VISIBLE
10
108.323335
20
112.227842
30
0
11
110.139265
21
111.491476
31
0
0
LINE
8
VISIBLE
10
114.580931
20
114.36792
30
0
11
114.983622
21
125.494584
31
0
0
LINE
8
VISIBLE
10
114.983622
20
125.494584
30
0
11
105.824268
21
126.150318
31
0
0
LINE
8
VISIBLE
10
105.824268
20
126.150318
30
0
11
105.140178
21
128.551025
31
0
0
LINE
8
VISIBLE
10
84.68843
20
130.0152
30
0
11
83.669328
21
127.736427
31
0
0
LINE
8
VISIBLE
10
83.669328
20
127.736427
30
0
11
75.416628
21
128.327252
31
0
0
LINE
8
VISIBLE
10
113.696621
20
89.933747
30
0
11
125.564036
21
89.303391
31
0
0
LINE
8
VISIBLE
10
113.696621
20
89.933747
30
0
11
113.696624
21
89.933847
31
0
0
LINE
8
VISIBLE
10
128.365049
20
84.813775
30
0
11
127.598117
21
83.010542
31
0
0
LINE
8
VISIBLE
10
136.15605
20
82.555974
30
0
11
135.584458
21
84.430305
31
0
0
LINE
8
VISIBLE
10
138.845314
20
88.597935
30
0
11
150.71273
21
87.967579
31
0
0
LINE
8
VISIBLE
10
150.71273
20
87.967579
30
0
11
151.007018
21
100.402297
31
0
0
LINE
8
VISIBLE
10
146.74532
20
103.539215
30
0
11
144.888603
21
102.912764
31
0
0
LINE
8
VISIBLE
10
145.09137
20
111.480361
30
0
11
146.916372
21
110.766776
31
0
0
LINE
8
VISIBLE
10
151.321697
20
113.698574
30
0
11
151.615964
21
126.132375
31
0
0
LINE
8
VISIBLE
10
151.615964
20
126.132375
30
0
11
144.512208
21
126.011658
31
0
0
LINE
8
VISIBLE
10
144.512208
20
126.011658
30
0
11
143.6187
21
128.342542
31
0
0
LINE
8
VISIBLE
10
123.117567
20
127.994158
30
0
11
122.303771
21
125.634262
31
0
0
LINE
8
VISIBLE
10
122.303771
20
125.634262
30
0
11
114.984175
21
125.509877
31
0
0
LINE
8
VISIBLE
10
114.984175
20
125.509877
30
0
11
114.983622
21
125.494584
31
0
0
LINE
8
VISIBLE
10
150.71273
20
87.967579
30
0
11
163.162608
21
88.804785
31
0
0
LINE
8
VISIBLE
10
166.481812
20
84.683473
30
0
11
165.936663
21
82.801281
31
0
0
LINE
8
VISIBLE
10
174.487348
20
83.376281
30
0
11
173.695106
21
85.168539
31
0
0
LINE
8
VISIBLE
10
176.432638
20
89.697142
30
0
11
188.882516
21
90.534348
31
0
0
LINE
8
VISIBLE
10
188.882516
20
90.534348
30
0
11
188.791583
21
102.93092
31
0
0
LINE
8
VISIBLE
10
193.103928
20
105.997841
30
0
11
194.950169
21
105.341161
31
0
0
LINE
8
VISIBLE
10
194.887307
20
113.910927
30
0
11
193.050898
21
113.227233
31
0
0
LINE
8
VISIBLE
10
188.694025
20
116.230562
30
0
11
188.603092
21
128.627135
31
0
0
LINE
8
VISIBLE
10
188.603092
20
128.627135
30
0
11
176.744475
21
127.827572
31
0
0
LINE
8
VISIBLE
10
173.424538
20
131.948293
30
0
11
173.969352
21
133.830582
31
0
0
LINE
8
VISIBLE
10
165.418769
20
133.254062
30
0
11
166.21133
21
131.461945
31
0
0
LINE
8
VISIBLE
10
163.474603
20
126.932855
30
0
11
151.615985
21
126.133292
31
0
0
LINE
8
VISIBLE
10
151.615985
20
126.133292
30
0
11
151.615964
21
126.132375
31
0
0
LINE
8
VISIBLE
10
188.882516
20
90.534348
30
0
11
202.779933
21
90.503072
31
0
0
LINE
8
VISIBLE
10
205.805378
20
86.161528
30
0
11
205.13103
21
84.321666
31
0
0
LINE
8
VISIBLE
10
213.701005
20
84.30238
30
0
11
213.034945
21
86.145258
31
0
0
LINE
8
VISIBLE
10
216.0799
20
90.473141
30
0
11
229.977317
21
90.441866
31
0
0
LINE
8
VISIBLE
10
229.977317
20
90.441866
30
0
11
229.628241
21
100.95101
31
0
0
LINE
8
VISIBLE
10
233.859814
20
104.128449
30
0
11
235.722423
21
103.519743
31
0
0
LINE
8
VISIBLE
10
235.437915
20
112.085015
30
0
11
233.619805
21
111.354049
31
0
0
LINE
8
VISIBLE
10
229.186706
20
114.243679
30
0
11
228.83763
21
124.752823
31
0
0
LINE
8
VISIBLE
10
228.83763
20
124.752823
30
0
11
215.339743
21
126.052577
31
0
0
LINE
8
VISIBLE
10
212.733994
20
130.658269
30
0
11
213.577609
21
132.426926
31
0
0
LINE
8
VISIBLE
10
205.04707
20
133.248359
30
0
11
205.537694
21
131.351223
31
0
0
LINE
8
VISIBLE
10
202.100979
20
127.32738
30
0
11
188.603092
21
128.627135
31
0
0
LINE
8
VISIBLE
10
229.977093
20
90.44861
30
0
11
237.806002
21
90.087959
31
0
0
LINE
8
VISIBLE
10
237.806002
20
90.087959
30
0
11
238.550927
21
87.705427
31
0
0
LINE
8
VISIBLE
10
259.033299
20
86.761875
30
0
11
259.994115
21
89.065828
31
0
0
LINE
8
VISIBLE
10
259.994115
20
89.065828
30
0
11
267.237986
21
88.732128
31
0
0
LINE
8
VISIBLE
10
267.237986
20
88.732128
30
0
11
266.541183
21
100.900959
31
0
0
LINE
8
VISIBLE
10
270.695304
20
104.179008
30
0
11
272.571981
21
103.615166
31
0
0
LINE
8
VISIBLE
10
272.082055
20
112.171147
30
0
11
270.282006
21
111.39677
31
0
0
LINE
8
VISIBLE
10
265.780854
20
114.179208
30
0
11
265.084019
21
126.348608
31
0
0
LINE
8
VISIBLE
10
265.084019
20
126.348608
30
0
11
258.336016
21
126.050366
31
0
0
LINE
8
VISIBLE
10
258.336016
20
126.050366
30
0
11
257.3795
21
128.356109
31
0
0
LINE
8
VISIBLE
10
236.895404
20
127.450772
30
0
11
236.146034
21
125.069634
31
0
0
LINE
8
VISIBLE
10
236.146034
20
125.069634
30
0
11
228.837836
21
124.746633
31
0
0
LINE
8
VISIBLE
10
267.238373
20
88.725377
30
0
11
274.517751
21
88.720352
31
0
0
LINE
8
VISIBLE
10
267.238373
20
88.725377
30
0
11
267.237986
21
88.732128
31
0
0
LINE
8
VISIBLE
10
274.517751
20
88.720352
30
0
11
275.369906
21
86.374035
31
0
0
LINE
8
VISIBLE
10
295.873995
20
86.359882
30
0
11
296.729389
21
88.70502
31
0
0
LINE
8
VISIBLE
10
296.729389
20
88.70502
30
0
11
304
21
88.700002
31
0
0
LINE
8
VISIBLE
10
304
20
88.700002
30
0
11
304
21
126.69975
31
0
0
LINE
8
VISIBLE
10
304
20
126.69975
30
0
11
295.703543
21
126.626156
31
0
0
LINE
8
VISIBLE
10
295.703543
20
126.626156
30
0
11
294.828994
21
128.964219
31
0
0
LINE
8
VISIBLE
10
274.325708
20
128.782344
30
0
11
273.492773
21
126.429134
31
0
0
LINE
8
VISIBLE
10
273.492773
20
126.429134
30
0
11
265.083679
21
126.354541
31
0
0
LINE
8
VISIBLE
10
265.083679
20
126.354541
30
0
11
265.084019
21
126.348608
31
0
0
LINE
8
VISIBLE
10
0
20
133.054018
30
0
11
8.552942
21
132.749695
31
0
0
LINE
8
VISIBLE
10
0
20
133.054018
30
0
11
0
21
171.05
31
0
0
LINE
8
VISIBLE
10
8.552942
20
132.749695
30
0
11
9.322766
21
130.375091
31
0
0
LINE
8
VISIBLE
10
29.813892
20
129.645992
30
0
11
30.750539
21
131.959878
31
0
0
LINE
8
VISIBLE
10
30.750539
20
131.959878
30
0
11
38.851973
21
131.671619
31
0
0
LINE
8
VISIBLE
10
38.851973
20
131.671619
30
0
11
39.117831
21
143.858828
31
0
0
LINE
8
VISIBLE
10
34.850333
20
146.98785
30
0
11
32.99478
21
146.357963
31
0
0
LINE
8
VISIBLE
10
33.181686
20
154.925922
30
0
11
35.008006
21
154.215716
31
0
0
LINE
8
VISIBLE
10
39.407896
20
157.155664
30
0
11
39.673841
21
169.346887
31
0
0
LINE
8
VISIBLE
10
39.673841
20
169.346887
30
0
11
26.480802
21
169.913236
31
0
0
LINE
8
VISIBLE
10
23.634297
20
174.374148
30
0
11
24.382859
21
176.185084
31
0
0
LINE
8
VISIBLE
10
15.820748
20
176.552637
30
0
11
16.411363
21
174.684213
31
0
0
LINE
8
VISIBLE
10
13.19304
20
170.483651
30
0
11
0
21
171.05
31
0
0
LINE
8
VISIBLE
10
38.85236
20
131.689351
30
0
11
45.542386
21
132.242991
31
0
0
LINE
8
VISIBLE
10
45.542386
20
132.242991
30
0
11
46.586715
21
129.975668
31
0
0
LINE
8
VISIBLE
10
67.020954
20
131.666725
30
0
11
67.678359
21
134.074876
31
0
0
LINE
8
VISIBLE
10
67.678359
20
134.074876
30
0
11
75.416371
21
134.715244
31
0
0
LINE
8
VISIBLE
10
75.416371
20
134.715244
30
0
11
75.461065
21
145.494042
31
0
0
LINE
8
VISIBLE
10
79.808338
20
148.51125
30
0
11
81.646918
21
147.833415
31
0
0
LINE
8
VISIBLE
10
81.682453
20
156.403338
30
0
11
79.838315
21
155.740773
31
0
0
LINE
8
VISIBLE
10
75.516212
20
158.793928
30
0
11
75.560996
21
169.594441
31
0
0
LINE
8
VISIBLE
10
75.560996
20
169.594441
30
0
11
64.267261
21
169.516535
31
0
0
LINE
8
VISIBLE
10
61.202225
20
173.830221
30
0
11
61.859713
21
175.676174
31
0
0
LINE
8
VISIBLE
10
53.28992
20
175.617059
30
0
11
53.972811
21
173.780351
31
0
0
LINE
8
VISIBLE
10
50.967577
20
169.424793
30
0
11
39.673841
21
169.346887
31
0
0
LINE
8
VISIBLE
10
75.416281
20
134.693529
30
0
11
88.567221
21
133.752031
31
0
0
LINE
8
VISIBLE
10
75.416281
20
134.693529
30
0
11
75.416371
21
134.715244
31
0
0
LINE
8
VISIBLE
10
91.285142
20
129.211631
30
0
11
90.485157
21
127.422816
31
0
0
LINE
8
VISIBLE
10
99.033275
20
126.810842
30
0
11
98.496271
21
128.695374
31
0
0
LINE
8
VISIBLE
10
101.833268
20
132.802293
30
0
11
114.984208
21
131.860794
31
0
0
LINE
8
VISIBLE
10
114.984208
20
131.860794
30
0
11
115.043795
21
145.229925
31
0
0
LINE
8
VISIBLE
10
110.722641
20
148.284422
30
0
11
108.878298
21
147.622431
31
0
0
LINE
8
VISIBLE
10
108.916495
20
156.192342
30
0
11
110.754864
21
155.513936
31
0
0
LINE
8
VISIBLE
10
115.103074
20
158.529793
30
0
11
115.162661
21
171.898924
31
0
0
LINE
8
VISIBLE
10
115.162661
20
171.898924
30
0
11
102.000598
21
171.133003
31
0
0
LINE
8
VISIBLE
10
98.718698
20
175.284082
30
0
11
99.2808
21
177.161281
31
0
0
LINE
8
VISIBLE
10
90.725277
20
176.663422
30
0
11
91.501322
21
174.864091
31
0
0
LINE
8
VISIBLE
10
88.723059
20
170.360362
30
0
11
75.560996
21
169.594441
31
0
0
LINE
8
VISIBLE
10
114.984208
20
131.860794
30
0
11
126.651057
21
132.059054
31
0
0
LINE
8
VISIBLE
10
129.759477
20
127.776525
30
0
11
129.120655
21
125.924029
31
0
0
LINE
8
VISIBLE
10
137.689414
20
126.069641
30
0
11
136.988019
21
127.899363
31
0
0
LINE
8
VISIBLE
10
139.949137
20
132.285033
30
0
11
151.615985
21
132.483292
31
0
0
LINE
8
VISIBLE
10
151.615985
20
132.483292
30
0
11
151.644378
21
145.072389
31
0
0
LINE
8
VISIBLE
10
147.31651
20
148.117364
30
0
11
145.473629
21
147.451314
31
0
0
LINE
8
VISIBLE
10
145.492957
20
156.021289
30
0
11
147.332815
21
155.346932
31
0
0
LINE
8
VISIBLE
10
151.674375
20
158.372355
30
0
11
151.702763
21
170.959362
31
0
0
LINE
8
VISIBLE
10
151.702763
20
170.959362
30
0
11
144.372021
21
171.147439
31
0
0
LINE
8
VISIBLE
10
144.372021
20
171.147439
30
0
11
143.578689
21
173.514293
31
0
0
LINE
8
VISIBLE
10
123.081341
20
174.040173
30
0
11
122.167684
21
171.717114
31
0
0
LINE
8
VISIBLE
10
122.167684
20
171.717114
30
0
11
115.162652
21
171.896835
31
0
0
LINE
8
VISIBLE
10
151.616018
20
132.497712
30
0
11
158.601699
21
132.968719
31
0
0
LINE
8
VISIBLE
10
158.601699
20
132.968719
30
0
11
159.611342
21
130.68574
31
0
0
LINE
8
VISIBLE
10
180.068986
20
132.065089
30
0
11
180.763026
21
134.462938
31
0
0
LINE
8
VISIBLE
10
180.763026
20
134.462938
30
0
11
188.604289
21
134.991633
31
0
0
LINE
8
VISIBLE
10
188.604289
20
134.991633
30
0
11
189.554546
21
146.505345
31
0
0
LINE
8
VISIBLE
10
185.484165
20
149.886811
30
0
11
183.593903
21
149.370336
31
0
0
LINE
8
VISIBLE
10
184.298811
20
157.911293
30
0
11
186.07882
21
157.0919
31
0
0
LINE
8
VISIBLE
10
190.648511
20
159.760278
30
0
11
191.599965
21
171.288488
31
0
0
LINE
8
VISIBLE
10
191.599965
20
171.288488
30
0
11
178.301143
21
171.179478
31
0
0
LINE
8
VISIBLE
10
175.230508
20
175.489179
30
0
11
175.885597
21
177.335985
31
0
0
LINE
8
VISIBLE
10
167.315888
20
177.265739
30
0
11
168.001165
21
175.42992
31
0
0
LINE
8
VISIBLE
10
165.00159
20
171.070461
30
0
11
151.702768
21
170.961451
31
0
0
LINE
8
VISIBLE
10
151.702768
20
170.961451
30
0
11
151.702763
21
170.959362
31
0
0
LINE
8
VISIBLE
10
188.605498
20
135.006275
30
0
11
198.274319
21
134.075233
31
0
0
LINE
8
VISIBLE
10
198.274319
20
134.075233
30
0
11
198.899326
21
131.658471
31
0
0
LINE
8
VISIBLE
10
219.309014
20
129.693157
30
0
11
220.383696
21
131.946251
31
0
0
LINE
8
VISIBLE
10
220.383696
20
131.946251
30
0
11
228.837268
21
131.13223
31
0
0
LINE
8
VISIBLE
10
228.837268
20
131.13223
30
0
11
228.673071
21
144.466651
31
0
0
LINE
8
VISIBLE
10
232.970095
20
147.555002
30
0
11
234.819582
21
146.907519
31
0
0
LINE
8
VISIBLE
10
234.71406
20
155.476867
30
0
11
232.881078
21
154.784039
31
0
0
LINE
8
VISIBLE
10
228.509309
20
157.765643
30
0
11
228.34475
21
171.129412
31
0
0
LINE
8
VISIBLE
10
228.34475
20
171.129412
30
0
11
221.050595
21
171.160979
31
0
0
LINE
8
VISIBLE
10
221.050595
20
171.160979
30
0
11
220.206979
21
173.51038
31
0
0
LINE
8
VISIBLE
10
199.703078
20
173.599112
30
0
11
198.83916
21
171.2571
31
0
0
LINE
8
VISIBLE
10
198.83916
20
171.2571
30
0
11
191.59996
21
171.288429
31
0
0
LINE
8
VISIBLE
10
228.83763
20
131.102823
30
0
11
240.317133
21
131.610183
31
0
0
LINE
8
VISIBLE
10
228.83763
20
131.102823
30
0
11
228.837268
21
131.13223
31
0
0
LINE
8
VISIBLE
10
243.540775
20
127.413702
30
0
11
242.952527
21
125.544531
31
0
0
LINE
8
VISIBLE
10
251.514166
20
125.92293
30
0
11
250.76331
21
127.732917
31
0
0
LINE
8
VISIBLE
10
253.604162
20
132.197431
30
0
11
265.083665
21
132.704791
31
0
0
LINE
8
VISIBLE
10
265.083665
20
132.704791
30
0
11
264.922678
21
145.773394
31
0
0
LINE
8
VISIBLE
10
260.550895
20
148.754978
30
0
11
258.717915
21
148.062141
31
0
0
LINE
8
VISIBLE
10
258.612353
20
156.631488
30
0
11
260.461843
21
155.984015
31
0
0
LINE
8
VISIBLE
10
264.758853
20
159.072385
30
0
11
264.597896
21
172.138519
31
0
0
LINE
8
VISIBLE
10
264.597896
20
172.138519
30
0
11
257.749915
21
171.947449
31
0
0
LINE
8
VISIBLE
10
257.749915
20
171.947449
30
0
11
256.831048
21
174.268453
31
0
0
LINE
8
VISIBLE
10
236.334931
20
173.69658
30
0
11
235.546912
21
171.327952
31
0
0
LINE
8
VISIBLE
10
235.546912
20
171.327952
30
0
11
228.34478
21
171.127002
31
0
0
LINE
8
VISIBLE
10
265.083665
20
132.704791
30
0
11
277.892094
21
132.818409
31
0
0
LINE
8
VISIBLE
10
280.965632
20
128.510777
30
0
11
280.311786
21
126.66353
31
0
0
LINE
8
VISIBLE
10
288.881445
20
126.739548
30
0
11
288.194933
21
128.574905
31
0
0
LINE
8
VISIBLE
10
291.191571
20
132.936382
30
0
11
304
21
133.05
31
0
0
LINE
8
VISIBLE
10
304
20
133.05
30
0
11
304
21
171.05
31
0
0
LINE
8
VISIBLE
10
304
20
171.05
30
0
11
290.946385
21
171.411436
31
0
0
LINE
8
VISIBLE
10
288.032317
20
175.828509
30
0
11
288.753232
21
177.650628
31
0
0
LINE
8
VISIBLE
10
280.186518
20
177.887828
30
0
11
280.805501
21
176.028609
31
0
0
LINE
8
VISIBLE
10
277.651481
20
171.779553
30
0
11
264.597866
21
172.140989
31
0
0
LINE
8
VISIBLE
10
264.597866
20
172.140989
30
0
11
264.597896
21
172.138519
31
0
0
LINE
8
VISIBLE
10
0
20
177.405848
30
0
11
9.013659
21
177.018911
31
0
0
LINE
8
VISIBLE
10
0
20
177.405848
30
0
11
0
21
215.4
31
0
0
LINE
8
VISIBLE
10
9.013659
20
177.018911
30
0
11
9.766044
21
174.638724
31
0
0
LINE
8
VISIBLE
10
30.251271
20
173.759338
30
0
11
31.204865
21
176.066291
31
0
0
LINE
8
VISIBLE
10
31.204865
20
176.066291
30
0
11
39.673749
21
175.70274
31
0
0
LINE
8
VISIBLE
10
39.673749
20
175.70274
30
0
11
39.469106
21
188.594216
31
0
0
LINE
8
VISIBLE
10
35.086751
20
191.560239
30
0
11
33.256246
21
190.860891
31
0
0
LINE
8
VISIBLE
10
33.120221
20
199.429808
30
0
11
34.972001
21
198.788914
31
0
0
LINE
8
VISIBLE
10
39.258004
20
201.89254
30
0
11
39.053268
21
214.789869
31
0
0
LINE
8
VISIBLE
10
39.053268
20
214.789869
30
0
11
26.175823
21
214.991054
31
0
0
LINE
8
VISIBLE
10
23.208699
20
219.372663
30
0
11
23.907587
21
221.203344
31
0
0
LINE
8
VISIBLE
10
15.338636
20
221.337217
30
0
11
15.979996
21
219.485598
31
0
0
LINE
8
VISIBLE
10
12.877446
20
215.198815
30
0
11
0
21
215.4
31
0
0
LINE
8
VISIBLE
10
39.673839
20
175.697039
30
0
11
46.468059
21
175.743906
31
0
0
LINE
8
VISIBLE
10
39.673839
20
175.697039
30
0
11
39.673749
21
175.70274
31
0
0
LINE
8
VISIBLE
10
46.468059
20
175.743906
30
0
11
47.337995
21
173.404122
31
0
0
LINE
8
VISIBLE
10
67.8416
20
173.545558
30
0
11
68.679174
21
175.89712
31
0
0
LINE
8
VISIBLE
10
68.679174
20
175.89712
30
0
11
75.561
21
175.944592
31
0
0
LINE
8
VISIBLE
10
75.561
20
175.944592
30
0
11
75.888027
21
188.730325
31
0
0
LINE
8
VISIBLE
10
71.632327
20
191.875375
30
0
11
69.774418
21
191.252471
31
0
0
LINE
8
VISIBLE
10
69.993545
20
199.819666
30
0
11
71.817181
21
199.102597
31
0
0
LINE
8
VISIBLE
10
76.228097
20
202.025977
30
0
11
76.555128
21
214.811861
31
0
0
LINE
8
VISIBLE
10
76.555128
20
214.811861
30
0
11
64.454197
21
214.804765
31
0
0
LINE
8
VISIBLE
10
61.416448
20
219.137709
30
0
11
62.085574
21
220.979476
31
0
0
LINE
8
VISIBLE
10
53.515579
20
220.974451
30
0
11
54.186864
21
219.133469
31
0
0
LINE
8
VISIBLE
10
51.154199
20
214.796965
30
0
11
39.053268
21
214.789869
31
0
0
LINE
8
VISIBLE
10
75.561271
20
175.955199
30
0
11
83.90587
21
176.440784
31
0
0
LINE
8
VISIBLE
10
83.90587
20
176.440784
30
0
11
84.894475
21
174.148616
31
0
0
LINE
8
VISIBLE
10
105.36394
20
175.339767
30
0
11
106.080002
21
177.731132
31
0
0
LINE
8
VISIBLE
10
106.080002
20
177.731132
30
0
11
115.162719
21
178.25967
31
0
0
LINE
8
VISIBLE
10
115.162719
20
178.25967
30
0
11
115.225991
21
189.954371
31
0
0
LINE
8
VISIBLE
10
110.907751
20
193.012986
30
0
11
109.062777
21
192.352753
31
0
0
LINE
8
VISIBLE
10
109.109143
20
200.922624
30
0
11
110.946865
21
200.242466
31
0
0
LINE
8
VISIBLE
10
115.297948
20
203.254177
30
0
11
115.361278
21
214.959624
31
0
0
LINE
8
VISIBLE
10
115.361278
20
214.959624
30
0
11
102.608155
21
214.911064
31
0
0
LINE
8
VISIBLE
10
99.556464
20
219.2342
30
0
11
100.219653
21
221.078113
31
0
0
LINE
8
VISIBLE
10
91.649719
20
221.045481
30
0
11
92.326931
21
219.206672
31
0
0
LINE
8
VISIBLE
10
89.308251
20
214.860421
30
0
11
76.555128
21
214.811861
31
0
0
LINE
8
VISIBLE
10
115.162661
20
178.248924
30
0
11
126.784902
21
177.950744
31
0
0
LINE
8
VISIBLE
10
115.162661
20
178.248924
30
0
11
115.162719
21
178.25967
31
0
0
LINE
8
VISIBLE
10
129.707936
20
173.539599
30
0
11
128.990724
21
171.716019
31
0
0
LINE
8
VISIBLE
10
137.557901
20
171.49622
30
0
11
136.935143
21
173.354178
31
0
0
LINE
8
VISIBLE
10
140.080527
20
177.609631
30
0
11
151.702768
21
177.311451
31
0
0
LINE
8
VISIBLE
10
151.702768
20
177.311451
30
0
11
151.895192
21
190.191188
31
0
0
LINE
8
VISIBLE
10
147.606292
20
193.290811
30
0
11
145.755111
21
192.648187
31
0
0
LINE
8
VISIBLE
10
145.883133
20
201.217227
30
0
11
147.71429
21
200.51959
31
0
0
LINE
8
VISIBLE
10
152.093872
20
203.489704
30
0
11
152.286296
21
216.369441
31
0
0
LINE
8
VISIBLE
10
152.286296
20
216.369441
30
0
11
140.468945
21
215.918249
31
0
0
LINE
8
VISIBLE
10
137.270566
20
220.134016
30
0
11
137.87003
21
221.99962
31
0
0
LINE
8
VISIBLE
10
129.306273
20
221.672651
30
0
11
130.046244
21
219.858188
31
0
0
LINE
8
VISIBLE
10
127.178629
20
215.410817
30
0
11
115.361278
21
214.959624
31
0
0
LINE
8
VISIBLE
10
151.702771
20
177.311665
30
0
11
160.493869
21
177.383725
31
0
0
LINE
8
VISIBLE
10
160.493869
20
177.383725
30
0
11
161.366843
21
175.045074
31
0
0
LINE
8
VISIBLE
10
181.870247
20
175.213141
30
0
11
182.704766
21
177.565788
31
0
0
LINE
8
VISIBLE
10
182.704766
20
177.565788
30
0
11
191.599947
21
177.638701
31
0
0
LINE
8
VISIBLE
10
191.599947
20
177.638701
30
0
11
190.557706
21
189.631651
31
0
0
LINE
8
VISIBLE
10
185.976475
20
192.280169
30
0
11
184.20004
21
191.453057
31
0
0
LINE
8
VISIBLE
10
183.458066
20
199.990874
30
0
11
185.350551
21
199.482608
31
0
0
LINE
8
VISIBLE
10
189.406217
20
202.881711
30
0
11
188.363958
21
214.874874
31
0
0
LINE
8
VISIBLE
10
188.363958
20
214.874874
30
0
11
176.969428
21
215.346908
31
0
0
LINE
8
VISIBLE
10
174.11624
20
219.803548
30
0
11
174.862088
21
221.615605
31
0
0
LINE
8
VISIBLE
10
166.299435
20
221.970324
30
0
11
166.89285
21
220.102787
31
0
0
LINE
8
VISIBLE
10
163.680826
20
215.897407
30
0
11
152.286296
21
216.369441
31
0
0
LINE
8
VISIBLE
10
191.599965
20
177.638488
30
0
11
203.32242
21
177.587758
31
0
0
LINE
8
VISIBLE
10
191.599965
20
177.638488
30
0
11
191.599947
21
177.638701
31
0
0
LINE
8
VISIBLE
10
206.33884
20
173.239939
30
0
11
205.660672
21
171.401482
31
0
0
LINE
8
VISIBLE
10
214.230588
20
171.364395
30
0
11
213.568358
21
173.208652
31
0
0
LINE
8
VISIBLE
10
216.622295
20
177.530202
30
0
11
228.344749
21
177.479472
31
0
0
LINE
8
VISIBLE
10
228.344749
20
177.479472
30
0
11
227.594736
21
189.99269
31
0
0
LINE
8
VISIBLE
10
223.086179
20
192.763112
30
0
11
221.288202
21
191.983937
31
0
0
LINE
8
VISIBLE
10
220.775456
20
200.538581
30
0
11
222.65363
21
199.979746
31
0
0
LINE
8
VISIBLE
10
226.798993
20
203.268864
30
0
11
226.049089
21
215.780246
31
0
0
LINE
8
VISIBLE
10
226.049089
20
215.780246
30
0
11
218.461896
21
215.597596
31
0
0
LINE
8
VISIBLE
10
218.461896
20
215.597596
30
0
11
217.551915
21
217.922096
31
0
0
LINE
8
VISIBLE
10
197.05376
20
217.428636
30
0
11
196.256686
21
215.063039
31
0
0
LINE
8
VISIBLE
10
196.256686
20
215.063039
30
0
11
188.364118
21
214.873038
31
0
0
LINE
8
VISIBLE
10
228.344749
20
177.479472
30
0
11
239.823895
21
177.799758
31
0
0
LINE
8
VISIBLE
10
242.978819
20
173.551373
30
0
11
242.360232
21
171.692022
31
0
0
LINE
8
VISIBLE
10
250.926895
20
171.931045
30
0
11
250.205593
21
173.753011
31
0
0
LINE
8
VISIBLE
10
253.118721
20
178.170703
30
0
11
264.597866
21
178.490989
31
0
0
LINE
8
VISIBLE
10
264.597866
20
178.490989
30
0
11
265.228479
21
191.08459
31
0
0
LINE
8
VISIBLE
10
269.709575
20
193.899213
30
0
11
271.515127
21
193.137756
31
0
0
LINE
8
VISIBLE
10
271.943725
20
201.697029
30
0
11
270.071137
21
201.119752
31
0
0
LINE
8
VISIBLE
10
265.893632
20
204.367947
30
0
11
266.52411
21
216.958848
31
0
0
LINE
8
VISIBLE
10
266.52411
20
216.958848
30
0
11
257.572684
21
216.698
31
0
0
LINE
8
VISIBLE
10
257.572684
20
216.698
30
0
11
256.650945
21
219.017864
31
0
0
LINE
8
VISIBLE
10
236.155552
20
218.420621
30
0
11
235.370466
21
216.051019
31
0
0
LINE
8
VISIBLE
10
235.370466
20
216.051019
30
0
11
226.049141
21
215.779392
31
0
0
LINE
8
VISIBLE
10
264.597988
20
178.493419
30
0
11
273.373121
21
178.250448
31
0
0
LINE
8
VISIBLE
10
273.373121
20
178.250448
30
0
11
274.161644
21
175.881988
31
0
0
LINE
8
VISIBLE
10
294.657882
20
175.314477
30
0
11
295.576255
21
177.635675
31
0
0
LINE
8
VISIBLE
10
295.576255
20
177.635675
30
0
11
304
21
177.402434
31
0
0
LINE
8
VISIBLE
10
304
20
177.402434
30
0
11
304
21
215.39449
31
0
0
LINE
8
VISIBLE
10
304
20
215.39449
30
0
11
296.093952
21
215.723921
31
0
0
LINE
8
VISIBLE
10
296.093952
20
215.723921
30
0
11
295.338574
21
218.10316
31
0
0
LINE
8
VISIBLE
10
274.852258
20
218.956788
30
0
11
273.901566
21
216.648637
31
0
0
LINE
8
VISIBLE
10
273.901566
20
216.648637
30
0
11
266.52397
21
216.956049
31
0
0
LINE
8
VISIBLE
10
0
20
221.750775
30
0
11
8.521362
21
221.617645
31
0
0
LINE
8
VISIBLE
10
0
20
221.750775
30
0
11
0
21
259.75
31
0
0
LINE
8
VISIBLE
10
8.521362
20
221.617645
30
0
11
9.33839
21
219.258866
31
0
0
LINE
8
VISIBLE
10
29.839981
20
218.938569
30
0
11
30.730295
21
221.270674
31
0
0
LINE
8
VISIBLE
10
30.730295
20
221.270674
30
0
11
39.053247
21
221.140644
31
0
0
LINE
8
VISIBLE
10
39.053247
20
221.140644
30
0
11
38.707976
21
233.797407
31
0
0
LINE
8
VISIBLE
10
42.958321
20
236.949691
30
0
11
44.817286
21
236.329948
31
0
0
LINE
8
VISIBLE
10
44.583587
20
244.896758
30
0
11
42.761174
21
244.176589
31
0
0
LINE
8
VISIBLE
10
38.345292
20
247.092461
30
0
11
38
21
259.75
31
0
0
LINE
8
VISIBLE
10
38
20
259.75
30
0
11
0
21
259.75
31
0
0
LINE
8
VISIBLE
10
39.053268
20
221.13987
30
0
11
46.694654
21
221.144351
31
0
0
LINE
8
VISIBLE
10
39.053268
20
221.13987
30
0
11
39.053247
21
221.140644
31
0
0
LINE
8
VISIBLE
10
46.694654
20
221.144351
30
0
11
47.549805
21
218.799124
31
0
0
LINE
8
VISIBLE
10
68.053895
20
218.811148
30
0
11
68.906294
21
221.157376
31
0
0
LINE
8
VISIBLE
10
68.906294
20
221.157376
30
0
11
76.555128
21
221.161862
31
0
0
LINE
8
VISIBLE
10
76.555128
20
221.161862
30
0
11
76.373221
21
233.806618
31
0
0
LINE
8
VISIBLE
10
71.995284
20
236.779159
30
0
11
70.163741
21
236.082535
31
0
0
LINE
8
VISIBLE
10
70.040466
20
244.651645
30
0
11
71.89129
21
244.007997
31
0
0
LINE
8
VISIBLE
10
76.181907
20
247.105242
30
0
11
76
21
259.75
31
0
0
LINE
8
VISIBLE
10
76
20
259.75
30
0
11
38
21
259.75
31
0
0
LINE
8
VISIBLE
10
76.555127
20
221.161907
30
0
11
84.828283
21
221.193409
31
0
0
LINE
8
VISIBLE
10
84.828283
20
221.193409
30
0
11
85.690984
21
218.850948
31
0
0
LINE
8
VISIBLE
10
106.194928
20
218.929022
30
0
11
107.039765
21
221.277984
31
0
0
LINE
8
VISIBLE
10
107.039765
20
221.277984
30
0
11
115.361276
21
221.30967
31
0
0
LINE
8
VISIBLE
10
115.361276
20
221.30967
30
0
11
114.915986
21
233.883978
31
0
0
LINE
8
VISIBLE
10
110.476559
20
236.763876
30
0
11
108.660057
21
236.028923
31
0
0
LINE
8
VISIBLE
10
108.35676
20
244.593551
30
0
11
110.2207
21
243.988932
31
0
0
LINE
8
VISIBLE
10
114.445292
20
247.175646
30
0
11
114
21
259.75
31
0
0
LINE
8
VISIBLE
10
114
20
259.75
30
0
11
76
21
259.75
31
0
0
LINE
8
VISIBLE
10
115.361114
20
221.314245
30
0
11
122.483781
21
221.586192
31
0
0
LINE
8
VISIBLE
10
122.483781
20
221.586192
30
0
11
123.426431
21
219.274745
31
0
0
LINE
8
VISIBLE
10
143.915595
20
220.057033
30
0
11
144.679253
21
222.433627
31
0
0
LINE
8
VISIBLE
10
144.679253
20
222.433627
30
0
11
152.286261
21
222.724067
31
0
0
LINE
8
VISIBLE
10
152.286261
20
222.724067
30
0
11
152.19456
21
234.584919
31
0
0
LINE
8
VISIBLE
10
156.50569
20
237.653548
30
0
11
158.352191
21
236.997599
31
0
0
LINE
8
VISIBLE
10
158.285935
20
245.567339
30
0
11
156.449797
21
244.882918
31
0
0
LINE
8
VISIBLE
10
152.091736
20
247.884522
30
0
11
152
21
259.75
31
0
0
LINE
8
VISIBLE
10
152
20
259.75
30
0
11
114
21
259.75
31
0
0
LINE
8
VISIBLE
10
152.286254
20
222.72489
30
0
11
159.491655
21
222.426396
31
0
0
LINE
8
VISIBLE
10
159.491655
20
222.426396
30
0
11
160.247607
21
220.047339
31
0
0
LINE
8
VISIBLE
10
180.734128
20
219.198656
30
0
11
181.684264
21
221.507036
31
0
0
LINE
8
VISIBLE
10
181.684264
20
221.507036
30
0
11
188.364189
21
221.230311
31
0
0
LINE
8
VISIBLE
10
188.364189
20
221.230311
30
0
11
188.899829
21
233.843425
31
0
0
LINE
8
VISIBLE
10
193.35943
20
236.691983
30
0
11
195.17071
21
235.944254
31
0
0
LINE
8
VISIBLE
10
195.534324
20
244.506533
30
0
11
193.666171
21
243.915058
31
0
0
LINE
8
VISIBLE
10
189.46413
20
247.131449
30
0
11
190
21
259.75
31
0
0
LINE
8
VISIBLE
10
190
20
259.75
30
0
11
152
21
259.75
31
0
0
LINE
8
VISIBLE
10
188.363958
20
221.224874
30
0
11
200.558395
21
221.518436
31
0
0
LINE
8
VISIBLE
10
188.363958
20
221.224874
30
0
11
188.364189
21
221.230311
31
0
0
LINE
8
VISIBLE
10
203.697045
20
217.258013
30
0
11
203.071349
21
215.401043
31
0
0
LINE
8
VISIBLE
10
211.638863
20
215.607292
30
0
11
210.924536
21
217.432004
31
0
0
LINE
8
VISIBLE
10
213.854543
20
221.83852
30
0
11
226.048979
21
222.132083
31
0
0
LINE
8
VISIBLE
10
226.048979
20
222.132083
30
0
11
226.680056
21
234.299967
31
0
0
LINE
8
VISIBLE
10
231.16617
20
237.106585
30
0
11
232.97036
21
236.341906
31
0
0
LINE
8
VISIBLE
10
233.414239
20
244.9004
30
0
11
231.540623
21
244.326467
31
0
0
LINE
8
VISIBLE
10
227.368923
20
247.582115
30
0
11
228
21
259.75
31
0
0
LINE
8
VISIBLE
10
228
20
259.75
30
0
11
190
21
259.75
31
0
0
LINE
8
VISIBLE
10
226.048979
20
222.132083
30
0
11
239.639434
21
222.528114
31
0
0
LINE
8
VISIBLE
10
242.799615
20
218.283637
30
0
11
242.183329
21
216.423522
31
0
0
LINE
8
VISIBLE
10
250.74969
20
216.673149
30
0
11
250.026133
21
218.494221
31
0
0
LINE
8
VISIBLE
10
252.93379
20
222.915516
30
0
11
266.524245
21
223.311547
31
0
0
LINE
8
VISIBLE
10
266.524245
20
223.311547
30
0
11
266.357787
21
234.881462
31
0
0
LINE
8
VISIBLE
10
261.979847
20
237.853997
30
0
11
260.148304
21
237.157372
31
0
0
LINE
8
VISIBLE
10
260.025019
20
245.726481
30
0
11
261.875845
21
245.082835
31
0
0
LINE
8
VISIBLE
10
266.166458
20
248.180085
30
0
11
266
21
259.75
31
0
0
LINE
8
VISIBLE
10
266
20
259.75
30
0
11
228
21
259.75
31
0
0
LINE
8
VISIBLE
10
266.524245
20
223.311547
30
0
11
278.617888
21
222.807627
31
0
0
LINE
8
VISIBLE
10
281.47
20
218.350298
30
0
11
280.723715
21
216.538422
31
0
0
LINE
8
VISIBLE
10
289.286282
20
216.181635
30
0
11
288.693318
21
218.049315
31
0
0
LINE
8
VISIBLE
10
291.906357
20
222.25392
30
0
11
304
21
221.75
31
0
0
LINE
8
VISIBLE
10
304
20
221.75
30
0
11
304
21
259.75
31
0
0
LINE
8
VISIBLE
10
304
20
259.75
30
0
11
266
21
259.75
31
0
0
LINE
8
VISIBLE
10
-6
20
-6
30
0
11
310
21
-6
31
0
0
LINE
8
VISIBLE
10
-6
20
-6
30
0
11
-6
21
265.75
31
0
0
LINE
8
VISIBLE
10
310
20
-6
30
0
11
310
21
265.75
31
0
0
LINE
8
VISIBLE
10
310
20
265.75
30
0
11
-6
21
265.75
31
0
0
LINE
8
VISIBLE
10
-0.15
20
-0.15
30
0
11
-0.15
21
38.143674
31
0
0
LINE
8
VISIBLE
10
-0.15
20
-0.15
30
0
11
38.14869
21
-0.15
31
0
0
LINE
8
VISIBLE
10
-0.15
20
38.143674
30
0
11
12.52363
21
38.689903
31
0
0
LINE
8
VISIBLE
10
15.237215
20
42.944116
30
0
11
14.488342
21
44.754924
31
0
0
LINE
8
VISIBLE
10
23.332036
20
45.136084
30
0
11
22.741741
21
43.267558
31
0
0
LINE
8
VISIBLE
10
25.811294
20
39.262595
30
0
11
38.199096
21
39.796505
31
0
0
LINE
8
VISIBLE
10
38.499221
20
39.80944
30
0
11
38.343829
21
39.802743
31
0
0
LINE
8
VISIBLE
10
38.499221
20
39.80944
30
0
11
38.499166
21
39.803164
31
0
0
LINE
8
VISIBLE
10
38.14869
20
-0.15
30
0
11
76.152861
21
-0.15
31
0
0
LINE
8
VISIBLE
10
38.199096
20
39.796505
30
0
11
38.199148
21
39.80235
31
0
0
LINE
8
VISIBLE
10
38.199148
20
39.80235
30
0
11
38.343829
21
39.802743
31
0
0
LINE
8
VISIBLE
10
38.499166
20
39.803164
30
0
11
45.611197
21
39.822445
31
0
0
LINE
8
VISIBLE
10
45.611197
20
39.822445
30
0
11
46.557181
21
42.020746
31
0
0
LINE
8
VISIBLE
10
67.061198
20
42.076333
30
0
11
68.025954
21
39.883212
31
0
0
LINE
8
VISIBLE
10
68.025954
20
39.883212
30
0
11
75.095973
21
39.902379
31
0
0
LINE
8
VISIBLE
10
75.396012
20
39.903193
30
0
11
75.251976
21
39.902802
31
0
0
LINE
8
VISIBLE
10
75.396012
20
39.903193
30
0
11
75.396119
21
39.897489
31
0
0
LINE
8
VISIBLE
10
76.152861
20
-0.15
30
0
11
114.156574
21
-0.15
31
0
0
LINE
8
VISIBLE
10
75.095973
20
39.902379
30
0
11
75.095857
21
39.908557
31
0
0
LINE
8
VISIBLE
10
75.095857
20
39.908557
30
0
11
75.251976
21
39.902802
31
0
0
LINE
8
VISIBLE
10
75.396119
20
39.897489
30
0
11
87.160908
21
39.463842
31
0
0
LINE
8
VISIBLE
10
90.205451
20
43.48785
30
0
11
89.603527
21
45.352662
31
0
0
LINE
8
VISIBLE
10
98.449424
20
45.026604
30
0
11
97.711847
21
43.211166
31
0
0
LINE
8
VISIBLE
10
100.451882
20
38.97394
30
0
11
112.355808
21
38.535164
31
0
0
LINE
8
VISIBLE
10
114.156574
20
-0.15
30
0
11
152.153794
21
-0.15
31
0
0
LINE
8
VISIBLE
10
112.355808
20
38.535164
30
0
11
125.048109
21
38.513054
31
0
0
LINE
8
VISIBLE
10
127.949559
20
42.641428
30
0
11
127.282562
21
44.483967
31
0
0
LINE
8
VISIBLE
10
136.134453
20
44.468547
30
0
11
135.461041
21
42.628343
31
0
0
LINE
8
VISIBLE
10
138.348089
20
38.489885
30
0
11
151.103621
21
38.467665
31
0
0
LINE
8
VISIBLE
10
152.153794
20
-0.15
30
0
11
190.145631
21
-0.15
31
0
0
LINE
8
VISIBLE
10
151.103621
20
38.467665
30
0
11
160.030547
21
38.65728
31
0
0
LINE
8
VISIBLE
10
160.030547
20
38.65728
30
0
11
160.935643
21
40.872729
31
0
0
LINE
8
VISIBLE
10
181.435112
20
41.308156
30
0
11
182.440331
21
39.133284
31
0
0
LINE
8
VISIBLE
10
182.440331
20
39.133284
30
0
11
191.012158
21
39.315357
31
0
0
LINE
8
VISIBLE
10
191.312478
20
39.321736
30
0
11
191.201626
21
39.319381
31
0
0
LINE
8
VISIBLE
10
191.312478
20
39.321736
30
0
11
191.312373
21
39.318167
31
0
0
LINE
8
VISIBLE
10
190.145631
20
-0.15
30
0
11
228.154508
21
-0.15
31
0
0
LINE
8
VISIBLE
10
191.012158
20
39.315357
30
0
11
191.012339
21
39.321457
31
0
0
LINE
8
VISIBLE
10
191.012339
20
39.321457
30
0
11
191.201626
21
39.319381
31
0
0
LINE
8
VISIBLE
10
191.312373
20
39.318167
30
0
11
202.356734
21
39.197064
31
0
0
LINE
8
VISIBLE
10
205.296134
20
43.298503
30
0
11
204.646159
21
45.147116
31
0
0
LINE
8
VISIBLE
10
213.497531
20
45.050059
30
0
11
212.807176
21
43.216144
31
0
0
LINE
8
VISIBLE
10
215.655935
20
39.051236
30
0
11
226.696898
21
38.930171
31
0
0
LINE
8
VISIBLE
10
226.997127
20
38.926879
30
0
11
226.6974
21
38.930165
31
0
0
LINE
8
VISIBLE
10
226.997127
20
38.926879
30
0
11
226.997325
21
38.920205
31
0
0
LINE
8
VISIBLE
10
228.154508
20
-0.15
30
0
11
266.144533
21
-0.15
31
0
0
LINE
8
VISIBLE
10
226.696898
20
38.930171
30
0
11
226.6974
21
38.930165
31
0
0
LINE
8
VISIBLE
10
226.997325
20
38.920205
30
0
11
235.717186
21
38.630636
31
0
0
LINE
8
VISIBLE
10
235.717186
20
38.630636
30
0
11
236.741477
21
40.79356
31
0
0
LINE
8
VISIBLE
10
257.234273
20
40.113035
30
0
11
258.119676
21
37.886694
31
0
0
LINE
8
VISIBLE
10
258.119676
20
37.886694
30
0
11
267.335242
21
37.580663
31
0
0
LINE
8
VISIBLE
10
266.144533
20
-0.15
30
0
11
304.15
21
-0.15
31
0
0
LINE
8
VISIBLE
10
267.335242
20
37.580663
30
0
11
274.588545
21
37.693146
31
0
0
LINE
8
VISIBLE
10
274.588545
20
37.693146
30
0
11
275.506323
21
39.903371
31
0
0
LINE
8
VISIBLE
10
296.007951
20
40.221307
30
0
11
297.000689
21
38.04071
31
0
0
LINE
8
VISIBLE
10
297.000689
20
38.04071
30
0
11
304.15
21
38.151581
31
0
0
LINE
8
VISIBLE
10
304.15
20
38.151581
30
0
11
304.15
21
-0.15
31
0
0
LINE
8
VISIBLE
10
-0.15
20
44.199291
30
0
11
-0.15
21
82.50531
31
0
0
LINE
8
VISIBLE
10
-0.15
20
44.199291
30
0
11
7.706496
21
44.537903
31
0
0
LINE
8
VISIBLE
10
-0.15
20
82.50531
30
0
11
11.425847
21
82.102515
31
0
0
LINE
8
VISIBLE
10
14.46209
20
86.132789
30
0
11
13.856324
21
87.996357
31
0
0
LINE
8
VISIBLE
10
22.702874
20
87.688531
30
0
11
21.96904
21
85.871576
31
0
0
LINE
8
VISIBLE
10
24.717803
20
81.640006
30
0
11
36.130778
21
81.242879
31
0
0
LINE
8
VISIBLE
10
30.100546
20
45.503077
30
0
11
29.244036
21
43.268395
31
0
0
LINE
8
VISIBLE
10
30.100546
20
45.503077
30
0
11
38.207034
21
45.852394
31
0
0
LINE
8
VISIBLE
10
8.75896
20
42.385497
30
0
11
7.706496
21
44.537903
31
0
0
LINE
8
VISIBLE
10
36.130778
20
81.242879
30
0
11
49.536708
21
82.14594
31
0
0
LINE
8
VISIBLE
10
52.146607
20
86.46454
30
0
11
51.354157
21
88.256706
31
0
0
LINE
8
VISIBLE
10
60.186046
20
88.851647
30
0
11
59.641116
21
86.969391
31
0
0
LINE
8
VISIBLE
10
62.806634
20
83.03984
30
0
11
76.083895
21
83.934233
31
0
0
LINE
8
VISIBLE
10
76.384524
20
83.954485
30
0
11
76.225661
21
83.943783
31
0
0
LINE
8
VISIBLE
10
76.384524
20
83.954485
30
0
11
76.384222
21
83.942894
31
0
0
LINE
8
VISIBLE
10
63.448716
20
45.920825
30
0
11
75.355241
21
45.953105
31
0
0
LINE
8
VISIBLE
10
60.565679
20
41.779572
30
0
11
61.240874
21
39.940021
31
0
0
LINE
8
VISIBLE
10
52.389002
20
39.916023
30
0
11
53.054213
21
41.759208
31
0
0
LINE
8
VISIBLE
10
50.148765
20
45.884769
30
0
11
38.207034
21
45.852394
31
0
0
LINE
8
VISIBLE
10
76.083895
20
83.934233
30
0
11
76.084164
21
83.944576
31
0
0
LINE
8
VISIBLE
10
76.084164
20
83.944576
30
0
11
76.225661
21
83.943783
31
0
0
LINE
8
VISIBLE
10
76.384222
20
83.942894
30
0
11
88.314399
21
83.876023
31
0
0
LINE
8
VISIBLE
10
91.231776
20
87.993157
30
0
11
90.571902
21
89.83826
31
0
0
LINE
8
VISIBLE
10
99.423667
20
89.788643
30
0
11
98.743151
21
87.951054
31
0
0
LINE
8
VISIBLE
10
101.614191
20
83.801475
30
0
11
113.851869
21
83.732879
31
0
0
LINE
8
VISIBLE
10
113.851869
20
83.732879
30
0
11
113.851312
21
83.716791
31
0
0
LINE
8
VISIBLE
10
112.497776
20
44.58404
30
0
11
112.497807
21
44.584926
31
0
0
LINE
8
VISIBLE
10
112.497776
20
44.58404
30
0
11
112.472538
21
44.58497
31
0
0
LINE
8
VISIBLE
10
105.225628
20
44.85209
30
0
11
104.193455
21
42.692916
31
0
0
LINE
8
VISIBLE
10
105.225628
20
44.85209
30
0
11
112.197979
21
44.59509
31
0
0
LINE
8
VISIBLE
10
83.703277
20
43.448179
30
0
11
82.826
21
45.677734
31
0
0
LINE
8
VISIBLE
10
82.826
20
45.677734
30
0
11
75.355241
21
45.953105
31
0
0
LINE
8
VISIBLE
10
113.851312
20
83.716791
30
0
11
120.687602
21
83.35367
31
0
0
LINE
8
VISIBLE
10
120.687602
20
83.35367
30
0
11
121.754667
21
85.495815
31
0
0
LINE
8
VISIBLE
10
142.229896
20
84.408241
30
0
11
143.070887
21
82.164747
31
0
0
LINE
8
VISIBLE
10
143.070887
20
82.164747
30
0
11
150.756451
21
81.756517
31
0
0
LINE
8
VISIBLE
10
151.194111
20
44.517516
30
0
11
151.19408
21
44.520951
31
0
0
LINE
8
VISIBLE
10
151.194111
20
44.517516
30
0
11
151.044644
21
44.517777
31
0
0
LINE
8
VISIBLE
10
142.912608
20
44.531943
30
0
11
141.956845
21
42.337876
31
0
0
LINE
8
VISIBLE
10
142.912608
20
44.531943
30
0
11
150.894094
21
44.518039
31
0
0
LINE
8
VISIBLE
10
121.452783
20
42.373595
30
0
11
120.497803
21
44.57099
31
0
0
LINE
8
VISIBLE
10
120.497803
20
44.57099
30
0
11
112.497807
21
44.584926
31
0
0
LINE
8
VISIBLE
10
112.472538
20
44.58497
30
0
11
112.197645
21
44.585449
31
0
0
LINE
8
VISIBLE
10
112.197645
20
44.585449
30
0
11
112.197979
21
44.59509
31
0
0
LINE
8
VISIBLE
10
150.756451
20
81.756517
30
0
11
159.034869
21
82.313208
31
0
0
LINE
8
VISIBLE
10
159.034869
20
82.313208
30
0
11
159.837343
21
84.567858
31
0
0
LINE
8
VISIBLE
10
180.295232
20
85.943571
30
0
11
181.3992
21
83.817122
31
0
0
LINE
8
VISIBLE
10
181.3992
20
83.817122
30
0
11
188.724877
21
84.309745
31
0
0
LINE
8
VISIBLE
10
177.752028
20
45.085065
30
0
11
191.170546
21
45.370086
31
0
0
LINE
8
VISIBLE
10
174.946205
20
40.891112
30
0
11
175.655363
21
39.064385
31
0
0
LINE
8
VISIBLE
10
166.805455
20
38.876406
30
0
11
167.436406
21
40.731597
31
0
0
LINE
8
VISIBLE
10
164.455028
20
44.802625
30
0
11
151.19408
21
44.520951
31
0
0
LINE
8
VISIBLE
10
151.044644
20
44.517777
30
0
11
150.894125
21
44.514579
31
0
0
LINE
8
VISIBLE
10
150.894125
20
44.514579
30
0
11
150.894094
21
44.518039
31
0
0
LINE
8
VISIBLE
10
188.724877
20
84.309745
30
0
11
188.723409
21
84.33469
31
0
0
LINE
8
VISIBLE
10
188.723409
20
84.33469
30
0
11
198.212006
21
84.313337
31
0
0
LINE
8
VISIBLE
10
198.212006
20
84.313337
30
0
11
199.168885
21
86.506917
31
0
0
LINE
8
VISIBLE
10
219.672926
20
86.460773
30
0
11
220.626788
21
84.262893
31
0
0
LINE
8
VISIBLE
10
220.626788
20
84.262893
30
0
11
229.838893
21
84.242161
31
0
0
LINE
8
VISIBLE
10
230.139802
20
84.241484
30
0
11
229.981306
21
84.241841
31
0
0
LINE
8
VISIBLE
10
230.139802
20
84.241484
30
0
11
230.139247
21
84.234565
31
0
0
LINE
8
VISIBLE
10
220.275982
20
45.050941
30
0
11
219.300025
21
42.865782
31
0
0
LINE
8
VISIBLE
10
220.275982
20
45.050941
30
0
11
226.830983
21
44.979064
31
0
0
LINE
8
VISIBLE
10
198.797164
20
43.090598
30
0
11
197.86249
21
45.296708
31
0
0
LINE
8
VISIBLE
10
197.86249
20
45.296708
30
0
11
191.170546
21
45.370086
31
0
0
LINE
8
VISIBLE
10
229.838893
20
84.242161
30
0
11
229.839392
21
84.248378
31
0
0
LINE
8
VISIBLE
10
229.839392
20
84.248378
30
0
11
229.981306
21
84.241841
31
0
0
LINE
8
VISIBLE
10
230.139247
20
84.234565
30
0
11
241.971793
21
83.68948
31
0
0
LINE
8
VISIBLE
10
245.053191
20
87.685336
30
0
11
244.468431
21
89.555601
31
0
0
LINE
8
VISIBLE
10
253.310958
20
89.148256
30
0
11
252.556727
21
87.339674
31
0
0
LINE
8
VISIBLE
10
255.257703
20
83.077443
30
0
11
267.241878
21
82.525373
31
0
0
LINE
8
VISIBLE
10
267.540705
20
43.627175
30
0
11
267.540676
21
43.634576
31
0
0
LINE
8
VISIBLE
10
267.540705
20
43.627175
30
0
11
267.388767
21
43.632221
31
0
0
LINE
8
VISIBLE
10
253.762133
20
44.084734
30
0
11
267.240664
21
43.637139
31
0
0
LINE
8
VISIBLE
10
250.732288
20
40.049649
30
0
11
251.341009
21
38.187045
31
0
0
LINE
8
VISIBLE
10
242.493981
20
38.480837
30
0
11
243.224932
21
40.298953
31
0
0
LINE
8
VISIBLE
10
240.469461
20
44.526157
30
0
11
226.830983
21
44.979064
31
0
0
LINE
8
VISIBLE
10
267.241878
20
82.525373
30
0
11
278.969292
21
82.517278
31
0
0
LINE
8
VISIBLE
10
281.866397
20
86.648701
30
0
11
281.197463
21
88.490538
31
0
0
LINE
8
VISIBLE
10
290.049365
20
88.484428
30
0
11
289.377889
21
86.643516
31
0
0
LINE
8
VISIBLE
10
292.269288
20
82.508097
30
0
11
304.15
21
82.499896
31
0
0
LINE
8
VISIBLE
10
304.15
20
82.499896
30
0
11
304.15
21
44.202308
31
0
0
LINE
8
VISIBLE
10
304.15
20
44.202308
30
0
11
292.346574
21
44.019262
31
0
0
LINE
8
VISIBLE
10
289.516761
20
39.841459
30
0
11
290.215438
21
38.010698
31
0
0
LINE
8
VISIBLE
10
281.364598
20
37.873441
30
0
11
282.006171
21
39.724986
31
0
0
LINE
8
VISIBLE
10
279.048173
20
43.813033
30
0
11
267.540676
21
43.634576
31
0
0
LINE
8
VISIBLE
10
267.388767
20
43.632221
30
0
11
267.240692
21
43.629924
31
0
0
LINE
8
VISIBLE
10
267.240692
20
43.629924
30
0
11
267.240664
21
43.637139
31
0
0
LINE
8
VISIBLE
10
-0.15
20
88.558972
30
0
11
-0.15
21
126.855432
31
0
0
LINE
8
VISIBLE
10
-0.15
20
88.558972
30
0
11
7.078142
21
88.30746
31
0
0
LINE
8
VISIBLE
10
-0.15
20
126.855432
30
0
11
12.785482
21
126.395172
31
0
0
LINE
8
VISIBLE
10
15.824884
20
130.423065
30
0
11
15.220579
21
132.287106
31
0
0
LINE
8
VISIBLE
10
24.066886
20
131.972344
30
0
11
23.331627
21
130.155966
31
0
0
LINE
8
VISIBLE
10
26.077071
20
125.922242
30
0
11
38.848354
21
125.467825
31
0
0
LINE
8
VISIBLE
10
36.272757
20
87.2916
30
0
11
36.274528
21
87.316273
31
0
0
LINE
8
VISIBLE
10
36.272757
20
87.2916
30
0
11
36.032405
21
87.299963
31
0
0
LINE
8
VISIBLE
10
29.479424
20
87.527982
30
0
11
28.451703
21
85.366685
31
0
0
LINE
8
VISIBLE
10
29.479424
20
87.527982
30
0
11
35.972734
21
87.302039
31
0
0
LINE
8
VISIBLE
10
7.960012
20
86.079717
30
0
11
7.078142
21
88.30746
31
0
0
LINE
8
VISIBLE
10
38.848354
20
125.467825
30
0
11
50.494367
21
126.431603
31
0
0
LINE
8
VISIBLE
10
53.03786
20
130.789644
30
0
11
52.218072
21
132.569471
31
0
0
LINE
8
VISIBLE
10
61.03982
20
133.299524
30
0
11
60.523764
21
131.409148
31
0
0
LINE
8
VISIBLE
10
63.749057
20
127.528509
30
0
11
75.26331
21
128.481383
31
0
0
LINE
8
VISIBLE
10
75.56285
20
128.506171
30
0
11
75.31015
21
128.485259
31
0
0
LINE
8
VISIBLE
10
75.56285
20
128.506171
30
0
11
75.563682
21
128.467108
31
0
0
LINE
8
VISIBLE
10
66.9437
20
89.382235
30
0
11
66.141488
21
87.127491
31
0
0
LINE
8
VISIBLE
10
66.9437
20
89.382235
30
0
11
76.083362
21
89.997909
31
0
0
LINE
8
VISIBLE
10
45.683759
20
85.749401
30
0
11
44.579544
21
87.875723
31
0
0
LINE
8
VISIBLE
10
44.579544
20
87.875723
30
0
11
36.274528
21
87.316273
31
0
0
LINE
8
VISIBLE
10
36.032405
20
87.299963
30
0
11
35.972295
21
87.295914
31
0
0
LINE
8
VISIBLE
10
35.972295
20
87.295914
30
0
11
35.972734
21
87.302039
31
0
0
LINE
8
VISIBLE
10
75.26331
20
128.481383
30
0
11
75.263155
21
128.488623
31
0
0
LINE
8
VISIBLE
10
75.263155
20
128.488623
30
0
11
75.31015
21
128.485259
31
0
0
LINE
8
VISIBLE
10
75.563682
20
128.467108
30
0
11
83.582125
21
127.893054
31
0
0
LINE
8
VISIBLE
10
83.582125
20
127.893054
30
0
11
84.68843
21
130.0152
31
0
0
LINE
8
VISIBLE
10
105.140178
20
128.551025
30
0
11
105.939742
21
126.292435
31
0
0
LINE
8
VISIBLE
10
105.939742
20
126.292435
30
0
11
114.83934
21
125.655298
31
0
0
LINE
8
VISIBLE
10
106.202017
20
89.825854
30
0
11
105.237784
21
87.635496
31
0
0
LINE
8
VISIBLE
10
106.202017
20
89.825854
30
0
11
113.69012
21
89.783881
31
0
0
LINE
8
VISIBLE
10
84.734013
20
87.750424
30
0
11
83.787529
21
89.951492
31
0
0
LINE
8
VISIBLE
10
83.787529
20
89.951492
30
0
11
76.083431
21
89.994675
31
0
0
LINE
8
VISIBLE
10
76.083431
20
89.994675
30
0
11
76.083362
21
89.997909
31
0
0
LINE
8
VISIBLE
10
114.83934
20
125.655298
30
0
11
114.839417
21
125.657439
31
0
0
LINE
8
VISIBLE
10
114.839417
20
125.657439
30
0
11
122.203072
21
125.782572
31
0
0
LINE
8
VISIBLE
10
122.203072
20
125.782572
30
0
11
123.117567
21
127.994158
31
0
0
LINE
8
VISIBLE
10
143.6187
20
128.342542
30
0
11
144.614675
21
126.163421
31
0
0
LINE
8
VISIBLE
10
144.614675
20
126.163421
30
0
11
151.591483
21
126.281981
31
0
0
LINE
8
VISIBLE
10
150.859033
20
87.809596
30
0
11
150.859447
21
87.827106
31
0
0
LINE
8
VISIBLE
10
150.859033
20
87.809596
30
0
11
150.713787
21
87.817311
31
0
0
LINE
8
VISIBLE
10
138.837358
20
88.448146
30
0
11
150.559325
21
87.825516
31
0
0
LINE
8
VISIBLE
10
135.727935
20
84.474059
30
0
11
136.299527
21
82.599728
31
0
0
LINE
8
VISIBLE
10
127.460083
20
83.069249
30
0
11
128.227015
21
84.872482
31
0
0
LINE
8
VISIBLE
10
125.55608
20
89.153602
30
0
11
113.69012
21
89.783881
31
0
0
LINE
8
VISIBLE
10
151.591483
20
126.281981
30
0
11
163.464512
21
127.082516
31
0
0
LINE
8
VISIBLE
10
166.074146
20
131.401276
30
0
11
165.281586
21
133.193393
31
0
0
LINE
8
VISIBLE
10
174.113438
20
133.788878
30
0
11
173.568624
21
131.906588
31
0
0
LINE
8
VISIBLE
10
176.734384
20
127.977232
30
0
11
188.45206
21
128.767292
31
0
0
LINE
8
VISIBLE
10
188.75192
20
128.78751
30
0
11
188.60525
21
128.777621
31
0
0
LINE
8
VISIBLE
10
188.75192
20
128.78751
30
0
11
188.752096
21
128.76348
31
0
0
LINE
8
VISIBLE
10
176.442702
20
89.54748
30
0
11
188.887385
21
90.384337
31
0
0
LINE
8
VISIBLE
10
173.832301
20
85.229184
30
0
11
174.624542
21
83.436926
31
0
0
LINE
8
VISIBLE
10
165.792584
20
82.843011
30
0
11
166.337733
21
84.725203
31
0
0
LINE
8
VISIBLE
10
163.172672
20
88.655123
30
0
11
150.859447
21
87.827106
31
0
0
LINE
8
VISIBLE
10
150.713787
20
87.817311
30
0
11
150.558885
21
87.806895
31
0
0
LINE
8
VISIBLE
10
150.558885
20
87.806895
30
0
11
150.559325
21
87.825516
31
0
0
LINE
8
VISIBLE
10
188.45206
20
128.767292
30
0
11
188.451876
21
128.79239
31
0
0
LINE
8
VISIBLE
10
188.451876
20
128.79239
30
0
11
188.60525
21
128.777621
31
0
0
LINE
8
VISIBLE
10
188.752096
20
128.76348
30
0
11
202.115357
21
127.476689
31
0
0
LINE
8
VISIBLE
10
205.392472
20
131.313667
30
0
11
204.901848
21
133.210802
31
0
0
LINE
8
VISIBLE
10
213.712996
20
132.362349
30
0
11
212.869381
21
130.593691
31
0
0
LINE
8
VISIBLE
10
215.354121
20
126.201887
30
0
11
228.88565
21
124.898893
31
0
0
LINE
8
VISIBLE
10
216.079562
20
90.323142
30
0
11
230.127388
21
90.291527
31
0
0
LINE
8
VISIBLE
10
213.176014
20
86.196243
30
0
11
213.842074
21
84.353365
31
0
0
LINE
8
VISIBLE
10
204.990192
20
84.373286
30
0
11
205.66454
21
86.213148
31
0
0
LINE
8
VISIBLE
10
202.779596
20
90.353073
30
0
11
188.887385
21
90.384337
31
0
0
LINE
8
VISIBLE
10
228.88565
20
124.898893
30
0
11
236.041342
21
125.215153
31
0
0
LINE
8
VISIBLE
10
236.041342
20
125.215153
30
0
11
236.895404
21
127.450772
31
0
0
LINE
8
VISIBLE
10
257.3795
20
128.356109
30
0
11
258.434321
21
126.204857
31
0
0
LINE
8
VISIBLE
10
258.434321
20
126.204857
30
0
11
264.925576
21
126.491751
31
0
0
LINE
8
VISIBLE
10
267.39725
20
88.574632
30
0
11
267.397214
21
88.575267
31
0
0
LINE
8
VISIBLE
10
267.39725
20
88.574632
30
0
11
267.383242
21
88.575277
31
0
0
LINE
8
VISIBLE
10
260.085273
20
88.91147
30
0
11
259.033298
21
86.761874
31
0
0
LINE
8
VISIBLE
10
260.085273
20
88.91147
30
0
11
267.095964
21
88.588511
31
0
0
LINE
8
VISIBLE
10
238.550927
20
87.705427
30
0
11
237.694179
21
89.942951
31
0
0
LINE
8
VISIBLE
10
237.694179
20
89.942951
30
0
11
230.127388
21
90.291527
31
0
0
LINE
8
VISIBLE
10
264.925576
20
126.491751
30
0
11
264.924924
21
126.503139
31
0
0
LINE
8
VISIBLE
10
264.924924
20
126.503139
30
0
11
273.393282
21
126.578258
31
0
0
LINE
8
VISIBLE
10
273.393282
20
126.578258
30
0
11
274.325708
21
128.782344
31
0
0
LINE
8
VISIBLE
10
294.828994
20
128.964219
30
0
11
295.807239
21
126.777082
31
0
0
LINE
8
VISIBLE
10
295.807239
20
126.777082
30
0
11
304.15
21
126.851087
31
0
0
LINE
8
VISIBLE
10
304.15
20
126.851087
30
0
11
304.15
21
88.549898
31
0
0
LINE
8
VISIBLE
10
304.15
20
88.549898
30
0
11
296.82745
21
88.554953
31
0
0
LINE
8
VISIBLE
10
296.82745
20
88.554953
30
0
11
295.873995
21
86.359882
31
0
0
LINE
8
VISIBLE
10
275.369906
20
86.374035
30
0
11
274.412616
21
88.570425
31
0
0
LINE
8
VISIBLE
10
274.412616
20
88.570425
30
0
11
267.397214
21
88.575267
31
0
0
LINE
8
VISIBLE
10
267.383242
20
88.575277
30
0
11
267.096711
21
88.575475
31
0
0
LINE
8
VISIBLE
10
267.096711
20
88.575475
30
0
11
267.095964
21
88.588511
31
0
0
LINE
8
VISIBLE
10
-0.15
20
132.909261
30
0
11
-0.15
21
171.206577
31
0
0
LINE
8
VISIBLE
10
-0.15
20
132.909261
30
0
11
8.442643
21
132.603524
31
0
0
LINE
8
VISIBLE
10
-0.15
20
171.206577
30
0
11
13.199473
21
170.633513
31
0
0
LINE
8
VISIBLE
10
16.268339
20
174.639002
30
0
11
15.677723
21
176.507426
31
0
0
LINE
8
VISIBLE
10
24.521483
20
176.127783
30
0
11
23.772921
21
174.316847
31
0
0
LINE
8
VISIBLE
10
26.487235
20
170.063098
30
0
11
39.676542
21
169.49691
31
0
0
LINE
8
VISIBLE
10
38.998621
20
131.516307
30
0
11
38.999377
21
131.551004
31
0
0
LINE
8
VISIBLE
10
38.998621
20
131.516307
30
0
11
38.705939
21
131.526721
31
0
0
LINE
8
VISIBLE
10
30.843307
20
131.806482
30
0
11
29.813892
21
129.645992
31
0
0
LINE
8
VISIBLE
10
30.843307
20
131.806482
30
0
11
38.698782
21
131.526975
31
0
0
LINE
8
VISIBLE
10
9.322766
20
130.375091
30
0
11
8.442643
21
132.603524
31
0
0
LINE
8
VISIBLE
10
39.676542
20
169.49691
30
0
11
50.966542
21
169.574789
31
0
0
LINE
8
VISIBLE
10
53.832215
20
173.728077
30
0
11
53.149323
21
175.564785
31
0
0
LINE
8
VISIBLE
10
62.001017
20
175.625845
30
0
11
61.343529
21
173.779891
31
0
0
LINE
8
VISIBLE
10
64.266226
20
169.666532
30
0
11
75.556119
21
169.744411
31
0
0
LINE
8
VISIBLE
10
67.788561
20
133.933484
30
0
11
67.020954
21
131.666725
31
0
0
LINE
8
VISIBLE
10
67.788561
20
133.933484
30
0
11
75.276479
21
134.553154
31
0
0
LINE
8
VISIBLE
10
46.586715
20
129.975668
30
0
11
45.450084
21
132.084839
31
0
0
LINE
8
VISIBLE
10
45.450084
20
132.084839
30
0
11
38.999377
21
131.551004
31
0
0
LINE
8
VISIBLE
10
38.705939
20
131.526721
30
0
11
38.698763
21
131.526127
31
0
0
LINE
8
VISIBLE
10
38.698763
20
131.526127
30
0
11
38.698782
21
131.526975
31
0
0
LINE
8
VISIBLE
10
75.556119
20
169.744411
30
0
11
88.714345
21
170.510109
31
0
0
LINE
8
VISIBLE
10
91.363587
20
174.804687
30
0
11
90.587541
21
176.604017
31
0
0
LINE
8
VISIBLE
10
99.424496
20
177.118253
30
0
11
98.862394
21
175.241054
31
0
0
LINE
8
VISIBLE
10
101.991884
20
171.282749
30
0
11
115.013291
21
172.040486
31
0
0
LINE
8
VISIBLE
10
115.313371
20
172.057948
30
0
11
115.135303
21
172.047586
31
0
0
LINE
8
VISIBLE
10
115.313371
20
172.057948
30
0
11
115.313305
21
172.043019
31
0
0
LINE
8
VISIBLE
10
115.133492
20
131.699723
30
0
11
115.133552
21
131.713311
31
0
0
LINE
8
VISIBLE
10
115.133492
20
131.699723
30
0
11
114.980119
21
131.710703
31
0
0
LINE
8
VISIBLE
10
101.822557
20
132.652675
30
0
11
114.833585
21
131.721194
31
0
0
LINE
8
VISIBLE
10
98.640529
20
128.736481
30
0
11
99.177533
21
126.851949
31
0
0
LINE
8
VISIBLE
10
90.348226
20
127.484054
30
0
11
91.148211
21
129.272869
31
0
0
LINE
8
VISIBLE
10
88.55651
20
133.602414
30
0
11
75.276479
21
134.553154
31
0
0
LINE
8
VISIBLE
10
115.013291
20
172.040486
30
0
11
115.013336
21
172.050715
31
0
0
LINE
8
VISIBLE
10
115.013336
20
172.050715
30
0
11
115.135303
21
172.047586
31
0
0
LINE
8
VISIBLE
10
115.313305
20
172.043019
30
0
11
122.073399
21
171.869582
31
0
0
LINE
8
VISIBLE
10
122.073399
20
171.869582
30
0
11
123.081341
21
174.040173
31
0
0
LINE
8
VISIBLE
10
143.578689
20
173.514293
30
0
11
144.480865
21
171.294696
31
0
0
LINE
8
VISIBLE
10
144.480865
20
171.294696
30
0
11
151.642353
21
171.110961
31
0
0
LINE
8
VISIBLE
10
151.765653
20
132.335814
30
0
11
139.951685
21
132.135055
31
0
0
LINE
8
VISIBLE
10
151.765653
20
132.335814
30
0
11
151.765702
21
132.357464
31
0
0
LINE
8
VISIBLE
10
137.128081
20
127.953053
30
0
11
137.829476
21
126.123332
31
0
0
LINE
8
VISIBLE
10
128.978849
20
125.97293
30
0
11
129.617672
21
127.825426
31
0
0
LINE
8
VISIBLE
10
126.653605
20
131.909075
30
0
11
115.133552
21
131.713311
31
0
0
LINE
8
VISIBLE
10
114.980119
20
131.710703
30
0
11
114.833527
21
131.708212
31
0
0
LINE
8
VISIBLE
10
114.833527
20
131.708212
30
0
11
114.833585
21
131.721194
31
0
0
LINE
8
VISIBLE
10
151.642353
20
171.110961
30
0
11
165.000361
21
171.220456
31
0
0
LINE
8
VISIBLE
10
167.860636
20
175.377463
30
0
11
167.17536
21
177.213282
31
0
0
LINE
8
VISIBLE
10
176.026967
20
177.285839
30
0
11
175.371877
21
175.439033
31
0
0
LINE
8
VISIBLE
10
178.299914
20
171.329473
30
0
11
191.461742
21
171.43736
31
0
0
LINE
8
VISIBLE
10
191.762966
20
171.439829
30
0
11
191.594928
21
171.438452
31
0
0
LINE
8
VISIBLE
10
191.762966
20
171.439829
30
0
11
191.762792
21
171.437725
31
0
0
LINE
8
VISIBLE
10
180.871059
20
134.319882
30
0
11
180.068986
21
132.065089
31
0
0
LINE
8
VISIBLE
10
180.871059
20
134.319882
30
0
11
188.692277
21
134.847225
31
0
0
LINE
8
VISIBLE
10
159.611342
20
130.68574
30
0
11
158.506996
21
132.811993
31
0
0
LINE
8
VISIBLE
10
158.506996
20
132.811993
30
0
11
151.765702
21
132.357464
31
0
0
LINE
8
VISIBLE
10
191.461742
20
171.43736
30
0
11
191.46188
21
171.439028
31
0
0
LINE
8
VISIBLE
10
191.46188
20
171.439028
30
0
11
191.594928
21
171.438452
31
0
0
LINE
8
VISIBLE
10
191.762792
20
171.437725
30
0
11
198.741645
21
171.407524
31
0
0
LINE
8
VISIBLE
10
198.741645
20
171.407524
30
0
11
199.703078
21
173.599112
31
0
0
LINE
8
VISIBLE
10
220.206979
20
173.51038
30
0
11
221.156274
21
171.310523
31
0
0
LINE
8
VISIBLE
10
221.156274
20
171.310523
30
0
11
228.417814
21
171.279098
31
0
0
LINE
8
VISIBLE
10
220.467031
20
131.787532
30
0
11
219.309014
21
129.693157
31
0
0
LINE
8
VISIBLE
10
220.467031
20
131.787532
30
0
11
228.688937
21
130.995819
31
0
0
LINE
8
VISIBLE
10
198.899326
20
131.658471
30
0
11
198.155394
21
133.935991
31
0
0
LINE
8
VISIBLE
10
198.155394
20
133.935991
30
0
11
188.692277
21
134.847225
31
0
0
LINE
8
VISIBLE
10
228.417814
20
171.279098
30
0
11
235.444602
21
171.475156
31
0
0
LINE
8
VISIBLE
10
235.444602
20
171.475156
30
0
11
236.334931
21
173.69658
31
0
0
LINE
8
VISIBLE
10
256.831048
20
174.268453
30
0
11
257.850721
21
172.10032
31
0
0
LINE
8
VISIBLE
10
257.850721
20
172.10032
30
0
11
264.446089
21
172.284341
31
0
0
LINE
8
VISIBLE
10
264.746008
20
172.292709
30
0
11
264.642305
21
172.289816
31
0
0
LINE
8
VISIBLE
10
264.746008
20
172.292709
30
0
11
264.746079
21
172.286943
31
0
0
LINE
8
VISIBLE
10
253.610785
20
132.047577
30
0
11
265.087643
21
132.55482
31
0
0
LINE
8
VISIBLE
10
250.901861
20
127.790393
30
0
11
251.652717
21
125.980407
31
0
0
LINE
8
VISIBLE
10
242.809446
20
125.58956
30
0
11
243.397694
21
127.458731
31
0
0
LINE
8
VISIBLE
10
240.323756
20
131.460329
30
0
11
228.689548
21
130.946132
31
0
0
LINE
8
VISIBLE
10
228.689548
20
130.946132
30
0
11
228.688937
21
130.995819
31
0
0
LINE
8
VISIBLE
10
264.446089
20
172.284341
30
0
11
264.445954
21
172.295253
31
0
0
LINE
8
VISIBLE
10
264.445954
20
172.295253
30
0
11
264.642305
21
172.289816
31
0
0
LINE
8
VISIBLE
10
264.746079
20
172.286943
30
0
11
277.655632
21
171.929495
31
0
0
LINE
8
VISIBLE
10
280.663181
20
175.981227
30
0
11
280.044198
21
177.840446
31
0
0
LINE
8
VISIBLE
10
288.892711
20
177.595443
30
0
11
288.171797
21
175.773324
31
0
0
LINE
8
VISIBLE
10
290.950537
20
171.561379
30
0
11
304.15
21
171.195904
31
0
0
LINE
8
VISIBLE
10
304.15
20
171.195904
30
0
11
304.15
21
132.901325
31
0
0
LINE
8
VISIBLE
10
304.15
20
132.901325
30
0
11
291.192901
21
132.786388
31
0
0
LINE
8
VISIBLE
10
288.335426
20
128.627456
30
0
11
289.021939
21
126.792099
31
0
0
LINE
8
VISIBLE
10
280.170382
20
126.713581
30
0
11
280.824228
21
128.560828
31
0
0
LINE
8
VISIBLE
10
277.893424
20
132.668414
30
0
11
265.087643
21
132.55482
31
0
0
LINE
8
VISIBLE
10
-0.15
20
177.262149
30
0
11
-0.15
21
215.552362
31
0
0
LINE
8
VISIBLE
10
-0.15
20
177.262149
30
0
11
8.902291
21
176.873554
31
0
0
LINE
8
VISIBLE
10
-0.15
20
215.552362
30
0
11
12.879789
21
215.348797
31
0
0
LINE
8
VISIBLE
10
15.838258
20
219.436503
30
0
11
15.196898
21
221.288122
31
0
0
LINE
8
VISIBLE
10
24.047723
20
221.149845
30
0
11
23.348835
21
219.319165
31
0
0
LINE
8
VISIBLE
10
26.178166
20
215.141036
30
0
11
39.054396
21
214.93987
31
0
0
LINE
8
VISIBLE
10
39.826255
20
175.546055
30
0
11
39.826222
21
175.548086
31
0
0
LINE
8
VISIBLE
10
39.826255
20
175.546055
30
0
11
39.785481
21
175.547805
31
0
0
LINE
8
VISIBLE
10
31.296506
20
175.912218
30
0
11
30.251271
21
173.759338
31
0
0
LINE
8
VISIBLE
10
31.296506
20
175.912218
30
0
11
39.526012
21
175.558943
31
0
0
LINE
8
VISIBLE
10
9.766044
20
174.638724
30
0
11
8.902291
21
176.873554
31
0
0
LINE
8
VISIBLE
10
39.054396
20
214.93987
30
0
11
51.154111
21
214.946965
31
0
0
LINE
8
VISIBLE
10
54.04594
20
219.082084
30
0
11
53.374655
21
220.923065
31
0
0
LINE
8
VISIBLE
10
62.226558
20
220.928256
30
0
11
61.557432
21
219.086489
31
0
0
LINE
8
VISIBLE
10
64.454109
20
214.954765
30
0
11
76.554798
21
214.961861
31
0
0
LINE
8
VISIBLE
10
75.707238
20
175.795597
30
0
11
68.778371
21
175.747801
31
0
0
LINE
8
VISIBLE
10
75.707238
20
175.795597
30
0
11
75.707695
21
175.813466
31
0
0
LINE
8
VISIBLE
10
68.778371
20
175.747801
30
0
11
67.8416
21
173.545558
31
0
0
LINE
8
VISIBLE
10
47.337995
20
173.404122
30
0
11
46.364065
21
175.593185
31
0
0
LINE
8
VISIBLE
10
46.364065
20
175.593185
30
0
11
39.826222
21
175.548086
31
0
0
LINE
8
VISIBLE
10
39.785481
20
175.547805
30
0
11
39.526218
21
175.546017
31
0
0
LINE
8
VISIBLE
10
39.526218
20
175.546017
30
0
11
39.526012
21
175.558943
31
0
0
LINE
8
VISIBLE
10
76.554798
20
214.961861
30
0
11
89.30768
21
215.01042
31
0
0
LINE
8
VISIBLE
10
92.186173
20
219.154833
30
0
11
91.508961
21
220.993642
31
0
0
LINE
8
VISIBLE
10
100.360802
20
221.027347
30
0
11
99.697612
21
219.183434
31
0
0
LINE
8
VISIBLE
10
102.607583
20
215.061063
30
0
11
115.35813
21
215.109613
31
0
0
LINE
8
VISIBLE
10
106.186715
20
177.587088
30
0
11
105.36394
21
175.339767
31
0
0
LINE
8
VISIBLE
10
106.186715
20
177.587088
30
0
11
115.036982
21
178.102099
31
0
0
LINE
8
VISIBLE
10
84.894475
20
174.148616
30
0
11
83.809731
21
176.284936
31
0
0
LINE
8
VISIBLE
10
83.809731
20
176.284936
30
0
11
75.707695
21
175.813466
31
0
0
LINE
8
VISIBLE
10
115.35813
20
215.109613
30
0
11
127.172906
21
215.560708
31
0
0
LINE
8
VISIBLE
10
129.907351
20
219.801544
30
0
11
129.167379
21
221.616008
31
0
0
LINE
8
VISIBLE
10
138.012839
20
221.953732
30
0
11
137.413375
21
220.088128
31
0
0
LINE
8
VISIBLE
10
140.463222
20
216.068139
30
0
11
152.138438
21
216.513905
31
0
0
LINE
8
VISIBLE
10
152.438643
20
216.525367
30
0
11
152.28654
21
216.51956
31
0
0
LINE
8
VISIBLE
10
152.438643
20
216.525367
30
0
11
152.438462
21
216.513266
31
0
0
LINE
8
VISIBLE
10
151.850486
20
177.157612
30
0
11
151.850565
21
177.162871
31
0
0
LINE
8
VISIBLE
10
151.850486
20
177.157612
30
0
11
151.695157
21
177.161597
31
0
0
LINE
8
VISIBLE
10
140.07668
20
177.459681
30
0
11
151.550568
21
177.165307
31
0
0
LINE
8
VISIBLE
10
137.077366
20
173.401849
30
0
11
137.700125
21
171.543891
31
0
0
LINE
8
VISIBLE
10
128.851132
20
171.770921
30
0
11
129.568344
21
173.5945
31
0
0
LINE
8
VISIBLE
10
126.781055
20
177.800793
30
0
11
115.036982
21
178.102099
31
0
0
LINE
8
VISIBLE
10
152.138438
20
216.513905
30
0
11
152.138614
21
216.525688
31
0
0
LINE
8
VISIBLE
10
152.138614
20
216.525688
30
0
11
152.28654
21
216.51956
31
0
0
LINE
8
VISIBLE
10
152.438462
20
216.513266
30
0
11
163.687035
21
216.047279
31
0
0
LINE
8
VISIBLE
10
166.749894
20
220.057363
30
0
11
166.156479
21
221.9249
31
0
0
LINE
8
VISIBLE
10
175.000797
20
221.558511
30
0
11
174.25495
21
219.746455
31
0
0
LINE
8
VISIBLE
10
176.975637
20
215.49678
30
0
11
188.393347
21
215.023785
31
0
0
LINE
8
VISIBLE
10
182.804157
20
177.416597
30
0
11
181.870247
21
175.21314
31
0
0
LINE
8
VISIBLE
10
182.804157
20
177.416597
30
0
11
191.583223
21
177.488559
31
0
0
LINE
8
VISIBLE
10
161.366843
20
175.045074
30
0
11
160.390071
21
177.232869
31
0
0
LINE
8
VISIBLE
10
160.390071
20
177.232869
30
0
11
151.850565
21
177.162871
31
0
0
LINE
8
VISIBLE
10
151.695157
20
177.161597
30
0
11
151.550495
21
177.160411
31
0
0
LINE
8
VISIBLE
10
151.550495
20
177.160411
30
0
11
151.550568
21
177.165307
31
0
0
LINE
8
VISIBLE
10
188.393347
20
215.023785
30
0
11
196.15494
21
215.210633
31
0
0
LINE
8
VISIBLE
10
196.15494
20
215.210633
30
0
11
197.05376
21
217.428636
31
0
0
LINE
8
VISIBLE
10
217.551915
20
217.922097
30
0
11
218.563287
21
215.75008
31
0
0
LINE
8
VISIBLE
10
218.563287
20
215.75008
30
0
11
226.190162
21
215.933685
31
0
0
LINE
8
VISIBLE
10
226.190162
20
215.933685
30
0
11
226.190169
21
215.933565
31
0
0
LINE
8
VISIBLE
10
228.504051
20
177.328781
30
0
11
228.503747
21
177.33385
31
0
0
LINE
8
VISIBLE
10
228.504051
20
177.328781
30
0
11
228.346517
21
177.329463
31
0
0
LINE
8
VISIBLE
10
216.621646
20
177.380203
30
0
11
228.203434
21
177.330082
31
0
0
LINE
8
VISIBLE
10
213.709532
20
173.259345
30
0
11
214.371763
21
171.415087
31
0
0
LINE
8
VISIBLE
10
205.519941
20
171.453394
30
0
11
206.198109
21
173.291851
31
0
0
LINE
8
VISIBLE
10
203.32177
20
177.43776
30
0
11
191.583223
21
177.488559
31
0
0
LINE
8
VISIBLE
10
226.190169
20
215.933565
30
0
11
235.267973
21
216.198096
31
0
0
LINE
8
VISIBLE
10
235.267973
20
216.198096
30
0
11
236.155552
21
218.420621
31
0
0
LINE
8
VISIBLE
10
256.650945
20
219.017864
30
0
11
257.673302
21
216.850996
31
0
0
LINE
8
VISIBLE
10
257.673302
20
216.850996
30
0
11
266.381228
21
217.104748
31
0
0
LINE
8
VISIBLE
10
266.682042
20
217.113514
30
0
11
266.485434
21
217.107784
31
0
0
LINE
8
VISIBLE
10
266.682042
20
217.113514
30
0
11
266.681347
21
217.099621
31
0
0
LINE
8
VISIBLE
10
253.122904
20
178.020762
30
0
11
264.641661
21
178.342152
31
0
0
LINE
8
VISIBLE
10
250.345061
20
173.808225
30
0
11
251.066363
21
171.986259
31
0
0
LINE
8
VISIBLE
10
242.217902
20
171.739374
30
0
11
242.836489
21
173.598724
31
0
0
LINE
8
VISIBLE
10
239.828078
20
177.649816
30
0
11
228.503747
21
177.33385
31
0
0
LINE
8
VISIBLE
10
228.346517
20
177.329463
30
0
11
228.20371
21
177.325478
31
0
0
LINE
8
VISIBLE
10
228.20371
20
177.325478
30
0
11
228.203434
21
177.330082
31
0
0
LINE
8
VISIBLE
10
266.381228
20
217.104748
30
0
11
266.381596
21
217.112111
31
0
0
LINE
8
VISIBLE
10
266.381596
20
217.112111
30
0
11
266.485434
21
217.107784
31
0
0
LINE
8
VISIBLE
10
266.681347
20
217.099621
30
0
11
273.809731
21
216.802594
31
0
0
LINE
8
VISIBLE
10
273.809731
20
216.802594
30
0
11
274.852258
21
218.956788
31
0
0
LINE
8
VISIBLE
10
295.338574
20
218.10316
30
0
11
296.205137
21
215.869418
31
0
0
LINE
8
VISIBLE
10
296.205137
20
215.869418
30
0
11
304.15
21
215.53837
31
0
0
LINE
8
VISIBLE
10
304.15
20
215.53837
30
0
11
304.15
21
177.248223
31
0
0
LINE
8
VISIBLE
10
304.15
20
177.248223
30
0
11
295.67023
21
177.483016
31
0
0
LINE
8
VISIBLE
10
295.67023
20
177.483016
30
0
11
294.657882
21
175.314476
31
0
0
LINE
8
VISIBLE
10
274.161644
20
175.881988
30
0
11
273.263978
21
178.103413
31
0
0
LINE
8
VISIBLE
10
273.263978
20
178.103413
30
0
11
264.641661
21
178.342152
31
0
0
LINE
8
VISIBLE
10
-0.15
20
221.6031
30
0
11
-0.15
21
259.9
31
0
0
LINE
8
VISIBLE
10
-0.15
20
221.6031
30
0
11
8.414
21
221.469304
31
0
0
LINE
8
VISIBLE
10
-0.15
20
259.9
30
0
11
38.145964
21
259.9
31
0
0
LINE
8
VISIBLE
10
38.145964
20
259.9
30
0
11
76.147858
21
259.9
31
0
0
LINE
8
VISIBLE
10
39.207461
20
220.988216
30
0
11
39.207414
21
220.98996
31
0
0
LINE
8
VISIBLE
10
39.207461
20
220.988216
30
0
11
39.099879
21
220.989897
31
0
0
LINE
8
VISIBLE
10
30.826105
20
221.119159
30
0
11
29.839981
21
218.938569
31
0
0
LINE
8
VISIBLE
10
30.826105
20
221.119159
30
0
11
38.907222
21
220.992907
31
0
0
LINE
8
VISIBLE
10
9.33839
20
219.258866
30
0
11
8.414
21
221.469304
31
0
0
LINE
8
VISIBLE
10
76.147858
20
259.9
30
0
11
114.144782
21
259.9
31
0
0
LINE
8
VISIBLE
10
76.7073
20
221.011951
30
0
11
76.707292
21
221.012485
31
0
0
LINE
8
VISIBLE
10
76.7073
20
221.011951
30
0
11
76.541506
21
221.011854
31
0
0
LINE
8
VISIBLE
10
69.004547
20
221.007434
30
0
11
68.053895
21
218.811148
31
0
0
LINE
8
VISIBLE
10
69.004547
20
221.007434
30
0
11
76.407271
21
221.011775
31
0
0
LINE
8
VISIBLE
10
47.549805
20
218.799124
30
0
11
46.589711
21
220.994289
31
0
0
LINE
8
VISIBLE
10
46.589711
20
220.994289
30
0
11
39.207414
21
220.98996
31
0
0
LINE
8
VISIBLE
10
39.099879
20
220.989897
30
0
11
38.907307
21
220.989784
31
0
0
LINE
8
VISIBLE
10
38.907307
20
220.989784
30
0
11
38.907222
21
220.992907
31
0
0
LINE
8
VISIBLE
10
114.144782
20
259.9
30
0
11
152.148845
21
259.9
31
0
0
LINE
8
VISIBLE
10
115.516661
20
221.160261
30
0
11
115.516314
21
221.170061
31
0
0
LINE
8
VISIBLE
10
115.516661
20
221.160261
30
0
11
115.231162
21
221.159174
31
0
0
LINE
8
VISIBLE
10
107.1385
20
221.128359
30
0
11
106.194928
21
218.929022
31
0
0
LINE
8
VISIBLE
10
107.1385
20
221.128359
30
0
11
115.216514
21
221.159118
31
0
0
LINE
8
VISIBLE
10
85.690984
20
218.850948
30
0
11
84.723823
21
221.04301
31
0
0
LINE
8
VISIBLE
10
84.723823
20
221.04301
30
0
11
76.707292
21
221.012485
31
0
0
LINE
8
VISIBLE
10
76.541506
20
221.011854
30
0
11
76.407278
21
221.011343
31
0
0
LINE
8
VISIBLE
10
76.407278
20
221.011343
30
0
11
76.407271
21
221.011775
31
0
0
LINE
8
VISIBLE
10
152.148845
20
259.9
30
0
11
190.156505
21
259.9
31
0
0
LINE
8
VISIBLE
10
144.783069
20
222.287482
30
0
11
143.915595
21
220.057033
31
0
0
LINE
8
VISIBLE
10
144.783069
20
222.287482
30
0
11
152.29635
21
222.574343
31
0
0
LINE
8
VISIBLE
10
123.426431
20
219.274745
30
0
11
122.38455
21
221.432294
31
0
0
LINE
8
VISIBLE
10
122.38455
20
221.432294
30
0
11
115.516314
21
221.170061
31
0
0
LINE
8
VISIBLE
10
115.231162
20
221.159174
30
0
11
115.216531
21
221.158615
31
0
0
LINE
8
VISIBLE
10
115.216531
20
221.158615
30
0
11
115.216514
21
221.159118
31
0
0
LINE
8
VISIBLE
10
190.156505
20
259.9
30
0
11
228.157981
21
259.9
31
0
0
LINE
8
VISIBLE
10
188.507696
20
221.074237
30
0
11
188.507869
21
221.078295
31
0
0
LINE
8
VISIBLE
10
188.507696
20
221.074237
30
0
11
188.445809
21
221.076801
31
0
0
LINE
8
VISIBLE
10
181.776136
20
221.353101
30
0
11
180.734128
21
219.198656
31
0
0
LINE
8
VISIBLE
10
181.776136
20
221.353101
30
0
11
188.207953
21
221.086654
31
0
0
LINE
8
VISIBLE
10
160.247607
20
220.047339
30
0
11
159.380505
21
222.280872
31
0
0
LINE
8
VISIBLE
10
159.380505
20
222.280872
30
0
11
152.29635
21
222.574343
31
0
0
LINE
8
VISIBLE
10
228.157981
20
259.9
30
0
11
266.147857
21
259.9
31
0
0
LINE
8
VISIBLE
10
226.191577
20
221.985472
30
0
11
226.191614
21
221.986175
31
0
0
LINE
8
VISIBLE
10
226.191577
20
221.985472
30
0
11
226.052969
21
221.982135
31
0
0
LINE
8
VISIBLE
10
213.858153
20
221.688564
30
0
11
225.890798
21
221.978231
31
0
0
LINE
8
VISIBLE
10
211.064215
20
217.486684
30
0
11
211.778541
21
215.661973
31
0
0
LINE
8
VISIBLE
10
202.929201
20
215.448938
30
0
11
203.554897
21
217.305909
31
0
0
LINE
8
VISIBLE
10
200.562005
20
221.368479
30
0
11
188.507869
21
221.078295
31
0
0
LINE
8
VISIBLE
10
188.445809
20
221.076801
30
0
11
188.207291
21
221.071059
31
0
0
LINE
8
VISIBLE
10
188.207291
20
221.071059
30
0
11
188.207953
21
221.086654
31
0
0
LINE
8
VISIBLE
10
266.147857
20
259.9
30
0
11
304.15
21
259.9
31
0
0
LINE
8
VISIBLE
10
252.93816
20
222.76558
30
0
11
266.523306
21
223.161456
31
0
0
LINE
8
VISIBLE
10
250.165533
20
218.549608
30
0
11
250.88909
21
216.728536
31
0
0
LINE
8
VISIBLE
10
242.040941
20
216.470698
30
0
11
242.657227
21
218.330813
31
0
0
LINE
8
VISIBLE
10
239.643803
20
222.378177
30
0
11
226.191614
21
221.986175
31
0
0
LINE
8
VISIBLE
10
226.052969
20
221.982135
30
0
11
225.890756
21
221.977408
31
0
0
LINE
8
VISIBLE
10
225.890756
20
221.977408
30
0
11
225.890798
21
221.978231
31
0
0
LINE
8
VISIBLE
10
304.15
20
259.9
30
0
11
304.15
21
221.59362
31
0
0
LINE
8
VISIBLE
10
304.15
20
221.59362
30
0
11
291.900112
21
222.10405
31
0
0
LINE
8
VISIBLE
10
288.836285
20
218.094706
30
0
11
289.429249
21
216.227026
31
0
0
LINE
8
VISIBLE
10
280.585019
20
216.595549
30
0
11
281.331304
21
218.407425
31
0
0
LINE
8
VISIBLE
10
278.611643
20
222.657757
30
0
11
266.523306
21
223.161456
31
0
0
ARC
8
VISIBLE
10
12.391006
20
41.767046
30
0
40
3.23
50
272.467897
51
22.467897
0
ARC
8
VISIBLE
10
18.840824
20
46.554925
30
0
40
4.56
50
342.467897
51
202.467897
0
ARC
8
VISIBLE
10
25.67867
20
42.339739
30
0
40
3.23
50
162.467897
51
272.467897
0
ARC
8
VISIBLE
10
41.462129
20
26.447799
30
0
40
3.23
50
179.497404
51
289.497404
0
ARC
8
VISIBLE
10
45.909334
20
19.758532
30
0
40
4.56
50
249.497404
51
109.497404
0
ARC
8
VISIBLE
10
41.345464
20
13.148311
30
0
40
3.23
50
69.497404
51
179.497404
0
ARC
8
VISIBLE
10
56.819306
20
38.317113
30
0
40
10.91
50
160.155331
51
20.155331
0
ARC
8
VISIBLE
10
78.7282
20
26.586245
30
0
40
3.23
50
181.082539
51
291.082539
0
ARC
8
VISIBLE
10
83.358744
20
20.022557
30
0
40
4.56
50
251.082539
51
111.082539
0
ARC
8
VISIBLE
10
78.979473
20
13.288619
30
0
40
3.23
50
71.082539
51
181.082539
0
ARC
8
VISIBLE
10
87.274359
20
42.541752
30
0
40
3.23
50
267.889048
51
17.889048
0
ARC
8
VISIBLE
10
94.085813
20
46.799455
30
0
40
4.56
50
337.889048
51
197.889048
0
ARC
8
VISIBLE
10
100.565333
20
42.05185
30
0
40
3.23
50
157.889048
51
267.889048
0
ARC
8
VISIBLE
10
116.118402
20
25.974941
30
0
40
3.23
50
182.457023
51
292.457023
0
ARC
8
VISIBLE
10
120.905056
20
19.524215
30
0
40
4.56
50
252.457023
51
112.457023
0
ARC
8
VISIBLE
10
116.688573
20
12.687168
30
0
40
3.23
50
72.457023
51
182.457023
0
ARC
8
VISIBLE
10
125.053475
20
41.593049
30
0
40
3.23
50
269.900189
51
19.900189
0
ARC
8
VISIBLE
10
131.711314
20
46.08717
30
0
40
4.56
50
339.900189
51
199.900189
0
ARC
8
VISIBLE
10
138.353455
20
41.56988
30
0
40
3.23
50
159.900189
51
269.900189
0
ARC
8
VISIBLE
10
148.126313
20
25.726146
30
0
40
3.23
50
251.43104
51
1.43104
0
ARC
8
VISIBLE
10
143.788083
20
18.965695
30
0
40
4.56
50
71.43104
51
291.43104
0
ARC
8
VISIBLE
10
148.458464
20
12.430294
30
0
40
3.23
50
1.43104
51
111.43104
0
ARC
8
VISIBLE
10
171.264619
20
37.359844
30
0
40
10.91
50
161.216829
51
21.216829
0
ARC
8
VISIBLE
10
194.00405
20
26.13658
30
0
40
3.23
50
178.306739
51
288.306739
0
ARC
8
VISIBLE
10
198.311295
20
19.356346
30
0
40
4.56
50
248.306739
51
108.306739
0
ARC
8
VISIBLE
10
193.611052
20
12.842387
30
0
40
3.23
50
68.306739
51
178.306739
0
ARC
8
VISIBLE
10
202.390505
20
42.276879
30
0
40
3.23
50
269.371769
51
19.371769
0
ARC
8
VISIBLE
10
209.089508
20
46.709406
30
0
40
4.56
50
339.371769
51
199.371769
0
ARC
8
VISIBLE
10
215.689705
20
42.131051
30
0
40
3.23
50
159.371769
51
269.371769
0
ARC
8
VISIBLE
10
224.00027
20
25.940694
30
0
40
3.23
50
251.696494
51
1.696494
0
ARC
8
VISIBLE
10
219.693408
20
19.160217
30
0
40
4.56
50
71.696494
51
291.696494
0
ARC
8
VISIBLE
10
224.394018
20
12.646524
30
0
40
3.23
50
1.696494
51
111.696494
0
ARC
8
VISIBLE
10
246.864029
20
36.723914
30
0
40
10.91
50
158.09802
51
18.09802
0
ARC
8
VISIBLE
10
270.169608
20
25.241681
30
0
40
3.23
50
177.873226
51
287.873226
0
ARC
8
VISIBLE
10
274.42543
20
18.429052
30
0
40
4.56
50
247.873226
51
107.873226
0
ARC
8
VISIBLE
10
269.676036
20
11.950843
30
0
40
3.23
50
67.873226
51
177.873226
0
ARC
8
VISIBLE
10
285.814997
20
36.331348
30
0
40
10.91
50
160.888463
51
20.888463
0
ARC
8
VISIBLE
10
11.532954
20
85.180652
30
0
40
3.23
50
268.007131
51
18.007131
0
ARC
8
VISIBLE
10
18.335619
20
89.452384
30
0
40
4.56
50
338.007131
51
198.007131
0
ARC
8
VISIBLE
10
24.82491
20
84.718143
30
0
40
3.23
50
158.007131
51
268.007131
0
ARC
8
VISIBLE
10
33.598076
20
69.981085
30
0
40
3.23
50
253.611308
51
3.611308
0
ARC
8
VISIBLE
10
29.520178
20
63.060487
30
0
40
4.56
50
73.611308
51
293.611308
0
ARC
8
VISIBLE
10
34.43581
20
56.707495
30
0
40
3.23
50
3.611308
51
113.611308
0
ARC
8
VISIBLE
10
18.840824
20
46.554925
30
0
40
10.91
50
342.467897
51
202.467897
0
ARC
8
VISIBLE
10
49.329699
20
85.218975
30
0
40
3.23
50
273.853783
51
23.853783
0
ARC
8
VISIBLE
10
55.661831
20
90.161449
30
0
40
4.56
50
343.853783
51
203.853783
0
ARC
8
VISIBLE
10
62.599626
20
86.112875
30
0
40
3.23
50
163.853783
51
273.853783
0
ARC
8
VISIBLE
10
79.141568
20
71.511953
30
0
40
3.23
50
178.508371
51
288.508371
0
ARC
8
VISIBLE
10
83.472647
20
64.746918
30
0
40
4.56
50
248.508371
51
108.508371
0
ARC
8
VISIBLE
10
78.795357
20
58.216459
30
0
40
3.23
50
68.508371
51
178.508371
0
ARC
8
VISIBLE
10
63.457066
20
42.840837
30
0
40
3.23
50
90.155331
51
200.155331
0
ARC
8
VISIBLE
10
56.819306
20
38.317113
30
0
40
4.56
50
160.155331
51
20.155331
0
ARC
8
VISIBLE
10
50.157115
20
42.80478
30
0
40
3.23
50
340.155331
51
90.155331
0
ARC
8
VISIBLE
10
88.331663
20
86.955975
30
0
40
3.23
50
269.678847
51
19.678847
0
ARC
8
VISIBLE
10
95.006814
20
91.424341
30
0
40
4.56
50
339.678847
51
199.678847
0
ARC
8
VISIBLE
10
101.631454
20
86.881426
30
0
40
3.23
50
159.678847
51
269.678847
0
ARC
8
VISIBLE
10
116.482712
20
70.69383
30
0
40
3.23
50
178.019025
51
288.019025
0
ARC
8
VISIBLE
10
120.755855
20
63.892053
30
0
40
4.56
50
248.019025
51
108.019025
0
ARC
8
VISIBLE
10
116.022962
20
57.401779
30
0
40
3.23
50
68.019025
51
178.019025
0
ARC
8
VISIBLE
10
94.085813
20
46.799455
30
0
40
10.91
50
337.889048
51
197.889048
0
ARC
8
VISIBLE
10
131.794359
20
81.225841
30
0
40
10.91
50
156.959503
51
16.959503
0
ARC
8
VISIBLE
10
147.58848
20
69.763561
30
0
40
3.23
50
250.511748
51
0.511748
0
ARC
8
VISIBLE
10
143.142343
20
63.073583
30
0
40
4.56
50
70.511748
51
290.511748
0
ARC
8
VISIBLE
10
147.70727
20
56.464091
30
0
40
3.23
50
0.511748
51
110.511748
0
ARC
8
VISIBLE
10
131.711314
20
46.08717
30
0
40
10.91
50
339.900189
51
199.900189
0
ARC
8
VISIBLE
10
170.316647
20
81.532683
30
0
40
10.91
50
163.847125
51
23.847125
0
ARC
8
VISIBLE
10
192.853964
20
71.680371
30
0
40
3.23
50
183.367974
51
293.367974
0
ARC
8
VISIBLE
10
197.74257
20
65.30656
30
0
40
4.56
50
253.367974
51
113.367974
0
ARC
8
VISIBLE
10
193.635317
20
58.403343
30
0
40
3.23
50
73.367974
51
183.367974
0
ARC
8
VISIBLE
10
177.817435
20
42.005759
30
0
40
3.23
50
91.216829
51
201.216829
0
ARC
8
VISIBLE
10
171.264619
20
37.359844
30
0
40
4.56
50
161.216829
51
21.216829
0
ARC
8
VISIBLE
10
164.520435
20
41.723319
30
0
40
3.23
50
341.216829
51
91.216829
0
ARC
8
VISIBLE
10
209.412508
20
82.752415
30
0
40
10.91
50
159.871058
51
19.871058
0
ARC
8
VISIBLE
10
225.726523
20
71.497167
30
0
40
3.23
50
245.413238
51
355.413238
0
ARC
8
VISIBLE
10
220.70345
20
65.22878
30
0
40
4.56
50
65.413238
51
285.413238
0
ARC
8
VISIBLE
10
224.66294
20
58.239762
30
0
40
3.23
50
355.413238
51
105.413238
0
ARC
8
VISIBLE
10
209.089508
20
46.709406
30
0
40
10.91
50
339.371769
51
199.371769
0
ARC
8
VISIBLE
10
242.113527
20
86.766217
30
0
40
3.23
50
267.362443
51
17.362443
0
ARC
8
VISIBLE
10
248.963825
20
90.961137
30
0
40
4.56
50
337.362443
51
197.362443
0
ARC
8
VISIBLE
10
255.399438
20
86.15418
30
0
40
3.23
50
157.362443
51
267.362443
0
ARC
8
VISIBLE
10
264.058116
20
69.716068
30
0
40
3.23
50
250.225246
51
0.225246
0
ARC
8
VISIBLE
10
259.578582
20
63.048406
30
0
40
4.56
50
70.225246
51
290.225246
0
ARC
8
VISIBLE
10
264.110401
20
56.416171
30
0
40
3.23
50
0.225246
51
110.225246
0
ARC
8
VISIBLE
10
253.659909
20
41.006431
30
0
40
3.23
50
88.09802
51
198.09802
0
ARC
8
VISIBLE
10
246.864029
20
36.723914
30
0
40
4.56
50
158.09802
51
18.09802
0
ARC
8
VISIBLE
10
240.367236
20
41.447854
30
0
40
3.23
50
338.09802
51
88.09802
0
ARC
8
VISIBLE
10
278.971418
20
85.597277
30
0
40
3.23
50
269.96045
51
19.96045
0
ARC
8
VISIBLE
10
285.624526
20
90.098397
30
0
40
4.56
50
339.96045
51
199.96045
0
ARC
8
VISIBLE
10
292.271414
20
85.588097
30
0
40
3.23
50
159.96045
51
269.96045
0
ARC
8
VISIBLE
10
292.394332
20
40.939633
30
0
40
3.23
50
90.888463
51
200.888463
0
ARC
8
VISIBLE
10
285.814997
20
36.331348
30
0
40
4.56
50
160.888463
51
20.888463
0
ARC
8
VISIBLE
10
279.095931
20
40.733403
30
0
40
3.23
50
340.888463
51
90.888463
0
ARC
8
VISIBLE
10
12.895003
20
129.473225
30
0
40
3.23
50
267.962208
51
17.962208
0
ARC
8
VISIBLE
10
19.701014
20
133.739621
30
0
40
4.56
50
337.962208
51
197.962208
0
ARC
8
VISIBLE
10
26.186592
20
129.000294
30
0
40
3.23
50
157.962208
51
267.962208
0
ARC
8
VISIBLE
10
41.190376
20
112.781833
30
0
40
3.23
50
175.894339
51
285.894339
0
ARC
8
VISIBLE
10
45.208411
20
105.826308
30
0
40
4.56
50
245.894339
51
105.894339
0
ARC
8
VISIBLE
10
40.238149
20
99.515964
30
0
40
3.23
50
65.894339
51
175.894339
0
ARC
8
VISIBLE
10
18.335619
20
89.452384
30
0
40
10.91
50
338.007131
51
198.007131
0
ARC
8
VISIBLE
10
50.240347
20
129.50111
30
0
40
3.23
50
274.730792
51
24.730792
0
ARC
8
VISIBLE
10
56.496087
20
134.539924
30
0
40
4.56
50
344.730792
51
204.730792
0
ARC
8
VISIBLE
10
63.495037
20
130.598016
30
0
40
3.23
50
164.730792
51
274.730792
0
ARC
8
VISIBLE
10
78.910878
20
115.960946
30
0
40
3.23
50
181.220742
51
291.220742
0
ARC
8
VISIBLE
10
83.55724
20
109.408446
30
0
40
4.56
50
251.220742
51
111.220742
0
ARC
8
VISIBLE
10
79.194226
20
102.663964
30
0
40
3.23
50
71.220742
51
181.220742
0
ARC
8
VISIBLE
10
55.661831
20
90.161449
30
0
40
10.91
50
343.853783
51
203.853783
0
ARC
8
VISIBLE
10
94.647846
20
125.561199
30
0
40
10.91
50
155.905085
51
15.905085
0
ARC
8
VISIBLE
10
111.353044
20
114.484742
30
0
40
3.23
50
247.927283
51
357.927283
0
ARC
8
VISIBLE
10
106.609764
20
108.002055
30
0
40
4.56
50
67.927283
51
287.927283
0
ARC
8
VISIBLE
10
110.872012
20
101.193444
30
0
40
3.23
50
357.927283
51
107.927283
0
ARC
8
VISIBLE
10
95.006814
20
91.424341
30
0
40
10.91
50
339.678847
51
199.678847
0
ARC
8
VISIBLE
10
133.431534
20
124.437449
30
0
40
10.91
50
160.973555
51
20.973555
0
ARC
8
VISIBLE
10
148.092601
20
113.774996
30
0
40
3.23
50
248.644252
51
358.644252
0
ARC
8
VISIBLE
10
143.430812
20
107.233463
30
0
40
4.56
50
68.644252
51
288.644252
0
ARC
8
VISIBLE
10
147.777922
20
100.478719
30
0
40
3.23
50
358.644252
51
108.644252
0
ARC
8
VISIBLE
10
138.673989
20
85.372482
30
0
40
3.23
50
86.959503
51
196.959503
0
ARC
8
VISIBLE
10
131.794359
20
81.225841
30
0
40
4.56
50
156.959503
51
16.959503
0
ARC
8
VISIBLE
10
125.392711
20
86.077938
30
0
40
3.23
50
336.959503
51
86.959503
0
ARC
8
VISIBLE
10
163.257315
20
130.155538
30
0
40
3.23
50
273.857309
51
23.857309
0
ARC
8
VISIBLE
10
169.589143
20
135.098401
30
0
40
4.56
50
343.857309
51
203.857309
0
ARC
8
VISIBLE
10
176.527186
20
131.050255
30
0
40
3.23
50
163.857309
51
273.857309
0
ARC
8
VISIBLE
10
191.923939
20
116.254255
30
0
40
3.23
50
180.420276
51
290.420276
0
ARC
8
VISIBLE
10
196.478307
20
109.637484
30
0
40
4.56
50
250.420276
51
110.420276
0
ARC
8
VISIBLE
10
192.021496
20
102.954613
30
0
40
3.23
50
70.420276
51
180.420276
0
ARC
8
VISIBLE
10
176.649353
20
86.474421
30
0
40
3.23
50
93.847125
51
203.847125
0
ARC
8
VISIBLE
10
170.316647
20
81.532683
30
0
40
4.56
50
163.847125
51
23.847125
0
ARC
8
VISIBLE
10
163.379323
20
85.582063
30
0
40
3.23
50
343.847125
51
93.847125
0
ARC
8
VISIBLE
10
202.410574
20
130.542509
30
0
40
3.23
50
264.499765
51
14.499765
0
ARC
8
VISIBLE
10
209.461828
20
134.390073
30
0
40
4.56
50
334.499765
51
194.499765
0
ARC
8
VISIBLE
10
215.649338
20
129.267706
30
0
40
3.23
50
154.499765
51
264.499765
0
ARC
8
VISIBLE
10
232.414926
20
114.350909
30
0
40
3.23
50
181.902461
51
291.902461
0
ARC
8
VISIBLE
10
237.138921
20
107.854155
30
0
40
4.56
50
251.902461
51
111.902461
0
ARC
8
VISIBLE
10
232.856461
20
101.05824
30
0
40
3.23
50
71.902461
51
181.902461
0
ARC
8
VISIBLE
10
216.072631
20
87.243149
30
0
40
3.23
50
89.871058
51
199.871058
0
ARC
8
VISIBLE
10
209.412508
20
82.752415
30
0
40
4.56
50
159.871058
51
19.871058
0
ARC
8
VISIBLE
10
202.772664
20
87.27308
30
0
40
3.23
50
339.871058
51
89.871058
0
ARC
8
VISIBLE
10
247.30221
20
124.17564
30
0
40
10.91
50
162.530658
51
22.530658
0
ARC
8
VISIBLE
10
269.005572
20
114.363859
30
0
40
3.23
50
183.277251
51
293.277251
0
ARC
8
VISIBLE
10
273.884079
20
107.982315
30
0
40
4.56
50
253.277251
51
113.277251
0
ARC
8
VISIBLE
10
269.765901
20
101.08561
30
0
40
3.23
50
73.277251
51
183.277251
0
ARC
8
VISIBLE
10
248.963825
20
90.961137
30
0
40
10.91
50
337.362449
51
197.362443
0
ARC
8
VISIBLE
10
284.61045
20
125.141988
30
0
40
10.91
50
160.508232
51
20.508232
0
ARC
8
VISIBLE
10
285.624526
20
90.098397
30
0
40
10.91
50
339.96045
51
199.96045
0
ARC
8
VISIBLE
10
13.331569
20
173.710679
30
0
40
3.23
50
267.541925
51
17.541925
0
ARC
8
VISIBLE
10
20.168693
20
177.927037
30
0
40
4.56
50
337.541925
51
197.541925
0
ARC
8
VISIBLE
10
26.619331
20
173.140264
30
0
40
3.23
50
157.541925
51
267.541925
0
ARC
8
VISIBLE
10
36.178664
20
157.226108
30
0
40
3.23
50
248.750317
51
358.750317
0
ARC
8
VISIBLE
10
31.528992
20
150.675957
30
0
40
4.56
50
68.750317
51
288.750317
0
ARC
8
VISIBLE
10
35.8886
20
143.929272
30
0
40
3.23
50
358.750317
51
108.750317
0
ARC
8
VISIBLE
10
19.701014
20
133.739621
30
0
40
10.91
50
337.962208
51
197.962208
0
ARC
8
VISIBLE
10
50.945297
20
172.654716
30
0
40
3.23
50
270.395226
51
20.395226
0
ARC
8
VISIBLE
10
57.564058
20
177.206191
30
0
40
4.56
50
340.395226
51
200.395226
0
ARC
8
VISIBLE
10
64.24498
20
172.746458
30
0
40
3.23
50
160.395226
51
270.395226
0
ARC
8
VISIBLE
10
78.746185
20
158.780535
30
0
40
3.23
50
179.762427
51
289.762427
0
ARC
8
VISIBLE
10
83.224284
20
152.11191
30
0
40
4.56
50
249.762427
51
109.762427
0
ARC
8
VISIBLE
10
78.691037
20
145.480649
30
0
40
3.23
50
69.762427
51
179.762427
0
ARC
8
VISIBLE
10
56.496087
20
134.539924
30
0
40
10.91
50
344.730792
51
204.730792
0
ARC
8
VISIBLE
10
88.535418
20
173.584907
30
0
40
3.23
50
273.330376
51
23.330376
0
ARC
8
VISIBLE
10
94.912436
20
178.469329
30
0
40
4.56
50
343.330376
51
203.330376
0
ARC
8
VISIBLE
10
101.812956
20
174.357548
30
0
40
3.23
50
163.330376
51
273.330376
0
ARC
8
VISIBLE
10
111.873106
20
158.544189
30
0
40
3.23
50
249.74463
51
359.74463
0
ARC
8
VISIBLE
10
107.3378
20
151.914338
30
0
40
4.56
50
69.74463
51
289.74463
0
ARC
8
VISIBLE
10
111.813828
20
145.244322
30
0
40
3.23
50
359.74463
51
109.74463
0
ARC
8
VISIBLE
10
101.602617
20
129.580538
30
0
40
3.23
50
85.905085
51
195.905085
0
ARC
8
VISIBLE
10
94.647846
20
125.561199
30
0
40
4.56
50
155.905085
51
15.905085
0
ARC
8
VISIBLE
10
88.336571
20
130.530277
30
0
40
3.23
50
335.905085
51
85.905085
0
ARC
8
VISIBLE
10
133.234312
20
170.047021
30
0
40
10.91
50
158.530342
51
18.530342
0
ARC
8
VISIBLE
10
148.444383
20
158.37964
30
0
40
3.23
50
249.870777
51
359.870777
0
ARC
8
VISIBLE
10
143.923685
20
151.739819
30
0
40
4.56
50
69.870777
51
289.870777
0
ARC
8
VISIBLE
10
148.414387
20
145.079673
30
0
40
3.23
50
359.870777
51
109.870777
0
ARC
8
VISIBLE
10
140.004018
20
129.055499
30
0
40
3.23
50
90.973555
51
200.973555
0
ARC
8
VISIBLE
10
133.431534
20
124.437449
30
0
40
4.56
50
160.973555
51
20.973555
0
ARC
8
VISIBLE
10
126.705937
20
128.82952
30
0
40
3.23
50
340.973555
51
90.973555
0
ARC
8
VISIBLE
10
164.975115
20
174.300353
30
0
40
3.23
50
270.469642
51
20.469642
0
ARC
8
VISIBLE
10
171.587959
20
178.860421
30
0
40
4.56
50
340.469642
51
200.469642
0
ARC
8
VISIBLE
10
178.274668
20
174.409369
30
0
40
3.23
50
160.469642
51
270.469642
0
ARC
8
VISIBLE
10
187.429456
20
160.025955
30
0
40
3.23
50
245.28192
51
355.28192
0
ARC
8
VISIBLE
10
182.39203
20
153.769097
30
0
40
4.56
50
65.28192
51
285.28192
0
ARC
8
VISIBLE
10
186.335491
20
146.771022
30
0
40
3.23
50
355.28192
51
105.28192
0
ARC
8
VISIBLE
10
169.589143
20
135.098401
30
0
40
10.91
50
343.857309
51
203.857309
0
ARC
8
VISIBLE
10
209.938881
20
169.823341
30
0
40
10.91
50
159.752049
51
19.752049
0
ARC
8
VISIBLE
10
231.739064
20
157.805414
30
0
40
3.23
50
180.705494
51
290.705494
0
ARC
8
VISIBLE
10
236.326315
20
151.211396
30
0
40
4.56
50
250.705494
51
110.705494
0
ARC
8
VISIBLE
10
231.902826
20
144.506422
30
0
40
3.23
50
70.705494
51
180.705494
0
ARC
8
VISIBLE
10
209.461828
20
134.390073
30
0
40
10.91
50
334.499765
51
194.499765
0
ARC
8
VISIBLE
10
246.687062
20
170.252528
30
0
40
10.91
50
161.598224
51
21.598224
0
ARC
8
VISIBLE
10
261.529098
20
159.032599
30
0
40
3.23
50
250.705768
51
0.705768
0
ARC
8
VISIBLE
10
257.105641
20
152.327604
30
0
40
4.56
50
70.705768
51
290.705768
0
ARC
8
VISIBLE
10
261.692923
20
145.733608
30
0
40
3.23
50
0.705768
51
110.705768
0
ARC
8
VISIBLE
10
253.746779
20
128.970581
30
0
40
3.23
50
92.530658
51
202.530658
0
ARC
8
VISIBLE
10
247.30221
20
124.17564
30
0
40
4.56
50
162.530658
51
22.530658
0
ARC
8
VISIBLE
10
240.45975
20
128.383333
30
0
40
3.23
50
342.530658
51
92.530658
0
ARC
8
VISIBLE
10
277.74088
20
175.008315
30
0
40
3.23
50
268.413967
51
18.413967
0
ARC
8
VISIBLE
10
284.513042
20
179.328242
30
0
40
4.56
50
338.413967
51
198.413967
0
ARC
8
VISIBLE
10
291.035785
20
174.640199
30
0
40
3.23
50
158.413967
51
268.413967
0
ARC
8
VISIBLE
10
291.220221
20
129.706509
30
0
40
3.23
50
90.508232
51
200.508232
0
ARC
8
VISIBLE
10
284.61045
20
125.141988
30
0
40
4.56
50
160.508232
51
20.508232
0
ARC
8
VISIBLE
10
277.920745
20
129.588536
30
0
40
3.23
50
340.508232
51
90.508232
0
ARC
8
VISIBLE
10
12.927902
20
218.428421
30
0
40
3.23
50
269.104938
51
19.104938
0
ARC
8
VISIBLE
10
19.647475
20
222.829702
30
0
40
4.56
50
339.104938
51
199.104938
0
ARC
8
VISIBLE
10
26.226279
20
218.22066
30
0
40
3.23
50
159.104938
51
269.104938
0
ARC
8
VISIBLE
10
36.028411
20
201.841273
30
0
40
3.23
50
250.909453
51
0.909453
0
ARC
8
VISIBLE
10
31.628818
20
195.120595
30
0
40
4.56
50
70.909453
51
290.909453
0
ARC
8
VISIBLE
10
36.239512
20
188.542948
30
0
40
3.23
50
0.909453
51
110.909453
0
ARC
8
VISIBLE
10
20.168693
20
177.927037
30
0
40
10.91
50
337.541925
51
197.541925
0
ARC
8
VISIBLE
10
51.152305
20
218.026965
30
0
40
3.23
50
270.0336
51
20.0336
0
ARC
8
VISIBLE
10
57.799662
20
222.536575
30
0
40
4.56
50
340.0336
51
200.0336
0
ARC
8
VISIBLE
10
64.452303
20
218.034764
30
0
40
3.23
50
160.0336
51
270.0336
0
ARC
8
VISIBLE
10
72.999153
20
202.108565
30
0
40
3.23
50
248.534837
51
358.534837
0
ARC
8
VISIBLE
10
68.32488
20
195.575946
30
0
40
4.56
50
68.534837
51
288.534837
0
ARC
8
VISIBLE
10
72.659083
20
188.812913
30
0
40
3.23
50
358.534837
51
108.534837
0
ARC
8
VISIBLE
10
57.564058
20
177.206191
30
0
40
10.91
50
340.395226
51
200.395226
0
ARC
8
VISIBLE
10
89.295952
20
218.090398
30
0
40
3.23
50
270.218166
51
20.218166
0
ARC
8
VISIBLE
10
95.928747
20
222.621398
30
0
40
4.56
50
340.218166
51
200.218166
0
ARC
8
VISIBLE
10
102.595856
20
218.14104
30
0
40
3.23
50
160.218166
51
270.218166
0
ARC
8
VISIBLE
10
112.067995
20
203.271652
30
0
40
3.23
50
249.690014
51
359.690014
0
ARC
8
VISIBLE
10
107.526371
20
196.646126
30
0
40
4.56
50
69.690014
51
289.690014
0
ARC
8
VISIBLE
10
111.996039
20
189.971847
30
0
40
3.23
50
359.690014
51
109.690014
0
ARC
8
VISIBLE
10
94.912436
20
178.469329
30
0
40
10.91
50
343.330376
51
203.330376
0
ARC
8
VISIBLE
10
127.055395
20
218.638465
30
0
40
3.23
50
272.186522
51
22.186522
0
ARC
8
VISIBLE
10
133.528648
20
223.394612
30
0
40
4.56
50
342.186522
51
202.186522
0
ARC
8
VISIBLE
10
140.345712
20
219.145897
30
0
40
3.23
50
162.186522
51
272.186522
0
ARC
8
VISIBLE
10
148.864233
20
203.537955
30
0
40
3.23
50
249.144062
51
359.144062
0
ARC
8
VISIBLE
10
144.259684
20
196.956005
30
0
40
4.56
50
69.144062
51
289.144062
0
ARC
8
VISIBLE
10
148.665552
20
190.239439
30
0
40
3.23
50
359.144062
51
109.144062
0
ARC
8
VISIBLE
10
139.997685
20
174.380694
30
0
40
3.23
50
88.530342
51
198.530342
0
ARC
8
VISIBLE
10
133.234312
20
170.047021
30
0
40
4.56
50
158.530342
51
18.530342
0
ARC
8
VISIBLE
10
126.70206
20
174.721806
30
0
40
3.23
50
338.530342
51
88.530342
0
ARC
8
VISIBLE
10
163.814519
20
219.124639
30
0
40
3.23
50
267.627798
51
17.627798
0
ARC
8
VISIBLE
10
170.645315
20
223.35124
30
0
40
4.56
50
337.627798
51
197.627798
0
ARC
8
VISIBLE
10
177.103121
20
218.57414
30
0
40
3.23
50
157.627798
51
267.627798
0
ARC
8
VISIBLE
10
186.188346
20
202.602063
30
0
40
3.23
50
254.966779
51
4.966779
0
ARC
8
VISIBLE
10
182.275297
20
195.586938
30
0
40
4.56
50
74.966779
51
294.966779
0
ARC
8
VISIBLE
10
187.339835
20
189.352004
30
0
40
3.23
50
4.966779
51
114.966779
0
ARC
8
VISIBLE
10
171.587959
20
178.860421
30
0
40
10.91
50
0.469648
51
200.469642
0
ARC
8
VISIBLE
10
171.587959
20
178.860421
30
0
40
10.91
50
340.469649
51
0.469648
0
ARC
8
VISIBLE
10
207.39264
20
213.945007
30
0
40
10.91
50
161.379041
51
21.379036
0
ARC
8
VISIBLE
10
223.574779
20
203.075612
30
0
40
3.23
50
253.430073
51
3.430073
0
ARC
8
VISIBLE
10
219.475011
20
196.167947
30
0
40
4.56
50
73.430073
51
293.430073
0
ARC
8
VISIBLE
10
224.370522
20
189.799438
30
0
40
3.23
50
3.430073
51
113.430073
0
ARC
8
VISIBLE
10
216.608317
20
174.300232
30
0
40
3.23
50
89.752049
51
199.752049
0
ARC
8
VISIBLE
10
209.938881
20
169.823341
30
0
40
4.56
50
159.752049
51
19.752049
0
ARC
8
VISIBLE
10
203.308442
20
174.357788
30
0
40
3.23
50
339.752049
51
89.752049
0
ARC
8
VISIBLE
10
246.511938
20
214.989386
30
0
40
10.91
50
161.669148
51
21.669148
0
ARC
8
VISIBLE
10
269.11959
20
204.20641
30
0
40
3.23
50
177.133359
51
287.133359
0
ARC
8
VISIBLE
10
273.287087
20
197.339394
30
0
40
4.56
50
247.133359
51
107.133359
0
ARC
8
VISIBLE
10
268.454437
20
190.923053
30
0
40
3.23
50
67.133359
51
177.133359
0
ARC
8
VISIBLE
10
253.208807
20
174.94196
30
0
40
3.23
50
91.598224
51
201.598224
0
ARC
8
VISIBLE
10
246.687062
20
170.252528
30
0
40
4.56
50
161.598224
51
21.598224
0
ARC
8
VISIBLE
10
239.913981
20
174.571014
30
0
40
3.23
50
341.598224
51
91.598224
0
ARC
8
VISIBLE
10
284.940069
20
214.801769
30
0
40
10.91
50
157.613968
51
17.613968
0
ARC
8
VISIBLE
10
284.513042
20
179.328242
30
0
40
10.91
50
3.413972
51
198.413967
0
ARC
8
VISIBLE
10
284.513042
20
179.328242
30
0
40
10.91
50
338.413973
51
3.413972
0
ARC
8
VISIBLE
10
41.574091
20
247.180542
30
0
40
3.23
50
181.562618
51
291.562618
0
ARC
8
VISIBLE
10
46.259469
20
240.655883
30
0
40
4.56
50
251.562618
51
111.562618
0
ARC
8
VISIBLE
10
41.936775
20
233.885488
30
0
40
3.23
50
71.562618
51
181.562618
0
ARC
8
VISIBLE
10
19.647475
20
222.829702
30
0
40
10.91
50
339.104938
51
199.104938
0
ARC
8
VISIBLE
10
72.952241
20
247.058781
30
0
40
3.23
50
250.824198
51
0.824198
0
ARC
8
VISIBLE
10
68.542653
20
240.344656
30
0
40
4.56
50
70.824198
51
290.824198
0
ARC
8
VISIBLE
10
73.143555
20
233.760157
30
0
40
3.23
50
0.824198
51
110.824198
0
ARC
8
VISIBLE
10
57.799662
20
222.536575
30
0
40
10.91
50
340.0336
51
200.0336
0
ARC
8
VISIBLE
10
111.217315
20
247.061335
30
0
40
3.23
50
252.028151
51
2.028151
0
ARC
8
VISIBLE
10
106.949773
20
240.256041
30
0
40
4.56
50
72.028151
51
292.028151
0
ARC
8
VISIBLE
10
111.688009
20
233.769667
30
0
40
3.23
50
2.028151
51
112.028151
0
ARC
8
VISIBLE
10
95.928747
20
222.621398
30
0
40
10.91
50
340.218166
51
200.218166
0
ARC
8
VISIBLE
10
155.32164
20
247.909494
30
0
40
3.23
50
180.442965
51
290.442965
0
ARC
8
VISIBLE
10
159.878628
20
241.294526
30
0
40
4.56
50
250.442965
51
110.442965
0
ARC
8
VISIBLE
10
155.424464
20
234.609891
30
0
40
3.23
50
70.442965
51
180.442965
0
ARC
8
VISIBLE
10
133.528648
20
223.394612
30
0
40
10.91
50
342.186522
51
202.186522
0
ARC
8
VISIBLE
10
192.691221
20
246.994404
30
0
40
3.23
50
177.568288
51
287.568288
0
ARC
8
VISIBLE
10
196.910725
20
240.159221
30
0
40
4.56
50
247.568288
51
107.568288
0
ARC
8
VISIBLE
10
192.12692
20
233.706381
30
0
40
3.23
50
67.568288
51
177.568288
0
ARC
8
VISIBLE
10
170.645315
20
223.35124
30
0
40
10.91
50
337.627798
51
197.627798
0
ARC
8
VISIBLE
10
230.594588
20
247.414819
30
0
40
3.23
50
177.031064
51
287.031064
0
ARC
8
VISIBLE
10
234.749818
20
240.540374
30
0
40
4.56
50
247.031064
51
107.031064
0
ARC
8
VISIBLE
10
229.905721
20
234.132671
30
0
40
3.23
50
67.031064
51
177.031064
0
ARC
8
VISIBLE
10
213.932277
20
218.609456
30
0
40
3.23
50
91.379041
51
201.379041
0
ARC
8
VISIBLE
10
207.39264
20
213.945007
30
0
40
4.56
50
161.379041
51
21.379041
0
ARC
8
VISIBLE
10
200.63613
20
218.289372
30
0
40
3.23
50
341.379041
51
91.379041
0
ARC
8
VISIBLE
10
262.936792
20
248.13362
30
0
40
3.23
50
250.824265
51
0.824265
0
ARC
8
VISIBLE
10
258.527211
20
241.41949
30
0
40
4.56
50
70.824265
51
290.824265
0
ARC
8
VISIBLE
10
263.128121
20
234.834996
30
0
40
3.23
50
0.824265
51
110.824265
0
ARC
8
VISIBLE
10
253.027874
20
219.686887
30
0
40
3.23
50
91.669148
51
201.669148
0
ARC
8
VISIBLE
10
246.511938
20
214.989386
30
0
40
4.56
50
161.669148
51
21.669148
0
ARC
8
VISIBLE
10
239.733517
20
219.299484
30
0
40
3.23
50
341.669148
51
91.669148
0
ARC
8
VISIBLE
10
291.771885
20
219.026721
30
0
40
3.23
50
87.613968
51
197.613968
0
ARC
8
VISIBLE
10
284.940069
20
214.801769
30
0
40
4.56
50
157.613968
51
17.613968
0
ARC
8
VISIBLE
10
278.483416
20
219.580427
30
0
40
3.23
50
337.613968
51
87.613968
0
ARC
8
VISIBLE
10
12.391006
20
41.767046
30
0
40
3.08
50
272.467897
51
22.467897
0
ARC
8
VISIBLE
10
18.840824
20
46.554925
30
0
40
4.71
50
342.467897
51
202.467897
0
ARC
8
VISIBLE
10
25.67867
20
42.339739
30
0
40
3.08
50
162.467897
51
272.467897
0
ARC
8
VISIBLE
10
87.274359
20
42.541752
30
0
40
3.08
50
267.889048
51
17.889048
0
ARC
8
VISIBLE
10
94.085813
20
46.799455
30
0
40
4.71
50
337.889048
51
197.889048
0
ARC
8
VISIBLE
10
100.565333
20
42.05185
30
0
40
3.08
50
157.889048
51
267.889048
0
ARC
8
VISIBLE
10
125.053475
20
41.593049
30
0
40
3.08
50
269.900189
51
19.900189
0
ARC
8
VISIBLE
10
131.711314
20
46.08717
30
0
40
4.71
50
339.900189
51
199.900189
0
ARC
8
VISIBLE
10
138.353455
20
41.56988
30
0
40
3.08
50
159.900189
51
269.900189
0
ARC
8
VISIBLE
10
202.390505
20
42.276879
30
0
40
3.08
50
269.371769
51
19.371769
0
ARC
8
VISIBLE
10
209.089508
20
46.709406
30
0
40
4.71
50
339.371769
51
199.371769
0
ARC
8
VISIBLE
10
215.689705
20
42.131051
30
0
40
3.08
50
159.371769
51
269.371769
0
ARC
8
VISIBLE
10
11.532954
20
85.180652
30
0
40
3.08
50
268.007131
51
18.007131
0
ARC
8
VISIBLE
10
18.335619
20
89.452384
30
0
40
4.71
50
338.007131
51
198.007131
0
ARC
8
VISIBLE
10
24.82491
20
84.718143
30
0
40
3.08
50
158.007131
51
268.007131
0
ARC
8
VISIBLE
10
49.329699
20
85.218975
30
0
40
3.08
50
273.853783
51
23.853783
0
ARC
8
VISIBLE
10
55.661831
20
90.161449
30
0
40
4.71
50
343.853783
51
203.853783
0
ARC
8
VISIBLE
10
62.599626
20
86.112875
30
0
40
3.08
50
163.853783
51
273.853783
0
ARC
8
VISIBLE
10
63.457066
20
42.840837
30
0
40
3.08
50
90.155331
51
200.155331
0
ARC
8
VISIBLE
10
56.819306
20
38.317113
30
0
40
4.71
50
160.155331
51
20.155331
0
ARC
8
VISIBLE
10
50.157115
20
42.80478
30
0
40
3.08
50
340.155331
51
90.155331
0
ARC
8
VISIBLE
10
88.331663
20
86.955975
30
0
40
3.08
50
269.678847
51
19.678847
0
ARC
8
VISIBLE
10
95.006814
20
91.424341
30
0
40
4.71
50
339.678847
51
199.678847
0
ARC
8
VISIBLE
10
101.631454
20
86.881426
30
0
40
3.08
50
159.678847
51
269.678847
0
ARC
8
VISIBLE
10
177.817435
20
42.005759
30
0
40
3.08
50
91.216829
51
201.216829
0
ARC
8
VISIBLE
10
171.264619
20
37.359844
30
0
40
4.71
50
161.216829
51
21.216829
0
ARC
8
VISIBLE
10
164.520435
20
41.723319
30
0
40
3.08
50
341.216829
51
91.216829
0
ARC
8
VISIBLE
10
242.113527
20
86.766217
30
0
40
3.08
50
267.362443
51
17.362443
0
ARC
8
VISIBLE
10
248.963825
20
90.961137
30
0
40
4.71
50
337.362443
51
197.362443
0
ARC
8
VISIBLE
10
255.399438
20
86.15418
30
0
40
3.08
50
157.362443
51
267.362443
0
ARC
8
VISIBLE
10
253.659909
20
41.006431
30
0
40
3.08
50
88.09802
51
198.09802
0
ARC
8
VISIBLE
10
246.864029
20
36.723914
30
0
40
4.71
50
158.09802
51
18.09802
0
ARC
8
VISIBLE
10
240.367236
20
41.447854
30
0
40
3.08
50
338.09802
51
88.09802
0
ARC
8
VISIBLE
10
278.971418
20
85.597277
30
0
40
3.08
50
269.96045
51
19.96045
0
ARC
8
VISIBLE
10
285.624526
20
90.098397
30
0
40
4.71
50
339.96045
51
199.96045
0
ARC
8
VISIBLE
10
292.271414
20
85.588097
30
0
40
3.08
50
159.96045
51
269.96045
0
ARC
8
VISIBLE
10
292.394332
20
40.939633
30
0
40
3.08
50
90.888463
51
200.888463
0
ARC
8
VISIBLE
10
285.814997
20
36.331348
30
0
40
4.71
50
160.888463
51
20.888463
0
ARC
8
VISIBLE
10
279.095931
20
40.733403
30
0
40
3.08
50
340.888463
51
90.888463
0
ARC
8
VISIBLE
10
12.895003
20
129.473225
30
0
40
3.08
50
267.962208
51
17.962208
0
ARC
8
VISIBLE
10
19.701014
20
133.739621
30
0
40
4.71
50
337.962208
51
197.962208
0
ARC
8
VISIBLE
10
26.186592
20
129.000294
30
0
40
3.08
50
157.962208
51
267.962208
0
ARC
8
VISIBLE
10
50.240347
20
129.50111
30
0
40
3.08
50
274.730792
51
24.730792
0
ARC
8
VISIBLE
10
56.496087
20
134.539924
30
0
40
4.71
50
344.730792
51
204.730792
0
ARC
8
VISIBLE
10
63.495037
20
130.598016
30
0
40
3.08
50
164.730792
51
274.730792
0
ARC
8
VISIBLE
10
138.673989
20
85.372482
30
0
40
3.08
50
86.959503
51
196.959503
0
ARC
8
VISIBLE
10
131.794359
20
81.225841
30
0
40
4.71
50
156.959503
51
16.959503
0
ARC
8
VISIBLE
10
125.392711
20
86.077938
30
0
40
3.08
50
336.959503
51
86.959503
0
ARC
8
VISIBLE
10
163.257315
20
130.155538
30
0
40
3.08
50
273.857309
51
23.857309
0
ARC
8
VISIBLE
10
169.589143
20
135.098401
30
0
40
4.71
50
343.857309
51
203.857309
0
ARC
8
VISIBLE
10
176.527186
20
131.050255
30
0
40
3.08
50
163.857309
51
273.857309
0
ARC
8
VISIBLE
10
176.649353
20
86.474421
30
0
40
3.08
50
93.847125
51
203.847125
0
ARC
8
VISIBLE
10
170.316647
20
81.532683
30
0
40
4.71
50
163.847125
51
23.847125
0
ARC
8
VISIBLE
10
163.379323
20
85.582063
30
0
40
3.08
50
343.847125
51
93.847125
0
ARC
8
VISIBLE
10
202.410574
20
130.542509
30
0
40
3.08
50
264.499765
51
14.499765
0
ARC
8
VISIBLE
10
209.461828
20
134.390073
30
0
40
4.71
50
334.499765
51
194.499765
0
ARC
8
VISIBLE
10
215.649338
20
129.267706
30
0
40
3.08
50
154.499765
51
264.499765
0
ARC
8
VISIBLE
10
216.072631
20
87.243149
30
0
40
3.08
50
89.871058
51
199.871058
0
ARC
8
VISIBLE
10
209.412508
20
82.752415
30
0
40
4.71
50
159.871058
51
19.871058
0
ARC
8
VISIBLE
10
202.772664
20
87.27308
30
0
40
3.08
50
339.871058
51
89.871058
0
ARC
8
VISIBLE
10
13.331569
20
173.710679
30
0
40
3.08
50
267.541925
51
17.541925
0
ARC
8
VISIBLE
10
20.168693
20
177.927037
30
0
40
4.71
50
337.541925
51
197.541925
0
ARC
8
VISIBLE
10
26.619331
20
173.140264
30
0
40
3.08
50
157.541925
51
267.541925
0
ARC
8
VISIBLE
10
50.945297
20
172.654716
30
0
40
3.08
50
270.395226
51
20.395226
0
ARC
8
VISIBLE
10
57.564058
20
177.206191
30
0
40
4.71
50
340.395226
51
200.395226
0
ARC
8
VISIBLE
10
64.24498
20
172.746458
30
0
40
3.08
50
160.395226
51
270.395226
0
ARC
8
VISIBLE
10
88.535418
20
173.584907
30
0
40
3.08
50
273.330376
51
23.330376
0
ARC
8
VISIBLE
10
94.912436
20
178.469329
30
0
40
4.71
50
343.330376
51
203.330376
0
ARC
8
VISIBLE
10
101.812956
20
174.357548
30
0
40
3.08
50
163.330376
51
273.330376
0
ARC
8
VISIBLE
10
101.602617
20
129.580538
30
0
40
3.08
50
85.905085
51
195.905085
0
ARC
8
VISIBLE
10
94.647846
20
125.561199
30
0
40
4.71
50
155.905085
51
15.905085
0
ARC
8
VISIBLE
10
88.336571
20
130.530277
30
0
40
3.08
50
335.905085
51
85.905085
0
ARC
8
VISIBLE
10
140.004018
20
129.055499
30
0
40
3.08
50
90.973555
51
200.973555
0
ARC
8
VISIBLE
10
133.431534
20
124.437449
30
0
40
4.71
50
160.973555
51
20.973555
0
ARC
8
VISIBLE
10
126.705937
20
128.82952
30
0
40
3.08
50
340.973555
51
90.973555
0
ARC
8
VISIBLE
10
164.975115
20
174.300353
30
0
40
3.08
50
270.469642
51
20.469642
0
ARC
8
VISIBLE
10
171.587959
20
178.860421
30
0
40
4.71
50
340.469642
51
200.469642
0
ARC
8
VISIBLE
10
178.274668
20
174.409369
30
0
40
3.08
50
160.469642
51
270.469642
0
ARC
8
VISIBLE
10
253.746779
20
128.970581
30
0
40
3.08
50
92.530658
51
202.530658
0
ARC
8
VISIBLE
10
247.30221
20
124.17564
30
0
40
4.71
50
162.530658
51
22.530658
0
ARC
8
VISIBLE
10
240.45975
20
128.383333
30
0
40
3.08
50
342.530658
51
92.530658
0
ARC
8
VISIBLE
10
277.74088
20
175.008315
30
0
40
3.08
50
268.413967
51
18.413967
0
ARC
8
VISIBLE
10
284.513042
20
179.328242
30
0
40
4.71
50
338.413967
51
198.413967
0
ARC
8
VISIBLE
10
291.035785
20
174.640199
30
0
40
3.08
50
158.413967
51
268.413967
0
ARC
8
VISIBLE
10
291.220221
20
129.706509
30
0
40
3.08
50
90.508232
51
200.508232
0
ARC
8
VISIBLE
10
284.61045
20
125.141988
30
0
40
4.71
50
160.508232
51
20.508232
0
ARC
8
VISIBLE
10
277.920745
20
129.588536
30
0
40
3.08
50
340.508232
51
90.508232
0
ARC
8
VISIBLE
10
12.927902
20
218.428421
30
0
40
3.08
50
269.104938
51
19.104938
0
ARC
8
VISIBLE
10
19.647475
20
222.829702
30
0
40
4.71
50
339.104938
51
199.104938
0
ARC
8
VISIBLE
10
26.226279
20
218.22066
30
0
40
3.08
50
159.104938
51
269.104938
0
ARC
8
VISIBLE
10
51.152305
20
218.026965
30
0
40
3.08
50
270.0336
51
20.0336
0
ARC
8
VISIBLE
10
57.799662
20
222.536575
30
0
40
4.71
50
340.0336
51
200.0336
0
ARC
8
VISIBLE
10
64.452303
20
218.034764
30
0
40
3.08
50
160.0336
51
270.0336
0
ARC
8
VISIBLE
10
89.295952
20
218.090398
30
0
40
3.08
50
270.218166
51
20.218166
0
ARC
8
VISIBLE
10
95.928747
20
222.621398
30
0
40
4.71
50
340.218166
51
200.218166
0
ARC
8
VISIBLE
10
102.595856
20
218.14104
30
0
40
3.08
50
160.218166
51
270.218166
0
ARC
8
VISIBLE
10
127.055395
20
218.638465
30
0
40
3.08
50
272.186522
51
22.186522
0
ARC
8
VISIBLE
10
133.528648
20
223.394612
30
0
40
4.71
50
342.186522
51
202.186522
0
ARC
8
VISIBLE
10
140.345712
20
219.145897
30
0
40
3.08
50
162.186522
51
272.186522
0
ARC
8
VISIBLE
10
139.997685
20
174.380694
30
0
40
3.08
50
88.530342
51
198.530342
0
ARC
8
VISIBLE
10
133.234312
20
170.047021
30
0
40
4.71
50
158.530342
51
18.530342
0
ARC
8
VISIBLE
10
126.70206
20
174.721806
30
0
40
3.08
50
338.530342
51
88.530342
0
ARC
8
VISIBLE
10
163.814519
20
219.124639
30
0
40
3.08
50
267.627798
51
17.627798
0
ARC
8
VISIBLE
10
170.645315
20
223.35124
30
0
40
4.71
50
337.627798
51
197.627798
0
ARC
8
VISIBLE
10
177.103121
20
218.57414
30
0
40
3.08
50
157.627798
51
267.627798
0
ARC
8
VISIBLE
10
216.608317
20
174.300232
30
0
40
3.08
50
89.752049
51
199.752049
0
ARC
8
VISIBLE
10
209.938881
20
169.823341
30
0
40
4.71
50
159.752049
51
19.752049
0
ARC
8
VISIBLE
10
203.308442
20
174.357788
30
0
40
3.08
50
339.752049
51
89.752049
0
ARC
8
VISIBLE
10
253.208807
20
174.94196
30
0
40
3.08
50
91.598224
51
201.598224
0
ARC
8
VISIBLE
10
246.687062
20
170.252528
30
0
40
4.71
50
161.598224
51
21.598224
0
ARC
8
VISIBLE
10
239.913981
20
174.571014
30
0
40
3.08
50
341.598224
51
91.598224
0
ARC
8
VISIBLE
10
213.932277
20
218.609456
30
0
40
3.08
50
91.379041
51
201.379041
0
ARC
8
VISIBLE
10
207.39264
20
213.945007
30
0
40
4.71
50
161.379041
51
21.379041
0
ARC
8
VISIBLE
10
200.63613
20
218.289372
30
0
40
3.08
50
341.379041
51
91.379041
0
ARC
8
VISIBLE
10
253.027874
20
219.686887
30
0
40
3.08
50
91.669148
51
201.669148
0
ARC
8
VISIBLE
10
246.511938
20
214.989386
30
0
40
4.71
50
161.669148
51
21.669148
0
ARC
8
VISIBLE
10
239.733517
20
219.299484
30
0
40
3.08
50
341.669148
51
91.669148
0
ARC
8
VISIBLE
10
291.771885
20
219.026721
30
0
40
3.08
50
87.613968
51
197.613968
0
ARC
8
VISIBLE
10
284.940069
20
214.801769
30
0
40
4.71
50
157.613968
51
17.613968
0
ARC
8
VISIBLE
10
278.483416
20
219.580427
30
0
40
3.08
50
337.613968
51
87.613968
0
ENDSEC
0
EOF
