0
SECTION
2
HEADER
9
$ACADVER
1
AC1015
9
$INSUNITS
70
4
0
ENDSEC
0
SECTION
2
TABLES
0
TABLE
2
LAYER
70
2
0
LAYER
2
VISIBLE
70
0
62
7
6
CONTINUOUS
0
LAYER
2
HIDDEN
70
0
62
8
6
DASHED
0
ENDTAB
0
ENDSEC
0
SECTION
2
ENTITIES
0
LINE
8
VISIBLE
10
0
20
0
30
0
11
38
21
0
31
0
0
LINE
8
VISIBLE
10
0
20
0
30
0
11
0
21
38
31
0
0
LINE
8
VISIBLE
10
38
20
0
30
0
11
38.115588
21
13.176644
31
0
0
LINE
8
VISIBLE
10
42.476771
20
16.173711
30
0
11
44.312195
21
15.487379
31
0
0
LINE
8
VISIBLE
10
44.38737
20
24.057046
30
0
11
42.540187
21
23.403018
31
0
0
LINE
8
VISIBLE
10
38.232253
20
26.476132
30
0
11
38.347841
21
39.652776
31
0
0
LINE
8
VISIBLE
10
38.347841
20
39.652776
30
0
11
0
21
38
31
0
0
LINE
8
VISIBLE
10
38
20
0
30
0
11
76
21
0
31
0
0
LINE
8
VISIBLE
10
76
20
0
30
0
11
75.75005
21
13.227595
31
0
0
LINE
8
VISIBLE
10
80.026658
20
16.344155
30
0
11
81.880366
21
15.708858
31
0
0
LINE
8
VISIBLE
10
81.718455
20
24.277325
30
0
11
79.890071
21
23.572451
31
0
0
LINE
8
VISIBLE
10
75.498776
20
26.525221
30
0
11
75.248826
21
39.752817
31
0
0
LINE
8
VISIBLE
10
75.248826
20
39.752817
30
0
11
38.347841
21
39.652776
31
0
0
LINE
8
VISIBLE
10
76
20
0
30
0
11
114
21
0
31
0
0
LINE
8
VISIBLE
10
114
20
0
30
0
11
113.461542
21
12.548698
31
0
0
LINE
8
VISIBLE
10
117.662163
20
15.766945
30
0
11
119.530576
21
15.176295
31
0
0
LINE
8
VISIBLE
10
119.163181
20
23.738413
30
0
11
117.352231
21
22.989884
31
0
0
LINE
8
VISIBLE
10
112.891371
20
25.836471
30
0
11
112.352914
21
38.385169
31
0
0
LINE
8
VISIBLE
10
112.352914
20
38.385169
30
0
11
75.248826
21
39.752817
31
0
0
LINE
8
VISIBLE
10
114
20
0
30
0
11
152
21
0
31
0
0
LINE
8
VISIBLE
10
152
20
0
30
0
11
151.687457
21
12.510959
31
0
0
LINE
8
VISIBLE
10
147.278283
20
15.436965
30
0
11
145.454221
21
14.720983
31
0
0
LINE
8
VISIBLE
10
145.240195
20
23.288307
30
0
11
147.097733
21
22.664296
31
0
0
LINE
8
VISIBLE
10
151.355306
20
25.806811
30
0
11
151.042763
21
38.31777
31
0
0
LINE
8
VISIBLE
10
151.042763
20
38.31777
30
0
11
112.352914
21
38.385169
31
0
0
LINE
8
VISIBLE
10
152
20
0
30
0
11
190
21
0
31
0
0
LINE
8
VISIBLE
10
190
20
0
30
0
11
190.382463
21
12.937829
31
0
0
LINE
8
VISIBLE
10
194.804981
20
15.843626
30
0
11
196.625748
21
15.119303
31
0
0
LINE
8
VISIBLE
10
196.87898
20
23.685557
30
0
11
195.018606
21
23.070055
31
0
0
LINE
8
VISIBLE
10
190.77546
20
26.232022
30
0
11
191.157923
21
39.169851
31
0
0
LINE
8
VISIBLE
10
191.157923
20
39.169851
30
0
11
151.042763
21
38.31777
31
0
0
LINE
8
VISIBLE
10
190
20
0
30
0
11
228
21
0
31
0
0
LINE
8
VISIBLE
10
228
20
0
30
0
11
227.622602
21
12.742148
31
0
0
LINE
8
VISIBLE
10
223.19992
20
15.647695
30
0
11
221.379194
21
14.923269
31
0
0
LINE
8
VISIBLE
10
221.125478
20
23.48951
30
0
11
222.985887
21
22.874112
31
0
0
LINE
8
VISIBLE
10
227.228855
20
26.036319
30
0
11
226.851457
21
38.778467
31
0
0
LINE
8
VISIBLE
10
226.851457
20
38.778467
30
0
11
191.157923
21
39.169851
31
0
0
LINE
8
VISIBLE
10
228
20
0
30
0
11
266
21
0
31
0
0
LINE
8
VISIBLE
10
266
20
0
30
0
11
266.448261
21
12.07071
31
0
0
LINE
8
VISIBLE
10
270.892639
20
14.942962
30
0
11
272.707873
21
14.204884
31
0
0
LINE
8
VISIBLE
10
273.025912
20
22.768977
30
0
11
271.160934
21
22.167568
31
0
0
LINE
8
VISIBLE
10
266.941833
20
25.361549
30
0
11
267.390094
21
37.432259
31
0
0
LINE
8
VISIBLE
10
267.390094
20
37.432259
30
0
11
226.851457
21
38.778467
31
0
0
LINE
8
VISIBLE
10
266
20
0
30
0
11
304
21
0
31
0
0
LINE
8
VISIBLE
10
304
20
0
30
0
11
304
21
38
31
0
0
LINE
8
VISIBLE
10
304
20
38
30
0
11
267.390094
21
37.432259
31
0
0
LINE
8
VISIBLE
10
0
20
44.35
30
0
11
38.347841
21
46.002776
31
0
0
LINE
8
VISIBLE
10
0
20
44.35
30
0
11
0
21
82.35
31
0
0
LINE
8
VISIBLE
10
38.347841
20
46.002776
30
0
11
37.659396
21
56.910944
31
0
0
LINE
8
VISIBLE
10
33.142098
20
59.667091
30
0
11
31.346595
21
58.882233
31
0
0
LINE
8
VISIBLE
10
30.806792
20
67.435212
30
0
11
32.686725
21
66.882321
31
0
0
LINE
8
VISIBLE
10
36.821662
20
70.184535
30
0
11
36.133217
21
81.092703
31
0
0
LINE
8
VISIBLE
10
36.133217
20
81.092703
30
0
11
0
21
82.35
31
0
0
LINE
8
VISIBLE
10
38.347841
20
46.002776
30
0
11
75.248826
21
46.102817
31
0
0
LINE
8
VISIBLE
10
75.248826
20
46.102817
30
0
11
75.566452
21
58.300539
31
0
0
LINE
8
VISIBLE
10
79.978717
20
61.221881
30
0
11
81.802021
21
60.50397
31
0
0
LINE
8
VISIBLE
10
82.025106
20
69.071063
30
0
11
80.16691
21
68.449017
31
0
0
LINE
8
VISIBLE
10
75.912663
20
71.596032
30
0
11
76.230288
21
83.793755
31
0
0
LINE
8
VISIBLE
10
76.230288
20
83.793755
30
0
11
36.133217
21
81.092703
31
0
0
LINE
8
VISIBLE
10
75.248826
20
46.102817
30
0
11
112.352914
21
44.735169
31
0
0
LINE
8
VISIBLE
10
112.352914
20
44.735169
30
0
11
112.794892
21
57.513433
31
0
0
LINE
8
VISIBLE
10
117.231947
20
60.396985
30
0
11
119.049053
21
59.663528
31
0
0
LINE
8
VISIBLE
10
119.345298
20
68.228402
30
0
11
117.481856
21
67.62225
31
0
0
LINE
8
VISIBLE
10
113.254642
20
70.805484
30
0
11
113.696621
21
83.583747
31
0
0
LINE
8
VISIBLE
10
113.696621
20
83.583747
30
0
11
76.230288
21
83.793755
31
0
0
LINE
8
VISIBLE
10
112.352914
20
44.735169
30
0
11
151.042763
21
44.66777
31
0
0
LINE
8
VISIBLE
10
151.042763
20
44.66777
30
0
11
150.937141
21
56.49294
31
0
0
LINE
8
VISIBLE
10
146.57548
20
59.48931
30
0
11
144.740165
21
58.802685
31
0
0
LINE
8
VISIBLE
10
144.663621
20
67.37234
30
0
11
146.510908
21
66.718607
31
0
0
LINE
8
VISIBLE
10
150.818351
20
69.792409
30
0
11
150.71273
21
81.617579
31
0
0
LINE
8
VISIBLE
10
150.71273
20
81.617579
30
0
11
113.696621
21
83.583747
31
0
0
LINE
8
VISIBLE
10
151.042763
20
44.66777
30
0
11
191.157923
21
45.519851
31
0
0
LINE
8
VISIBLE
10
191.157923
20
45.519851
30
0
11
190.410896
21
58.213585
31
0
0
LINE
8
VISIBLE
10
194.559821
20
61.498208
30
0
11
196.437388
21
60.937338
31
0
0
LINE
8
VISIBLE
10
195.933915
20
69.492533
30
0
11
194.135094
21
68.715307
31
0
0
LINE
8
VISIBLE
10
189.629542
20
71.490614
30
0
11
188.882516
21
84.184348
31
0
0
LINE
8
VISIBLE
10
188.882516
20
84.184348
30
0
11
150.71273
21
81.617579
31
0
0
LINE
8
VISIBLE
10
191.157923
20
45.519851
30
0
11
226.851457
21
45.128467
31
0
0
LINE
8
VISIBLE
10
226.851457
20
45.128467
30
0
11
227.882596
21
57.981464
31
0
0
LINE
8
VISIBLE
10
223.804474
20
61.353592
30
0
11
221.915402
21
60.832785
31
0
0
LINE
8
VISIBLE
10
222.600733
20
69.375336
30
0
11
224.382614
21
68.560024
31
0
0
LINE
8
VISIBLE
10
228.946178
20
71.238869
30
0
11
229.977317
21
84.091866
31
0
0
LINE
8
VISIBLE
10
229.977317
20
84.091866
30
0
11
188.882516
21
84.184348
31
0
0
LINE
8
VISIBLE
10
226.851457
20
45.128467
30
0
11
267.390094
21
43.782259
31
0
0
LINE
8
VISIBLE
10
267.390094
20
43.782259
30
0
11
267.340377
21
56.428869
31
0
0
LINE
8
VISIBLE
10
262.993753
20
59.447012
30
0
11
261.155027
21
58.769572
31
0
0
LINE
8
VISIBLE
10
261.121336
20
67.339503
30
0
11
262.965331
21
66.676541
31
0
0
LINE
8
VISIBLE
10
267.288091
20
69.728766
30
0
11
267.238373
21
82.375376
31
0
0
LINE
8
VISIBLE
10
267.238373
20
82.375376
30
0
11
229.977317
21
84.091866
31
0
0
LINE
8
VISIBLE
10
267.390094
20
43.782259
30
0
11
304
21
44.35
31
0
0
LINE
8
VISIBLE
10
304
20
44.35
30
0
11
304
21
82.35
31
0
0
LINE
8
VISIBLE
10
304
20
82.35
30
0
11
267.238373
21
82.375376
31
0
0
LINE
8
VISIBLE
10
0
20
88.7
30
0
11
36.133217
21
87.442703
31
0
0
LINE
8
VISIBLE
10
0
20
88.7
30
0
11
0
21
126.7
31
0
0
LINE
8
VISIBLE
10
36.133217
20
87.442703
30
0
11
37.016438
21
99.747219
31
0
0
LINE
8
VISIBLE
10
41.557347
20
102.464288
30
0
11
43.346012
21
101.663968
31
0
0
LINE
8
VISIBLE
10
43.95959
20
110.211971
30
0
11
42.074957
21
109.675321
31
0
0
LINE
8
VISIBLE
10
37.968665
20
113.013088
30
0
11
38.851885
21
125.317604
31
0
0
LINE
8
VISIBLE
10
38.851885
20
125.317604
30
0
11
0
21
126.7
31
0
0
LINE
8
VISIBLE
10
36.133217
20
87.442703
30
0
11
76.230288
21
90.143755
31
0
0
LINE
8
VISIBLE
10
76.230288
20
90.143755
30
0
11
75.964959
21
102.595151
31
0
0
LINE
8
VISIBLE
10
80.234037
20
105.722018
30
0
11
82.089272
21
105.091194
31
0
0
LINE
8
VISIBLE
10
81.906693
20
113.659246
30
0
11
80.080015
21
112.949963
31
0
0
LINE
8
VISIBLE
10
75.681611
20
115.892133
30
0
11
75.416281
21
128.343529
31
0
0
LINE
8
VISIBLE
10
75.416281
20
128.343529
30
0
11
38.851885
21
125.317604
31
0
0
LINE
8
VISIBLE
10
76.230288
20
90.143755
30
0
11
113.696621
21
89.933747
31
0
0
LINE
8
VISIBLE
10
113.696621
20
89.933747
30
0
11
114.099898
21
101.076622
31
0
0
LINE
8
VISIBLE
10
109.877786
20
104.266621
30
0
11
108.013377
21
103.663452
31
0
0
LINE
8
VISIBLE
10
108.323335
20
112.227842
30
0
11
110.139265
21
111.491476
31
0
0
LINE
8
VISIBLE
10
114.580931
20
114.36792
30
0
11
114.984208
21
125.510794
31
0
0
LINE
8
VISIBLE
10
114.984208
20
125.510794
30
0
11
75.416281
21
128.343529
31
0
0
LINE
8
VISIBLE
10
113.696621
20
89.933747
30
0
11
150.71273
21
87.967579
31
0
0
LINE
8
VISIBLE
10
150.71273
20
87.967579
30
0
11
151.007018
21
100.402297
31
0
0
LINE
8
VISIBLE
10
146.74532
20
103.539215
30
0
11
144.888603
21
102.912764
31
0
0
LINE
8
VISIBLE
10
145.09137
20
111.480361
30
0
11
146.916372
21
110.766776
31
0
0
LINE
8
VISIBLE
10
151.321697
20
113.698574
30
0
11
151.615985
21
126.133292
31
0
0
LINE
8
VISIBLE
10
151.615985
20
126.133292
30
0
11
114.984208
21
125.510794
31
0
0
LINE
8
VISIBLE
10
150.71273
20
87.967579
30
0
11
188.882516
21
90.534348
31
0
0
LINE
8
VISIBLE
10
188.882516
20
90.534348
30
0
11
188.791583
21
102.93092
31
0
0
LINE
8
VISIBLE
10
193.103928
20
105.997841
30
0
11
194.950169
21
105.341161
31
0
0
LINE
8
VISIBLE
10
194.887307
20
113.910927
30
0
11
193.050898
21
113.227233
31
0
0
LINE
8
VISIBLE
10
188.694025
20
116.230562
30
0
11
188.603092
21
128.627135
31
0
0
LINE
8
VISIBLE
10
188.603092
20
128.627135
30
0
11
151.615985
21
126.133292
31
0
0
LINE
8
VISIBLE
10
188.882516
20
90.534348
30
0
11
229.977317
21
90.441866
31
0
0
LINE
8
VISIBLE
10
229.977317
20
90.441866
30
0
11
229.628241
21
100.95101
31
0
0
LINE
8
VISIBLE
10
233.859814
20
104.128449
30
0
11
235.722423
21
103.519743
31
0
0
LINE
8
VISIBLE
10
235.437915
20
112.085015
30
0
11
233.619805
21
111.354049
31
0
0
LINE
8
VISIBLE
10
229.186706
20
114.243679
30
0
11
228.83763
21
124.752823
31
0
0
LINE
8
VISIBLE
10
228.83763
20
124.752823
30
0
11
188.603092
21
128.627135
31
0
0
LINE
8
VISIBLE
10
229.977317
20
90.441866
30
0
11
267.238373
21
88.725376
31
0
0
LINE
8
VISIBLE
10
267.238373
20
88.725376
30
0
11
266.541183
21
100.900959
31
0
0
LINE
8
VISIBLE
10
270.695304
20
104.179008
30
0
11
272.571981
21
103.615166
31
0
0
LINE
8
VISIBLE
10
272.082055
20
112.171147
30
0
11
270.282006
21
111.39677
31
0
0
LINE
8
VISIBLE
10
265.780854
20
114.179208
30
0
11
265.083665
21
126.354791
31
0
0
LINE
8
VISIBLE
10
265.083665
20
126.354791
30
0
11
228.83763
21
124.752823
31
0
0
LINE
8
VISIBLE
10
267.238373
20
88.725376
30
0
11
304
21
88.7
31
0
0
LINE
8
VISIBLE
10
304
20
88.7
30
0
11
304
21
126.7
31
0
0
LINE
8
VISIBLE
10
304
20
126.7
30
0
11
265.083665
21
126.354791
31
0
0
LINE
8
VISIBLE
10
0
20
133.05
30
0
11
38.851885
21
131.667604
31
0
0
LINE
8
VISIBLE
10
0
20
133.05
30
0
11
0
21
171.05
31
0
0
LINE
8
VISIBLE
10
38.851885
20
131.667604
30
0
11
39.117831
21
143.858828
31
0
0
LINE
8
VISIBLE
10
34.850333
20
146.98785
30
0
11
32.99478
21
146.357963
31
0
0
LINE
8
VISIBLE
10
33.181686
20
154.925922
30
0
11
35.008006
21
154.215716
31
0
0
LINE
8
VISIBLE
10
39.407896
20
157.155664
30
0
11
39.673841
21
169.346887
31
0
0
LINE
8
VISIBLE
10
39.673841
20
169.346887
30
0
11
0
21
171.05
31
0
0
LINE
8
VISIBLE
10
38.851885
20
131.667604
30
0
11
75.416281
21
134.693529
31
0
0
LINE
8
VISIBLE
10
75.416281
20
134.693529
30
0
11
75.461065
21
145.494042
31
0
0
LINE
8
VISIBLE
10
79.808338
20
148.51125
30
0
11
81.646918
21
147.833415
31
0
0
LINE
8
VISIBLE
10
81.682453
20
156.403338
30
0
11
79.838315
21
155.740773
31
0
0
LINE
8
VISIBLE
10
75.516212
20
158.793928
30
0
11
75.560996
21
169.594441
31
0
0
LINE
8
VISIBLE
10
75.560996
20
169.594441
30
0
11
39.673841
21
169.346887
31
0
0
LINE
8
VISIBLE
10
75.416281
20
134.693529
30
0
11
114.984208
21
131.860794
31
0
0
LINE
8
VISIBLE
10
114.984208
20
131.860794
30
0
11
115.043795
21
145.229925
31
0
0
LINE
8
VISIBLE
10
110.722641
20
148.284422
30
0
11
108.878298
21
147.622431
31
0
0
LINE
8
VISIBLE
10
108.916495
20
156.192342
30
0
11
110.754864
21
155.513936
31
0
0
LINE
8
VISIBLE
10
115.103074
20
158.529793
30
0
11
115.162661
21
171.898924
31
0
0
LINE
8
VISIBLE
10
115.162661
20
171.898924
30
0
11
75.560996
21
169.594441
31
0
0
LINE
8
VISIBLE
10
114.984208
20
131.860794
30
0
11
151.615985
21
132.483292
31
0
0
LINE
8
VISIBLE
10
151.615985
20
132.483292
30
0
11
151.644378
21
145.072389
31
0
0
LINE
8
VISIBLE
10
147.31651
20
148.117364
30
0
11
145.473629
21
147.451314
31
0
0
LINE
8
VISIBLE
10
145.492957
20
156.021289
30
0
11
147.332815
21
155.346932
31
0
0
LINE
8
VISIBLE
10
151.674375
20
158.372355
30
0
11
151.702768
21
170.961451
31
0
0
LINE
8
VISIBLE
10
151.702768
20
170.961451
30
0
11
115.162661
21
171.898924
31
0
0
LINE
8
VISIBLE
10
151.615985
20
132.483292
30
0
11
188.603092
21
134.977135
31
0
0
LINE
8
VISIBLE
10
188.603092
20
134.977135
30
0
11
189.554546
21
146.505345
31
0
0
LINE
8
VISIBLE
10
185.484165
20
149.886811
30
0
11
183.593903
21
149.370336
31
0
0
LINE
8
VISIBLE
10
184.298811
20
157.911293
30
0
11
186.07882
21
157.0919
31
0
0
LINE
8
VISIBLE
10
190.648511
20
159.760278
30
0
11
191.599965
21
171.288488
31
0
0
LINE
8
VISIBLE
10
191.599965
20
171.288488
30
0
11
151.702768
21
170.961451
31
0
0
LINE
8
VISIBLE
10
188.603092
20
134.977135
30
0
11
228.83763
21
131.102823
31
0
0
LINE
8
VISIBLE
10
228.83763
20
131.102823
30
0
11
228.673071
21
144.466651
31
0
0
LINE
8
VISIBLE
10
232.970095
20
147.555002
30
0
11
234.819582
21
146.907519
31
0
0
LINE
8
VISIBLE
10
234.71406
20
155.476867
30
0
11
232.881078
21
154.784039
31
0
0
LINE
8
VISIBLE
10
228.509309
20
157.765643
30
0
11
228.344749
21
171.129472
31
0
0
LINE
8
VISIBLE
10
228.344749
20
171.129472
30
0
11
191.599965
21
171.288488
31
0
0
LINE
8
VISIBLE
10
228.83763
20
131.102823
30
0
11
265.083665
21
132.704791
31
0
0
LINE
8
VISIBLE
10
265.083665
20
132.704791
30
0
11
264.922678
21
145.773394
31
0
0
LINE
8
VISIBLE
10
260.550895
20
148.754978
30
0
11
258.717915
21
148.062141
31
0
0
LINE
8
VISIBLE
10
258.612353
20
156.631488
30
0
11
260.461843
21
155.984015
31
0
0
LINE
8
VISIBLE
10
264.758853
20
159.072385
30
0
11
264.597866
21
172.140989
31
0
0
LINE
8
VISIBLE
10
264.597866
20
172.140989
30
0
11
228.344749
21
171.129472
31
0
0
LINE
8
VISIBLE
10
265.083665
20
132.704791
30
0
11
304
21
133.05
31
0
0
LINE
8
VISIBLE
10
304
20
133.05
30
0
11
304
21
171.05
31
0
0
LINE
8
VISIBLE
10
304
20
171.05
30
0
11
264.597866
21
172.140989
31
0
0
LINE
8
VISIBLE
10
0
20
177.4
30
0
11
39.673841
21
175.696887
31
0
0
LINE
8
VISIBLE
10
0
20
177.4
30
0
11
0
21
215.4
31
0
0
LINE
8
VISIBLE
10
39.673841
20
175.696887
30
0
11
39.469106
21
188.594216
31
0
0
LINE
8
VISIBLE
10
35.086751
20
191.560239
30
0
11
33.256246
21
190.860891
31
0
0
LINE
8
VISIBLE
10
33.120221
20
199.429808
30
0
11
34.972001
21
198.788914
31
0
0
LINE
8
VISIBLE
10
39.258004
20
201.89254
30
0
11
39.053268
21
214.789869
31
0
0
LINE
8
VISIBLE
10
39.053268
20
214.789869
30
0
11
0
21
215.4
31
0
0
LINE
8
VISIBLE
10
39.673841
20
175.696887
30
0
11
75.560996
21
175.944441
31
0
0
LINE
8
VISIBLE
10
75.560996
20
175.944441
30
0
11
75.888027
21
188.730325
31
0
0
LINE
8
VISIBLE
10
71.632327
20
191.875375
30
0
11
69.774418
21
191.252471
31
0
0
LINE
8
VISIBLE
10
69.993545
20
199.819666
30
0
11
71.817181
21
199.102597
31
0
0
LINE
8
VISIBLE
10
76.228097
20
202.025977
30
0
11
76.555128
21
214.811861
31
0
0
LINE
8
VISIBLE
10
76.555128
20
214.811861
30
0
11
39.053268
21
214.789869
31
0
0
LINE
8
VISIBLE
10
75.560996
20
175.944441
30
0
11
115.162661
21
178.248924
31
0
0
LINE
8
VISIBLE
10
115.162661
20
178.248924
30
0
11
115.225991
21
189.954371
31
0
0
LINE
8
VISIBLE
10
110.907751
20
193.012986
30
0
11
109.062777
21
192.352753
31
0
0
LINE
8
VISIBLE
10
109.109143
20
200.922624
30
0
11
110.946865
21
200.242466
31
0
0
LINE
8
VISIBLE
10
115.297948
20
203.254177
30
0
11
115.361278
21
214.959624
31
0
0
LINE
8
VISIBLE
10
115.361278
20
214.959624
30
0
11
76.555128
21
214.811861
31
0
0
LINE
8
VISIBLE
10
115.162661
20
178.248924
30
0
11
151.702768
21
177.311451
31
0
0
LINE
8
VISIBLE
10
151.702768
20
177.311451
30
0
11
151.895192
21
190.191188
31
0
0
LINE
8
VISIBLE
10
147.606292
20
193.290811
30
0
11
145.755111
21
192.648187
31
0
0
LINE
8
VISIBLE
10
145.883133
20
201.217227
30
0
11
147.71429
21
200.51959
31
0
0
LINE
8
VISIBLE
10
152.093872
20
203.489704
30
0
11
152.286296
21
216.369441
31
0
0
LINE
8
VISIBLE
10
152.286296
20
216.369441
30
0
11
115.361278
21
214.959624
31
0
0
LINE
8
VISIBLE
10
151.702768
20
177.311451
30
0
11
191.599965
21
177.638488
31
0
0
LINE
8
VISIBLE
10
191.599965
20
177.638488
30
0
11
190.557706
21
189.631651
31
0
0
LINE
8
VISIBLE
10
185.976475
20
192.280169
30
0
11
184.20004
21
191.453057
31
0
0
LINE
8
VISIBLE
10
183.458066
20
199.990874
30
0
11
185.350551
21
199.482608
31
0
0
LINE
8
VISIBLE
10
189.406217
20
202.881711
30
0
11
188.363958
21
214.874874
31
0
0
LINE
8
VISIBLE
10
188.363958
20
214.874874
30
0
11
152.286296
21
216.369441
31
0
0
LINE
8
VISIBLE
10
191.599965
20
177.638488
30
0
11
228.344749
21
177.479472
31
0
0
LINE
8
VISIBLE
10
228.344749
20
177.479472
30
0
11
227.594736
21
189.99269
31
0
0
LINE
8
VISIBLE
10
223.086179
20
192.763112
30
0
11
221.288202
21
191.983937
31
0
0
LINE
8
VISIBLE
10
220.775456
20
200.538581
30
0
11
222.65363
21
199.979746
31
0
0
LINE
8
VISIBLE
10
226.798993
20
203.268864
30
0
11
226.048979
21
215.782083
31
0
0
LINE
8
VISIBLE
10
226.048979
20
215.782083
30
0
11
188.363958
21
214.874874
31
0
0
LINE
8
VISIBLE
10
228.344749
20
177.479472
30
0
11
264.597866
21
178.490989
31
0
0
LINE
8
VISIBLE
10
264.597866
20
178.490989
30
0
11
265.228479
21
191.08459
31
0
0
LINE
8
VISIBLE
10
269.709575
20
193.899213
30
0
11
271.515127
21
193.137756
31
0
0
LINE
8
VISIBLE
10
271.943725
20
201.697029
30
0
11
270.071137
21
201.119752
31
0
0
LINE
8
VISIBLE
10
265.893632
20
204.367947
30
0
11
266.524245
21
216.961547
31
0
0
LINE
8
VISIBLE
10
266.524245
20
216.961547
30
0
11
226.048979
21
215.782083
31
0
0
LINE
8
VISIBLE
10
264.597866
20
178.490989
30
0
11
304
21
177.4
31
0
0
LINE
8
VISIBLE
10
304
20
177.4
30
0
11
304
21
215.4
31
0
0
LINE
8
VISIBLE
10
304
20
215.4
30
0
11
266.524245
21
216.961547
31
0
0
LINE
8
VISIBLE
10
0
20
221.75
30
0
11
39.053268
21
221.139869
31
0
0
LINE
8
VISIBLE
10
0
20
221.75
30
0
11
0
21
259.75
31
0
0
LINE
8
VISIBLE
10
39.053268
20
221.139869
30
0
11
38.707976
21
233.797407
31
0
0
LINE
8
VISIBLE
10
42.958321
20
236.949691
30
0
11
44.817286
21
236.329948
31
0
0
LINE
8
VISIBLE
10
44.583587
20
244.896758
30
0
11
42.761174
21
244.176589
31
0
0
LINE
8
VISIBLE
10
38.345292
20
247.092461
30
0
11
38
21
259.75
31
0
0
LINE
8
VISIBLE
10
38
20
259.75
30
0
11
0
21
259.75
31
0
0
LINE
8
VISIBLE
10
39.053268
20
221.139869
30
0
11
76.555128
21
221.161861
31
0
0
LINE
8
VISIBLE
10
76.555128
20
221.161861
30
0
11
76.373221
21
233.806618
31
0
0
LINE
8
VISIBLE
10
71.995284
20
236.779159
30
0
11
70.163741
21
236.082535
31
0
0
LINE
8
VISIBLE
10
70.040466
20
244.651645
30
0
11
71.89129
21
244.007997
31
0
0
LINE
8
VISIBLE
10
76.181907
20
247.105242
30
0
11
76
21
259.75
31
0
0
LINE
8
VISIBLE
10
76
20
259.75
30
0
11
38
21
259.75
31
0
0
LINE
8
VISIBLE
10
76.555128
20
221.161861
30
0
11
115.361278
21
221.309624
31
0
0
LINE
8
VISIBLE
10
115.361278
20
221.309624
30
0
11
114.915986
21
233.883978
31
0
0
LINE
8
VISIBLE
10
110.476559
20
236.763876
30
0
11
108.660057
21
236.028923
31
0
0
LINE
8
VISIBLE
10
108.35676
20
244.593551
30
0
11
110.2207
21
243.988932
31
0
0
LINE
8
VISIBLE
10
114.445292
20
247.175646
30
0
11
114
21
259.75
31
0
0
LINE
8
VISIBLE
10
114
20
259.75
30
0
11
76
21
259.75
31
0
0
LINE
8
VISIBLE
10
115.361278
20
221.309624
30
0
11
152.286296
21
222.719441
31
0
0
LINE
8
VISIBLE
10
152.286296
20
222.719441
30
0
11
152.19456
21
234.584919
31
0
0
LINE
8
VISIBLE
10
156.50569
20
237.653548
30
0
11
158.352191
21
236.997599
31
0
0
LINE
8
VISIBLE
10
158.285935
20
245.567339
30
0
11
156.449797
21
244.882918
31
0
0
LINE
8
VISIBLE
10
152.091736
20
247.884522
30
0
11
152
21
259.75
31
0
0
LINE
8
VISIBLE
10
152
20
259.75
30
0
11
114
21
259.75
31
0
0
LINE
8
VISIBLE
10
152.286296
20
222.719441
30
0
11
188.363958
21
221.224874
31
0
0
LINE
8
VISIBLE
10
188.363958
20
221.224874
30
0
11
188.899829
21
233.843425
31
0
0
LINE
8
VISIBLE
10
193.35943
20
236.691983
30
0
11
195.17071
21
235.944254
31
0
0
LINE
8
VISIBLE
10
195.534324
20
244.506533
30
0
11
193.666171
21
243.915058
31
0
0
LINE
8
VISIBLE
10
189.46413
20
247.131449
30
0
11
190
21
259.75
31
0
0
LINE
8
VISIBLE
10
190
20
259.75
30
0
11
152
21
259.75
31
0
0
LINE
8
VISIBLE
10
188.363958
20
221.224874
30
0
11
226.048979
21
222.132083
31
0
0
LINE
8
VISIBLE
10
226.048979
20
222.132083
30
0
11
226.680056
21
234.299967
31
0
0
LINE
8
VISIBLE
10
231.16617
20
237.106585
30
0
11
232.97036
21
236.341906
31
0
0
LINE
8
VISIBLE
10
233.414239
20
244.9004
30
0
11
231.540623
21
244.326467
31
0
0
LINE
8
VISIBLE
10
227.368923
20
247.582115
30
0
11
228
21
259.75
31
0
0
LINE
8
VISIBLE
10
228
20
259.75
30
0
11
190
21
259.75
31
0
0
LINE
8
VISIBLE
10
226.048979
20
222.132083
30
0
11
266.524245
21
223.311547
31
0
0
LINE
8
VISIBLE
10
266.524245
20
223.311547
30
0
11
266.357787
21
234.881462
31
0
0
LINE
8
VISIBLE
10
261.979847
20
237.853997
30
0
11
260.148304
21
237.157372
31
0
0
LINE
8
VISIBLE
10
260.025019
20
245.726481
30
0
11
261.875845
21
245.082835
31
0
0
LINE
8
VISIBLE
10
266.166458
20
248.180085
30
0
11
266
21
259.75
31
0
0
LINE
8
VISIBLE
10
266
20
259.75
30
0
11
228
21
259.75
31
0
0
LINE
8
VISIBLE
10
266.524245
20
223.311547
30
0
11
304
21
221.75
31
0
0
LINE
8
VISIBLE
10
304
20
221.75
30
0
11
304
21
259.75
31
0
0
LINE
8
VISIBLE
10
304
20
259.75
30
0
11
266
21
259.75
31
0
0
LINE
8
VISIBLE
10
-6
20
-6
30
0
11
310
21
-6
31
0
0
LINE
8
VISIBLE
10
-6
20
-6
30
0
11
-6
21
265.75
31
0
0
LINE
8
VISIBLE
10
310
20
-6
30
0
11
310
21
265.75
31
0
0
LINE
8
VISIBLE
10
310
20
265.75
30
0
11
-6
21
265.75
31
0
0
LINE
8
VISIBLE
10
-0.15
20
-0.15
30
0
11
-0.15
21
38.143674
31
0
0
LINE
8
VISIBLE
10
-0.15
20
-0.15
30
0
11
38.14869
21
-0.15
31
0
0
LINE
8
VISIBLE
10
-0.15
20
38.143674
30
0
11
38.199096
21
39.796505
31
0
0
LINE
8
VISIBLE
10
38.499221
20
39.80944
30
0
11
38.344407
21
39.802768
31
0
0
LINE
8
VISIBLE
10
38.499221
20
39.80944
30
0
11
38.499166
21
39.803187
31
0
0
LINE
8
VISIBLE
10
38.14869
20
-0.15
30
0
11
76.152861
21
-0.15
31
0
0
LINE
8
VISIBLE
10
38.199096
20
39.796505
30
0
11
38.199148
21
39.802374
31
0
0
LINE
8
VISIBLE
10
38.199148
20
39.802374
30
0
11
38.344407
21
39.802768
31
0
0
LINE
8
VISIBLE
10
38.499166
20
39.803187
30
0
11
75.095973
21
39.902403
31
0
0
LINE
8
VISIBLE
10
75.396011
20
39.903216
30
0
11
75.251387
21
39.902824
31
0
0
LINE
8
VISIBLE
10
75.396011
20
39.903216
30
0
11
75.396119
21
39.897489
31
0
0
LINE
8
VISIBLE
10
76.152861
20
-0.15
30
0
11
114.156574
21
-0.15
31
0
0
LINE
8
VISIBLE
10
75.095973
20
39.902403
30
0
11
75.095857
21
39.908557
31
0
0
LINE
8
VISIBLE
10
75.095857
20
39.908557
30
0
11
75.251387
21
39.902824
31
0
0
LINE
8
VISIBLE
10
75.396119
20
39.897489
30
0
11
112.355808
21
38.535164
31
0
0
LINE
8
VISIBLE
10
114.156574
20
-0.15
30
0
11
152.153794
21
-0.15
31
0
0
LINE
8
VISIBLE
10
112.355808
20
38.535164
30
0
11
151.0413
21
38.467773
31
0
0
LINE
8
VISIBLE
10
152.153794
20
-0.15
30
0
11
190.145631
21
-0.15
31
0
0
LINE
8
VISIBLE
10
151.0413
20
38.467773
30
0
11
191.012201
21
39.31679
31
0
0
LINE
8
VISIBLE
10
191.31252
20
39.323169
30
0
11
191.157152
21
39.319869
31
0
0
LINE
8
VISIBLE
10
191.31252
20
39.323169
30
0
11
191.312373
21
39.318167
31
0
0
LINE
8
VISIBLE
10
190.145631
20
-0.15
30
0
11
228.154508
21
-0.15
31
0
0
LINE
8
VISIBLE
10
191.012201
20
39.31679
30
0
11
191.012339
21
39.321457
31
0
0
LINE
8
VISIBLE
10
191.012339
20
39.321457
30
0
11
191.157152
21
39.319869
31
0
0
LINE
8
VISIBLE
10
191.312373
20
39.318167
30
0
11
226.696898
21
38.930171
31
0
0
LINE
8
VISIBLE
10
226.997127
20
38.926879
30
0
11
226.854769
21
38.92844
31
0
0
LINE
8
VISIBLE
10
226.997127
20
38.926879
30
0
11
226.997221
21
38.923709
31
0
0
LINE
8
VISIBLE
10
228.154508
20
-0.15
30
0
11
266.144533
21
-0.15
31
0
0
LINE
8
VISIBLE
10
226.696898
20
38.930171
30
0
11
226.696794
21
38.933686
31
0
0
LINE
8
VISIBLE
10
226.696794
20
38.933686
30
0
11
226.854769
21
38.92844
31
0
0
LINE
8
VISIBLE
10
226.997221
20
38.923709
30
0
11
267.391421
21
37.582298
31
0
0
LINE
8
VISIBLE
10
266.144533
20
-0.15
30
0
11
304.15
21
-0.15
31
0
0
LINE
8
VISIBLE
10
267.391421
20
37.582298
30
0
11
304.15
21
38.152344
31
0
0
LINE
8
VISIBLE
10
304.15
20
38.152344
30
0
11
304.15
21
-0.15
31
0
0
LINE
8
VISIBLE
10
-0.15
20
44.193396
30
0
11
-0.15
21
82.50531
31
0
0
LINE
8
VISIBLE
10
-0.15
20
44.193396
30
0
11
38.351275
21
45.852785
31
0
0
LINE
8
VISIBLE
10
-0.15
20
82.50531
30
0
11
36.130778
21
81.242879
31
0
0
LINE
8
VISIBLE
10
36.130778
20
81.242879
30
0
11
76.083895
21
83.934233
31
0
0
LINE
8
VISIBLE
10
76.384524
20
83.954485
30
0
11
76.225661
21
83.943783
31
0
0
LINE
8
VISIBLE
10
76.384524
20
83.954485
30
0
11
76.384222
21
83.942894
31
0
0
LINE
8
VISIBLE
10
38.351275
20
45.852785
30
0
11
75.246266
21
45.952809
31
0
0
LINE
8
VISIBLE
10
76.083895
20
83.934233
30
0
11
76.084164
21
83.944576
31
0
0
LINE
8
VISIBLE
10
76.084164
20
83.944576
30
0
11
76.225661
21
83.943783
31
0
0
LINE
8
VISIBLE
10
76.384222
20
83.942894
30
0
11
113.551747
21
83.734562
31
0
0
LINE
8
VISIBLE
10
113.851869
20
83.732879
30
0
11
113.701022
21
83.733725
31
0
0
LINE
8
VISIBLE
10
113.851869
20
83.732879
30
0
11
113.851621
21
83.725726
31
0
0
LINE
8
VISIBLE
10
112.497627
20
44.579733
30
0
11
112.497806
21
44.584917
31
0
0
LINE
8
VISIBLE
10
112.497627
20
44.579733
30
0
11
112.350019
21
44.585174
31
0
0
LINE
8
VISIBLE
10
75.246266
20
45.952809
30
0
11
112.19783
21
44.590784
31
0
0
LINE
8
VISIBLE
10
113.551747
20
83.734562
30
0
11
113.551992
21
83.741641
31
0
0
LINE
8
VISIBLE
10
113.551992
20
83.741641
30
0
11
113.701022
21
83.733725
31
0
0
LINE
8
VISIBLE
10
113.851621
20
83.725726
30
0
11
150.711672
21
81.767847
31
0
0
LINE
8
VISIBLE
10
151.194111
20
44.517507
30
0
11
151.19408
21
44.520951
31
0
0
LINE
8
VISIBLE
10
151.194111
20
44.517507
30
0
11
151.044225
21
44.517768
31
0
0
LINE
8
VISIBLE
10
112.497806
20
44.584917
30
0
11
150.894094
21
44.518029
31
0
0
LINE
8
VISIBLE
10
112.350019
20
44.585174
30
0
11
112.197645
21
44.58544
31
0
0
LINE
8
VISIBLE
10
112.197645
20
44.58544
30
0
11
112.19783
21
44.590784
31
0
0
LINE
8
VISIBLE
10
150.711672
20
81.767847
30
0
11
188.724036
21
84.324029
31
0
0
LINE
8
VISIBLE
10
189.02337
20
84.344159
30
0
11
188.877647
21
84.334359
31
0
0
LINE
8
VISIBLE
10
189.02337
20
84.344159
30
0
11
189.023967
21
84.33403
31
0
0
LINE
8
VISIBLE
10
151.19408
20
44.520951
30
0
11
191.158693
21
45.369834
31
0
0
LINE
8
VISIBLE
10
151.044225
20
44.517768
30
0
11
150.894125
21
44.514579
31
0
0
LINE
8
VISIBLE
10
150.894125
20
44.514579
30
0
11
150.894094
21
44.518029
31
0
0
LINE
8
VISIBLE
10
188.724036
20
84.324029
30
0
11
188.723408
21
84.334706
31
0
0
LINE
8
VISIBLE
10
188.723408
20
84.334706
30
0
11
188.877647
21
84.334359
31
0
0
LINE
8
VISIBLE
10
189.023967
20
84.33403
30
0
11
229.838894
21
84.242177
31
0
0
LINE
8
VISIBLE
10
230.139804
20
84.2415
30
0
11
229.980939
21
84.241858
31
0
0
LINE
8
VISIBLE
10
230.139804
20
84.2415
30
0
11
230.139247
21
84.234565
31
0
0
LINE
8
VISIBLE
10
191.158693
20
45.369834
30
0
11
226.848145
21
44.978494
31
0
0
LINE
8
VISIBLE
10
229.838894
20
84.242177
30
0
11
229.839392
21
84.248378
31
0
0
LINE
8
VISIBLE
10
229.839392
20
84.248378
30
0
11
229.980939
21
84.241858
31
0
0
LINE
8
VISIBLE
10
230.139247
20
84.234565
30
0
11
267.241878
21
82.525373
31
0
0
LINE
8
VISIBLE
10
267.540705
20
43.627175
30
0
11
267.540676
21
43.634576
31
0
0
LINE
8
VISIBLE
10
267.540705
20
43.627175
30
0
11
267.388767
21
43.632221
31
0
0
LINE
8
VISIBLE
10
226.848145
20
44.978494
30
0
11
267.240664
21
43.637139
31
0
0
LINE
8
VISIBLE
10
267.241878
20
82.525373
30
0
11
304.15
21
82.499896
31
0
0
LINE
8
VISIBLE
10
304.15
20
82.499896
30
0
11
304.15
21
44.202308
31
0
0
LINE
8
VISIBLE
10
304.15
20
44.202308
30
0
11
267.540676
21
43.634576
31
0
0
LINE
8
VISIBLE
10
267.388767
20
43.632221
30
0
11
267.240692
21
43.629924
31
0
0
LINE
8
VISIBLE
10
267.240692
20
43.629924
30
0
11
267.240664
21
43.637139
31
0
0
LINE
8
VISIBLE
10
-0.15
20
88.555129
30
0
11
-0.15
21
126.855432
31
0
0
LINE
8
VISIBLE
10
-0.15
20
88.555129
30
0
11
35.972459
21
87.298206
31
0
0
LINE
8
VISIBLE
10
-0.15
20
126.855432
30
0
11
38.848354
21
125.467825
31
0
0
LINE
8
VISIBLE
10
36.272482
20
87.287766
30
0
11
36.27349
21
87.301812
31
0
0
LINE
8
VISIBLE
10
36.272482
20
87.287766
30
0
11
36.135656
21
87.292527
31
0
0
LINE
8
VISIBLE
10
38.848354
20
125.467825
30
0
11
75.26331
21
128.481383
31
0
0
LINE
8
VISIBLE
10
75.56285
20
128.506171
30
0
11
75.415447
21
128.493973
31
0
0
LINE
8
VISIBLE
10
75.56285
20
128.506171
30
0
11
75.563335
21
128.483385
31
0
0
LINE
8
VISIBLE
10
36.27349
20
87.301812
30
0
11
76.234914
21
89.993727
31
0
0
LINE
8
VISIBLE
10
36.135656
20
87.292527
30
0
11
35.971257
21
87.281453
31
0
0
LINE
8
VISIBLE
10
35.971257
20
87.281453
30
0
11
35.972459
21
87.298206
31
0
0
LINE
8
VISIBLE
10
75.26331
20
128.481383
30
0
11
75.262809
21
128.504901
31
0
0
LINE
8
VISIBLE
10
75.262809
20
128.504901
30
0
11
75.415447
21
128.493973
31
0
0
LINE
8
VISIBLE
10
75.563335
20
128.483385
30
0
11
114.988298
21
125.660886
31
0
0
LINE
8
VISIBLE
10
76.234914
20
89.993727
30
0
11
113.69222
21
89.78377
31
0
0
LINE
8
VISIBLE
10
114.988298
20
125.660886
30
0
11
151.609662
21
126.283207
31
0
0
LINE
8
VISIBLE
10
150.859033
20
87.809596
30
0
11
150.859447
21
87.827106
31
0
0
LINE
8
VISIBLE
10
150.859033
20
87.809596
30
0
11
150.713787
21
87.817311
31
0
0
LINE
8
VISIBLE
10
113.69222
20
89.78377
30
0
11
150.559325
21
87.825516
31
0
0
LINE
8
VISIBLE
10
151.609662
20
126.283207
30
0
11
188.45206
21
128.767292
31
0
0
LINE
8
VISIBLE
10
188.75192
20
128.78751
30
0
11
188.60525
21
128.777621
31
0
0
LINE
8
VISIBLE
10
188.75192
20
128.78751
30
0
11
188.752096
21
128.76348
31
0
0
LINE
8
VISIBLE
10
150.859447
20
87.827106
30
0
11
188.887385
21
90.384337
31
0
0
LINE
8
VISIBLE
10
150.713787
20
87.817311
30
0
11
150.558885
21
87.806895
31
0
0
LINE
8
VISIBLE
10
150.558885
20
87.806895
30
0
11
150.559325
21
87.825516
31
0
0
LINE
8
VISIBLE
10
188.45206
20
128.767292
30
0
11
188.451876
21
128.79239
31
0
0
LINE
8
VISIBLE
10
188.451876
20
128.79239
30
0
11
188.60525
21
128.777621
31
0
0
LINE
8
VISIBLE
10
188.752096
20
128.76348
30
0
11
228.841527
21
124.903141
31
0
0
LINE
8
VISIBLE
10
188.887385
20
90.384337
30
0
11
229.973695
21
90.291873
31
0
0
LINE
8
VISIBLE
10
228.841527
20
124.903141
30
0
11
264.925222
21
126.497935
31
0
0
LINE
8
VISIBLE
10
265.224955
20
126.511182
30
0
11
265.079687
21
126.504761
31
0
0
LINE
8
VISIBLE
10
265.224955
20
126.511182
30
0
11
265.225249
21
126.506053
31
0
0
LINE
8
VISIBLE
10
267.397637
20
88.56788
30
0
11
267.397214
21
88.575266
31
0
0
LINE
8
VISIBLE
10
267.397637
20
88.56788
30
0
11
267.234868
21
88.575378
31
0
0
LINE
8
VISIBLE
10
229.973695
20
90.291873
30
0
11
267.096351
21
88.581759
31
0
0
LINE
8
VISIBLE
10
264.925222
20
126.497935
30
0
11
264.92491
21
126.503388
31
0
0
LINE
8
VISIBLE
10
264.92491
20
126.503388
30
0
11
265.079687
21
126.504761
31
0
0
LINE
8
VISIBLE
10
265.225249
20
126.506053
30
0
11
304.15
21
126.851336
31
0
0
LINE
8
VISIBLE
10
304.15
20
126.851336
30
0
11
304.15
21
88.549896
31
0
0
LINE
8
VISIBLE
10
304.15
20
88.549896
30
0
11
267.397214
21
88.575266
31
0
0
LINE
8
VISIBLE
10
267.234868
20
88.575378
30
0
11
267.096711
21
88.575473
31
0
0
LINE
8
VISIBLE
10
267.096711
20
88.575473
30
0
11
267.096351
21
88.581759
31
0
0
LINE
8
VISIBLE
10
-0.15
20
132.905242
30
0
11
-0.15
21
171.206577
31
0
0
LINE
8
VISIBLE
10
-0.15
20
132.905242
30
0
11
38.698694
21
131.52296
31
0
0
LINE
8
VISIBLE
10
-0.15
20
171.206577
30
0
11
39.676542
21
169.49691
31
0
0
LINE
8
VISIBLE
10
38.998533
20
131.512291
30
0
11
38.998903
21
131.529258
31
0
0
LINE
8
VISIBLE
10
38.998533
20
131.512291
30
0
11
38.855416
21
131.517384
31
0
0
LINE
8
VISIBLE
10
39.676542
20
169.49691
30
0
11
75.556119
21
169.744411
31
0
0
LINE
8
VISIBLE
10
38.998903
20
131.529258
30
0
11
75.417116
21
134.543086
31
0
0
LINE
8
VISIBLE
10
38.855416
20
131.517384
30
0
11
38.698289
21
131.50438
31
0
0
LINE
8
VISIBLE
10
38.698289
20
131.50438
30
0
11
38.698694
21
131.52296
31
0
0
LINE
8
VISIBLE
10
75.556119
20
169.744411
30
0
11
115.013291
21
172.040486
31
0
0
LINE
8
VISIBLE
10
115.313371
20
172.057948
30
0
11
115.160223
21
172.049036
31
0
0
LINE
8
VISIBLE
10
115.313371
20
172.057948
30
0
11
115.313314
21
172.045108
31
0
0
LINE
8
VISIBLE
10
115.133492
20
131.699723
30
0
11
115.133552
21
131.713311
31
0
0
LINE
8
VISIBLE
10
115.133492
20
131.699723
30
0
11
114.980119
21
131.710703
31
0
0
LINE
8
VISIBLE
10
75.417116
20
134.543086
30
0
11
114.833585
21
131.721194
31
0
0
LINE
8
VISIBLE
10
115.013291
20
172.040486
30
0
11
115.013345
21
172.052804
31
0
0
LINE
8
VISIBLE
10
115.013345
20
172.052804
30
0
11
115.160223
21
172.049036
31
0
0
LINE
8
VISIBLE
10
115.313314
20
172.045108
30
0
11
151.704077
21
171.111467
31
0
0
LINE
8
VISIBLE
10
151.765653
20
132.335814
30
0
11
151.765669
21
132.343044
31
0
0
LINE
8
VISIBLE
10
151.765653
20
132.335814
30
0
11
151.622309
21
132.333378
31
0
0
LINE
8
VISIBLE
10
115.133552
20
131.713311
30
0
11
151.465641
21
132.330716
31
0
0
LINE
8
VISIBLE
10
114.980119
20
131.710703
30
0
11
114.833527
21
131.708212
31
0
0
LINE
8
VISIBLE
10
114.833527
20
131.708212
30
0
11
114.833585
21
131.721194
31
0
0
LINE
8
VISIBLE
10
151.704077
20
171.111467
30
0
11
191.461742
21
171.43736
31
0
0
LINE
8
VISIBLE
10
191.762966
20
171.439829
30
0
11
191.599675
21
171.438491
31
0
0
LINE
8
VISIBLE
10
191.762966
20
171.439829
30
0
11
191.762797
21
171.437785
31
0
0
LINE
8
VISIBLE
10
151.765669
20
132.343044
30
0
11
188.600935
21
134.826649
31
0
0
LINE
8
VISIBLE
10
151.622309
20
132.333378
30
0
11
151.465623
21
132.322814
31
0
0
LINE
8
VISIBLE
10
151.465623
20
132.322814
30
0
11
151.465641
21
132.330716
31
0
0
LINE
8
VISIBLE
10
191.461742
20
171.43736
30
0
11
191.461885
21
171.439087
31
0
0
LINE
8
VISIBLE
10
191.461885
20
171.439087
30
0
11
191.599675
21
171.438491
31
0
0
LINE
8
VISIBLE
10
191.762797
20
171.437785
30
0
11
228.342982
21
171.279481
31
0
0
LINE
8
VISIBLE
10
228.989678
20
130.937488
30
0
11
228.989408
21
130.959385
31
0
0
LINE
8
VISIBLE
10
228.989678
20
130.937488
30
0
11
228.833734
21
130.952504
31
0
0
LINE
8
VISIBLE
10
188.600935
20
134.826649
30
0
11
228.689299
21
130.966412
31
0
0
LINE
8
VISIBLE
10
228.342982
20
171.279481
30
0
11
264.446058
21
172.286812
31
0
0
LINE
8
VISIBLE
10
264.745978
20
172.29518
30
0
11
264.59785
21
172.291047
31
0
0
LINE
8
VISIBLE
10
264.745978
20
172.29518
30
0
11
264.746079
21
172.286943
31
0
0
LINE
8
VISIBLE
10
228.989408
20
130.959385
30
0
11
265.087643
21
132.55482
31
0
0
LINE
8
VISIBLE
10
228.833734
20
130.952504
30
0
11
228.689548
21
130.946132
31
0
0
LINE
8
VISIBLE
10
228.689548
20
130.946132
30
0
11
228.689299
21
130.966412
31
0
0
LINE
8
VISIBLE
10
264.446058
20
172.286812
30
0
11
264.445954
21
172.295253
31
0
0
LINE
8
VISIBLE
10
264.445954
20
172.295253
30
0
11
264.59785
21
172.291047
31
0
0
LINE
8
VISIBLE
10
264.746079
20
172.286943
30
0
11
304.15
21
171.195904
31
0
0
LINE
8
VISIBLE
10
304.15
20
171.195904
30
0
11
304.15
21
132.901325
31
0
0
LINE
8
VISIBLE
10
304.15
20
132.901325
30
0
11
265.087643
21
132.55482
31
0
0
LINE
8
VISIBLE
10
-0.15
20
177.256301
30
0
11
-0.15
21
215.552362
31
0
0
LINE
8
VISIBLE
10
-0.15
20
177.256301
30
0
11
39.526105
21
175.553091
31
0
0
LINE
8
VISIBLE
10
-0.15
20
215.552362
30
0
11
39.054396
21
214.93987
31
0
0
LINE
8
VISIBLE
10
39.826348
20
175.540203
30
0
11
39.826225
21
175.547935
31
0
0
LINE
8
VISIBLE
10
39.826348
20
175.540203
30
0
11
39.671141
21
175.546865
31
0
0
LINE
8
VISIBLE
10
39.054396
20
214.93987
30
0
11
76.554798
21
214.961861
31
0
0
LINE
8
VISIBLE
10
75.707234
20
175.795446
30
0
11
75.70742
21
175.802708
31
0
0
LINE
8
VISIBLE
10
75.707234
20
175.795446
30
0
11
75.565874
21
175.794471
31
0
0
LINE
8
VISIBLE
10
39.826225
20
175.547935
30
0
11
75.407083
21
175.793375
31
0
0
LINE
8
VISIBLE
10
39.671141
20
175.546865
30
0
11
39.52622
21
175.545866
31
0
0
LINE
8
VISIBLE
10
39.52622
20
175.545866
30
0
11
39.526105
21
175.553091
31
0
0
LINE
8
VISIBLE
10
76.554798
20
214.961861
30
0
11
115.35813
21
215.109613
31
0
0
LINE
8
VISIBLE
10
75.70742
20
175.802708
30
0
11
115.165099
21
178.098812
31
0
0
LINE
8
VISIBLE
10
75.565874
20
175.794471
30
0
11
75.406875
21
175.785218
31
0
0
LINE
8
VISIBLE
10
75.406875
20
175.785218
30
0
11
75.407083
21
175.793375
31
0
0
LINE
8
VISIBLE
10
115.35813
20
215.109613
30
0
11
152.138438
21
216.513905
31
0
0
LINE
8
VISIBLE
10
152.438643
20
216.525367
30
0
11
152.28654
21
216.51956
31
0
0
LINE
8
VISIBLE
10
152.438643
20
216.525367
30
0
11
152.438462
21
216.513266
31
0
0
LINE
8
VISIBLE
10
151.850486
20
177.157612
30
0
11
151.850562
21
177.162658
31
0
0
LINE
8
VISIBLE
10
151.850486
20
177.157612
30
0
11
151.701459
21
177.161435
31
0
0
LINE
8
VISIBLE
10
115.165099
20
178.098812
30
0
11
151.550568
21
177.165307
31
0
0
LINE
8
VISIBLE
10
152.138438
20
216.513905
30
0
11
152.138614
21
216.525688
31
0
0
LINE
8
VISIBLE
10
152.138614
20
216.525688
30
0
11
152.28654
21
216.51956
31
0
0
LINE
8
VISIBLE
10
152.438462
20
216.513266
30
0
11
188.365259
21
215.024949
31
0
0
LINE
8
VISIBLE
10
151.850562
20
177.162658
30
0
11
191.600255
21
177.488485
31
0
0
LINE
8
VISIBLE
10
151.701459
20
177.161435
30
0
11
151.550491
21
177.160198
31
0
0
LINE
8
VISIBLE
10
151.550491
20
177.160198
30
0
11
151.550568
21
177.165307
31
0
0
LINE
8
VISIBLE
10
188.365259
20
215.024949
30
0
11
226.04499
21
215.93203
31
0
0
LINE
8
VISIBLE
10
228.504051
20
177.328781
30
0
11
228.503747
21
177.33385
31
0
0
LINE
8
VISIBLE
10
228.504051
20
177.328781
30
0
11
228.346517
21
177.329463
31
0
0
LINE
8
VISIBLE
10
191.600255
20
177.488485
30
0
11
228.203434
21
177.330082
31
0
0
LINE
8
VISIBLE
10
226.04499
20
215.93203
30
0
11
266.381363
21
217.107447
31
0
0
LINE
8
VISIBLE
10
266.682178
20
217.116213
30
0
11
266.525184
21
217.111638
31
0
0
LINE
8
VISIBLE
10
266.682178
20
217.116213
30
0
11
266.681622
21
217.10512
31
0
0
LINE
8
VISIBLE
10
228.503747
20
177.33385
30
0
11
264.597882
21
178.340931
31
0
0
LINE
8
VISIBLE
10
228.346517
20
177.329463
30
0
11
228.20371
21
177.325478
31
0
0
LINE
8
VISIBLE
10
228.20371
20
177.325478
30
0
11
228.203434
21
177.330082
31
0
0
LINE
8
VISIBLE
10
266.381363
20
217.107447
30
0
11
266.381872
21
217.11761
31
0
0
LINE
8
VISIBLE
10
266.381872
20
217.11761
30
0
11
266.525184
21
217.111638
31
0
0
LINE
8
VISIBLE
10
266.681622
20
217.10512
30
0
11
304.15
21
215.54388
31
0
0
LINE
8
VISIBLE
10
304.15
20
215.54388
30
0
11
304.15
21
177.245789
31
0
0
LINE
8
VISIBLE
10
304.15
20
177.245789
30
0
11
264.597882
21
178.340931
31
0
0
LINE
8
VISIBLE
10
-0.15
20
221.602325
30
0
11
-0.15
21
259.9
31
0
0
LINE
8
VISIBLE
10
-0.15
20
221.602325
30
0
11
38.907243
21
220.992132
31
0
0
LINE
8
VISIBLE
10
-0.15
20
259.9
30
0
11
38.145964
21
259.9
31
0
0
LINE
8
VISIBLE
10
38.145964
20
259.9
30
0
11
76.147858
21
259.9
31
0
0
LINE
8
VISIBLE
10
39.207482
20
220.987441
30
0
11
39.207414
21
220.989959
31
0
0
LINE
8
VISIBLE
10
39.207482
20
220.987441
30
0
11
39.052141
21
220.989868
31
0
0
LINE
8
VISIBLE
10
76.147858
20
259.9
30
0
11
114.144782
21
259.9
31
0
0
LINE
8
VISIBLE
10
76.7073
20
221.01195
30
0
11
76.707293
21
221.012439
31
0
0
LINE
8
VISIBLE
10
76.7073
20
221.01195
30
0
11
76.555457
21
221.011861
31
0
0
LINE
8
VISIBLE
10
39.207414
20
220.989959
30
0
11
76.407271
21
221.011774
31
0
0
LINE
8
VISIBLE
10
39.052141
20
220.989868
30
0
11
38.907307
21
220.989783
31
0
0
LINE
8
VISIBLE
10
38.907307
20
220.989783
30
0
11
38.907243
21
220.992132
31
0
0
LINE
8
VISIBLE
10
114.144782
20
259.9
30
0
11
152.148845
21
259.9
31
0
0
LINE
8
VISIBLE
10
115.516663
20
221.160215
30
0
11
115.516478
21
221.165441
31
0
0
LINE
8
VISIBLE
10
115.516663
20
221.160215
30
0
11
115.364426
21
221.159635
31
0
0
LINE
8
VISIBLE
10
76.707293
20
221.012439
30
0
11
115.216515
21
221.159072
31
0
0
LINE
8
VISIBLE
10
76.555457
20
221.011861
30
0
11
76.407278
21
221.011297
31
0
0
LINE
8
VISIBLE
10
76.407278
20
221.011297
30
0
11
76.407271
21
221.011774
31
0
0
LINE
8
VISIBLE
10
152.148845
20
259.9
30
0
11
190.156505
21
259.9
31
0
0
LINE
8
VISIBLE
10
115.516478
20
221.165441
30
0
11
152.286053
21
222.569323
31
0
0
LINE
8
VISIBLE
10
115.364426
20
221.159635
30
0
11
115.216695
21
221.153995
31
0
0
LINE
8
VISIBLE
10
115.216695
20
221.153995
30
0
11
115.216515
21
221.159072
31
0
0
LINE
8
VISIBLE
10
190.156505
20
259.9
30
0
11
228.157981
21
259.9
31
0
0
LINE
8
VISIBLE
10
188.507465
20
221.0688
30
0
11
188.507869
21
221.078295
31
0
0
LINE
8
VISIBLE
10
188.507465
20
221.0688
30
0
11
188.362657
21
221.074799
31
0
0
LINE
8
VISIBLE
10
152.286053
20
222.569323
30
0
11
188.207722
21
221.081217
31
0
0
LINE
8
VISIBLE
10
228.157981
20
259.9
30
0
11
266.147857
21
259.9
31
0
0
LINE
8
VISIBLE
10
226.191577
20
221.985472
30
0
11
226.191614
21
221.986175
31
0
0
LINE
8
VISIBLE
10
226.191577
20
221.985472
30
0
11
226.052969
21
221.982135
31
0
0
LINE
8
VISIBLE
10
188.507869
20
221.078295
30
0
11
225.890798
21
221.978231
31
0
0
LINE
8
VISIBLE
10
188.362657
20
221.074799
30
0
11
188.207291
21
221.071059
31
0
0
LINE
8
VISIBLE
10
188.207291
20
221.071059
30
0
11
188.207722
21
221.081217
31
0
0
LINE
8
VISIBLE
10
266.147857
20
259.9
30
0
11
304.15
21
259.9
31
0
0
LINE
8
VISIBLE
10
226.191614
20
221.986175
30
0
11
266.523306
21
223.161456
31
0
0
LINE
8
VISIBLE
10
226.052969
20
221.982135
30
0
11
225.890756
21
221.977408
31
0
0
LINE
8
VISIBLE
10
225.890756
20
221.977408
30
0
11
225.890798
21
221.978231
31
0
0
LINE
8
VISIBLE
10
304.15
20
259.9
30
0
11
304.15
21
221.59362
31
0
0
LINE
8
VISIBLE
10
304.15
20
221.59362
30
0
11
266.523306
21
223.161456
31
0
0
ARC
8
VISIBLE
10
41.462129
20
26.447799
30
0
40
3.23
50
179.497404
51
289.497404
0
ARC
8
VISIBLE
10
45.909334
20
19.758532
30
0
40
4.56
50
249.497404
51
109.497404
0
ARC
8
VISIBLE
10
41.345464
20
13.148311
30
0
40
3.23
50
69.497404
51
179.497404
0
ARC
8
VISIBLE
10
78.7282
20
26.586245
30
0
40
3.23
50
181.082539
51
291.082539
0
ARC
8
VISIBLE
10
83.358744
20
20.022557
30
0
40
4.56
50
251.082539
51
111.082539
0
ARC
8
VISIBLE
10
78.979473
20
13.288619
30
0
40
3.23
50
71.082539
51
181.082539
0
ARC
8
VISIBLE
10
116.118402
20
25.974941
30
0
40
3.23
50
182.457023
51
292.457023
0
ARC
8
VISIBLE
10
120.905056
20
19.524215
30
0
40
4.56
50
252.457023
51
112.457023
0
ARC
8
VISIBLE
10
116.688573
20
12.687168
30
0
40
3.23
50
72.457023
51
182.457023
0
ARC
8
VISIBLE
10
148.126313
20
25.726146
30
0
40
3.23
50
251.43104
51
1.43104
0
ARC
8
VISIBLE
10
143.788083
20
18.965695
30
0
40
4.56
50
71.43104
51
291.43104
0
ARC
8
VISIBLE
10
148.458464
20
12.430294
30
0
40
3.23
50
1.43104
51
111.43104
0
ARC
8
VISIBLE
10
194.00405
20
26.13658
30
0
40
3.23
50
178.306739
51
288.306739
0
ARC
8
VISIBLE
10
198.311295
20
19.356346
30
0
40
4.56
50
248.306739
51
108.306739
0
ARC
8
VISIBLE
10
193.611052
20
12.842387
30
0
40
3.23
50
68.306739
51
178.306739
0
ARC
8
VISIBLE
10
224.00027
20
25.940694
30
0
40
3.23
50
251.696494
51
1.696494
0
ARC
8
VISIBLE
10
219.693408
20
19.160217
30
0
40
4.56
50
71.696494
51
291.696494
0
ARC
8
VISIBLE
10
224.394018
20
12.646524
30
0
40
3.23
50
1.696494
51
111.696494
0
ARC
8
VISIBLE
10
270.169608
20
25.241681
30
0
40
3.23
50
177.873226
51
287.873226
0
ARC
8
VISIBLE
10
274.42543
20
18.429052
30
0
40
4.56
50
247.873226
51
107.873226
0
ARC
8
VISIBLE
10
269.676036
20
11.950843
30
0
40
3.23
50
67.873226
51
177.873226
0
ARC
8
VISIBLE
10
33.598076
20
69.981085
30
0
40
3.23
50
253.611308
51
3.611308
0
ARC
8
VISIBLE
10
29.520178
20
63.060487
30
0
40
4.56
50
73.611308
51
293.611308
0
ARC
8
VISIBLE
10
34.43581
20
56.707495
30
0
40
3.23
50
3.611308
51
113.611308
0
ARC
8
VISIBLE
10
79.141568
20
71.511953
30
0
40
3.23
50
178.508371
51
288.508371
0
ARC
8
VISIBLE
10
83.472647
20
64.746918
30
0
40
4.56
50
248.508371
51
108.508371
0
ARC
8
VISIBLE
10
78.795357
20
58.216459
30
0
40
3.23
50
68.508371
51
178.508371
0
ARC
8
VISIBLE
10
116.482712
20
70.69383
30
0
40
3.23
50
178.019025
51
288.019025
0
ARC
8
VISIBLE
10
120.755855
20
63.892053
30
0
40
4.56
50
248.019025
51
108.019025
0
ARC
8
VISIBLE
10
116.022962
20
57.401779
30
0
40
3.23
50
68.019025
51
178.019025
0
ARC
8
VISIBLE
10
147.58848
20
69.763561
30
0
40
3.23
50
250.511748
51
0.511748
0
ARC
8
VISIBLE
10
143.142343
20
63.073583
30
0
40
4.56
50
70.511748
51
290.511748
0
ARC
8
VISIBLE
10
147.70727
20
56.464091
30
0
40
3.23
50
0.511748
51
110.511748
0
ARC
8
VISIBLE
10
192.853964
20
71.680371
30
0
40
3.23
50
183.367974
51
293.367974
0
ARC
8
VISIBLE
10
197.74257
20
65.30656
30
0
40
4.56
50
253.367974
51
113.367974
0
ARC
8
VISIBLE
10
193.635317
20
58.403343
30
0
40
3.23
50
73.367974
51
183.367974
0
ARC
8
VISIBLE
10
225.726523
20
71.497167
30
0
40
3.23
50
245.413238
51
355.413238
0
ARC
8
VISIBLE
10
220.70345
20
65.22878
30
0
40
4.56
50
65.413238
51
285.413238
0
ARC
8
VISIBLE
10
224.66294
20
58.239762
30
0
40
3.23
50
355.413238
51
105.413238
0
ARC
8
VISIBLE
10
264.058116
20
69.716068
30
0
40
3.23
50
250.225246
51
0.225246
0
ARC
8
VISIBLE
10
259.578582
20
63.048406
30
0
40
4.56
50
70.225246
51
290.225246
0
ARC
8
VISIBLE
10
264.110401
20
56.416171
30
0
40
3.23
50
0.225246
51
110.225246
0
ARC
8
VISIBLE
10
41.190376
20
112.781833
30
0
40
3.23
50
175.894339
51
285.894339
0
ARC
8
VISIBLE
10
45.208411
20
105.826308
30
0
40
4.56
50
245.894339
51
105.894339
0
ARC
8
VISIBLE
10
40.238149
20
99.515964
30
0
40
3.23
50
65.894339
51
175.894339
0
ARC
8
VISIBLE
10
78.910878
20
115.960946
30
0
40
3.23
50
181.220742
51
291.220742
0
ARC
8
VISIBLE
10
83.55724
20
109.408446
30
0
40
4.56
50
251.220742
51
111.220742
0
ARC
8
VISIBLE
10
79.194226
20
102.663964
30
0
40
3.23
50
71.220742
51
181.220742
0
ARC
8
VISIBLE
10
111.353044
20
114.484742
30
0
40
3.23
50
247.927283
51
357.927283
0
ARC
8
VISIBLE
10
106.609764
20
108.002055
30
0
40
4.56
50
67.927283
51
287.927283
0
ARC
8
VISIBLE
10
110.872012
20
101.193444
30
0
40
3.23
50
357.927283
51
107.927283
0
ARC
8
VISIBLE
10
148.092601
20
113.774996
30
0
40
3.23
50
248.644252
51
358.644252
0
ARC
8
VISIBLE
10
143.430812
20
107.233463
30
0
40
4.56
50
68.644252
51
288.644252
0
ARC
8
VISIBLE
10
147.777922
20
100.478719
30
0
40
3.23
50
358.644252
51
108.644252
0
ARC
8
VISIBLE
10
191.923939
20
116.254255
30
0
40
3.23
50
180.420276
51
290.420276
0
ARC
8
VISIBLE
10
196.478307
20
109.637484
30
0
40
4.56
50
250.420276
51
110.420276
0
ARC
8
VISIBLE
10
192.021496
20
102.954613
30
0
40
3.23
50
70.420276
51
180.420276
0
ARC
8
VISIBLE
10
232.414926
20
114.350909
30
0
40
3.23
50
181.902461
51
291.902461
0
ARC
8
VISIBLE
10
237.138921
20
107.854155
30
0
40
4.56
50
251.902461
51
111.902461
0
ARC
8
VISIBLE
10
232.856461
20
101.05824
30
0
40
3.23
50
71.902461
51
181.902461
0
ARC
8
VISIBLE
10
269.005572
20
114.363859
30
0
40
3.23
50
183.277251
51
293.277251
0
ARC
8
VISIBLE
10
273.884079
20
107.982315
30
0
40
4.56
50
253.277251
51
113.277251
0
ARC
8
VISIBLE
10
269.765901
20
101.08561
30
0
40
3.23
50
73.277251
51
183.277251
0
ARC
8
VISIBLE
10
36.178664
20
157.226108
30
0
40
3.23
50
248.750317
51
358.750317
0
ARC
8
VISIBLE
10
31.528992
20
150.675957
30
0
40
4.56
50
68.750317
51
288.750317
0
ARC
8
VISIBLE
10
35.8886
20
143.929272
30
0
40
3.23
50
358.750317
51
108.750317
0
ARC
8
VISIBLE
10
78.746185
20
158.780535
30
0
40
3.23
50
179.762427
51
289.762427
0
ARC
8
VISIBLE
10
83.224284
20
152.11191
30
0
40
4.56
50
249.762427
51
109.762427
0
ARC
8
VISIBLE
10
78.691037
20
145.480649
30
0
40
3.23
50
69.762427
51
179.762427
0
ARC
8
VISIBLE
10
111.873106
20
158.544189
30
0
40
3.23
50
249.74463
51
359.74463
0
ARC
8
VISIBLE
10
107.3378
20
151.914338
30
0
40
4.56
50
69.74463
51
289.74463
0
ARC
8
VISIBLE
10
111.813828
20
145.244322
30
0
40
3.23
50
359.74463
51
109.74463
0
ARC
8
VISIBLE
10
148.444383
20
158.37964
30
0
40
3.23
50
249.870777
51
359.870777
0
ARC
8
VISIBLE
10
143.923685
20
151.739819
30
0
40
4.56
50
69.870777
51
289.870777
0
ARC
8
VISIBLE
10
148.414387
20
145.079673
30
0
40
3.23
50
359.870777
51
109.870777
0
ARC
8
VISIBLE
10
187.429456
20
160.025955
30
0
40
3.23
50
245.28192
51
355.28192
0
ARC
8
VISIBLE
10
182.39203
20
153.769097
30
0
40
4.56
50
65.28192
51
285.28192
0
ARC
8
VISIBLE
10
186.335491
20
146.771022
30
0
40
3.23
50
355.28192
51
105.28192
0
ARC
8
VISIBLE
10
231.739064
20
157.805414
30
0
40
3.23
50
180.705494
51
290.705494
0
ARC
8
VISIBLE
10
236.326315
20
151.211396
30
0
40
4.56
50
250.705494
51
110.705494
0
ARC
8
VISIBLE
10
231.902826
20
144.506422
30
0
40
3.23
50
70.705494
51
180.705494
0
ARC
8
VISIBLE
10
261.529098
20
159.032599
30
0
40
3.23
50
250.705768
51
0.705768
0
ARC
8
VISIBLE
10
257.105641
20
152.327604
30
0
40
4.56
50
70.705768
51
290.705768
0
ARC
8
VISIBLE
10
261.692923
20
145.733608
30
0
40
3.23
50
0.705768
51
110.705768
0
ARC
8
VISIBLE
10
36.028411
20
201.841273
30
0
40
3.23
50
250.909453
51
0.909453
0
ARC
8
VISIBLE
10
31.628818
20
195.120595
30
0
40
4.56
50
70.909453
51
290.909453
0
ARC
8
VISIBLE
10
36.239512
20
188.542948
30
0
40
3.23
50
0.909453
51
110.909453
0
ARC
8
VISIBLE
10
72.999153
20
202.108565
30
0
40
3.23
50
248.534837
51
358.534837
0
ARC
8
VISIBLE
10
68.32488
20
195.575946
30
0
40
4.56
50
68.534837
51
288.534837
0
ARC
8
VISIBLE
10
72.659083
20
188.812913
30
0
40
3.23
50
358.534837
51
108.534837
0
ARC
8
VISIBLE
10
112.067995
20
203.271652
30
0
40
3.23
50
249.690014
51
359.690014
0
ARC
8
VISIBLE
10
107.526371
20
196.646126
30
0
40
4.56
50
69.690014
51
289.690014
0
ARC
8
VISIBLE
10
111.996039
20
189.971847
30
0
40
3.23
50
359.690014
51
109.690014
0
ARC
8
VISIBLE
10
148.864233
20
203.537955
30
0
40
3.23
50
249.144062
51
359.144062
0
ARC
8
VISIBLE
10
144.259684
20
196.956005
30
0
40
4.56
50
69.144062
51
289.144062
0
ARC
8
VISIBLE
10
148.665552
20
190.239439
30
0
40
3.23
50
359.144062
51
109.144062
0
ARC
8
VISIBLE
10
186.188346
20
202.602063
30
0
40
3.23
50
254.966779
51
4.966779
0
ARC
8
VISIBLE
10
182.275297
20
195.586938
30
0
40
4.56
50
74.966779
51
294.966779
0
ARC
8
VISIBLE
10
187.339835
20
189.352004
30
0
40
3.23
50
4.966779
51
114.966779
0
ARC
8
VISIBLE
10
223.574779
20
203.075612
30
0
40
3.23
50
253.430073
51
3.430073
0
ARC
8
VISIBLE
10
219.475011
20
196.167947
30
0
40
4.56
50
73.430073
51
293.430073
0
ARC
8
VISIBLE
10
224.370522
20
189.799438
30
0
40
3.23
50
3.430073
51
113.430073
0
ARC
8
VISIBLE
10
269.11959
20
204.20641
30
0
40
3.23
50
177.133359
51
287.133359
0
ARC
8
VISIBLE
10
273.287087
20
197.339394
30
0
40
4.56
50
247.133359
51
107.133359
0
ARC
8
VISIBLE
10
268.454437
20
190.923053
30
0
40
3.23
50
67.133359
51
177.133359
0
ARC
8
VISIBLE
10
41.574091
20
247.180542
30
0
40
3.23
50
181.562618
51
291.562618
0
ARC
8
VISIBLE
10
46.259469
20
240.655883
30
0
40
4.56
50
251.562618
51
111.562618
0
ARC
8
VISIBLE
10
41.936775
20
233.885488
30
0
40
3.23
50
71.562618
51
181.562618
0
ARC
8
VISIBLE
10
72.952241
20
247.058781
30
0
40
3.23
50
250.824198
51
0.824198
0
ARC
8
VISIBLE
10
68.542653
20
240.344656
30
0
40
4.56
50
70.824198
51
290.824198
0
ARC
8
VISIBLE
10
73.143555
20
233.760157
30
0
40
3.23
50
0.824198
51
110.824198
0
ARC
8
VISIBLE
10
111.217315
20
247.061335
30
0
40
3.23
50
252.028151
51
2.028151
0
ARC
8
VISIBLE
10
106.949773
20
240.256041
30
0
40
4.56
50
72.028151
51
292.028151
0
ARC
8
VISIBLE
10
111.688009
20
233.769667
30
0
40
3.23
50
2.028151
51
112.028151
0
ARC
8
VISIBLE
10
155.32164
20
247.909494
30
0
40
3.23
50
180.442965
51
290.442965
0
ARC
8
VISIBLE
10
159.878628
20
241.294526
30
0
40
4.56
50
250.442965
51
110.442965
0
ARC
8
VISIBLE
10
155.424464
20
234.609891
30
0
40
3.23
50
70.442965
51
180.442965
0
ARC
8
VISIBLE
10
192.691221
20
246.994404
30
0
40
3.23
50
177.568288
51
287.568288
0
ARC
8
VISIBLE
10
196.910725
20
240.159221
30
0
40
4.56
50
247.568288
51
107.568288
0
ARC
8
VISIBLE
10
192.12692
20
233.706381
30
0
40
3.23
50
67.568288
51
177.568288
0
ARC
8
VISIBLE
10
230.594588
20
247.414819
30
0
40
3.23
50
177.031064
51
287.031064
0
ARC
8
VISIBLE
10
234.749818
20
240.540374
30
0
40
4.56
50
247.031064
51
107.031064
0
ARC
8
VISIBLE
10
229.905721
20
234.132671
30
0
40
3.23
50
67.031064
51
177.031064
0
ARC
8
VISIBLE
10
262.936792
20
248.13362
30
0
40
3.23
50
250.824265
51
0.824265
0
ARC
8
VISIBLE
10
258.527211
20
241.41949
30
0
40
4.56
50
70.824265
51
290.824265
0
ARC
8
VISIBLE
10
263.128121
20
234.834996
30
0
40
3.23
50
0.824265
51
110.824265
0
ENDSEC
0
EOF
