0
SECTION
2
HEADER
9
$ACADVER
1
AC1015
9
$INSUNITS
70
4
0
ENDSEC
0
SECTION
2
TABLES
0
TABLE
2
LAYER
70
2
0
LAYER
2
VISIBLE
70
0
62
7
6
CONTINUOUS
0
LAYER
2
HIDDEN
70
0
62
8
6
DASHED
0
ENDTAB
0
ENDSEC
0
SECTION
2
ENTITIES
0
LINE
8
VISIBLE
10
38
20
0
30
0
11
76
21
0
31
0
0
LINE
8
VISIBLE
10
38
20
0
30
0
11
38.115588
21
13.176644
31
0
0
LINE
8
VISIBLE
10
76
20
0
30
0
11
75.75005
21
13.227595
31
0
0
LINE
8
VISIBLE
10
80.026658
20
16.344155
30
0
11
81.880366
21
15.708858
31
0
0
LINE
8
VISIBLE
10
81.718455
20
24.277325
30
0
11
79.890071
21
23.572451
31
0
0
LINE
8
VISIBLE
10
75.498776
20
26.525221
30
0
11
75.248826
21
39.752817
31
0
0
LINE
8
VISIBLE
10
75.248826
20
39.752817
30
0
11
63.448309
21
39.720825
31
0
0
LINE
8
VISIBLE
10
60.424865
20
35.377887
30
0
11
61.10006
21
33.538336
31
0
0
LINE
8
VISIBLE
10
52.530095
20
33.515103
30
0
11
53.195306
21
35.358287
31
0
0
LINE
8
VISIBLE
10
50.148358
20
39.684768
30
0
11
38.347841
21
39.652776
31
0
0
LINE
8
VISIBLE
10
38.347841
20
39.652776
30
0
11
38.232253
21
26.476132
31
0
0
LINE
8
VISIBLE
10
42.540187
20
23.403018
30
0
11
44.38737
21
24.057046
31
0
0
LINE
8
VISIBLE
10
44.312195
20
15.487379
30
0
11
42.476771
21
16.173711
31
0
0
LINE
8
VISIBLE
10
114
20
0
30
0
11
152
21
0
31
0
0
LINE
8
VISIBLE
10
114
20
0
30
0
11
113.461542
21
12.548698
31
0
0
LINE
8
VISIBLE
10
152
20
0
30
0
11
151.687457
21
12.510959
31
0
0
LINE
8
VISIBLE
10
147.278283
20
15.436965
30
0
11
145.454221
21
14.720983
31
0
0
LINE
8
VISIBLE
10
145.240195
20
23.288307
30
0
11
147.097733
21
22.664296
31
0
0
LINE
8
VISIBLE
10
151.355306
20
25.806811
30
0
11
151.042763
21
38.31777
31
0
0
LINE
8
VISIBLE
10
151.042763
20
38.31777
30
0
11
138.347828
21
38.339885
31
0
0
LINE
8
VISIBLE
10
135.320177
20
42.679891
30
0
11
135.993589
21
44.520096
31
0
0
LINE
8
VISIBLE
10
127.423605
20
44.535025
30
0
11
128.090602
21
42.692485
31
0
0
LINE
8
VISIBLE
10
125.047848
20
38.363054
30
0
11
112.352914
21
38.385169
31
0
0
LINE
8
VISIBLE
10
112.352914
20
38.385169
30
0
11
112.891371
21
25.836471
31
0
0
LINE
8
VISIBLE
10
117.352231
20
22.989884
30
0
11
119.163181
21
23.738413
31
0
0
LINE
8
VISIBLE
10
119.530576
20
15.176295
30
0
11
117.662163
21
15.766945
31
0
0
LINE
8
VISIBLE
10
190
20
0
30
0
11
228
21
0
31
0
0
LINE
8
VISIBLE
10
190
20
0
30
0
11
190.382463
21
12.937829
31
0
0
LINE
8
VISIBLE
10
228
20
0
30
0
11
227.622602
21
12.742148
31
0
0
LINE
8
VISIBLE
10
223.19992
20
15.647695
30
0
11
221.379194
21
14.923269
31
0
0
LINE
8
VISIBLE
10
221.125478
20
23.48951
30
0
11
222.985887
21
22.874112
31
0
0
LINE
8
VISIBLE
10
227.228855
20
26.036319
30
0
11
226.851457
21
38.778467
31
0
0
LINE
8
VISIBLE
10
226.851457
20
38.778467
30
0
11
215.65429
21
38.901245
31
0
0
LINE
8
VISIBLE
10
212.666793
20
43.268989
30
0
11
213.357148
21
45.102905
31
0
0
LINE
8
VISIBLE
10
204.787667
20
45.19687
30
0
11
205.437642
21
43.348258
31
0
0
LINE
8
VISIBLE
10
202.355089
20
39.047073
30
0
11
191.157923
21
39.169851
31
0
0
LINE
8
VISIBLE
10
191.157923
20
39.169851
30
0
11
190.77546
21
26.232022
31
0
0
LINE
8
VISIBLE
10
195.018606
20
23.070055
30
0
11
196.87898
21
23.685557
31
0
0
LINE
8
VISIBLE
10
196.625748
20
15.119303
30
0
11
194.804981
21
15.843626
31
0
0
LINE
8
VISIBLE
10
266
20
0
30
0
11
304
21
0
31
0
0
LINE
8
VISIBLE
10
266
20
0
30
0
11
266.448261
21
12.07071
31
0
0
LINE
8
VISIBLE
10
304
20
0
30
0
11
304
21
38
31
0
0
LINE
8
VISIBLE
10
304
20
38
30
0
11
292.344248
21
37.819244
31
0
0
LINE
8
VISIBLE
10
289.37662
20
33.437977
30
0
11
290.075297
21
31.607216
31
0
0
LINE
8
VISIBLE
10
281.50633
20
31.474329
30
0
11
282.147903
21
33.325875
31
0
0
LINE
8
VISIBLE
10
279.045847
20
37.613015
30
0
11
267.390094
21
37.432259
31
0
0
LINE
8
VISIBLE
10
267.390094
20
37.432259
30
0
11
266.941833
21
25.361549
31
0
0
LINE
8
VISIBLE
10
271.160934
20
22.167568
30
0
11
273.025912
21
22.768977
31
0
0
LINE
8
VISIBLE
10
272.707873
20
14.204884
30
0
11
270.892639
21
14.942962
31
0
0
LINE
8
VISIBLE
10
0
20
44.35
30
0
11
12.530088
21
44.890042
31
0
0
LINE
8
VISIBLE
10
0
20
44.35
30
0
11
0
21
82.35
31
0
0
LINE
8
VISIBLE
10
15.375829
20
49.351441
30
0
11
14.626956
21
51.162249
31
0
0
LINE
8
VISIBLE
10
23.189004
20
51.53127
30
0
11
22.598709
21
49.662744
31
0
0
LINE
8
VISIBLE
10
25.817753
20
45.462735
30
0
11
38.347841
21
46.002776
31
0
0
LINE
8
VISIBLE
10
38.347841
20
46.002776
30
0
11
37.659396
21
56.910944
31
0
0
LINE
8
VISIBLE
10
33.142098
20
59.667091
30
0
11
31.346595
21
58.882233
31
0
0
LINE
8
VISIBLE
10
30.806792
20
67.435212
30
0
11
32.686725
21
66.882321
31
0
0
LINE
8
VISIBLE
10
36.821662
20
70.184535
30
0
11
36.133217
21
81.092703
31
0
0
LINE
8
VISIBLE
10
36.133217
20
81.092703
30
0
11
24.712586
21
81.490097
31
0
0
LINE
8
VISIBLE
10
21.829956
20
85.92775
30
0
11
22.56379
21
87.744704
31
0
0
LINE
8
VISIBLE
10
13.998976
20
88.042727
30
0
11
14.604743
21
86.17916
31
0
0
LINE
8
VISIBLE
10
11.420631
20
81.952606
30
0
11
0
21
82.35
31
0
0
LINE
8
VISIBLE
10
75.248826
20
46.102817
30
0
11
87.155383
21
45.663944
31
0
0
LINE
8
VISIBLE
10
75.248826
20
46.102817
30
0
11
75.566452
21
58.300539
31
0
0
LINE
8
VISIBLE
10
90.348199
20
49.883926
30
0
11
89.746274
21
51.748738
31
0
0
LINE
8
VISIBLE
10
98.310455
20
51.433064
30
0
11
97.572878
21
49.617626
31
0
0
LINE
8
VISIBLE
10
100.446357
20
45.174042
30
0
11
112.352914
21
44.735169
31
0
0
LINE
8
VISIBLE
10
112.352914
20
44.735169
30
0
11
112.794892
21
57.513433
31
0
0
LINE
8
VISIBLE
10
117.231947
20
60.396985
30
0
11
119.049053
21
59.663528
31
0
0
LINE
8
VISIBLE
10
119.345298
20
68.228402
30
0
11
117.481856
21
67.62225
31
0
0
LINE
8
VISIBLE
10
113.254642
20
70.805484
30
0
11
113.696621
21
83.583747
31
0
0
LINE
8
VISIBLE
10
113.696621
20
83.583747
30
0
11
101.61335
21
83.651477
31
0
0
LINE
8
VISIBLE
10
98.602487
20
88.003147
30
0
11
99.283003
21
89.840736
31
0
0
LINE
8
VISIBLE
10
90.713141
20
89.888772
30
0
11
91.373015
21
88.04367
31
0
0
LINE
8
VISIBLE
10
88.313559
20
83.726025
30
0
11
76.230288
21
83.793755
31
0
0
LINE
8
VISIBLE
10
76.230288
20
83.793755
30
0
11
75.912663
21
71.596032
31
0
0
LINE
8
VISIBLE
10
80.16691
20
68.449017
30
0
11
82.025106
21
69.071063
31
0
0
LINE
8
VISIBLE
10
81.802021
20
60.50397
30
0
11
79.978717
21
61.221881
31
0
0
LINE
8
VISIBLE
10
151.042763
20
44.66777
30
0
11
164.451842
21
44.952591
31
0
0
LINE
8
VISIBLE
10
151.042763
20
44.66777
30
0
11
150.937141
21
56.49294
31
0
0
LINE
8
VISIBLE
10
167.578418
20
40.683299
30
0
11
166.947467
21
38.828108
31
0
0
LINE
8
VISIBLE
10
175.515531
20
39.010101
30
0
11
174.806373
21
40.836827
31
0
0
LINE
8
VISIBLE
10
177.748843
20
45.235031
30
0
11
191.157923
21
45.519851
31
0
0
LINE
8
VISIBLE
10
191.157923
20
45.519851
30
0
11
190.410896
21
58.213585
31
0
0
LINE
8
VISIBLE
10
194.559821
20
61.498208
30
0
11
196.437388
21
60.937338
31
0
0
LINE
8
VISIBLE
10
195.933915
20
69.492533
30
0
11
194.135094
21
68.715307
31
0
0
LINE
8
VISIBLE
10
189.629542
20
71.490614
30
0
11
188.882516
21
84.184348
31
0
0
LINE
8
VISIBLE
10
188.882516
20
84.184348
30
0
11
176.432638
21
83.347142
31
0
0
LINE
8
VISIBLE
10
173.695106
20
78.818539
30
0
11
174.487348
21
77.026281
31
0
0
LINE
8
VISIBLE
10
165.936663
20
76.451281
30
0
11
166.481812
21
78.333473
31
0
0
LINE
8
VISIBLE
10
163.162608
20
82.454785
30
0
11
150.71273
21
81.617579
31
0
0
LINE
8
VISIBLE
10
150.71273
20
81.617579
30
0
11
150.818351
21
69.792409
31
0
0
LINE
8
VISIBLE
10
146.510908
20
66.718607
30
0
11
144.663621
21
67.37234
31
0
0
LINE
8
VISIBLE
10
144.740165
20
58.802685
30
0
11
146.57548
21
59.48931
31
0
0
LINE
8
VISIBLE
10
226.851457
20
45.128467
30
0
11
240.474439
21
44.676075
31
0
0
LINE
8
VISIBLE
10
226.851457
20
45.128467
30
0
11
227.882596
21
57.981464
31
0
0
LINE
8
VISIBLE
10
243.364106
20
40.243
30
0
11
242.633155
21
38.424884
31
0
0
LINE
8
VISIBLE
10
251.19843
20
38.140448
30
0
11
250.589709
21
40.003052
31
0
0
LINE
8
VISIBLE
10
253.767112
20
44.234651
30
0
11
267.390094
21
43.782259
31
0
0
LINE
8
VISIBLE
10
267.390094
20
43.782259
30
0
11
267.340377
21
56.428869
31
0
0
LINE
8
VISIBLE
10
262.993753
20
59.447012
30
0
11
261.155027
21
58.769572
31
0
0
LINE
8
VISIBLE
10
261.121336
20
67.339503
30
0
11
262.965331
21
66.676541
31
0
0
LINE
8
VISIBLE
10
267.288091
20
69.728766
30
0
11
267.238373
21
82.375376
31
0
0
LINE
8
VISIBLE
10
267.238373
20
82.375376
30
0
11
255.2508
21
82.927602
31
0
0
LINE
8
VISIBLE
10
252.418283
20
87.397409
30
0
11
253.172514
21
89.205991
31
0
0
LINE
8
VISIBLE
10
244.611597
20
89.600364
30
0
11
245.196356
21
87.730098
31
0
0
LINE
8
VISIBLE
10
241.96489
20
83.539639
30
0
11
229.977317
21
84.091866
31
0
0
LINE
8
VISIBLE
10
229.977317
20
84.091866
30
0
11
228.946178
21
71.238869
31
0
0
LINE
8
VISIBLE
10
224.382614
20
68.560024
30
0
11
222.600733
21
69.375336
31
0
0
LINE
8
VISIBLE
10
221.915402
20
60.832785
30
0
11
223.804474
21
61.353592
31
0
0
LINE
8
VISIBLE
10
36.133217
20
87.442703
30
0
11
49.546789
21
88.346279
31
0
0
LINE
8
VISIBLE
10
36.133217
20
87.442703
30
0
11
37.016438
21
99.747219
31
0
0
LINE
8
VISIBLE
10
52.283794
20
92.8752
30
0
11
51.491345
21
94.667366
31
0
0
LINE
8
VISIBLE
10
60.041963
20
95.24336
30
0
11
59.497033
21
93.361104
31
0
0
LINE
8
VISIBLE
10
62.816716
20
89.240179
30
0
11
76.230288
21
90.143755
31
0
0
LINE
8
VISIBLE
10
76.230288
20
90.143755
30
0
11
75.964959
21
102.595151
31
0
0
LINE
8
VISIBLE
10
80.234037
20
105.722018
30
0
11
82.089272
21
105.091194
31
0
0
LINE
8
VISIBLE
10
81.906693
20
113.659246
30
0
11
80.080015
21
112.949963
31
0
0
LINE
8
VISIBLE
10
75.681611
20
115.892133
30
0
11
75.416281
21
128.343529
31
0
0
LINE
8
VISIBLE
10
75.416281
20
128.343529
30
0
11
63.761428
21
127.37902
31
0
0
LINE
8
VISIBLE
10
60.379059
20
131.448651
30
0
11
60.895115
21
133.339027
31
0
0
LINE
8
VISIBLE
10
52.354315
20
132.632224
30
0
11
53.174103
21
130.852397
31
0
0
LINE
8
VISIBLE
10
50.506739
20
126.282114
30
0
11
38.851885
21
125.317604
31
0
0
LINE
8
VISIBLE
10
38.851885
20
125.317604
30
0
11
37.968665
21
113.013088
31
0
0
LINE
8
VISIBLE
10
42.074957
20
109.675321
30
0
11
43.95959
21
110.211971
31
0
0
LINE
8
VISIBLE
10
43.346012
20
101.663968
30
0
11
41.557347
21
102.464288
31
0
0
LINE
8
VISIBLE
10
113.696621
20
89.933747
30
0
11
125.564036
21
89.303391
31
0
0
LINE
8
VISIBLE
10
113.696621
20
89.933747
30
0
11
114.099898
21
101.076622
31
0
0
LINE
8
VISIBLE
10
128.365049
20
84.813775
30
0
11
127.598117
21
83.010542
31
0
0
LINE
8
VISIBLE
10
136.15605
20
82.555974
30
0
11
135.584458
21
84.430305
31
0
0
LINE
8
VISIBLE
10
138.845314
20
88.597935
30
0
11
150.71273
21
87.967579
31
0
0
LINE
8
VISIBLE
10
150.71273
20
87.967579
30
0
11
151.007018
21
100.402297
31
0
0
LINE
8
VISIBLE
10
146.74532
20
103.539215
30
0
11
144.888603
21
102.912764
31
0
0
LINE
8
VISIBLE
10
145.09137
20
111.480361
30
0
11
146.916372
21
110.766776
31
0
0
LINE
8
VISIBLE
10
151.321697
20
113.698574
30
0
11
151.615985
21
126.133292
31
0
0
LINE
8
VISIBLE
10
151.615985
20
126.133292
30
0
11
139.949137
21
125.935033
31
0
0
LINE
8
VISIBLE
10
136.988019
20
121.549363
30
0
11
137.689414
21
119.719641
31
0
0
LINE
8
VISIBLE
10
129.120655
20
119.574029
30
0
11
129.759477
21
121.426525
31
0
0
LINE
8
VISIBLE
10
126.651057
20
125.709054
30
0
11
114.984208
21
125.510794
31
0
0
LINE
8
VISIBLE
10
114.984208
20
125.510794
30
0
11
114.580931
21
114.36792
31
0
0
LINE
8
VISIBLE
10
110.139265
20
111.491476
30
0
11
108.323335
21
112.227842
31
0
0
LINE
8
VISIBLE
10
108.013377
20
103.663452
30
0
11
109.877786
21
104.266621
31
0
0
LINE
8
VISIBLE
10
188.882516
20
90.534348
30
0
11
202.779933
21
90.503072
31
0
0
LINE
8
VISIBLE
10
188.882516
20
90.534348
30
0
11
188.791583
21
102.93092
31
0
0
LINE
8
VISIBLE
10
205.805378
20
86.161528
30
0
11
205.13103
21
84.321666
31
0
0
LINE
8
VISIBLE
10
213.701005
20
84.30238
30
0
11
213.034945
21
86.145258
31
0
0
LINE
8
VISIBLE
10
216.0799
20
90.473141
30
0
11
229.977317
21
90.441866
31
0
0
LINE
8
VISIBLE
10
229.977317
20
90.441866
30
0
11
229.628241
21
100.95101
31
0
0
LINE
8
VISIBLE
10
233.859814
20
104.128449
30
0
11
235.722423
21
103.519743
31
0
0
LINE
8
VISIBLE
10
235.437915
20
112.085015
30
0
11
233.619805
21
111.354049
31
0
0
LINE
8
VISIBLE
10
229.186706
20
114.243679
30
0
11
228.83763
21
124.752823
31
0
0
LINE
8
VISIBLE
10
228.83763
20
124.752823
30
0
11
215.339743
21
126.052577
31
0
0
LINE
8
VISIBLE
10
212.733994
20
130.658269
30
0
11
213.577609
21
132.426926
31
0
0
LINE
8
VISIBLE
10
205.04707
20
133.248359
30
0
11
205.537694
21
131.351223
31
0
0
LINE
8
VISIBLE
10
202.100979
20
127.32738
30
0
11
188.603092
21
128.627135
31
0
0
LINE
8
VISIBLE
10
188.603092
20
128.627135
30
0
11
188.694025
21
116.230562
31
0
0
LINE
8
VISIBLE
10
193.050898
20
113.227233
30
0
11
194.887307
21
113.910927
31
0
0
LINE
8
VISIBLE
10
194.950169
20
105.341161
30
0
11
193.103928
21
105.997841
31
0
0
LINE
8
VISIBLE
10
267.238373
20
88.725376
30
0
11
278.969188
21
88.717278
31
0
0
LINE
8
VISIBLE
10
267.238373
20
88.725376
30
0
11
266.541183
21
100.900959
31
0
0
LINE
8
VISIBLE
10
282.007387
20
93.049907
30
0
11
281.338452
21
94.891744
31
0
0
LINE
8
VISIBLE
10
289.908447
20
94.885828
30
0
11
289.236971
21
93.044917
31
0
0
LINE
8
VISIBLE
10
292.269185
20
88.708097
30
0
11
304
21
88.7
31
0
0
LINE
8
VISIBLE
10
304
20
88.7
30
0
11
304
21
126.7
31
0
0
LINE
8
VISIBLE
10
304
20
126.7
30
0
11
291.191571
21
126.586382
31
0
0
LINE
8
VISIBLE
10
288.194933
20
122.224905
30
0
11
288.881445
21
120.389548
31
0
0
LINE
8
VISIBLE
10
280.311786
20
120.31353
30
0
11
280.965632
21
122.160777
31
0
0
LINE
8
VISIBLE
10
277.892094
20
126.468409
30
0
11
265.083665
21
126.354791
31
0
0
LINE
8
VISIBLE
10
265.083665
20
126.354791
30
0
11
265.780854
21
114.179208
31
0
0
LINE
8
VISIBLE
10
270.282006
20
111.39677
30
0
11
272.082055
21
112.171147
31
0
0
LINE
8
VISIBLE
10
272.571981
20
103.615166
30
0
11
270.695304
21
104.179008
31
0
0
LINE
8
VISIBLE
10
0
20
133.05
30
0
11
12.780148
21
132.595267
31
0
0
LINE
8
VISIBLE
10
0
20
133.05
30
0
11
0
21
171.05
31
0
0
LINE
8
VISIBLE
10
15.967573
20
136.819323
30
0
11
15.363268
21
138.683365
31
0
0
LINE
8
VISIBLE
10
23.927845
20
138.378627
30
0
11
23.192587
21
136.562249
31
0
0
LINE
8
VISIBLE
10
26.071737
20
132.122337
30
0
11
38.851885
21
131.667604
31
0
0
LINE
8
VISIBLE
10
38.851885
20
131.667604
30
0
11
39.117831
21
143.858828
31
0
0
LINE
8
VISIBLE
10
34.850333
20
146.98785
30
0
11
32.99478
21
146.357963
31
0
0
LINE
8
VISIBLE
10
33.181686
20
154.925922
30
0
11
35.008006
21
154.215716
31
0
0
LINE
8
VISIBLE
10
39.407896
20
157.155664
30
0
11
39.673841
21
169.346887
31
0
0
LINE
8
VISIBLE
10
39.673841
20
169.346887
30
0
11
26.480802
21
169.913236
31
0
0
LINE
8
VISIBLE
10
23.634297
20
174.374148
30
0
11
24.382859
21
176.185084
31
0
0
LINE
8
VISIBLE
10
15.820748
20
176.552637
30
0
11
16.411363
21
174.684213
31
0
0
LINE
8
VISIBLE
10
13.19304
20
170.483651
30
0
11
0
21
171.05
31
0
0
LINE
8
VISIBLE
10
75.416281
20
134.693529
30
0
11
88.567221
21
133.752031
31
0
0
LINE
8
VISIBLE
10
75.416281
20
134.693529
30
0
11
75.461065
21
145.494042
31
0
0
LINE
8
VISIBLE
10
91.285142
20
129.211631
30
0
11
90.485157
21
127.422816
31
0
0
LINE
8
VISIBLE
10
99.033275
20
126.810842
30
0
11
98.496271
21
128.695374
31
0
0
LINE
8
VISIBLE
10
101.833268
20
132.802293
30
0
11
114.984208
21
131.860794
31
0
0
LINE
8
VISIBLE
10
114.984208
20
131.860794
30
0
11
115.043795
21
145.229925
31
0
0
LINE
8
VISIBLE
10
110.722641
20
148.284422
30
0
11
108.878298
21
147.622431
31
0
0
LINE
8
VISIBLE
10
108.916495
20
156.192342
30
0
11
110.754864
21
155.513936
31
0
0
LINE
8
VISIBLE
10
115.103074
20
158.529793
30
0
11
115.162661
21
171.898924
31
0
0
LINE
8
VISIBLE
10
115.162661
20
171.898924
30
0
11
102.000598
21
171.133003
31
0
0
LINE
8
VISIBLE
10
98.718698
20
175.284082
30
0
11
99.2808
21
177.161281
31
0
0
LINE
8
VISIBLE
10
90.725277
20
176.663422
30
0
11
91.501322
21
174.864091
31
0
0
LINE
8
VISIBLE
10
88.723059
20
170.360362
30
0
11
75.560996
21
169.594441
31
0
0
LINE
8
VISIBLE
10
75.560996
20
169.594441
30
0
11
75.516212
21
158.793928
31
0
0
LINE
8
VISIBLE
10
79.838315
20
155.740773
30
0
11
81.682453
21
156.403338
31
0
0
LINE
8
VISIBLE
10
81.646918
20
147.833415
30
0
11
79.808338
21
148.51125
31
0
0
LINE
8
VISIBLE
10
151.615985
20
132.483292
30
0
11
163.474603
21
133.282855
31
0
0
LINE
8
VISIBLE
10
151.615985
20
132.483292
30
0
11
151.644378
21
145.072389
31
0
0
LINE
8
VISIBLE
10
166.21133
20
137.811945
30
0
11
165.418769
21
139.604062
31
0
0
LINE
8
VISIBLE
10
173.969352
20
140.180582
30
0
11
173.424538
21
138.298293
31
0
0
LINE
8
VISIBLE
10
176.744475
20
134.177572
30
0
11
188.603092
21
134.977135
31
0
0
LINE
8
VISIBLE
10
188.603092
20
134.977135
30
0
11
189.554546
21
146.505345
31
0
0
LINE
8
VISIBLE
10
185.484165
20
149.886811
30
0
11
183.593903
21
149.370336
31
0
0
LINE
8
VISIBLE
10
184.298811
20
157.911293
30
0
11
186.07882
21
157.0919
31
0
0
LINE
8
VISIBLE
10
190.648511
20
159.760278
30
0
11
191.599965
21
171.288488
31
0
0
LINE
8
VISIBLE
10
191.599965
20
171.288488
30
0
11
178.301143
21
171.179478
31
0
0
LINE
8
VISIBLE
10
175.230508
20
175.489179
30
0
11
175.885597
21
177.335985
31
0
0
LINE
8
VISIBLE
10
167.315888
20
177.265739
30
0
11
168.001165
21
175.42992
31
0
0
LINE
8
VISIBLE
10
165.00159
20
171.070461
30
0
11
151.702768
21
170.961451
31
0
0
LINE
8
VISIBLE
10
151.702768
20
170.961451
30
0
11
151.674375
21
158.372355
31
0
0
LINE
8
VISIBLE
10
147.332815
20
155.346932
30
0
11
145.492957
21
156.021289
31
0
0
LINE
8
VISIBLE
10
145.473629
20
147.451314
30
0
11
147.31651
21
148.117364
31
0
0
LINE
8
VISIBLE
10
228.83763
20
131.102823
30
0
11
240.317133
21
131.610183
31
0
0
LINE
8
VISIBLE
10
228.83763
20
131.102823
30
0
11
228.673071
21
144.466651
31
0
0
LINE
8
VISIBLE
10
243.540775
20
127.413702
30
0
11
242.952527
21
125.544531
31
0
0
LINE
8
VISIBLE
10
251.514166
20
125.92293
30
0
11
250.76331
21
127.732917
31
0
0
LINE
8
VISIBLE
10
253.604162
20
132.197431
30
0
11
265.083665
21
132.704791
31
0
0
LINE
8
VISIBLE
10
265.083665
20
132.704791
30
0
11
264.922678
21
145.773394
31
0
0
LINE
8
VISIBLE
10
260.550895
20
148.754978
30
0
11
258.717915
21
148.062141
31
0
0
LINE
8
VISIBLE
10
258.612353
20
156.631488
30
0
11
260.461843
21
155.984015
31
0
0
LINE
8
VISIBLE
10
264.758853
20
159.072385
30
0
11
264.597866
21
172.140989
31
0
0
LINE
8
VISIBLE
10
264.597866
20
172.140989
30
0
11
253.118721
21
171.820703
31
0
0
LINE
8
VISIBLE
10
250.205593
20
167.403011
30
0
11
250.926895
21
165.581045
31
0
0
LINE
8
VISIBLE
10
242.360232
20
165.342022
30
0
11
242.978819
21
167.201373
31
0
0
LINE
8
VISIBLE
10
239.823895
20
171.449758
30
0
11
228.344749
21
171.129472
31
0
0
LINE
8
VISIBLE
10
228.344749
20
171.129472
30
0
11
228.509309
21
157.765643
31
0
0
LINE
8
VISIBLE
10
232.881078
20
154.784039
30
0
11
234.71406
21
155.476867
31
0
0
LINE
8
VISIBLE
10
234.819582
20
146.907519
30
0
11
232.970095
21
147.555002
31
0
0
LINE
8
VISIBLE
10
39.673841
20
175.696887
30
0
11
50.967577
21
175.774793
31
0
0
LINE
8
VISIBLE
10
39.673841
20
175.696887
30
0
11
39.469106
21
188.594216
31
0
0
LINE
8
VISIBLE
10
53.972811
20
180.130351
30
0
11
53.28992
21
181.967059
31
0
0
LINE
8
VISIBLE
10
61.859713
20
182.026174
30
0
11
61.202225
21
180.180221
31
0
0
LINE
8
VISIBLE
10
64.267261
20
175.866535
30
0
11
75.560996
21
175.944441
31
0
0
LINE
8
VISIBLE
10
75.560996
20
175.944441
30
0
11
75.888027
21
188.730325
31
0
0
LINE
8
VISIBLE
10
71.632327
20
191.875375
30
0
11
69.774418
21
191.252471
31
0
0
LINE
8
VISIBLE
10
69.993545
20
199.819666
30
0
11
71.817181
21
199.102597
31
0
0
LINE
8
VISIBLE
10
76.228097
20
202.025977
30
0
11
76.555128
21
214.811861
31
0
0
LINE
8
VISIBLE
10
76.555128
20
214.811861
30
0
11
64.454197
21
214.804765
31
0
0
LINE
8
VISIBLE
10
61.416448
20
219.137709
30
0
11
62.085574
21
220.979476
31
0
0
LINE
8
VISIBLE
10
53.515579
20
220.974451
30
0
11
54.186864
21
219.133469
31
0
0
LINE
8
VISIBLE
10
51.154199
20
214.796965
30
0
11
39.053268
21
214.789869
31
0
0
LINE
8
VISIBLE
10
39.053268
20
214.789869
30
0
11
39.258004
21
201.89254
31
0
0
LINE
8
VISIBLE
10
34.972001
20
198.788914
30
0
11
33.120221
21
199.429808
31
0
0
LINE
8
VISIBLE
10
33.256246
20
190.860891
30
0
11
35.086751
21
191.560239
31
0
0
LINE
8
VISIBLE
10
115.162661
20
178.248924
30
0
11
126.784902
21
177.950744
31
0
0
LINE
8
VISIBLE
10
115.162661
20
178.248924
30
0
11
115.225991
21
189.954371
31
0
0
LINE
8
VISIBLE
10
129.707936
20
173.539599
30
0
11
128.990724
21
171.716019
31
0
0
LINE
8
VISIBLE
10
137.557901
20
171.49622
30
0
11
136.935143
21
173.354178
31
0
0
LINE
8
VISIBLE
10
140.080527
20
177.609631
30
0
11
151.702768
21
177.311451
31
0
0
LINE
8
VISIBLE
10
151.702768
20
177.311451
30
0
11
151.895192
21
190.191188
31
0
0
LINE
8
VISIBLE
10
147.606292
20
193.290811
30
0
11
145.755111
21
192.648187
31
0
0
LINE
8
VISIBLE
10
145.883133
20
201.217227
30
0
11
147.71429
21
200.51959
31
0
0
LINE
8
VISIBLE
10
152.093872
20
203.489704
30
0
11
152.286296
21
216.369441
31
0
0
LINE
8
VISIBLE
10
152.286296
20
216.369441
30
0
11
140.468945
21
215.918249
31
0
0
LINE
8
VISIBLE
10
137.270566
20
220.134016
30
0
11
137.87003
21
221.99962
31
0
0
LINE
8
VISIBLE
10
129.306273
20
221.672651
30
0
11
130.046244
21
219.858188
31
0
0
LINE
8
VISIBLE
10
127.178629
20
215.410817
30
0
11
115.361278
21
214.959624
31
0
0
LINE
8
VISIBLE
10
115.361278
20
214.959624
30
0
11
115.297948
21
203.254177
31
0
0
LINE
8
VISIBLE
10
110.946865
20
200.242466
30
0
11
109.109143
21
200.922624
31
0
0
LINE
8
VISIBLE
10
109.062777
20
192.352753
30
0
11
110.907751
21
193.012986
31
0
0
LINE
8
VISIBLE
10
191.599965
20
177.638488
30
0
11
203.32242
21
177.587758
31
0
0
LINE
8
VISIBLE
10
191.599965
20
177.638488
30
0
11
190.557706
21
189.631651
31
0
0
LINE
8
VISIBLE
10
206.33884
20
173.239939
30
0
11
205.660672
21
171.401482
31
0
0
LINE
8
VISIBLE
10
214.230588
20
171.364395
30
0
11
213.568358
21
173.208652
31
0
0
LINE
8
VISIBLE
10
216.622295
20
177.530202
30
0
11
228.344749
21
177.479472
31
0
0
LINE
8
VISIBLE
10
228.344749
20
177.479472
30
0
11
227.594736
21
189.99269
31
0
0
LINE
8
VISIBLE
10
223.086179
20
192.763112
30
0
11
221.288202
21
191.983937
31
0
0
LINE
8
VISIBLE
10
220.775456
20
200.538581
30
0
11
222.65363
21
199.979746
31
0
0
LINE
8
VISIBLE
10
226.798993
20
203.268864
30
0
11
226.048979
21
215.782083
31
0
0
LINE
8
VISIBLE
10
226.048979
20
215.782083
30
0
11
213.854543
21
215.48852
31
0
0
LINE
8
VISIBLE
10
210.924536
20
211.082004
30
0
11
211.638863
21
209.257292
31
0
0
LINE
8
VISIBLE
10
203.071349
20
209.051043
30
0
11
203.697045
21
210.908013
31
0
0
LINE
8
VISIBLE
10
200.558395
20
215.168436
30
0
11
188.363958
21
214.874874
31
0
0
LINE
8
VISIBLE
10
188.363958
20
214.874874
30
0
11
189.406217
21
202.881711
31
0
0
LINE
8
VISIBLE
10
185.350551
20
199.482608
30
0
11
183.458066
21
199.990874
31
0
0
LINE
8
VISIBLE
10
184.20004
20
191.453057
30
0
11
185.976475
21
192.280169
31
0
0
LINE
8
VISIBLE
10
264.597866
20
178.490989
30
0
11
277.651481
21
178.129553
31
0
0
LINE
8
VISIBLE
10
264.597866
20
178.490989
30
0
11
265.228479
21
191.08459
31
0
0
LINE
8
VISIBLE
10
280.805501
20
182.378609
30
0
11
280.186518
21
184.237828
31
0
0
LINE
8
VISIBLE
10
288.753232
20
184.000628
30
0
11
288.032317
21
182.178509
31
0
0
LINE
8
VISIBLE
10
290.946385
20
177.761436
30
0
11
304
21
177.4
31
0
0
LINE
8
VISIBLE
10
304
20
177.4
30
0
11
304
21
215.4
31
0
0
LINE
8
VISIBLE
10
304
20
215.4
30
0
11
291.906357
21
215.90392
31
0
0
LINE
8
VISIBLE
10
288.693318
20
211.699315
30
0
11
289.286282
21
209.831635
31
0
0
LINE
8
VISIBLE
10
280.723715
20
210.188422
30
0
11
281.47
21
212.000298
31
0
0
LINE
8
VISIBLE
10
278.617888
20
216.457627
30
0
11
266.524245
21
216.961547
31
0
0
LINE
8
VISIBLE
10
266.524245
20
216.961547
30
0
11
265.893632
21
204.367947
31
0
0
LINE
8
VISIBLE
10
270.071137
20
201.119752
30
0
11
271.943725
21
201.697029
31
0
0
LINE
8
VISIBLE
10
271.515127
20
193.137756
30
0
11
269.709575
21
193.899213
31
0
0
LINE
8
VISIBLE
10
0
20
221.75
30
0
11
12.877446
21
221.548815
31
0
0
LINE
8
VISIBLE
10
0
20
221.75
30
0
11
0
21
259.75
31
0
0
LINE
8
VISIBLE
10
15.979996
20
225.835598
30
0
11
15.338636
21
227.687217
31
0
0
LINE
8
VISIBLE
10
23.907587
20
227.553344
30
0
11
23.208699
21
225.722663
31
0
0
LINE
8
VISIBLE
10
26.175823
20
221.341054
30
0
11
39.053268
21
221.139869
31
0
0
LINE
8
VISIBLE
10
39.053268
20
221.139869
30
0
11
38.707976
21
233.797407
31
0
0
LINE
8
VISIBLE
10
42.958321
20
236.949691
30
0
11
44.817286
21
236.329948
31
0
0
LINE
8
VISIBLE
10
44.583587
20
244.896758
30
0
11
42.761174
21
244.176589
31
0
0
LINE
8
VISIBLE
10
38.345292
20
247.092461
30
0
11
38
21
259.75
31
0
0
LINE
8
VISIBLE
10
38
20
259.75
30
0
11
0
21
259.75
31
0
0
LINE
8
VISIBLE
10
76.555128
20
221.161861
30
0
11
89.308251
21
221.210421
31
0
0
LINE
8
VISIBLE
10
76.555128
20
221.161861
30
0
11
76.373221
21
233.806618
31
0
0
LINE
8
VISIBLE
10
92.326931
20
225.556672
30
0
11
91.649719
21
227.395481
31
0
0
LINE
8
VISIBLE
10
100.219653
20
227.428113
30
0
11
99.556464
21
225.5842
31
0
0
LINE
8
VISIBLE
10
102.608155
20
221.261064
30
0
11
115.361278
21
221.309624
31
0
0
LINE
8
VISIBLE
10
115.361278
20
221.309624
30
0
11
114.915986
21
233.883978
31
0
0
LINE
8
VISIBLE
10
110.476559
20
236.763876
30
0
11
108.660057
21
236.028923
31
0
0
LINE
8
VISIBLE
10
108.35676
20
244.593551
30
0
11
110.2207
21
243.988932
31
0
0
LINE
8
VISIBLE
10
114.445292
20
247.175646
30
0
11
114
21
259.75
31
0
0
LINE
8
VISIBLE
10
114
20
259.75
30
0
11
76
21
259.75
31
0
0
LINE
8
VISIBLE
10
76
20
259.75
30
0
11
76.181907
21
247.105242
31
0
0
LINE
8
VISIBLE
10
71.89129
20
244.007997
30
0
11
70.040466
21
244.651645
31
0
0
LINE
8
VISIBLE
10
70.163741
20
236.082535
30
0
11
71.995284
21
236.779159
31
0
0
LINE
8
VISIBLE
10
152.286296
20
222.719441
30
0
11
163.680826
21
222.247407
31
0
0
LINE
8
VISIBLE
10
152.286296
20
222.719441
30
0
11
152.19456
21
234.584919
31
0
0
LINE
8
VISIBLE
10
166.89285
20
226.452787
30
0
11
166.299435
21
228.320324
31
0
0
LINE
8
VISIBLE
10
174.862088
20
227.965605
30
0
11
174.11624
21
226.153548
31
0
0
LINE
8
VISIBLE
10
176.969428
20
221.696908
30
0
11
188.363958
21
221.224874
31
0
0
LINE
8
VISIBLE
10
188.363958
20
221.224874
30
0
11
188.899829
21
233.843425
31
0
0
LINE
8
VISIBLE
10
193.35943
20
236.691983
30
0
11
195.17071
21
235.944254
31
0
0
LINE
8
VISIBLE
10
195.534324
20
244.506533
30
0
11
193.666171
21
243.915058
31
0
0
LINE
8
VISIBLE
10
189.46413
20
247.131449
30
0
11
190
21
259.75
31
0
0
LINE
8
VISIBLE
10
190
20
259.75
30
0
11
152
21
259.75
31
0
0
LINE
8
VISIBLE
10
152
20
259.75
30
0
11
152.091736
21
247.884522
31
0
0
LINE
8
VISIBLE
10
156.449797
20
244.882918
30
0
11
158.285935
21
245.567339
31
0
0
LINE
8
VISIBLE
10
158.352191
20
236.997599
30
0
11
156.50569
21
237.653548
31
0
0
LINE
8
VISIBLE
10
226.048979
20
222.132083
30
0
11
239.639434
21
222.528114
31
0
0
LINE
8
VISIBLE
10
226.048979
20
222.132083
30
0
11
226.680056
21
234.299967
31
0
0
LINE
8
VISIBLE
10
242.799615
20
218.283637
30
0
11
242.183329
21
216.423522
31
0
0
LINE
8
VISIBLE
10
250.74969
20
216.673149
30
0
11
250.026133
21
218.494221
31
0
0
LINE
8
VISIBLE
10
252.93379
20
222.915516
30
0
11
266.524245
21
223.311547
31
0
0
LINE
8
VISIBLE
10
266.524245
20
223.311547
30
0
11
266.357787
21
234.881462
31
0
0
LINE
8
VISIBLE
10
261.979847
20
237.853997
30
0
11
260.148304
21
237.157372
31
0
0
LINE
8
VISIBLE
10
260.025019
20
245.726481
30
0
11
261.875845
21
245.082835
31
0
0
LINE
8
VISIBLE
10
266.166458
20
248.180085
30
0
11
266
21
259.75
31
0
0
LINE
8
VISIBLE
10
266
20
259.75
30
0
11
228
21
259.75
31
0
0
LINE
8
VISIBLE
10
228
20
259.75
30
0
11
227.368923
21
247.582115
31
0
0
LINE
8
VISIBLE
10
231.540623
20
244.326467
30
0
11
233.414239
21
244.9004
31
0
0
LINE
8
VISIBLE
10
232.97036
20
236.341906
30
0
11
231.16617
21
237.106585
31
0
0
ARC
8
VISIBLE
10
41.345464
20
13.148311
30
0
40
3.23
50
69.497404
51
179.497404
0
ARC
8
VISIBLE
10
45.909334
20
19.758532
30
0
40
4.56
50
249.497404
51
109.497404
0
ARC
8
VISIBLE
10
41.462129
20
26.447799
30
0
40
3.23
50
179.497404
51
289.497404
0
ARC
8
VISIBLE
10
50.157115
20
36.45478
30
0
40
3.23
50
340.155331
51
90.155331
0
ARC
8
VISIBLE
10
56.819306
20
31.967113
30
0
40
4.56
50
160.155331
51
20.155331
0
ARC
8
VISIBLE
10
63.457066
20
36.490837
30
0
40
3.23
50
90.155331
51
200.155331
0
ARC
8
VISIBLE
10
78.7282
20
26.586245
30
0
40
3.23
50
181.082539
51
291.082539
0
ARC
8
VISIBLE
10
83.358744
20
20.022557
30
0
40
4.56
50
251.082539
51
111.082539
0
ARC
8
VISIBLE
10
78.979473
20
13.288619
30
0
40
3.23
50
71.082539
51
181.082539
0
ARC
8
VISIBLE
10
116.688573
20
12.687168
30
0
40
3.23
50
72.457023
51
182.457023
0
ARC
8
VISIBLE
10
120.905056
20
19.524215
30
0
40
4.56
50
252.457023
51
112.457023
0
ARC
8
VISIBLE
10
116.118402
20
25.974941
30
0
40
3.23
50
182.457023
51
292.457023
0
ARC
8
VISIBLE
10
125.053475
20
41.593049
30
0
40
3.23
50
269.900189
51
19.900189
0
ARC
8
VISIBLE
10
131.711314
20
46.08717
30
0
40
4.56
50
339.900189
51
199.900189
0
ARC
8
VISIBLE
10
138.353455
20
41.56988
30
0
40
3.23
50
159.900189
51
269.900189
0
ARC
8
VISIBLE
10
148.126313
20
25.726146
30
0
40
3.23
50
251.43104
51
1.43104
0
ARC
8
VISIBLE
10
143.788083
20
18.965695
30
0
40
4.56
50
71.43104
51
291.43104
0
ARC
8
VISIBLE
10
148.458464
20
12.430294
30
0
40
3.23
50
1.43104
51
111.43104
0
ARC
8
VISIBLE
10
193.611052
20
12.842387
30
0
40
3.23
50
68.306739
51
178.306739
0
ARC
8
VISIBLE
10
198.311295
20
19.356346
30
0
40
4.56
50
248.306739
51
108.306739
0
ARC
8
VISIBLE
10
194.00405
20
26.13658
30
0
40
3.23
50
178.306739
51
288.306739
0
ARC
8
VISIBLE
10
202.390505
20
42.276879
30
0
40
3.23
50
269.371769
51
19.371769
0
ARC
8
VISIBLE
10
209.089508
20
46.709406
30
0
40
4.56
50
339.371769
51
199.371769
0
ARC
8
VISIBLE
10
215.689705
20
42.131051
30
0
40
3.23
50
159.371769
51
269.371769
0
ARC
8
VISIBLE
10
224.00027
20
25.940694
30
0
40
3.23
50
251.696494
51
1.696494
0
ARC
8
VISIBLE
10
219.693408
20
19.160217
30
0
40
4.56
50
71.696494
51
291.696494
0
ARC
8
VISIBLE
10
224.394018
20
12.646524
30
0
40
3.23
50
1.696494
51
111.696494
0
ARC
8
VISIBLE
10
269.676036
20
11.950843
30
0
40
3.23
50
67.873226
51
177.873226
0
ARC
8
VISIBLE
10
274.42543
20
18.429052
30
0
40
4.56
50
247.873226
51
107.873226
0
ARC
8
VISIBLE
10
270.169608
20
25.241681
30
0
40
3.23
50
177.873226
51
287.873226
0
ARC
8
VISIBLE
10
279.095931
20
34.383403
30
0
40
3.23
50
340.888463
51
90.888463
0
ARC
8
VISIBLE
10
285.814997
20
29.981348
30
0
40
4.56
50
160.888463
51
20.888463
0
ARC
8
VISIBLE
10
292.394332
20
34.589633
30
0
40
3.23
50
90.888463
51
200.888463
0
ARC
8
VISIBLE
10
11.532954
20
85.180652
30
0
40
3.23
50
268.007131
51
18.007131
0
ARC
8
VISIBLE
10
18.335619
20
89.452384
30
0
40
4.56
50
338.007131
51
198.007131
0
ARC
8
VISIBLE
10
24.82491
20
84.718143
30
0
40
3.23
50
158.007131
51
268.007131
0
ARC
8
VISIBLE
10
33.598076
20
69.981085
30
0
40
3.23
50
253.611308
51
3.611308
0
ARC
8
VISIBLE
10
29.520178
20
63.060487
30
0
40
4.56
50
73.611308
51
293.611308
0
ARC
8
VISIBLE
10
34.43581
20
56.707495
30
0
40
3.23
50
3.611308
51
113.611308
0
ARC
8
VISIBLE
10
25.67867
20
48.689739
30
0
40
3.23
50
162.467897
51
272.467897
0
ARC
8
VISIBLE
10
18.840824
20
52.904925
30
0
40
4.56
50
342.467897
51
202.467897
0
ARC
8
VISIBLE
10
12.391006
20
48.117046
30
0
40
3.23
50
272.467897
51
22.467897
0
ARC
8
VISIBLE
10
78.795357
20
58.216459
30
0
40
3.23
50
68.508371
51
178.508371
0
ARC
8
VISIBLE
10
83.472647
20
64.746918
30
0
40
4.56
50
248.508371
51
108.508371
0
ARC
8
VISIBLE
10
79.141568
20
71.511953
30
0
40
3.23
50
178.508371
51
288.508371
0
ARC
8
VISIBLE
10
88.331663
20
86.955975
30
0
40
3.23
50
269.678847
51
19.678847
0
ARC
8
VISIBLE
10
95.006814
20
91.424341
30
0
40
4.56
50
339.678847
51
199.678847
0
ARC
8
VISIBLE
10
101.631454
20
86.881426
30
0
40
3.23
50
159.678847
51
269.678847
0
ARC
8
VISIBLE
10
116.482712
20
70.69383
30
0
40
3.23
50
178.019025
51
288.019025
0
ARC
8
VISIBLE
10
120.755855
20
63.892053
30
0
40
4.56
50
248.019025
51
108.019025
0
ARC
8
VISIBLE
10
116.022962
20
57.401779
30
0
40
3.23
50
68.019025
51
178.019025
0
ARC
8
VISIBLE
10
100.565333
20
48.40185
30
0
40
3.23
50
157.889048
51
267.889048
0
ARC
8
VISIBLE
10
94.085813
20
53.149455
30
0
40
4.56
50
337.889048
51
197.889048
0
ARC
8
VISIBLE
10
87.274359
20
48.891752
30
0
40
3.23
50
267.889048
51
17.889048
0
ARC
8
VISIBLE
10
147.70727
20
56.464091
30
0
40
3.23
50
0.511748
51
110.511748
0
ARC
8
VISIBLE
10
143.142343
20
63.073583
30
0
40
4.56
50
70.511748
51
290.511748
0
ARC
8
VISIBLE
10
147.58848
20
69.763561
30
0
40
3.23
50
250.511748
51
0.511748
0
ARC
8
VISIBLE
10
163.379323
20
79.232063
30
0
40
3.23
50
343.847125
51
93.847125
0
ARC
8
VISIBLE
10
170.316647
20
75.182683
30
0
40
4.56
50
163.847125
51
23.847125
0
ARC
8
VISIBLE
10
176.649353
20
80.124421
30
0
40
3.23
50
93.847125
51
203.847125
0
ARC
8
VISIBLE
10
192.853964
20
71.680371
30
0
40
3.23
50
183.367974
51
293.367974
0
ARC
8
VISIBLE
10
197.74257
20
65.30656
30
0
40
4.56
50
253.367974
51
113.367974
0
ARC
8
VISIBLE
10
193.635317
20
58.403343
30
0
40
3.23
50
73.367974
51
183.367974
0
ARC
8
VISIBLE
10
177.817435
20
42.005759
30
0
40
3.23
50
91.216829
51
201.216829
0
ARC
8
VISIBLE
10
171.264619
20
37.359844
30
0
40
4.56
50
161.216829
51
21.216829
0
ARC
8
VISIBLE
10
164.520435
20
41.723319
30
0
40
3.23
50
341.216829
51
91.216829
0
ARC
8
VISIBLE
10
224.66294
20
58.239762
30
0
40
3.23
50
355.413238
51
105.413238
0
ARC
8
VISIBLE
10
220.70345
20
65.22878
30
0
40
4.56
50
65.413238
51
285.413238
0
ARC
8
VISIBLE
10
225.726523
20
71.497167
30
0
40
3.23
50
245.413238
51
355.413238
0
ARC
8
VISIBLE
10
242.113527
20
86.766217
30
0
40
3.23
50
267.362443
51
17.362443
0
ARC
8
VISIBLE
10
248.963825
20
90.961137
30
0
40
4.56
50
337.362443
51
197.362443
0
ARC
8
VISIBLE
10
255.399438
20
86.15418
30
0
40
3.23
50
157.362443
51
267.362443
0
ARC
8
VISIBLE
10
264.058116
20
69.716068
30
0
40
3.23
50
250.225246
51
0.225246
0
ARC
8
VISIBLE
10
259.578582
20
63.048406
30
0
40
4.56
50
70.225246
51
290.225246
0
ARC
8
VISIBLE
10
264.110401
20
56.416171
30
0
40
3.23
50
0.225246
51
110.225246
0
ARC
8
VISIBLE
10
253.659909
20
41.006431
30
0
40
3.23
50
88.09802
51
198.09802
0
ARC
8
VISIBLE
10
246.864029
20
36.723914
30
0
40
4.56
50
158.09802
51
18.09802
0
ARC
8
VISIBLE
10
240.367236
20
41.447854
30
0
40
3.23
50
338.09802
51
88.09802
0
ARC
8
VISIBLE
10
40.238149
20
99.515964
30
0
40
3.23
50
65.894339
51
175.894339
0
ARC
8
VISIBLE
10
45.208411
20
105.826308
30
0
40
4.56
50
245.894339
51
105.894339
0
ARC
8
VISIBLE
10
41.190376
20
112.781833
30
0
40
3.23
50
175.894339
51
285.894339
0
ARC
8
VISIBLE
10
50.240347
20
129.50111
30
0
40
3.23
50
274.730792
51
24.730792
0
ARC
8
VISIBLE
10
56.496087
20
134.539924
30
0
40
4.56
50
344.730792
51
204.730792
0
ARC
8
VISIBLE
10
63.495037
20
130.598016
30
0
40
3.23
50
164.730792
51
274.730792
0
ARC
8
VISIBLE
10
78.910878
20
115.960946
30
0
40
3.23
50
181.220742
51
291.220742
0
ARC
8
VISIBLE
10
83.55724
20
109.408446
30
0
40
4.56
50
251.220742
51
111.220742
0
ARC
8
VISIBLE
10
79.194226
20
102.663964
30
0
40
3.23
50
71.220742
51
181.220742
0
ARC
8
VISIBLE
10
62.599626
20
92.462875
30
0
40
3.23
50
163.853783
51
273.853783
0
ARC
8
VISIBLE
10
55.661831
20
96.511449
30
0
40
4.56
50
343.853783
51
203.853783
0
ARC
8
VISIBLE
10
49.329699
20
91.568975
30
0
40
3.23
50
273.853783
51
23.853783
0
ARC
8
VISIBLE
10
110.872012
20
101.193444
30
0
40
3.23
50
357.927283
51
107.927283
0
ARC
8
VISIBLE
10
106.609764
20
108.002055
30
0
40
4.56
50
67.927283
51
287.927283
0
ARC
8
VISIBLE
10
111.353044
20
114.484742
30
0
40
3.23
50
247.927283
51
357.927283
0
ARC
8
VISIBLE
10
126.705937
20
122.47952
30
0
40
3.23
50
340.973555
51
90.973555
0
ARC
8
VISIBLE
10
133.431534
20
118.087449
30
0
40
4.56
50
160.973555
51
20.973555
0
ARC
8
VISIBLE
10
140.004018
20
122.705499
30
0
40
3.23
50
90.973555
51
200.973555
0
ARC
8
VISIBLE
10
148.092601
20
113.774996
30
0
40
3.23
50
248.644252
51
358.644252
0
ARC
8
VISIBLE
10
143.430812
20
107.233463
30
0
40
4.56
50
68.644252
51
288.644252
0
ARC
8
VISIBLE
10
147.777922
20
100.478719
30
0
40
3.23
50
358.644252
51
108.644252
0
ARC
8
VISIBLE
10
138.673989
20
85.372482
30
0
40
3.23
50
86.959503
51
196.959503
0
ARC
8
VISIBLE
10
131.794359
20
81.225841
30
0
40
4.56
50
156.959503
51
16.959503
0
ARC
8
VISIBLE
10
125.392711
20
86.077938
30
0
40
3.23
50
336.959503
51
86.959503
0
ARC
8
VISIBLE
10
192.021496
20
102.954613
30
0
40
3.23
50
70.420276
51
180.420276
0
ARC
8
VISIBLE
10
196.478307
20
109.637484
30
0
40
4.56
50
250.420276
51
110.420276
0
ARC
8
VISIBLE
10
191.923939
20
116.254255
30
0
40
3.23
50
180.420276
51
290.420276
0
ARC
8
VISIBLE
10
202.410574
20
130.542509
30
0
40
3.23
50
264.499765
51
14.499765
0
ARC
8
VISIBLE
10
209.461828
20
134.390073
30
0
40
4.56
50
334.499765
51
194.499765
0
ARC
8
VISIBLE
10
215.649338
20
129.267706
30
0
40
3.23
50
154.499765
51
264.499765
0
ARC
8
VISIBLE
10
232.414926
20
114.350909
30
0
40
3.23
50
181.902461
51
291.902461
0
ARC
8
VISIBLE
10
237.138921
20
107.854155
30
0
40
4.56
50
251.902461
51
111.902461
0
ARC
8
VISIBLE
10
232.856461
20
101.05824
30
0
40
3.23
50
71.902461
51
181.902461
0
ARC
8
VISIBLE
10
216.072631
20
87.243149
30
0
40
3.23
50
89.871058
51
199.871058
0
ARC
8
VISIBLE
10
209.412508
20
82.752415
30
0
40
4.56
50
159.871058
51
19.871058
0
ARC
8
VISIBLE
10
202.772664
20
87.27308
30
0
40
3.23
50
339.871058
51
89.871058
0
ARC
8
VISIBLE
10
269.765901
20
101.08561
30
0
40
3.23
50
73.277251
51
183.277251
0
ARC
8
VISIBLE
10
273.884079
20
107.982315
30
0
40
4.56
50
253.277251
51
113.277251
0
ARC
8
VISIBLE
10
269.005572
20
114.363859
30
0
40
3.23
50
183.277251
51
293.277251
0
ARC
8
VISIBLE
10
277.920745
20
123.238536
30
0
40
3.23
50
340.508232
51
90.508232
0
ARC
8
VISIBLE
10
284.61045
20
118.791988
30
0
40
4.56
50
160.508232
51
20.508232
0
ARC
8
VISIBLE
10
291.220221
20
123.356509
30
0
40
3.23
50
90.508232
51
200.508232
0
ARC
8
VISIBLE
10
292.271414
20
91.938097
30
0
40
3.23
50
159.96045
51
269.96045
0
ARC
8
VISIBLE
10
285.624526
20
96.448397
30
0
40
4.56
50
339.96045
51
199.96045
0
ARC
8
VISIBLE
10
278.971418
20
91.947277
30
0
40
3.23
50
269.96045
51
19.96045
0
ARC
8
VISIBLE
10
13.331569
20
173.710679
30
0
40
3.23
50
267.541925
51
17.541925
0
ARC
8
VISIBLE
10
20.168693
20
177.927037
30
0
40
4.56
50
337.541925
51
197.541925
0
ARC
8
VISIBLE
10
26.619331
20
173.140264
30
0
40
3.23
50
157.541925
51
267.541925
0
ARC
8
VISIBLE
10
36.178664
20
157.226108
30
0
40
3.23
50
248.750317
51
358.750317
0
ARC
8
VISIBLE
10
31.528992
20
150.675957
30
0
40
4.56
50
68.750317
51
288.750317
0
ARC
8
VISIBLE
10
35.8886
20
143.929272
30
0
40
3.23
50
358.750317
51
108.750317
0
ARC
8
VISIBLE
10
26.186592
20
135.350294
30
0
40
3.23
50
157.962208
51
267.962208
0
ARC
8
VISIBLE
10
19.701014
20
140.089621
30
0
40
4.56
50
337.962208
51
197.962208
0
ARC
8
VISIBLE
10
12.895003
20
135.823225
30
0
40
3.23
50
267.962208
51
17.962208
0
ARC
8
VISIBLE
10
78.691037
20
145.480649
30
0
40
3.23
50
69.762427
51
179.762427
0
ARC
8
VISIBLE
10
83.224284
20
152.11191
30
0
40
4.56
50
249.762427
51
109.762427
0
ARC
8
VISIBLE
10
78.746185
20
158.780535
30
0
40
3.23
50
179.762427
51
289.762427
0
ARC
8
VISIBLE
10
88.535418
20
173.584907
30
0
40
3.23
50
273.330376
51
23.330376
0
ARC
8
VISIBLE
10
94.912436
20
178.469329
30
0
40
4.56
50
343.330376
51
203.330376
0
ARC
8
VISIBLE
10
101.812956
20
174.357548
30
0
40
3.23
50
163.330376
51
273.330376
0
ARC
8
VISIBLE
10
111.873106
20
158.544189
30
0
40
3.23
50
249.74463
51
359.74463
0
ARC
8
VISIBLE
10
107.3378
20
151.914338
30
0
40
4.56
50
69.74463
51
289.74463
0
ARC
8
VISIBLE
10
111.813828
20
145.244322
30
0
40
3.23
50
359.74463
51
109.74463
0
ARC
8
VISIBLE
10
101.602617
20
129.580538
30
0
40
3.23
50
85.905085
51
195.905085
0
ARC
8
VISIBLE
10
94.647846
20
125.561199
30
0
40
4.56
50
155.905085
51
15.905085
0
ARC
8
VISIBLE
10
88.336571
20
130.530277
30
0
40
3.23
50
335.905085
51
85.905085
0
ARC
8
VISIBLE
10
148.414387
20
145.079673
30
0
40
3.23
50
359.870777
51
109.870777
0
ARC
8
VISIBLE
10
143.923685
20
151.739819
30
0
40
4.56
50
69.870777
51
289.870777
0
ARC
8
VISIBLE
10
148.444383
20
158.37964
30
0
40
3.23
50
249.870777
51
359.870777
0
ARC
8
VISIBLE
10
164.975115
20
174.300353
30
0
40
3.23
50
270.469642
51
20.469642
0
ARC
8
VISIBLE
10
171.587959
20
178.860421
30
0
40
4.56
50
340.469642
51
200.469642
0
ARC
8
VISIBLE
10
178.274668
20
174.409369
30
0
40
3.23
50
160.469642
51
270.469642
0
ARC
8
VISIBLE
10
187.429456
20
160.025955
30
0
40
3.23
50
245.28192
51
355.28192
0
ARC
8
VISIBLE
10
182.39203
20
153.769097
30
0
40
4.56
50
65.28192
51
285.28192
0
ARC
8
VISIBLE
10
186.335491
20
146.771022
30
0
40
3.23
50
355.28192
51
105.28192
0
ARC
8
VISIBLE
10
176.527186
20
137.400255
30
0
40
3.23
50
163.857309
51
273.857309
0
ARC
8
VISIBLE
10
169.589143
20
141.448401
30
0
40
4.56
50
343.857309
51
203.857309
0
ARC
8
VISIBLE
10
163.257315
20
136.505538
30
0
40
3.23
50
273.857309
51
23.857309
0
ARC
8
VISIBLE
10
231.902826
20
144.506422
30
0
40
3.23
50
70.705494
51
180.705494
0
ARC
8
VISIBLE
10
236.326315
20
151.211396
30
0
40
4.56
50
250.705494
51
110.705494
0
ARC
8
VISIBLE
10
231.739064
20
157.805414
30
0
40
3.23
50
180.705494
51
290.705494
0
ARC
8
VISIBLE
10
239.913981
20
168.221014
30
0
40
3.23
50
341.598224
51
91.598224
0
ARC
8
VISIBLE
10
246.687062
20
163.902528
30
0
40
4.56
50
161.598224
51
21.598224
0
ARC
8
VISIBLE
10
253.208807
20
168.59196
30
0
40
3.23
50
91.598224
51
201.598224
0
ARC
8
VISIBLE
10
261.529098
20
159.032599
30
0
40
3.23
50
250.705768
51
0.705768
0
ARC
8
VISIBLE
10
257.105641
20
152.327604
30
0
40
4.56
50
70.705768
51
290.705768
0
ARC
8
VISIBLE
10
261.692923
20
145.733608
30
0
40
3.23
50
0.705768
51
110.705768
0
ARC
8
VISIBLE
10
253.746779
20
128.970581
30
0
40
3.23
50
92.530658
51
202.530658
0
ARC
8
VISIBLE
10
247.30221
20
124.17564
30
0
40
4.56
50
162.530658
51
22.530658
0
ARC
8
VISIBLE
10
240.45975
20
128.383333
30
0
40
3.23
50
342.530658
51
92.530658
0
ARC
8
VISIBLE
10
36.239512
20
188.542948
30
0
40
3.23
50
0.909453
51
110.909453
0
ARC
8
VISIBLE
10
31.628818
20
195.120595
30
0
40
4.56
50
70.909453
51
290.909453
0
ARC
8
VISIBLE
10
36.028411
20
201.841273
30
0
40
3.23
50
250.909453
51
0.909453
0
ARC
8
VISIBLE
10
51.152305
20
218.026965
30
0
40
3.23
50
270.0336
51
20.0336
0
ARC
8
VISIBLE
10
57.799662
20
222.536575
30
0
40
4.56
50
340.0336
51
200.0336
0
ARC
8
VISIBLE
10
64.452303
20
218.034764
30
0
40
3.23
50
160.0336
51
270.0336
0
ARC
8
VISIBLE
10
72.999153
20
202.108565
30
0
40
3.23
50
248.534837
51
358.534837
0
ARC
8
VISIBLE
10
68.32488
20
195.575946
30
0
40
4.56
50
68.534837
51
288.534837
0
ARC
8
VISIBLE
10
72.659083
20
188.812913
30
0
40
3.23
50
358.534837
51
108.534837
0
ARC
8
VISIBLE
10
64.24498
20
179.096458
30
0
40
3.23
50
160.395226
51
270.395226
0
ARC
8
VISIBLE
10
57.564058
20
183.556191
30
0
40
4.56
50
340.395226
51
200.395226
0
ARC
8
VISIBLE
10
50.945297
20
179.004716
30
0
40
3.23
50
270.395226
51
20.395226
0
ARC
8
VISIBLE
10
111.996039
20
189.971847
30
0
40
3.23
50
359.690014
51
109.690014
0
ARC
8
VISIBLE
10
107.526371
20
196.646126
30
0
40
4.56
50
69.690014
51
289.690014
0
ARC
8
VISIBLE
10
112.067995
20
203.271652
30
0
40
3.23
50
249.690014
51
359.690014
0
ARC
8
VISIBLE
10
127.055395
20
218.638465
30
0
40
3.23
50
272.186522
51
22.186522
0
ARC
8
VISIBLE
10
133.528648
20
223.394612
30
0
40
4.56
50
342.186522
51
202.186522
0
ARC
8
VISIBLE
10
140.345712
20
219.145897
30
0
40
3.23
50
162.186522
51
272.186522
0
ARC
8
VISIBLE
10
148.864233
20
203.537955
30
0
40
3.23
50
249.144062
51
359.144062
0
ARC
8
VISIBLE
10
144.259684
20
196.956005
30
0
40
4.56
50
69.144062
51
289.144062
0
ARC
8
VISIBLE
10
148.665552
20
190.239439
30
0
40
3.23
50
359.144062
51
109.144062
0
ARC
8
VISIBLE
10
139.997685
20
174.380694
30
0
40
3.23
50
88.530342
51
198.530342
0
ARC
8
VISIBLE
10
133.234312
20
170.047021
30
0
40
4.56
50
158.530342
51
18.530342
0
ARC
8
VISIBLE
10
126.70206
20
174.721806
30
0
40
3.23
50
338.530342
51
88.530342
0
ARC
8
VISIBLE
10
187.339835
20
189.352004
30
0
40
3.23
50
4.966779
51
114.966779
0
ARC
8
VISIBLE
10
182.275297
20
195.586938
30
0
40
4.56
50
74.966779
51
294.966779
0
ARC
8
VISIBLE
10
186.188346
20
202.602063
30
0
40
3.23
50
254.966779
51
4.966779
0
ARC
8
VISIBLE
10
200.63613
20
211.939372
30
0
40
3.23
50
341.379041
51
91.379041
0
ARC
8
VISIBLE
10
207.39264
20
207.595007
30
0
40
4.56
50
161.379041
51
21.379041
0
ARC
8
VISIBLE
10
213.932277
20
212.259456
30
0
40
3.23
50
91.379041
51
201.379041
0
ARC
8
VISIBLE
10
223.574779
20
203.075612
30
0
40
3.23
50
253.430073
51
3.430073
0
ARC
8
VISIBLE
10
219.475011
20
196.167947
30
0
40
4.56
50
73.430073
51
293.430073
0
ARC
8
VISIBLE
10
224.370522
20
189.799438
30
0
40
3.23
50
3.430073
51
113.430073
0
ARC
8
VISIBLE
10
216.608317
20
174.300232
30
0
40
3.23
50
89.752049
51
199.752049
0
ARC
8
VISIBLE
10
209.938881
20
169.823341
30
0
40
4.56
50
159.752049
51
19.752049
0
ARC
8
VISIBLE
10
203.308442
20
174.357788
30
0
40
3.23
50
339.752049
51
89.752049
0
ARC
8
VISIBLE
10
268.454437
20
190.923053
30
0
40
3.23
50
67.133359
51
177.133359
0
ARC
8
VISIBLE
10
273.287087
20
197.339394
30
0
40
4.56
50
247.133359
51
107.133359
0
ARC
8
VISIBLE
10
269.11959
20
204.20641
30
0
40
3.23
50
177.133359
51
287.133359
0
ARC
8
VISIBLE
10
278.483416
20
213.230427
30
0
40
3.23
50
337.613968
51
87.613968
0
ARC
8
VISIBLE
10
284.940069
20
208.451769
30
0
40
4.56
50
157.613968
51
17.613968
0
ARC
8
VISIBLE
10
291.771885
20
212.676721
30
0
40
3.23
50
87.613968
51
197.613968
0
ARC
8
VISIBLE
10
291.035785
20
180.990199
30
0
40
3.23
50
158.413967
51
268.413967
0
ARC
8
VISIBLE
10
284.513042
20
185.678242
30
0
40
4.56
50
338.413967
51
198.413967
0
ARC
8
VISIBLE
10
277.74088
20
181.358315
30
0
40
3.23
50
268.413967
51
18.413967
0
ARC
8
VISIBLE
10
41.574091
20
247.180542
30
0
40
3.23
50
181.562618
51
291.562618
0
ARC
8
VISIBLE
10
46.259469
20
240.655883
30
0
40
4.56
50
251.562618
51
111.562618
0
ARC
8
VISIBLE
10
41.936775
20
233.885488
30
0
40
3.23
50
71.562618
51
181.562618
0
ARC
8
VISIBLE
10
26.226279
20
224.57066
30
0
40
3.23
50
159.104938
51
269.104938
0
ARC
8
VISIBLE
10
19.647475
20
229.179702
30
0
40
4.56
50
339.104938
51
199.104938
0
ARC
8
VISIBLE
10
12.927902
20
224.778421
30
0
40
3.23
50
269.104938
51
19.104938
0
ARC
8
VISIBLE
10
73.143555
20
233.760157
30
0
40
3.23
50
0.824198
51
110.824198
0
ARC
8
VISIBLE
10
68.542653
20
240.344656
30
0
40
4.56
50
70.824198
51
290.824198
0
ARC
8
VISIBLE
10
72.952241
20
247.058781
30
0
40
3.23
50
250.824198
51
0.824198
0
ARC
8
VISIBLE
10
111.217315
20
247.061335
30
0
40
3.23
50
252.028151
51
2.028151
0
ARC
8
VISIBLE
10
106.949773
20
240.256041
30
0
40
4.56
50
72.028151
51
292.028151
0
ARC
8
VISIBLE
10
111.688009
20
233.769667
30
0
40
3.23
50
2.028151
51
112.028151
0
ARC
8
VISIBLE
10
102.595856
20
224.49104
30
0
40
3.23
50
160.218166
51
270.218166
0
ARC
8
VISIBLE
10
95.928747
20
228.971398
30
0
40
4.56
50
340.218166
51
200.218166
0
ARC
8
VISIBLE
10
89.295952
20
224.440398
30
0
40
3.23
50
270.218166
51
20.218166
0
ARC
8
VISIBLE
10
155.424464
20
234.609891
30
0
40
3.23
50
70.442965
51
180.442965
0
ARC
8
VISIBLE
10
159.878628
20
241.294526
30
0
40
4.56
50
250.442965
51
110.442965
0
ARC
8
VISIBLE
10
155.32164
20
247.909494
30
0
40
3.23
50
180.442965
51
290.442965
0
ARC
8
VISIBLE
10
192.691221
20
246.994404
30
0
40
3.23
50
177.568288
51
287.568288
0
ARC
8
VISIBLE
10
196.910725
20
240.159221
30
0
40
4.56
50
247.568288
51
107.568288
0
ARC
8
VISIBLE
10
192.12692
20
233.706381
30
0
40
3.23
50
67.568288
51
177.568288
0
ARC
8
VISIBLE
10
177.103121
20
224.92414
30
0
40
3.23
50
157.627798
51
267.627798
0
ARC
8
VISIBLE
10
170.645315
20
229.70124
30
0
40
4.56
50
337.627798
51
197.627798
0
ARC
8
VISIBLE
10
163.814519
20
225.474639
30
0
40
3.23
50
267.627798
51
17.627798
0
ARC
8
VISIBLE
10
229.905721
20
234.132671
30
0
40
3.23
50
67.031064
51
177.031064
0
ARC
8
VISIBLE
10
234.749818
20
240.540374
30
0
40
4.56
50
247.031064
51
107.031064
0
ARC
8
VISIBLE
10
230.594588
20
247.414819
30
0
40
3.23
50
177.031064
51
287.031064
0
ARC
8
VISIBLE
10
262.936792
20
248.13362
30
0
40
3.23
50
250.824265
51
0.824265
0
ARC
8
VISIBLE
10
258.527211
20
241.41949
30
0
40
4.56
50
70.824265
51
290.824265
0
ARC
8
VISIBLE
10
263.128121
20
234.834996
30
0
40
3.23
50
0.824265
51
110.824265
0
ARC
8
VISIBLE
10
253.027874
20
219.686887
30
0
40
3.23
50
91.669148
51
201.669148
0
ARC
8
VISIBLE
10
246.511938
20
214.989386
30
0
40
4.56
50
161.669148
51
21.669148
0
ARC
8
VISIBLE
10
239.733517
20
219.299484
30
0
40
3.23
50
341.669148
51
91.669148
0
ENDSEC
0
EOF
