0
SECTION
2
HEADER
9
$ACADVER
1
AC1015
9
$INSUNITS
70
4
0
ENDSEC
0
SECTION
2
TABLES
0
TABLE
2
LAYER
70
2
0
LAYER
2
VISIBLE
70
0
62
7
6
CONTINUOUS
0
LAYER
2
HIDDEN
70
0
62
8
6
DASHED
0
ENDTAB
0
ENDSEC
0
SECTION
2
ENTITIES
0
LINE
8
VISIBLE
10
125
20
225
30
0
11
-125
21
225
31
0
0
LINE
8
VISIBLE
10
125
20
225
30
0
11
125
21
100
31
0
0
LINE
8
VISIBLE
10
-125
20
225
30
0
11
-125
21
100
31
0
0
LINE
8
VISIBLE
10
-125
20
100
30
0
11
-40
21
-50
31
0
0
LINE
8
VISIBLE
10
-40
20
-50
30
0
11
40
21
-50
31
0
0
LINE
8
VISIBLE
10
40
20
-50
30
0
11
125
21
100
31
0
0
CIRCLE
8
VISIBLE
10
-77.5
20
150
30
0
40
2.75
0
CIRCLE
8
VISIBLE
10
-77.5
20
190
30
0
40
2.75
0
CIRCLE
8
VISIBLE
10
-42.5
20
150
30
0
40
2.75
0
CIRCLE
8
VISIBLE
10
-42.5
20
190
30
0
40
2.75
0
CIRCLE
8
VISIBLE
10
42.5
20
150
30
0
40
2.75
0
CIRCLE
8
VISIBLE
10
42.5
20
190
30
0
40
2.75
0
CIRCLE
8
VISIBLE
10
77.5
20
150
30
0
40
2.75
0
CIRCLE
8
VISIBLE
10
77.5
20
190
30
0
40
2.75
0
CIRCLE
8
VISIBLE
10
0
20
215
30
0
40
4.25
0
ENDSEC
0
EOF
